<?xml version="1.0" encoding="UTF-8" standalone="no"?><svg xmlns="http://www.w3.org/2000/svg" xmlns:xlink="http://www.w3.org/1999/xlink" contentStyleType="text/css" height="624px" preserveAspectRatio="none" style="width:772px;height:624px;background:#FFFFFF;" version="1.1" viewBox="0 0 772 624" width="772px" zoomAndPan="magnify"><defs/><g><line style="stroke:#181818;stroke-width:0.5;stroke-dasharray:5.0,5.0;" x1="40" x2="40" y1="82.6094" y2="617.6406"/><line style="stroke:#181818;stroke-width:0.5;stroke-dasharray:5.0,5.0;" x1="227.5" x2="227.5" y1="82.6094" y2="617.6406"/><line style="stroke:#181818;stroke-width:0.5;stroke-dasharray:5.0,5.0;" x1="510.5" x2="510.5" y1="82.6094" y2="617.6406"/><line style="stroke:#181818;stroke-width:0.5;stroke-dasharray:5.0,5.0;" x1="618.5" x2="618.5" y1="82.6094" y2="617.6406"/><line style="stroke:#181818;stroke-width:0.5;stroke-dasharray:5.0,5.0;" x1="720.5" x2="720.5" y1="82.6094" y2="617.6406"/><text fill="#000000" font-family="sans-serif" font-size="14" lengthAdjust="spacing" textLength="64" x="5" y="79.5332">Dr. Suwati</text><ellipse cx="40" cy="13.5" fill="#E2E2F0" rx="8" ry="8" style="stroke:#181818;stroke-width:0.5;"/><path d="M40,21.5 L40,48.5 M27,29.5 L53,29.5 M40,48.5 L27,63.5 M40,48.5 L53,63.5 " fill="none" style="stroke:#181818;stroke-width:0.5;"/><rect fill="#E2E2F0" height="31.6094" rx="2.5" ry="2.5" style="stroke:#181818;stroke-width:0.5;" width="109" x="173.5" y="50"/><text fill="#000000" font-family="sans-serif" font-size="14" lengthAdjust="spacing" textLength="95" x="180.5" y="71.5332">New Hope EHR</text><rect fill="#E2E2F0" height="49.2188" rx="2.5" ry="2.5" style="stroke:#181818;stroke-width:0.5;" width="101" x="460.5" y="32.3906"/><text fill="#000000" font-family="sans-serif" font-size="14" lengthAdjust="spacing" textLength="87" x="467.5" y="53.9238">Valley Region</text><text fill="#000000" font-family="sans-serif" font-size="14" lengthAdjust="spacing" textLength="82" x="470" y="71.5332">HIE Directory</text><rect fill="#E2E2F0" height="49.2188" rx="2.5" ry="2.5" style="stroke:#181818;stroke-width:0.5;" width="94" x="571.5" y="32.3906"/><text fill="#000000" font-family="sans-serif" font-size="14" lengthAdjust="spacing" textLength="80" x="578.5" y="53.9238">Central PDQ</text><text fill="#000000" font-family="sans-serif" font-size="14" lengthAdjust="spacing" textLength="64" x="586.5" y="71.5332">: Endpoint</text><rect fill="#E2E2F0" height="49.2188" rx="2.5" ry="2.5" style="stroke:#181818;stroke-width:0.5;" width="91" x="675.5" y="32.3906"/><text fill="#000000" font-family="sans-serif" font-size="14" lengthAdjust="spacing" textLength="77" x="682.5" y="53.9238">Central XDS</text><text fill="#000000" font-family="sans-serif" font-size="14" lengthAdjust="spacing" textLength="64" x="689" y="71.5332">: Endpoint</text><polygon fill="#181818" points="216,176.3672,226,180.3672,216,184.3672,220,180.3672" style="stroke:#181818;stroke-width:1.0;"/><line style="stroke:#181818;stroke-width:1.0;" x1="40" x2="222" y1="180.3672" y2="180.3672"/><text fill="#000000" font-family="sans-serif" font-size="13" lengthAdjust="spacing" textLength="86" x="47" y="110.1045">Kick off search</text><text fill="#000000" font-family="sans-serif" font-size="13" lengthAdjust="spacing" textLength="126" x="47" y="126.4561">given known locations</text><text fill="#000000" font-family="sans-serif" font-size="13" lengthAdjust="spacing" textLength="69" x="47" y="142.8076">of treatment</text><text fill="#000000" font-family="sans-serif" font-size="13" lengthAdjust="spacing" textLength="164" x="47" y="159.1592">"Valley Access Healthcare",</text><text fill="#000000" font-family="sans-serif" font-size="13" lengthAdjust="spacing" textLength="70" x="47" y="175.5107">"OU Health"</text><polygon fill="#181818" points="499,223.0703,509,227.0703,499,231.0703,503,227.0703" style="stroke:#181818;stroke-width:1.0;"/><line style="stroke:#181818;stroke-width:1.0;" x1="228" x2="505" y1="227.0703" y2="227.0703"/><text fill="#000000" font-family="sans-serif" font-size="13" lengthAdjust="spacing" textLength="259" x="235" y="205.8623">Search Orgs for "Valley Access Healthcare",</text><text fill="#000000" font-family="sans-serif" font-size="13" lengthAdjust="spacing" textLength="159" x="235" y="222.2139">"OU Health" by name, alias</text><polygon fill="#181818" points="239,253.4219,229,257.4219,239,261.4219,235,257.4219" style="stroke:#181818;stroke-width:1.0;"/><line style="stroke:#181818;stroke-width:1.0;stroke-dasharray:2.0,2.0;" x1="233" x2="510" y1="257.4219" y2="257.4219"/><text fill="#000000" font-family="sans-serif" font-size="13" lengthAdjust="spacing" textLength="146" x="245" y="252.5654">: Org 1.2.3.2, Org 1.2.3.3</text><path d="M125,270.4219 L125,312.4219 L330,312.4219 L330,280.4219 L320,270.4219 L125,270.4219 " fill="#FEFFDD" style="stroke:#181818;stroke-width:0.5;"/><path d="M320,270.4219 L320,280.4219 L330,280.4219 L320,270.4219 " fill="#FEFFDD" style="stroke:#181818;stroke-width:0.5;"/><text fill="#000000" font-family="sans-serif" font-size="13" lengthAdjust="spacing" textLength="107" x="131" y="288.917">Can I get to them?</text><text fill="#000000" font-family="sans-serif" font-size="13" lengthAdjust="spacing" textLength="184" x="131" y="305.2686">I know I'm in Valley Region HIE.</text><polygon fill="#181818" points="499,352.8281,509,356.8281,499,360.8281,503,356.8281" style="stroke:#181818;stroke-width:1.0;"/><line style="stroke:#181818;stroke-width:1.0;" x1="228" x2="505" y1="356.8281" y2="356.8281"/><text fill="#000000" font-family="sans-serif" font-size="13" lengthAdjust="spacing" textLength="181" x="235" y="335.6201">Check if orgs have membership</text><text fill="#000000" font-family="sans-serif" font-size="13" lengthAdjust="spacing" textLength="132" x="235" y="351.9717">in Valley HIE by partOf</text><polygon fill="#181818" points="239,383.1797,229,387.1797,239,391.1797,235,387.1797" style="stroke:#181818;stroke-width:1.0;"/><line style="stroke:#181818;stroke-width:1.0;stroke-dasharray:2.0,2.0;" x1="233" x2="510" y1="387.1797" y2="387.1797"/><text fill="#000000" font-family="sans-serif" font-size="13" lengthAdjust="spacing" textLength="51" x="245" y="382.3232">: they do</text><polygon fill="#181818" points="499,413.5313,509,417.5313,499,421.5313,503,417.5313" style="stroke:#181818;stroke-width:1.0;"/><line style="stroke:#181818;stroke-width:1.0;" x1="228" x2="505" y1="417.5313" y2="417.5313"/><text fill="#000000" font-family="sans-serif" font-size="13" lengthAdjust="spacing" textLength="245" x="235" y="412.6748">Check Valley HIE for PDQ, XDS endpoints</text><polygon fill="#181818" points="239,443.8828,229,447.8828,239,451.8828,235,447.8828" style="stroke:#181818;stroke-width:1.0;"/><line style="stroke:#181818;stroke-width:1.0;stroke-dasharray:2.0,2.0;" x1="233" x2="510" y1="447.8828" y2="447.8828"/><text fill="#000000" font-family="sans-serif" font-size="13" lengthAdjust="spacing" textLength="129" x="245" y="443.0264">: PDQ, XDS endpoints</text><polygon fill="#181818" points="606.5,474.2344,616.5,478.2344,606.5,482.2344,610.5,478.2344" style="stroke:#181818;stroke-width:1.0;"/><line style="stroke:#181818;stroke-width:1.0;" x1="228" x2="612.5" y1="478.2344" y2="478.2344"/><text fill="#000000" font-family="sans-serif" font-size="13" lengthAdjust="spacing" textLength="147" x="235" y="473.3779">Match "Vanna Patterson"</text><polygon fill="#181818" points="239,504.5859,229,508.5859,239,512.5859,235,508.5859" style="stroke:#181818;stroke-width:1.0;"/><line style="stroke:#181818;stroke-width:1.0;stroke-dasharray:2.0,2.0;" x1="233" x2="617.5" y1="508.5859" y2="508.5859"/><text fill="#000000" font-family="sans-serif" font-size="13" lengthAdjust="spacing" textLength="66" x="245" y="503.7295">: Match(es)</text><polygon fill="#181818" points="709,534.9375,719,538.9375,709,542.9375,713,538.9375" style="stroke:#181818;stroke-width:1.0;"/><line style="stroke:#181818;stroke-width:1.0;" x1="228" x2="715" y1="538.9375" y2="538.9375"/><text fill="#000000" font-family="sans-serif" font-size="13" lengthAdjust="spacing" textLength="89" x="235" y="534.0811">Get documents</text><polygon fill="#181818" points="239,565.2891,229,569.2891,239,573.2891,235,569.2891" style="stroke:#181818;stroke-width:1.0;"/><line style="stroke:#181818;stroke-width:1.0;stroke-dasharray:2.0,2.0;" x1="233" x2="720" y1="569.2891" y2="569.2891"/><text fill="#000000" font-family="sans-serif" font-size="13" lengthAdjust="spacing" textLength="245" x="245" y="564.4326">: Documents, including from Urgent Health</text><polygon fill="#181818" points="51,595.6406,41,599.6406,51,603.6406,47,599.6406" style="stroke:#181818;stroke-width:1.0;"/><line style="stroke:#181818;stroke-width:1.0;stroke-dasharray:2.0,2.0;" x1="45" x2="227" y1="599.6406" y2="599.6406"/><text fill="#000000" font-family="sans-serif" font-size="13" lengthAdjust="spacing" textLength="74" x="57" y="594.7842">: Documents</text><!--MD5=[2cbccfd7b30175f4e937d3f2534dd060]
@startuml
hide footbox

actor "Dr. Suwati" as actor1
participant "New Hope EHR" as ehr
participant "Valley Region\nHIE Directory" as dir
participant "Central PDQ\n: Endpoint" as xcpd
participant "Central XDS\n: Endpoint" as xca


actor1 -> ehr: Kick off search\ngiven known locations\nof treatment\n"Valley Access Healthcare",\n"OU Health"
ehr -> dir: Search Orgs for "Valley Access Healthcare",\n"OU Health" by name, alias
dir - -> ehr: : Org 1.2.3.2, Org 1.2.3.3
note over ehr : Can I get to them?\nI know I'm in Valley Region HIE.

ehr -> dir: Check if orgs have membership\nin Valley HIE by partOf
dir - -> ehr: : they do

ehr -> dir: Check Valley HIE for PDQ, XDS endpoints
dir - -> ehr: : PDQ, XDS endpoints

ehr -> xcpd : Match "Vanna Patterson"
xcpd - -> ehr: : Match(es)

ehr -> xca : Get documents
xca - -> ehr: : Documents, including from Urgent Health
ehr - -> actor1: : Documents

@enduml

PlantUML version 1.2022.7(Mon Aug 22 12:01:30 CDT 2022)
(GPL source distribution)
Java Runtime: OpenJDK Runtime Environment
JVM: OpenJDK 64-Bit Server VM
Default Encoding: Cp1252
Language: en
Country: US
--></g></svg>