<?xml version="1.0" encoding="UTF-8" standalone="no"?><svg xmlns="http://www.w3.org/2000/svg" xmlns:xlink="http://www.w3.org/1999/xlink" contentStyleType="text/css" height="268px" preserveAspectRatio="none" style="width:762px;height:268px;background:#FFFFFF;" version="1.1" viewBox="0 0 762 268" width="762px" zoomAndPan="magnify"><defs/><g><g id="elem_Partners"><rect fill="#F1F1F1" height="64.8281" style="stroke:#181818;stroke-width:0.5;" width="131" x="7" y="12"/><text fill="#000000" font-family="sans-serif" font-size="14" lengthAdjust="spacing" textLength="84" x="30.5" y="28.5332">:Organization</text><line style="stroke:#181818;stroke-width:0.5;" x1="8" x2="137" y1="33.6094" y2="33.6094"/><text fill="#000000" font-family="sans-serif" font-size="14" lengthAdjust="spacing" textLength="119" x="13" y="52.1426">name = "New Hope</text><text fill="#000000" font-family="sans-serif" font-size="14" lengthAdjust="spacing" textLength="111" x="13" y="69.752">Medical Partners"</text></g><g id="elem_GMN3"><path d="M173.5,23 L173.5,40.5 L138.32,44.5 L173.5,48.5 L173.5,65.7031 A0,0 0 0 0 173.5,65.7031 L303.5,65.7031 A0,0 0 0 0 303.5,65.7031 L303.5,33 L293.5,23 L173.5,23 A0,0 0 0 0 173.5,23 " fill="#FEFFDD" style="stroke:#181818;stroke-width:0.5;"/><path d="M293.5,23 L293.5,33 L303.5,33 L293.5,23 " fill="#FEFFDD" style="stroke:#181818;stroke-width:0.5;"/><text fill="#000000" font-family="sans-serif" font-size="13" lengthAdjust="spacing" textLength="109" x="179.5" y="41.4951">Needs to message</text><text fill="#000000" font-family="sans-serif" font-size="13" lengthAdjust="spacing" textLength="97" x="179.5" y="57.8467">University Health</text></g><!--MD5=[ffb3c085463307fae7ebb353cb54ee43]
entity hie--><g id="elem_hie"><path d="M348.476,28.6865 C352.6741,23.7998 356.4171,24.1374 360.0487,29.3365 C363.187,23.7987 367.6481,22.4098 371.7616,28.3404 C375.0533,22.0449 380.7312,21.2299 384.9768,27.3228 C388.59,19.8906 392.8363,20.3618 398.3831,25.2123 C401.2668,19.085 406.927,16.8112 411.5131,23.4631 C415.8964,16.8639 421.2304,17.6939 424.2431,24.7416 C428.7643,19.8037 434.7894,20.3236 436.8343,27.3481 C440.5254,21.1232 444.6087,22.294 448.615,27.0087 C453.039,20.3862 457.9545,20.95 461.5784,27.7798 C466.5562,23.293 470.7606,22.1659 474.0025,29.5903 C483.3227,32.7053 482.6962,40.3256 476.2732,45.6646 C482.1869,51.1097 480.0505,58.4414 472.86,60.9629 C469.0087,66.6969 465.0409,67.0984 461.3703,60.7905 C457.7684,67.4236 452.3119,67.8827 447.3693,62.3311 C443.084,68.2154 437.7775,67.8085 434.8835,60.9661 C432.211,67.5566 427.4582,68.4904 422.9288,62.7692 C418.5777,69.391 413.7291,69.3463 409.6379,62.5123 C405.9359,68.1211 400.3213,67.4687 397.9004,61.2419 C394.8521,66.2215 389.9163,66.4337 386.2846,61.9587 C381.2298,67.1348 376.8734,67.2539 372.9558,60.6699 C369.4742,67.7349 362.8487,67.1206 359.2171,60.8241 C355.5588,65.5754 351.5134,66.2888 348.3117,60.3579 C339.883,59.7157 337.1375,52.4385 341.1894,45.7226 C334.6105,36.821 337.9037,30.2523 348.476,28.6865 " fill="#F1F1F1" style="stroke:#181818;stroke-width:0.5;"/><text fill="#000000" font-family="sans-serif" font-size="14" lengthAdjust="spacing" textLength="112" x="353.5" y="50.0332">Valley Region HIE</text></g><g id="elem_Valley"><rect fill="#F1F1F1" height="82.4375" style="stroke:#181818;stroke-width:0.5;" width="155" x="140" y="170.5"/><text fill="#000000" font-family="sans-serif" font-size="14" lengthAdjust="spacing" textLength="84" x="175.5" y="187.0332">:Organization</text><line style="stroke:#181818;stroke-width:0.5;" x1="141" x2="294" y1="192.1094" y2="192.1094"/><text fill="#000000" font-family="sans-serif" font-size="14" lengthAdjust="spacing" textLength="143" x="146" y="210.6426">name = "Valley Access</text><text fill="#000000" font-family="sans-serif" font-size="14" lengthAdjust="spacing" textLength="73" x="146" y="228.252">Healthcare"</text><text fill="#000000" font-family="sans-serif" font-size="14" lengthAdjust="spacing" textLength="97" x="146" y="245.8613">OrgID = 1.2.3.2</text></g><g id="elem_OU"><rect fill="#F1F1F1" height="100.0469" style="stroke:#181818;stroke-width:0.5;" width="185" x="557" y="161.5"/><text fill="#000000" font-family="sans-serif" font-size="14" lengthAdjust="spacing" textLength="84" x="607.5" y="178.0332">:Organization</text><line style="stroke:#181818;stroke-width:0.5;" x1="558" x2="741" y1="183.1094" y2="183.1094"/><text fill="#000000" font-family="sans-serif" font-size="14" lengthAdjust="spacing" textLength="166" x="563" y="201.6426">name = "University Health"</text><text fill="#000000" font-family="sans-serif" font-size="14" lengthAdjust="spacing" textLength="173" x="563" y="219.252">alias = "OU Health System",</text><text fill="#000000" font-family="sans-serif" font-size="14" lengthAdjust="spacing" textLength="74" x="563" y="236.8613">"OU Health"</text><text fill="#000000" font-family="sans-serif" font-size="14" lengthAdjust="spacing" textLength="97" x="563" y="254.4707">OrgID = 1.2.3.3</text></g><g id="elem_Urgent"><rect fill="#F1F1F1" height="64.8281" style="stroke:#181818;stroke-width:0.5;" width="159" x="330" y="179"/><text fill="#000000" font-family="sans-serif" font-size="14" lengthAdjust="spacing" textLength="84" x="367.5" y="195.5332">:Organization</text><line style="stroke:#181818;stroke-width:0.5;" x1="331" x2="488" y1="200.6094" y2="200.6094"/><text fill="#000000" font-family="sans-serif" font-size="14" lengthAdjust="spacing" textLength="147" x="336" y="219.1426">name = "Urgent Health"</text><text fill="#000000" font-family="sans-serif" font-size="14" lengthAdjust="spacing" textLength="97" x="336" y="236.752">OrgID = 4.5.6.7</text></g><!--MD5=[54f85bce687fcebdc119c895bfd27c35]
entity specialist--><g id="elem_specialist"><ellipse cx="683.5" cy="14" fill="#F1F1F1" rx="8" ry="8" style="stroke:#181818;stroke-width:0.5;"/><path d="M683.5,22 L683.5,49 M670.5,30 L696.5,30 M683.5,49 L670.5,64 M683.5,49 L696.5,64 " fill="none" style="stroke:#181818;stroke-width:0.5;"/><text fill="#000000" font-family="sans-serif" font-size="14" lengthAdjust="spacing" textLength="67" x="650" y="80.0332">Dr. Santos</text></g><!--MD5=[6d4b6e1e0e117ff9329e408a04396ed0]
link hie to Valley--><g id="link_hie_Valley"><path codeLine="23" d="M366.48,68.63 C345.83,80.69 321.34,96.47 301.5,113.5 C281.89,130.33 262.81,151.83 247.8,170.3 " fill="none" id="hie-Valley" style="stroke:#181818;stroke-width:1.0;"/><text fill="#000000" font-family="sans-serif" font-size="13" lengthAdjust="spacing" textLength="95" x="302.5" y="127.9951">«participates in»</text></g><!--MD5=[e40bc51e5d67fdbba754f4ea4c99bf71]
link hie to OU--><g id="link_hie_OU"><path codeLine="24" d="M443.12,68.62 C477.96,92.56 533.44,130.71 578.11,161.42 " fill="none" id="hie-OU" style="stroke:#181818;stroke-width:1.0;"/><text fill="#000000" font-family="sans-serif" font-size="13" lengthAdjust="spacing" textLength="95" x="530.5" y="127.9951">«participates in»</text></g><!--MD5=[8fce2fbddeeaad2de31e64710f4f8b27]
link hie to Urgent--><g id="link_hie_Urgent"><path codeLine="25" d="M408.22,68.78 C407.56,81.91 406.83,98.61 406.5,113.5 C406.02,135.23 406.79,159.69 407.66,178.61 " fill="none" id="hie-Urgent" style="stroke:#181818;stroke-width:1.0;"/><text fill="#000000" font-family="sans-serif" font-size="13" lengthAdjust="spacing" textLength="95" x="407.5" y="127.9951">«participates in»</text></g><!--MD5=[d0c838acd875e8e9c3ddecf4e82446a1]
link specialist to OU--><g id="link_specialist_OU"><path codeLine="28" d="M675.61,83.77 C670.85,106.9 664.72,136.62 659.6,161.47 " fill="none" id="specialist-OU" style="stroke:#181818;stroke-width:1.0;"/><text fill="#000000" font-family="sans-serif" font-size="13" lengthAdjust="spacing" textLength="85" x="669.5" y="127.9951">«practices for»</text></g><!--MD5=[22944b72a58be61bb5980bccb78558bf]
@startuml access-orgs-practitioner-abstract
hide footbox
allowmixing

object ":Organization" as Partners
Partners : name = "New Hope\nMedical Partners"
note right : Needs to message\nUniversity Health

cloud "Valley Region HIE" as hie

object ":Organization" as Valley
Valley : name = "Valley Access\nHealthcare"
Valley : OrgID = 1.2.3.2

object ":Organization" as OU
OU : name = "University Health"
OU : alias = "OU Health System",\n"OU Health"
OU : OrgID = 1.2.3.3

object ":Organization" as Urgent
Urgent : name = "Urgent Health"
Urgent : OrgID = 4.5.6.7

hie - - Valley : <<participates in>>
hie - - OU : <<participates in>>
hie - - Urgent : <<participates in>>

actor "Dr. Santos" as specialist
specialist - - OU : <<practices for>>

@enduml

PlantUML version 1.2022.7(Mon Aug 22 12:01:30 CDT 2022)
(GPL source distribution)
Java Runtime: OpenJDK Runtime Environment
JVM: OpenJDK 64-Bit Server VM
Default Encoding: Cp1252
Language: en
Country: US
--></g></svg>