<?xml version="1.0" encoding="UTF-8" standalone="no"?><svg xmlns="http://www.w3.org/2000/svg" xmlns:xlink="http://www.w3.org/1999/xlink" contentStyleType="text/css" height="325px" preserveAspectRatio="none" style="width:725px;height:325px;background:#FFFFFF;" version="1.1" viewBox="0 0 725 325" width="725px" zoomAndPan="magnify"><defs/><g><!--MD5=[d29ba9a0f2edbc88a4a47adb820d6234]
cluster community--><g id="cluster_community"><path d="M8.5,6 L148.5,6 A3.75,3.75 0 0 1 151,8.5 L158,28.2969 L715.5,28.2969 A2.5,2.5 0 0 1 718,30.7969 L718,315.5 A2.5,2.5 0 0 1 715.5,318 L8.5,318 A2.5,2.5 0 0 1 6,315.5 L6,8.5 A2.5,2.5 0 0 1 8.5,6 " fill="none" style="stroke:#000000;stroke-width:1.5;"/><line style="stroke:#000000;stroke-width:1.5;" x1="6" x2="158" y1="28.2969" y2="28.2969"/><text fill="#000000" font-family="sans-serif" font-size="14" font-weight="bold" lengthAdjust="spacing" textLength="139" x="10" y="20.9951">Valley Region HIE</text></g><!--MD5=[9461c0695b4b28cd08b7823bd05a53c0]
cluster hie--><g id="cluster_hie"><rect fill="none" height="146" rx="2.5" ry="2.5" style="stroke:#181818;stroke-width:1.0;" width="648" x="38" y="57"/><text fill="#000000" font-family="sans-serif" font-size="14" font-weight="bold" lengthAdjust="spacing" textLength="188" x="268" y="71.9951">Network Infrastructure</text><text fill="#000000" font-family="sans-serif" font-size="14" font-weight="bold" lengthAdjust="spacing" textLength="79" x="322.5" y="88.292">valley.org</text></g><!--MD5=[6de611e34682f669701aef2da7d6fd87]
entity ds1--><g id="elem_ds1"><polygon fill="#F1F1F1" points="63,249,73,239,179,239,179,291.5938,169,301.5938,63,301.5938,63,249" style="stroke:#181818;stroke-width:0.5;"/><line style="stroke:#181818;stroke-width:0.5;" x1="169" x2="179" y1="249" y2="239"/><line style="stroke:#181818;stroke-width:0.5;" x1="63" x2="169" y1="249" y2="249"/><line style="stroke:#181818;stroke-width:0.5;" x1="169" x2="169" y1="249" y2="301.5938"/><text fill="#000000" font-family="sans-serif" font-size="14" lengthAdjust="spacing" textLength="49" x="78" y="271.9951">Access</text><text fill="#000000" font-family="sans-serif" font-size="14" lengthAdjust="spacing" textLength="76" x="78" y="288.292">access.org</text></g><!--MD5=[da2d07cc0b900e88034fd536c6a593b5]
entity ds2--><g id="elem_ds2"><polygon fill="#F1F1F1" points="257.5,249,267.5,239,396.5,239,396.5,291.5938,386.5,301.5938,257.5,301.5938,257.5,249" style="stroke:#181818;stroke-width:0.5;"/><line style="stroke:#181818;stroke-width:0.5;" x1="386.5" x2="396.5" y1="249" y2="239"/><line style="stroke:#181818;stroke-width:0.5;" x1="257.5" x2="386.5" y1="249" y2="249"/><line style="stroke:#181818;stroke-width:0.5;" x1="386.5" x2="386.5" y1="249" y2="301.5938"/><text fill="#000000" font-family="sans-serif" font-size="14" lengthAdjust="spacing" textLength="71" x="272.5" y="271.9951">University</text><text fill="#000000" font-family="sans-serif" font-size="14" lengthAdjust="spacing" textLength="99" x="272.5" y="288.292">university.org</text></g><!--MD5=[3a4680e5c359b65c0291043481604b4c]
entity ds3--><g id="elem_ds3"><polygon fill="#F1F1F1" points="476.5,249,486.5,239,593.5,239,593.5,291.5938,583.5,301.5938,476.5,301.5938,476.5,249" style="stroke:#181818;stroke-width:0.5;"/><line style="stroke:#181818;stroke-width:0.5;" x1="583.5" x2="593.5" y1="249" y2="239"/><line style="stroke:#181818;stroke-width:0.5;" x1="476.5" x2="583.5" y1="249" y2="249"/><line style="stroke:#181818;stroke-width:0.5;" x1="583.5" x2="583.5" y1="249" y2="301.5938"/><text fill="#000000" font-family="sans-serif" font-size="14" lengthAdjust="spacing" textLength="49" x="491.5" y="271.9951">Urgent</text><text fill="#000000" font-family="sans-serif" font-size="14" lengthAdjust="spacing" textLength="77" x="491.5" y="288.292">urgent.org</text></g><!--MD5=[c3dd7293d4e74cc67bec6d68663a773e]
entity p1--><g id="elem_p1"><polygon fill="#F1F1F1" points="81,126,91,116,243,116,243,168.5938,233,178.5938,81,178.5938,81,126" style="stroke:#181818;stroke-width:0.5;"/><line style="stroke:#181818;stroke-width:0.5;" x1="233" x2="243" y1="126" y2="116"/><line style="stroke:#181818;stroke-width:0.5;" x1="81" x2="233" y1="126" y2="126"/><line style="stroke:#181818;stroke-width:0.5;" x1="233" x2="233" y1="126" y2="178.5938"/><text fill="#000000" font-family="sans-serif" font-size="14" lengthAdjust="spacing" textLength="93" x="96" y="148.9951">Access Proxy</text><text fill="#000000" font-family="sans-serif" font-size="14" lengthAdjust="spacing" textLength="122" x="96" y="165.292">valley.org/access</text></g><!--MD5=[f3929e065b321440b4eee273bd9781ea]
entity p2--><g id="elem_p2"><polygon fill="#F1F1F1" points="278.5,126,288.5,116,463.5,116,463.5,168.5938,453.5,178.5938,278.5,178.5938,278.5,126" style="stroke:#181818;stroke-width:0.5;"/><line style="stroke:#181818;stroke-width:0.5;" x1="453.5" x2="463.5" y1="126" y2="116"/><line style="stroke:#181818;stroke-width:0.5;" x1="278.5" x2="453.5" y1="126" y2="126"/><line style="stroke:#181818;stroke-width:0.5;" x1="453.5" x2="453.5" y1="126" y2="178.5938"/><text fill="#000000" font-family="sans-serif" font-size="14" lengthAdjust="spacing" textLength="115" x="293.5" y="148.9951">University Proxy</text><text fill="#000000" font-family="sans-serif" font-size="14" lengthAdjust="spacing" textLength="145" x="293.5" y="165.292">valley.org/university</text></g><!--MD5=[e37156ec2c7d0a63c8d30e6af773044e]
entity p3--><g id="elem_p3"><polygon fill="#F1F1F1" points="498.5,126,508.5,116,661.5,116,661.5,168.5938,651.5,178.5938,498.5,178.5938,498.5,126" style="stroke:#181818;stroke-width:0.5;"/><line style="stroke:#181818;stroke-width:0.5;" x1="651.5" x2="661.5" y1="126" y2="116"/><line style="stroke:#181818;stroke-width:0.5;" x1="498.5" x2="651.5" y1="126" y2="126"/><line style="stroke:#181818;stroke-width:0.5;" x1="651.5" x2="651.5" y1="126" y2="178.5938"/><text fill="#000000" font-family="sans-serif" font-size="14" lengthAdjust="spacing" textLength="93" x="513.5" y="148.9951">Urgent Proxy</text><text fill="#000000" font-family="sans-serif" font-size="14" lengthAdjust="spacing" textLength="123" x="513.5" y="165.292">valley.org/urgent</text></g><!--MD5=[504245137a115d41758eaabbaaf49fad]
link p1 to ds1--><g id="link_p1_ds1"><path d="M130,179.176 C130,179.176 130,233.932 130,233.932 " fill="none" id="p1-to-ds1" style="stroke:#181818;stroke-width:1.0;"/><polygon fill="#181818" points="130,238.9318,134,229.9318,130,233.9318,126,229.9318,130,238.9318" style="stroke:#181818;stroke-width:1.0;"/></g><!--MD5=[810751552d50077d71b98896fea4460c]
link p2 to ds2--><g id="link_p2_ds2"><path d="M337.5,179.176 C337.5,179.176 337.5,233.932 337.5,233.932 " fill="none" id="p2-to-ds2" style="stroke:#181818;stroke-width:1.0;"/><polygon fill="#181818" points="337.5,238.9318,341.5,229.9318,337.5,233.9318,333.5,229.9318,337.5,238.9318" style="stroke:#181818;stroke-width:1.0;"/></g><!--MD5=[55048c2597f29622a689e45d2c56ab45]
link p3 to ds3--><g id="link_p3_ds3"><path d="M546,179.176 C546,179.176 546,233.932 546,233.932 " fill="none" id="p3-to-ds3" style="stroke:#181818;stroke-width:1.0;"/><polygon fill="#181818" points="546,238.9318,550,229.9318,546,233.9318,542,229.9318,546,238.9318" style="stroke:#181818;stroke-width:1.0;"/></g><!--MD5=[d4b4e3e7d565b027e2447ed485070241]
reverse link hie to ds1--><g id="link_hie_ds1"><path d="M72,203.2052 C72,203.3643 72,203.5235 72,203.6827 C72,204.3196 72,204.9574 72,205.5956 C72,206.8721 72,208.1508 72,209.4293 C72,219.6576 72,229.8791 72,238.9532 " fill="none" id="hie-backto-ds1" style="stroke:#181818;stroke-width:1.0;"/><polygon fill="#181818" points="72,203.2052,68,212.2052,72,208.2052,76,212.2052,72,203.2052" style="stroke:#181818;stroke-width:1.0;"/></g><!--MD5=[ba3bb7e5a99e553f3f0aff7743f0508b]
reverse link hie to ds2--><g id="link_hie_ds2"><path d="M46,203.19 C46,203.2604 46,203.3303 46,203.3997 C46,203.5385 46,203.6751 46,203.8095 C46,204.8849 46,205.8201 46,206.5891 C46,208.127 46,209 46,209 C46,209 268,209 268,209 C268,209 268,223.663 268,238.6691 " fill="none" id="hie-backto-ds2" style="stroke:#181818;stroke-width:1.0;"/><polygon fill="#181818" points="46,203.19,42,212.19,46,208.19,50,212.19,46,203.19" style="stroke:#181818;stroke-width:1.0;"/></g><!--MD5=[2761e2221618ee7f53247c9633f2f4f7]
reverse link hie to ds3--><g id="link_hie_ds3"><path d="M487.5,203.0815 C487.5,203.5605 487.5,204.0388 487.5,204.5161 C487.5,205.4709 487.5,206.4221 487.5,207.3693 C487.5,211.158 487.5,214.8825 487.5,218.5105 C487.5,225.7664 487.5,232.6359 487.5,238.8608 " fill="none" id="hie-backto-ds3" style="stroke:#181818;stroke-width:1.0;"/><polygon fill="#181818" points="487.5,203.0815,483.5,212.0815,487.5,208.0815,491.5,212.0815,487.5,203.0815" style="stroke:#181818;stroke-width:1.0;"/></g><!--MD5=[52c40fc4f952f48595f3f6ee63bec192]
@startuml
skinparam linetype ortho
package "Valley Region HIE" as community {
rectangle "Network Infrastructure\nvalley.org" as hie {
node p1 as "Access Proxy\nvalley.org/access"
node p2 as "University Proxy\nvalley.org/university"
node p3 as "Urgent Proxy\nvalley.org/urgent"
}
node ds1 as "Access\naccess.org"
node ds2 as "University\nuniversity.org"
node ds3 as "Urgent\nurgent.org"
}

p1 - -> ds1
p2 - -> ds2
p3 - -> ds3

hie <- - ds1
hie <- - ds2
hie <- - ds3
@enduml

PlantUML version 1.2022.13beta8(Unknown compile time)
(GPL source distribution)
Java Runtime: Java(TM) SE Runtime Environment
JVM: Java HotSpot(TM) 64-Bit Server VM
Default Encoding: UTF-8
Language: en
Country: US
--></g></svg>