<?xml version="1.0" encoding="UTF-8" standalone="no"?><svg xmlns="http://www.w3.org/2000/svg" xmlns:xlink="http://www.w3.org/1999/xlink" contentStyleType="text/css" height="277px" preserveAspectRatio="none" style="width:993px;height:277px;background:#FFFFFF;" version="1.1" viewBox="0 0 993 277" width="993px" zoomAndPan="magnify"><defs/><g><g id="elem_Partners"><rect fill="#F1F1F1" height="60.8906" style="stroke:#181818;stroke-width:0.5;" width="150" x="311.5" y="23"/><text fill="#000000" font-family="sans-serif" font-size="14" lengthAdjust="spacing" textLength="97" x="338" y="37.9951">:Organization</text><line style="stroke:#181818;stroke-width:0.5;" x1="312.5" x2="460.5" y1="43.2969" y2="43.2969"/><text fill="#000000" font-family="sans-serif" font-size="14" lengthAdjust="spacing" textLength="138" x="317.5" y="60.292">name = "New Hope</text><text fill="#000000" font-family="sans-serif" font-size="14" lengthAdjust="spacing" textLength="126" x="317.5" y="76.5889">Medical Partners"</text></g><g id="elem_hie2"><rect fill="#F1F1F1" height="60.8906" style="stroke:#181818;stroke-width:0.5;" width="122" x="47.5" y="23"/><text fill="#000000" font-family="sans-serif" font-size="14" lengthAdjust="spacing" textLength="82" x="67.5" y="37.9951">Seaside HIE</text><line style="stroke:#181818;stroke-width:0.5;" x1="48.5" x2="168.5" y1="43.2969" y2="43.2969"/><text fill="#000000" font-family="sans-serif" font-size="14" lengthAdjust="spacing" textLength="110" x="53.5" y="60.292">OrgID = 9.8.7.6</text><text fill="#000000" font-family="sans-serif" font-size="14" lengthAdjust="spacing" textLength="90" x="53.5" y="76.5889">HCID = 9.8.7</text></g><g id="elem_sEndpoints"><rect fill="#F1F1F1" height="93.4844" style="stroke:#181818;stroke-width:0.5;" width="203" x="7" y="177"/><text fill="#000000" font-family="sans-serif" font-size="14" lengthAdjust="spacing" textLength="92" x="62.5" y="191.9951">: Endpoint(s)</text><line style="stroke:#181818;stroke-width:0.5;" x1="8" x2="209" y1="197.2969" y2="197.2969"/><text fill="#000000" font-family="sans-serif" font-size="14" lengthAdjust="spacing" textLength="132" x="13" y="214.292">connectionType =</text><text fill="#000000" font-family="sans-serif" font-size="14" lengthAdjust="spacing" textLength="149" x="21" y="230.5889">PDQ-Supplier-Query,</text><text fill="#000000" font-family="sans-serif" font-size="14" lengthAdjust="spacing" textLength="148" x="21" y="246.8857">XDS-Registry-Query,</text><text fill="#000000" font-family="sans-serif" font-size="14" lengthAdjust="spacing" textLength="183" x="21" y="263.1826">XDS-Repository-Retrieve</text></g><g id="elem_GMN6"><path d="M205,26 L205,49.5 L169.602,53.5 L205,57.5 L205,81.3984 A0,0 0 0 0 205,81.3984 L276,81.3984 A0,0 0 0 0 276,81.3984 L276,36 L266,26 L205,26 A0,0 0 0 0 205,26 " fill="#FEFFDD" style="stroke:#181818;stroke-width:0.5;"/><path d="M266,26 L266,36 L276,36 L266,26 " fill="#FEFFDD" style="stroke:#181818;stroke-width:0.5;"/><text fill="#000000" font-family="sans-serif" font-size="13" lengthAdjust="spacing" textLength="48" x="211" y="43.0669">Internal</text><text fill="#000000" font-family="sans-serif" font-size="13" lengthAdjust="spacing" textLength="42" x="211" y="58.1997">details</text><text fill="#000000" font-family="sans-serif" font-size="13" lengthAdjust="spacing" textLength="50" x="211" y="73.3325">omitted</text></g><g id="elem_hie"><rect fill="#F1F1F1" height="77.1875" style="stroke:#181818;stroke-width:0.5;" width="209" x="539" y="15"/><text fill="#000000" font-family="sans-serif" font-size="14" lengthAdjust="spacing" textLength="124" x="581.5" y="29.9951">Valley Region HIE</text><line style="stroke:#181818;stroke-width:0.5;" x1="540" x2="747" y1="35.2969" y2="35.2969"/><text fill="#000000" font-family="sans-serif" font-size="14" lengthAdjust="spacing" textLength="197" x="545" y="52.292">name = "Valley Region HIE"</text><text fill="#000000" font-family="sans-serif" font-size="14" lengthAdjust="spacing" textLength="110" x="545" y="68.5889">OrgID = 1.2.3.0</text><text fill="#000000" font-family="sans-serif" font-size="14" lengthAdjust="spacing" textLength="90" x="545" y="84.8857">HCID = 1.2.3</text></g><g id="elem_Valley"><rect fill="#F1F1F1" height="77.1875" style="stroke:#181818;stroke-width:0.5;" width="174" x="329.5" y="185"/><text fill="#000000" font-family="sans-serif" font-size="14" lengthAdjust="spacing" textLength="97" x="368" y="199.9951">:Organization</text><line style="stroke:#181818;stroke-width:0.5;" x1="330.5" x2="502.5" y1="205.2969" y2="205.2969"/><text fill="#000000" font-family="sans-serif" font-size="14" lengthAdjust="spacing" textLength="162" x="335.5" y="222.292">name = "Valley Access</text><text fill="#000000" font-family="sans-serif" font-size="14" lengthAdjust="spacing" textLength="85" x="335.5" y="238.5889">Healthcare"</text><text fill="#000000" font-family="sans-serif" font-size="14" lengthAdjust="spacing" textLength="109" x="335.5" y="254.8857">OrgID = 1.2.3.2</text></g><g id="elem_OU"><rect fill="#F1F1F1" height="93.4844" style="stroke:#181818;stroke-width:0.5;" width="209" x="539" y="177"/><text fill="#000000" font-family="sans-serif" font-size="14" lengthAdjust="spacing" textLength="97" x="595" y="191.9951">:Organization</text><line style="stroke:#181818;stroke-width:0.5;" x1="540" x2="747" y1="197.2969" y2="197.2969"/><text fill="#000000" font-family="sans-serif" font-size="14" lengthAdjust="spacing" textLength="195" x="545" y="214.292">name = "University Health"</text><text fill="#000000" font-family="sans-serif" font-size="14" lengthAdjust="spacing" textLength="197" x="545" y="230.5889">alias = "OU Health System",</text><text fill="#000000" font-family="sans-serif" font-size="14" lengthAdjust="spacing" textLength="85" x="545" y="246.8857">"OU Health"</text><text fill="#000000" font-family="sans-serif" font-size="14" lengthAdjust="spacing" textLength="110" x="545" y="263.1826">OrgID = 1.2.3.3</text></g><g id="elem_Urgent"><rect fill="#F1F1F1" height="60.8906" style="stroke:#181818;stroke-width:0.5;" width="185" x="783" y="193"/><text fill="#000000" font-family="sans-serif" font-size="14" lengthAdjust="spacing" textLength="97" x="827" y="207.9951">:Organization</text><line style="stroke:#181818;stroke-width:0.5;" x1="784" x2="967" y1="213.2969" y2="213.2969"/><text fill="#000000" font-family="sans-serif" font-size="14" lengthAdjust="spacing" textLength="173" x="789" y="230.292">name = "Urgent Health"</text><text fill="#000000" font-family="sans-serif" font-size="14" lengthAdjust="spacing" textLength="110" x="789" y="246.5889">OrgID = 4.5.6.7</text></g><g id="elem_vEndpoints"><rect fill="#F1F1F1" height="93.4844" style="stroke:#181818;stroke-width:0.5;" width="203" x="783" y="7"/><text fill="#000000" font-family="sans-serif" font-size="14" lengthAdjust="spacing" textLength="92" x="838.5" y="21.9951">: Endpoint(s)</text><line style="stroke:#181818;stroke-width:0.5;" x1="784" x2="985" y1="27.2969" y2="27.2969"/><text fill="#000000" font-family="sans-serif" font-size="14" lengthAdjust="spacing" textLength="132" x="789" y="44.292">connectionType =</text><text fill="#000000" font-family="sans-serif" font-size="14" lengthAdjust="spacing" textLength="149" x="797" y="60.5889">PDQ-Supplier-Query,</text><text fill="#000000" font-family="sans-serif" font-size="14" lengthAdjust="spacing" textLength="148" x="797" y="76.8857">XDS-Registry-Query,</text><text fill="#000000" font-family="sans-serif" font-size="14" lengthAdjust="spacing" textLength="183" x="797" y="93.1826">XDS-Repository-Retrieve</text></g><!--link hie2 to sEndpoints--><g id="link_hie2_sEndpoints"><path codeLine="12" d="M108.5,84.148 C108.5,108.269 108.5,142.868 108.5,171.4311 " fill="none" id="hie2-to-sEndpoints" style="stroke:#181818;stroke-width:1.0;"/><polygon fill="#181818" points="108.5,176.6904,112.5,167.6904,108.5,171.6904,104.5,167.6904,108.5,176.6904" style="stroke:#181818;stroke-width:1.0;"/></g><!--link hie to vEndpoints--><g id="link_hie_vEndpoints"><path codeLine="35" d="M748.467,53.5 C758.196,53.5 767.924,53.5 777.653,53.5 " fill="none" id="hie-to-vEndpoints" style="stroke:#181818;stroke-width:1.0;"/><polygon fill="#181818" points="782.741,53.5,773.741,49.5,777.741,53.5,773.741,57.5,782.741,53.5" style="stroke:#181818;stroke-width:1.0;"/></g><!--reverse link hie to Valley--><g id="link_hie_Valley"><path codeLine="37" d="M588.117,95.488 C551.242,122.779 503.159,158.364 467.273,184.9234 " fill="none" id="hie-backto-Valley" style="stroke:#181818;stroke-width:1.0;"/><polygon fill="#181818" points="592.557,92.202,582.9429,94.3394,588.5375,95.1759,587.7011,100.7706,592.557,92.202" style="stroke:#181818;stroke-width:1.0;"/><text fill="#000000" font-family="sans-serif" font-size="13" lengthAdjust="spacing" textLength="41" x="538.5" y="143.0669">partOf</text></g><!--reverse link hie to OU--><g id="link_hie_OU"><path codeLine="38" d="M643.5,97.296 C643.5,121.619 643.5,152.07 643.5,176.8507 " fill="none" id="hie-backto-OU" style="stroke:#181818;stroke-width:1.0;"/><polygon fill="#181818" points="643.5,92.202,639.5,101.202,643.5,97.202,647.5,101.202,643.5,92.202" style="stroke:#181818;stroke-width:1.0;"/><text fill="#000000" font-family="sans-serif" font-size="13" lengthAdjust="spacing" textLength="41" x="644.5" y="143.0669">partOf</text></g><!--reverse link hie to Urgent--><g id="link_hie_Urgent"><path codeLine="39" d="M699.796,95.266 C741.356,125.361 796.972,165.635 834.405,192.7416 " fill="none" id="hie-backto-Urgent" style="stroke:#181818;stroke-width:1.0;"/><polygon fill="#181818" points="695.565,92.202,700.5088,100.7201,699.6149,95.1344,705.2006,94.2404,695.565,92.202" style="stroke:#181818;stroke-width:1.0;"/><text fill="#000000" font-family="sans-serif" font-size="13" lengthAdjust="spacing" textLength="41" x="767.5" y="143.0669">partOf</text></g><!--link Partners to hie--><g id="link_Partners_hie"><path codeLine="40" d="M461.526,53.5 C484.072,53.5 509.291,53.5 533.603,53.5 " fill="none" id="Partners-to-hie" style="stroke:#181818;stroke-width:1.0;"/><polygon fill="#181818" points="538.776,53.5,529.776,49.5,533.776,53.5,529.776,57.5,538.776,53.5" style="stroke:#181818;stroke-width:1.0;"/><text fill="#000000" font-family="sans-serif" font-size="13" lengthAdjust="spacing" textLength="41" x="479.75" y="46.5669">partOf</text></g><!--SRC=[lLDDRzD04BtlhnZv11As84212f0GgPGS86r348TSjlR46UJCMhlJjERNC_vsYPGZ5t-yUVlUVEsUCeITStBd7eqj2lTme4VYt1XtznjJWUXovNFBzCSAEOx01hYsNXXzCFq7N0BR0y8dYBxZ0onSYLl-XXcbjXZOqIYvHXjgtyNogX7S4yvC_L0XTLlELUb3yZvvbrpqyEBhY8wfmHLdfIEMP-5venHw89ZnKu-dZbcFQ0K_gh9ETCi0r_ERU7rVbWMXZs_kqLSlQlZNV1tVOav1V7K2bowGE0tSedZ28xO9nl7dgJSxGV2KxmNS3heIbYpesHPRpb0i5M7Bxa0Yc8sT-QaZm0fgUyVJ_jGsapQVyZf2txvNoInvdRpiqAvx3NXkigsiwTHFxBwaAGPDUu6sa7rgFKOZzwdpx9pDQcDMcudyXkce6q9IGIiTjN5RaBALe7zj0DPL43n4Ef4HxDXF4pXRvyRdo6BQrpIH5kXbXtWl_IPvcrpe0fxPmEEu1SV_ju6W-pTnRg2FSGp3T4gzXQlTW3SD-mSRgktmuNQhThj6RU0l]--></g></svg>