<?xml version="1.0" encoding="UTF-8" standalone="no"?><svg xmlns="http://www.w3.org/2000/svg" xmlns:xlink="http://www.w3.org/1999/xlink" contentStyleType="text/css" height="886px" preserveAspectRatio="none" style="width:2018px;height:886px;background:#FFFFFF;" version="1.1" viewBox="0 0 2018 886" width="2018px" zoomAndPan="magnify"><defs/><g><g id="elem_nhie"><rect fill="#F1F1F1" height="60.8906" style="stroke:#181818;stroke-width:0.5;" width="232" x="468" y="47.5"/><text fill="#000000" font-family="sans-serif" font-size="14" lengthAdjust="spacing" textLength="97" x="535.5" y="62.4951">:Organization</text><line style="stroke:#181818;stroke-width:0.5;" x1="469" x2="699" y1="67.7969" y2="67.7969"/><text fill="#000000" font-family="sans-serif" font-size="14" lengthAdjust="spacing" textLength="220" x="474" y="84.792">name = "Big Health Exchange"</text><text fill="#000000" font-family="sans-serif" font-size="14" lengthAdjust="spacing" textLength="96" x="474" y="101.0889">OrgID = 7.8.9</text></g><g id="elem_Partners"><rect fill="#F1F1F1" height="60.8906" style="stroke:#181818;stroke-width:0.5;" width="150" x="251" y="356"/><text fill="#000000" font-family="sans-serif" font-size="14" lengthAdjust="spacing" textLength="97" x="277.5" y="370.9951">:Organization</text><line style="stroke:#181818;stroke-width:0.5;" x1="252" x2="400" y1="376.2969" y2="376.2969"/><text fill="#000000" font-family="sans-serif" font-size="14" lengthAdjust="spacing" textLength="138" x="257" y="393.292">name = "New Hope</text><text fill="#000000" font-family="sans-serif" font-size="14" lengthAdjust="spacing" textLength="126" x="257" y="409.5889">Medical Partners"</text></g><g id="elem_ig1"><rect fill="#F1F1F1" height="93.4844" style="stroke:#181818;stroke-width:0.5;" width="426" x="7" y="31.5"/><text fill="#000000" font-family="sans-serif" font-size="14" lengthAdjust="spacing" textLength="412" x="14" y="46.4951">New Hope BigHx External Initiating Gateway : Endpoint(s)</text><line style="stroke:#181818;stroke-width:0.5;" x1="8" x2="432" y1="51.7969" y2="51.7969"/><text fill="#000000" font-family="sans-serif" font-size="14" lengthAdjust="spacing" textLength="132" x="13" y="68.792">connectionType =</text><text fill="#000000" font-family="sans-serif" font-size="14" lengthAdjust="spacing" textLength="383" x="21" y="85.0889">XCPD-InitGateway-PatientDiscovery-AsyncResponse,</text><text fill="#000000" font-family="sans-serif" font-size="14" lengthAdjust="spacing" textLength="292" x="21" y="101.3857">XCA-InitGateway-Query-AsyncResponse,</text><text fill="#000000" font-family="sans-serif" font-size="14" lengthAdjust="spacing" textLength="308" x="21" y="117.6826">XCA-InitGateway-Retrieve-AsyncResponse</text></g><g id="elem_OrgAff4"><rect fill="#F1F1F1" height="44.5938" style="stroke:#181818;stroke-width:0.5;" width="236" x="208" y="226"/><text fill="#000000" font-family="sans-serif" font-size="14" lengthAdjust="spacing" textLength="222" x="215" y="240.9951">orgAff4:OrganizationAffiliation</text><line style="stroke:#181818;stroke-width:0.5;" x1="209" x2="443" y1="246.2969" y2="246.2969"/><text fill="#000000" font-family="sans-serif" font-size="14" lengthAdjust="spacing" textLength="169" x="214" y="263.292">code = “HIEResponder”</text></g><g id="elem_hie"><rect fill="#F1F1F1" height="77.1875" style="stroke:#181818;stroke-width:0.5;" width="209" x="832.5" y="348"/><text fill="#000000" font-family="sans-serif" font-size="14" lengthAdjust="spacing" textLength="97" x="888.5" y="362.9951">:Organization</text><line style="stroke:#181818;stroke-width:0.5;" x1="833.5" x2="1040.5" y1="368.2969" y2="368.2969"/><text fill="#000000" font-family="sans-serif" font-size="14" lengthAdjust="spacing" textLength="197" x="838.5" y="385.292">name = "Valley Region HIE"</text><text fill="#000000" font-family="sans-serif" font-size="14" lengthAdjust="spacing" textLength="110" x="838.5" y="401.5889">OrgID = 1.2.3.0</text><text fill="#000000" font-family="sans-serif" font-size="14" lengthAdjust="spacing" textLength="90" x="838.5" y="417.8857">HCID = 1.2.3</text></g><g id="elem_OrgAff5"><rect fill="#F1F1F1" height="44.5938" style="stroke:#181818;stroke-width:0.5;" width="237" x="818.5" y="226"/><text fill="#000000" font-family="sans-serif" font-size="14" lengthAdjust="spacing" textLength="223" x="825.5" y="240.9951">orgAff5:OrganizationAffiliation</text><line style="stroke:#181818;stroke-width:0.5;" x1="819.5" x2="1054.5" y1="246.2969" y2="246.2969"/><text fill="#000000" font-family="sans-serif" font-size="14" lengthAdjust="spacing" textLength="169" x="824.5" y="263.292">code = “HIEResponder”</text></g><g id="elem_rg1"><rect fill="#F1F1F1" height="142.375" style="stroke:#181818;stroke-width:0.5;" width="353" x="1173.5" y="7"/><text fill="#000000" font-family="sans-serif" font-size="14" lengthAdjust="spacing" textLength="339" x="1180.5" y="21.9951">Valley BigHx Responding Gateway : Endpoint(s)</text><line style="stroke:#181818;stroke-width:0.5;" x1="1174.5" x2="1525.5" y1="27.2969" y2="27.2969"/><text fill="#000000" font-family="sans-serif" font-size="14" lengthAdjust="spacing" textLength="132" x="1179.5" y="44.292">connectionType =</text><text fill="#000000" font-family="sans-serif" font-size="14" lengthAdjust="spacing" textLength="277" x="1187.5" y="60.5889">XCPD-RespGateway-PatientDiscovery,</text><text fill="#000000" font-family="sans-serif" font-size="14" lengthAdjust="spacing" textLength="325" x="1187.5" y="76.8857">XCPD-RespGateway-PatientDiscovery-Async,</text><text fill="#000000" font-family="sans-serif" font-size="14" lengthAdjust="spacing" textLength="186" x="1187.5" y="93.1826">XCA-RespGateway-Query,</text><text fill="#000000" font-family="sans-serif" font-size="14" lengthAdjust="spacing" textLength="206" x="1187.5" y="109.4795">XCA-RespGateway-Retrieve,</text><text fill="#000000" font-family="sans-serif" font-size="14" lengthAdjust="spacing" textLength="234" x="1187.5" y="125.7764">XCA-RespGateway-Query-Async,</text><text fill="#000000" font-family="sans-serif" font-size="14" lengthAdjust="spacing" textLength="250" x="1187.5" y="142.0732">XCA-RespGateway-Retrieve-Async</text></g><g id="elem_ig2"><rect fill="#F1F1F1" height="93.4844" style="stroke:#181818;stroke-width:0.5;" width="403" x="735.5" y="31.5"/><text fill="#000000" font-family="sans-serif" font-size="14" lengthAdjust="spacing" textLength="383" x="745.5" y="46.4951">Valley BigHx External Initiating Gateway : Endpoint(s)</text><line style="stroke:#181818;stroke-width:0.5;" x1="736.5" x2="1137.5" y1="51.7969" y2="51.7969"/><text fill="#000000" font-family="sans-serif" font-size="14" lengthAdjust="spacing" textLength="132" x="741.5" y="68.792">connectionType =</text><text fill="#000000" font-family="sans-serif" font-size="14" lengthAdjust="spacing" textLength="383" x="749.5" y="85.0889">XCPD-InitGateway-PatientDiscovery-AsyncResponse,</text><text fill="#000000" font-family="sans-serif" font-size="14" lengthAdjust="spacing" textLength="292" x="749.5" y="101.3857">XCA-InitGateway-Query-AsyncResponse,</text><text fill="#000000" font-family="sans-serif" font-size="14" lengthAdjust="spacing" textLength="308" x="749.5" y="117.6826">XCA-InitGateway-Retrieve-AsyncResponse</text></g><g id="elem_ig3"><rect fill="#F1F1F1" height="142.375" style="stroke:#181818;stroke-width:0.5;" width="393" x="920.5" y="502"/><text fill="#000000" font-family="sans-serif" font-size="14" lengthAdjust="spacing" textLength="379" x="927.5" y="516.9951">Valley BigHx Internal Initiating Gateway : Endpoint(s)</text><line style="stroke:#181818;stroke-width:0.5;" x1="921.5" x2="1312.5" y1="522.2969" y2="522.2969"/><text fill="#000000" font-family="sans-serif" font-size="14" lengthAdjust="spacing" textLength="132" x="926.5" y="539.292">connectionType =</text><text fill="#000000" font-family="sans-serif" font-size="14" lengthAdjust="spacing" textLength="277" x="934.5" y="555.5889">XCPD-RespGateway-PatientDiscovery,</text><text fill="#000000" font-family="sans-serif" font-size="14" lengthAdjust="spacing" textLength="325" x="934.5" y="571.8857">XCPD-RespGateway-PatientDiscovery-Async,</text><text fill="#000000" font-family="sans-serif" font-size="14" lengthAdjust="spacing" textLength="174" x="934.5" y="588.1826">XCA-InitGateway-Query,</text><text fill="#000000" font-family="sans-serif" font-size="14" lengthAdjust="spacing" textLength="194" x="934.5" y="604.4795">XCA-InitGateway-Retrieve,</text><text fill="#000000" font-family="sans-serif" font-size="14" lengthAdjust="spacing" textLength="222" x="934.5" y="620.7764">XCA-InitGateway-Query-Async,</text><text fill="#000000" font-family="sans-serif" font-size="14" lengthAdjust="spacing" textLength="238" x="934.5" y="637.0732">XCA-InitGateway-Retrieve-Async</text></g><g id="elem_hieEndpoints"><rect fill="#F1F1F1" height="158.6719" style="stroke:#181818;stroke-width:0.5;" width="331" x="951.5" y="721"/><text fill="#000000" font-family="sans-serif" font-size="14" lengthAdjust="spacing" textLength="317" x="958.5" y="735.9951">Valley HIE Centralized Services : Endpoint(s)</text><line style="stroke:#181818;stroke-width:0.5;" x1="952.5" x2="1281.5" y1="741.2969" y2="741.2969"/><text fill="#000000" font-family="sans-serif" font-size="14" lengthAdjust="spacing" textLength="132" x="957.5" y="758.292">connectionType =</text><text fill="#000000" font-family="sans-serif" font-size="14" lengthAdjust="spacing" textLength="149" x="965.5" y="774.5889">PDQ-Supplier-Query,</text><text fill="#000000" font-family="sans-serif" font-size="14" lengthAdjust="spacing" textLength="148" x="965.5" y="790.8857">XDS-Registry-Query,</text><text fill="#000000" font-family="sans-serif" font-size="14" lengthAdjust="spacing" textLength="196" x="965.5" y="807.1826">XDS-Registry-Query-Async,</text><text fill="#000000" font-family="sans-serif" font-size="14" lengthAdjust="spacing" textLength="187" x="965.5" y="823.4795">XDS-Repository-Retrieve,</text><text fill="#000000" font-family="sans-serif" font-size="14" lengthAdjust="spacing" textLength="235" x="965.5" y="839.7764">XDS-Repository-Retrieve-Async,</text><text fill="#000000" font-family="sans-serif" font-size="14" lengthAdjust="spacing" textLength="237" x="965.5" y="856.0732">XDS-OnDemandSource-Retrieve,</text><text fill="#000000" font-family="sans-serif" font-size="14" lengthAdjust="spacing" textLength="281" x="965.5" y="872.3701">XDS-OnDemandSource-Retrieve-Async</text></g><g id="elem_OU"><rect fill="#F1F1F1" height="93.4844" style="stroke:#181818;stroke-width:0.5;" width="209" x="1407.5" y="754"/><text fill="#000000" font-family="sans-serif" font-size="14" lengthAdjust="spacing" textLength="97" x="1463.5" y="768.9951">:Organization</text><line style="stroke:#181818;stroke-width:0.5;" x1="1408.5" x2="1615.5" y1="774.2969" y2="774.2969"/><text fill="#000000" font-family="sans-serif" font-size="14" lengthAdjust="spacing" textLength="195" x="1413.5" y="791.292">name = "University Health"</text><text fill="#000000" font-family="sans-serif" font-size="14" lengthAdjust="spacing" textLength="197" x="1413.5" y="807.5889">alias = "OU Health System",</text><text fill="#000000" font-family="sans-serif" font-size="14" lengthAdjust="spacing" textLength="85" x="1413.5" y="823.8857">"OU Health"</text><text fill="#000000" font-family="sans-serif" font-size="14" lengthAdjust="spacing" textLength="110" x="1413.5" y="840.1826">OrgID = 1.2.3.3</text></g><g id="elem_Urgent"><rect fill="#F1F1F1" height="60.8906" style="stroke:#181818;stroke-width:0.5;" width="185" x="674.5" y="770"/><text fill="#000000" font-family="sans-serif" font-size="14" lengthAdjust="spacing" textLength="97" x="718.5" y="784.9951">:Organization</text><line style="stroke:#181818;stroke-width:0.5;" x1="675.5" x2="858.5" y1="790.2969" y2="790.2969"/><text fill="#000000" font-family="sans-serif" font-size="14" lengthAdjust="spacing" textLength="173" x="680.5" y="807.292">name = "Urgent Health"</text><text fill="#000000" font-family="sans-serif" font-size="14" lengthAdjust="spacing" textLength="110" x="680.5" y="823.5889">OrgID = 4.5.6.7</text></g><g id="elem_OrgAff1"><rect fill="#F1F1F1" height="44.5938" style="stroke:#181818;stroke-width:0.5;" width="237" x="376.5" y="550.5"/><text fill="#000000" font-family="sans-serif" font-size="14" lengthAdjust="spacing" textLength="223" x="383.5" y="565.4951">orgAff1:OrganizationAffiliation</text><line style="stroke:#181818;stroke-width:0.5;" x1="377.5" x2="612.5" y1="570.7969" y2="570.7969"/><text fill="#000000" font-family="sans-serif" font-size="14" lengthAdjust="spacing" textLength="169" x="382.5" y="587.792">code = “HIEResponder”</text></g><g id="elem_OrgAff2"><rect fill="#F1F1F1" height="77.1875" style="stroke:#181818;stroke-width:0.5;" width="236" x="1349" y="534.5"/><text fill="#000000" font-family="sans-serif" font-size="14" lengthAdjust="spacing" textLength="222" x="1356" y="549.4951">orgAff2:OrganizationAffiliation</text><line style="stroke:#181818;stroke-width:0.5;" x1="1350" x2="1584" y1="554.7969" y2="554.7969"/><text fill="#000000" font-family="sans-serif" font-size="14" lengthAdjust="spacing" textLength="153" x="1355" y="571.792">code = “HIEInitiator”,</text><text fill="#000000" font-family="sans-serif" font-size="14" lengthAdjust="spacing" textLength="182" x="1363" y="588.0889">“DocShare-federate-int”,</text><text fill="#000000" font-family="sans-serif" font-size="14" lengthAdjust="spacing" textLength="182" x="1363" y="604.3857">“DocShare-federate-ext”</text></g><g id="elem_OrgAff3"><rect fill="#F1F1F1" height="77.1875" style="stroke:#181818;stroke-width:0.5;" width="237" x="648.5" y="534.5"/><text fill="#000000" font-family="sans-serif" font-size="14" lengthAdjust="spacing" textLength="223" x="655.5" y="549.4951">orgAff3:OrganizationAffiliation</text><line style="stroke:#181818;stroke-width:0.5;" x1="649.5" x2="884.5" y1="554.7969" y2="554.7969"/><text fill="#000000" font-family="sans-serif" font-size="14" lengthAdjust="spacing" textLength="153" x="654.5" y="571.792">code = “HIEInitiator”,</text><text fill="#000000" font-family="sans-serif" font-size="14" lengthAdjust="spacing" textLength="182" x="662.5" y="588.0889">“DocShare-federate-int”,</text><text fill="#000000" font-family="sans-serif" font-size="14" lengthAdjust="spacing" textLength="182" x="662.5" y="604.3857">“DocShare-federate-ext”</text></g><g id="elem_OrgAff6"><rect fill="#F1F1F1" height="44.5938" style="stroke:#181818;stroke-width:0.5;" width="237" x="1620.5" y="550.5"/><text fill="#000000" font-family="sans-serif" font-size="14" lengthAdjust="spacing" textLength="223" x="1627.5" y="565.4951">orgAff6:OrganizationAffiliation</text><line style="stroke:#181818;stroke-width:0.5;" x1="1621.5" x2="1856.5" y1="570.7969" y2="570.7969"/><text fill="#000000" font-family="sans-serif" font-size="14" lengthAdjust="spacing" textLength="169" x="1626.5" y="587.792">code = “HIEResponder”</text></g><g id="elem_con2"><rect fill="#F1F1F1" height="77.1875" style="stroke:#181818;stroke-width:0.5;" width="314" x="1697" y="762"/><text fill="#000000" font-family="sans-serif" font-size="14" lengthAdjust="spacing" textLength="71" x="1818.5" y="776.9951">:Endpoint</text><line style="stroke:#181818;stroke-width:0.5;" x1="1698" x2="2010" y1="782.2969" y2="782.2969"/><text fill="#000000" font-family="sans-serif" font-size="14" lengthAdjust="spacing" textLength="132" x="1703" y="799.292">connectionType =</text><text fill="#000000" font-family="sans-serif" font-size="14" lengthAdjust="spacing" textLength="278" x="1711" y="815.5889">XDS-Consumer-Query-AsyncResponse,</text><text fill="#000000" font-family="sans-serif" font-size="14" lengthAdjust="spacing" textLength="294" x="1711" y="831.8857">XDS-Consumer-Retrieve-AsyncResponse</text></g><g id="elem_con3"><rect fill="#F1F1F1" height="77.1875" style="stroke:#181818;stroke-width:0.5;" width="314" x="325" y="762"/><text fill="#000000" font-family="sans-serif" font-size="14" lengthAdjust="spacing" textLength="71" x="446.5" y="776.9951">:Endpoint</text><line style="stroke:#181818;stroke-width:0.5;" x1="326" x2="638" y1="782.2969" y2="782.2969"/><text fill="#000000" font-family="sans-serif" font-size="14" lengthAdjust="spacing" textLength="132" x="331" y="799.292">connectionType =</text><text fill="#000000" font-family="sans-serif" font-size="14" lengthAdjust="spacing" textLength="278" x="339" y="815.5889">XDS-Consumer-Query-AsyncResponse,</text><text fill="#000000" font-family="sans-serif" font-size="14" lengthAdjust="spacing" textLength="294" x="339" y="831.8857">XDS-Consumer-Retrieve-AsyncResponse</text></g><!--link OrgAff4 to Partners--><g id="link_OrgAff4_Partners"><path codeLine="15" d="M326,271.05 C326,292.447 326,325.598 326,350.724 " fill="none" id="OrgAff4-to-Partners" style="stroke:#181818;stroke-width:1.0;"/><polygon fill="#181818" points="326,355.957,330,346.957,326,350.957,322,346.957,326,355.957" style="stroke:#181818;stroke-width:1.0;"/><text fill="#000000" font-family="sans-serif" font-size="13" lengthAdjust="spacing" textLength="160" x="327" y="314.0669">participatingOrganization</text></g><!--reverse link nhie to OrgAff4--><g id="link_nhie_OrgAff4"><path codeLine="16" d="M534.488,111.337 C482.979,144.977 403.764,196.712 359.276,225.767 " fill="none" id="nhie-backto-OrgAff4" style="stroke:#181818;stroke-width:1.0;"/><polygon fill="#181818" points="538.765,108.543,529.0424,110.1147,534.5786,111.2768,533.4165,116.813,538.765,108.543" style="stroke:#181818;stroke-width:1.0;"/><text fill="#000000" font-family="sans-serif" font-size="13" lengthAdjust="spacing" textLength="79" x="426" y="192.0669">organization</text></g><!--reverse link ig1 to OrgAff4--><g id="link_ig1_OrgAff4"><path codeLine="17" d="M251.39,128.899 C271.714,161.205 297.153,201.643 312.461,225.979 " fill="none" id="ig1-backto-OrgAff4" style="stroke:#181818;stroke-width:1.0;"/><polygon fill="#181818" points="248.685,124.599,250.0916,134.3469,251.3474,128.8312,256.8631,130.087,248.685,124.599" style="stroke:#181818;stroke-width:1.0;"/></g><!--link OrgAff5 to hie--><g id="link_OrgAff5_hie"><path codeLine="26" d="M937,271.05 C937,290.279 937,319.001 937,342.861 " fill="none" id="OrgAff5-to-hie" style="stroke:#181818;stroke-width:1.0;"/><polygon fill="#181818" points="937,347.874,941,338.874,937,342.874,933,338.874,937,347.874" style="stroke:#181818;stroke-width:1.0;"/><text fill="#000000" font-family="sans-serif" font-size="13" lengthAdjust="spacing" textLength="160" x="938" y="314.0669">participatingOrganization</text></g><!--reverse link nhie to OrgAff5--><g id="link_nhie_OrgAff5"><path codeLine="27" d="M643.3,110.932 C666.453,123.148 693.319,137.016 718,149 C775.191,176.77 841.959,206.408 886.599,225.835 " fill="none" id="nhie-backto-OrgAff5" style="stroke:#181818;stroke-width:1.0;"/><polygon fill="#181818" points="638.72,108.512,644.8065,116.2551,643.1401,110.8492,648.546,109.1829,638.72,108.512" style="stroke:#181818;stroke-width:1.0;"/><text fill="#000000" font-family="sans-serif" font-size="13" lengthAdjust="spacing" textLength="79" x="815" y="192.0669">organization</text></g><!--reverse link rg1 to OrgAff5--><g id="link_rg1_OrgAff5"><path codeLine="31" d="M1173.37,151.065 C1106.96,178.156 1036.35,206.965 989.783,225.965 " fill="none" id="rg1-backto-OrgAff5" style="stroke:#181818;stroke-width:1.0;"/><polygon fill="#181818" points="1178.14,149.117,1168.296,148.8083,1173.5095,151.0035,1171.3144,156.217,1178.14,149.117" style="stroke:#181818;stroke-width:1.0;"/></g><!--reverse link ig2 to OrgAff5--><g id="link_ig2_OrgAff5"><path codeLine="35" d="M937,129.691 C937,161.864 937,201.842 937,225.979 " fill="none" id="ig2-backto-OrgAff5" style="stroke:#181818;stroke-width:1.0;"/><polygon fill="#181818" points="937,124.599,933,133.599,937,129.599,941,133.599,937,124.599" style="stroke:#181818;stroke-width:1.0;"/></g><!--link OrgAff1 to Urgent--><g id="link_OrgAff1_Urgent"><path codeLine="54" d="M509.889,595.653 C528.134,620.981 561.081,663.002 597,691 C620.202,709.085 630.814,705.8 656,721 C679.111,734.947 703.726,752.1 723.888,766.81 " fill="none" id="OrgAff1-to-Urgent" style="stroke:#181818;stroke-width:1.0;"/><polygon fill="#181818" points="728.121,769.91,723.2245,761.3646,724.0875,766.9552,718.4968,767.8182,728.121,769.91" style="stroke:#181818;stroke-width:1.0;"/><text fill="#000000" font-family="sans-serif" font-size="13" lengthAdjust="spacing" textLength="160" x="598" y="687.0669">participatingOrganization</text></g><!--reverse link hie to OrgAff1--><g id="link_hie_OrgAff1"><path codeLine="55" d="M827.455,424.968 C768.558,445.99 695.072,473.641 631,502 C597.611,516.779 560.855,535.876 533.981,550.389 " fill="none" id="hie-backto-OrgAff1" style="stroke:#181818;stroke-width:1.0;"/><polygon fill="#181818" points="832.387,423.21,822.5667,422.4608,827.6767,424.8872,825.2503,429.9973,832.387,423.21" style="stroke:#181818;stroke-width:1.0;"/><text fill="#000000" font-family="sans-serif" font-size="13" lengthAdjust="spacing" textLength="79" x="741" y="468.0669">organization</text></g><!--link OrgAff2 to OU--><g id="link_OrgAff2_OU"><path codeLine="59" d="M1461.64,611.552 C1459.42,634.701 1458.48,664.858 1464,691 C1468.17,710.71 1476.15,731.197 1484.44,748.99 " fill="none" id="OrgAff2-to-OU" style="stroke:#181818;stroke-width:1.0;"/><polygon fill="#181818" points="1486.78,753.934,1486.5392,744.0881,1484.6382,749.416,1479.3104,747.5149,1486.78,753.934" style="stroke:#181818;stroke-width:1.0;"/><text fill="#000000" font-family="sans-serif" font-size="13" lengthAdjust="spacing" textLength="160" x="1465" y="687.0669">participatingOrganization</text></g><!--reverse link hie to OrgAff2--><g id="link_hie_OrgAff2"><path codeLine="60" d="M1046.93,413.386 C1127.03,433.698 1237.43,464.727 1331,502 C1354.19,511.238 1378.69,523.129 1400.4,534.48 " fill="none" id="hie-backto-OrgAff2" style="stroke:#181818;stroke-width:1.0;"/><polygon fill="#181818" points="1041.7,412.064,1049.4418,418.1521,1046.5468,413.2921,1051.4068,410.3972,1041.7,412.064" style="stroke:#181818;stroke-width:1.0;"/><text fill="#000000" font-family="sans-serif" font-size="13" lengthAdjust="spacing" textLength="79" x="1248" y="468.0669">organization</text></g><!--reverse link ig3 to OrgAff2--><g id="link_ig3_OrgAff2"><path codeLine="61" d="M1318.78,573 C1328.82,573 1338.86,573 1348.9,573 " fill="none" id="ig3-backto-OrgAff2" style="stroke:#181818;stroke-width:1.0;"/><polygon fill="#181818" points="1313.53,573,1322.53,577,1318.53,573,1322.53,569,1313.53,573" style="stroke:#181818;stroke-width:1.0;"/></g><!--link OrgAff2 to hieEndpoints--><g id="link_OrgAff2_hieEndpoints"><path codeLine="62" d="M1408.42,611.744 C1363.47,640.704 1299.76,681.747 1243.38,718.077 " fill="none" id="OrgAff2-to-hieEndpoints" style="stroke:#181818;stroke-width:1.0;"/><polygon fill="#181818" points="1238.98,720.907,1248.7105,719.3845,1243.1802,718.1944,1244.3703,712.6642,1238.98,720.907" style="stroke:#181818;stroke-width:1.0;"/></g><!--link OrgAff3 to Urgent--><g id="link_OrgAff3_Urgent"><path codeLine="66" d="M767,611.744 C767,654.428 767,723.36 767,764.762 " fill="none" id="OrgAff3-to-Urgent" style="stroke:#181818;stroke-width:1.0;"/><polygon fill="#181818" points="767,769.919,771,760.919,767,764.919,763,760.919,767,769.919" style="stroke:#181818;stroke-width:1.0;"/><text fill="#000000" font-family="sans-serif" font-size="13" lengthAdjust="spacing" textLength="160" x="768" y="687.0669">participatingOrganization</text></g><!--reverse link hie to OrgAff3--><g id="link_hie_OrgAff3"><path codeLine="67" d="M898.694,429.073 C869.608,460.64 829.943,503.688 801.766,534.269 " fill="none" id="hie-backto-OrgAff3" style="stroke:#181818;stroke-width:1.0;"/><polygon fill="#181818" points="902.188,425.282,893.1484,429.1916,898.8005,428.9596,899.0325,434.6117,902.188,425.282" style="stroke:#181818;stroke-width:1.0;"/><text fill="#000000" font-family="sans-serif" font-size="13" lengthAdjust="spacing" textLength="79" x="874" y="468.0669">organization</text></g><!--link OrgAff3 to ig3--><g id="link_OrgAff3_ig3"><path codeLine="68" d="M885.604,573 C895.482,573 905.36,573 915.238,573 " fill="none" id="OrgAff3-to-ig3" style="stroke:#181818;stroke-width:1.0;"/><polygon fill="#181818" points="920.403,573,911.403,569,915.403,573,911.403,577,920.403,573" style="stroke:#181818;stroke-width:1.0;"/></g><!--link OrgAff3 to hieEndpoints--><g id="link_OrgAff3_hieEndpoints"><path codeLine="69" d="M833.512,611.535 C865.199,629.819 903.422,652.464 937,674 C958.495,687.786 981.074,702.957 1002.696,717.843 " fill="none" id="OrgAff3-to-hieEndpoints" style="stroke:#181818;stroke-width:1.0;"/><polygon fill="#181818" points="1007.01,720.816,1001.8709,712.4143,1002.8935,717.9779,997.3299,719.0006,1007.01,720.816" style="stroke:#181818;stroke-width:1.0;"/></g><!--link OrgAff6 to OU--><g id="link_OrgAff6_OU"><path codeLine="73" d="M1719.79,595.603 C1698.38,619.444 1662.5,658.716 1630,691 C1610.01,710.86 1587.37,731.982 1567.31,750.262 " fill="none" id="OrgAff6-to-OU" style="stroke:#181818;stroke-width:1.0;"/><polygon fill="#181818" points="1563.34,753.879,1572.6925,750.7919,1567.0423,750.5185,1567.3157,744.8682,1563.34,753.879" style="stroke:#181818;stroke-width:1.0;"/><text fill="#000000" font-family="sans-serif" font-size="13" lengthAdjust="spacing" textLength="160" x="1647" y="687.0669">participatingOrganization</text></g><!--reverse link hie to OrgAff6--><g id="link_hie_OrgAff6"><path codeLine="74" d="M1046.77,396.044 C1180.71,408.805 1412.7,438.506 1602,502 C1638.34,514.189 1676.99,534.708 1703.93,550.388 " fill="none" id="hie-backto-OrgAff6" style="stroke:#181818;stroke-width:1.0;"/><polygon fill="#181818" points="1041.65,395.56,1050.2328,400.3906,1046.6277,396.0313,1050.987,392.4262,1041.65,395.56" style="stroke:#181818;stroke-width:1.0;"/><text fill="#000000" font-family="sans-serif" font-size="13" lengthAdjust="spacing" textLength="79" x="1498" y="468.0669">organization</text></g><!--link ig3 to hieEndpoints--><!--link OrgAff1 to OrgAff3--><!--link OrgAff6 to con2--><g id="link_OrgAff6_con2"><path codeLine="81" d="M1766.35,595.6 C1787.74,614.066 1816.38,642.58 1832,674 C1844.73,699.612 1850.22,731.368 1852.52,756.528 " fill="none" id="OrgAff6-to-con2" style="stroke:#181818;stroke-width:1.0;"/><polygon fill="#181818" points="1852.97,761.792,1856.1951,752.4862,1852.5474,756.8099,1848.2237,753.1622,1852.97,761.792" style="stroke:#181818;stroke-width:1.0;"/></g><!--link OrgAff1 to con3--><g id="link_OrgAff1_con3"><path codeLine="85" d="M493.754,595.622 C491.62,632.635 487.23,708.783 484.461,756.819 " fill="none" id="OrgAff1-to-con3" style="stroke:#181818;stroke-width:1.0;"/><polygon fill="#181818" points="484.164,761.955,488.6768,753.2009,484.4526,756.9633,480.6901,752.7391,484.164,761.955" style="stroke:#181818;stroke-width:1.0;"/></g><!--SRC=[pLPDRvj04BtpArQSMgcW0h7JHasar8vg7rexSLrLQdeWCCPRsRjemOd9AJ-a_NFv9Hs-5p24z13r4Dli36_Vl7qxapLrWQmu3s_uNb7upIzmGgAUp8HdCtflXvGpbTW1OMiAIln1JWYpjq1EYVgHUcG2zYPSaukzixQP1sgUWm3JCIOTw-_qzrt0Srk434IWv3-a3Rx07Pbm7wxPPt2fOs-ARBM4p9C8qfdiaKa8Wc7gbD6GuZxC8v_i4Exi294lcEjpoi9NmUjaT-eP2lvXnE6C8HxI-XeXsEar8-JxQ3xMOfmCG9iZ7h1mJ0E7tuA8jFCWOiuL13vd0Rn9tpcll7AvwvTt1Q6WS0lLrB9CBhpprUge8Y0kq0qjjPobEKhsdLJbnae-FloUJ2zIK1V4uyEV8aVJpeWalOy_gKFzH3Xvh_HWFsWQAT6v78zbbC9TPnvxgMgbR_Pc0n6v0Wzp279LbQgF3DtKBVrjjZePbOjrYGOz91favGzwI3H894htxQtEeAvEGJAhD3LhjbstHmLwL1pqA2bC6WErcVHDhwpKTuKrvTJ4mWSZkMdRN-k0hJe-AL4Ii4Mnvrvl4trf_h_NEoRtTD5JzhoYBSIrNjOl3KqwLNXAoXuIDgJ2sqj6o53O6teFBbc0kAKE10SKmhkQBmMA_D2csNnygIrslh-X8EJonWijRbb1AABEPRcg9EZpW8PSr1Kv7AkzFMDZsDhCNV2TSA29q1AlozPioxEbCbjAJNd9A9uqaecoCQ-cSHGOip41dxBvluY24BOgSYWNi-ng1xUw22o5XmUef5yoaNGXXotYEVIHFj27-d5z4XWz9e6HTNcZnoGmaabGxDu-3Agpm6YT1IbDimTDCwDWrcbc7O77D1C7uFAOEukrBK1R0VB7swEXjplZi0_BCisapEJi-fPeDlyPi33S89yEqlBkrPImUYXXPM3M2oXX_Tk1MtKr2hIpf3bBZrrg37keCSp0XZtiEtp-kGuRreqFLlknfguBxATMvL_SaZnU75bvv_Fif0RijQOIVxJEAcnd8noKkstUTm-DMZcfPSxA2YIxjZEoOaRM2p4oSaRMNm00]--></g></svg>