<?xml version="1.0" encoding="UTF-8" standalone="no"?><svg xmlns="http://www.w3.org/2000/svg" xmlns:xlink="http://www.w3.org/1999/xlink" contentStyleType="text/css" height="461px" preserveAspectRatio="none" style="width:612px;height:461px;background:#FFFFFF;" version="1.1" viewBox="0 0 612 461" width="612px" zoomAndPan="magnify"><defs/><g><rect fill="none" height="191.9297" style="stroke:#000000;stroke-width:1.5;" width="522" x="84" y="215.9609"/><line style="stroke:#181818;stroke-width:0.5;stroke-dasharray:5.0,5.0;" x1="44" x2="44" y1="81.2969" y2="454.0234"/><line style="stroke:#181818;stroke-width:0.5;stroke-dasharray:5.0,5.0;" x1="153" x2="153" y1="81.2969" y2="454.0234"/><line style="stroke:#181818;stroke-width:0.5;stroke-dasharray:5.0,5.0;" x1="342" x2="342" y1="81.2969" y2="454.0234"/><line style="stroke:#181818;stroke-width:0.5;stroke-dasharray:5.0,5.0;" x1="452" x2="452" y1="81.2969" y2="454.0234"/><line style="stroke:#181818;stroke-width:0.5;stroke-dasharray:5.0,5.0;" x1="551" x2="551" y1="81.2969" y2="454.0234"/><text fill="#000000" font-family="sans-serif" font-size="14" lengthAdjust="spacing" textLength="73" x="5" y="77.9951">Dr. Suwati</text><ellipse cx="44.5" cy="13.5" fill="#E2E2F0" rx="8" ry="8" style="stroke:#181818;stroke-width:0.5;"/><path d="M44.5,21.5 L44.5,48.5 M31.5,29.5 L57.5,29.5 M44.5,48.5 L31.5,63.5 M44.5,48.5 L57.5,63.5 " fill="none" style="stroke:#181818;stroke-width:0.5;"/><rect fill="#E2E2F0" height="30.2969" rx="2.5" ry="2.5" style="stroke:#181818;stroke-width:0.5;" width="119" x="94" y="50"/><text fill="#000000" font-family="sans-serif" font-size="14" lengthAdjust="spacing" textLength="105" x="101" y="69.9951">New Hope EHR</text><rect fill="#E2E2F0" height="46.5938" rx="2.5" ry="2.5" style="stroke:#181818;stroke-width:0.5;" width="111" x="287" y="33.7031"/><text fill="#000000" font-family="sans-serif" font-size="14" lengthAdjust="spacing" textLength="97" x="294" y="53.6982">Valley Region</text><text fill="#000000" font-family="sans-serif" font-size="14" lengthAdjust="spacing" textLength="95" x="295" y="69.9951">HIE Directory</text><rect fill="#E2E2F0" height="46.5938" rx="2.5" ry="2.5" style="stroke:#181818;stroke-width:0.5;" width="89" x="408" y="33.7031"/><text fill="#000000" font-family="sans-serif" font-size="14" lengthAdjust="spacing" textLength="40" x="432.5" y="53.6982">XCPD</text><text fill="#000000" font-family="sans-serif" font-size="14" lengthAdjust="spacing" textLength="75" x="415" y="69.9951">: Endpoint</text><rect fill="#E2E2F0" height="46.5938" rx="2.5" ry="2.5" style="stroke:#181818;stroke-width:0.5;" width="89" x="507" y="33.7031"/><text fill="#000000" font-family="sans-serif" font-size="14" lengthAdjust="spacing" textLength="30" x="536.5" y="53.6982">XCA</text><text fill="#000000" font-family="sans-serif" font-size="14" lengthAdjust="spacing" textLength="75" x="514" y="69.9951">: Endpoint</text><polygon fill="#181818" points="141.5,123.5625,151.5,127.5625,141.5,131.5625,145.5,127.5625" style="stroke:#181818;stroke-width:1.0;"/><line style="stroke:#181818;stroke-width:1.0;" x1="44.5" x2="147.5" y1="127.5625" y2="127.5625"/><text fill="#000000" font-family="sans-serif" font-size="13" lengthAdjust="spacing" textLength="62" x="51.5" y="107.3638">Search all</text><text fill="#000000" font-family="sans-serif" font-size="13" lengthAdjust="spacing" textLength="67" x="51.5" y="122.4966">orgs in HIE</text><polygon fill="#181818" points="330.5,167.8281,340.5,171.8281,330.5,175.8281,334.5,171.8281" style="stroke:#181818;stroke-width:1.0;"/><line style="stroke:#181818;stroke-width:1.0;" x1="153.5" x2="336.5" y1="171.8281" y2="171.8281"/><text fill="#000000" font-family="sans-serif" font-size="13" lengthAdjust="spacing" textLength="151" x="160.5" y="151.6294">Search all Communities</text><text fill="#000000" font-family="sans-serif" font-size="13" lengthAdjust="spacing" textLength="124" x="160.5" y="166.7622">(all Orgs with HCID)</text><polygon fill="#181818" points="164.5,196.9609,154.5,200.9609,164.5,204.9609,160.5,200.9609" style="stroke:#181818;stroke-width:1.0;"/><line style="stroke:#181818;stroke-width:1.0;stroke-dasharray:2.0,2.0;" x1="158.5" x2="341.5" y1="200.9609" y2="200.9609"/><text fill="#000000" font-family="sans-serif" font-size="13" lengthAdjust="spacing" textLength="97" x="170.5" y="195.895">: Organizations</text><path d="M84,215.9609 L162,215.9609 L162,223.0938 L152,233.0938 L84,233.0938 L84,215.9609 " fill="#EEEEEE" style="stroke:#000000;stroke-width:1.5;"/><rect fill="none" height="191.9297" style="stroke:#000000;stroke-width:1.5;" width="522" x="84" y="215.9609"/><text fill="#000000" font-family="sans-serif" font-size="13" font-weight="bold" lengthAdjust="spacing" textLength="33" x="99" y="229.0278">loop</text><text fill="#000000" font-family="sans-serif" font-size="11" font-weight="bold" lengthAdjust="spacing" textLength="132" x="177" y="228.1714">[each Organization]</text><polygon fill="#181818" points="330.5,250.2266,340.5,254.2266,330.5,258.2266,334.5,254.2266" style="stroke:#181818;stroke-width:1.0;"/><line style="stroke:#181818;stroke-width:1.0;" x1="153.5" x2="336.5" y1="254.2266" y2="254.2266"/><text fill="#000000" font-family="sans-serif" font-size="13" lengthAdjust="spacing" textLength="165" x="160.5" y="249.1606">Get XCPD, XCA Endpoints</text><polygon fill="#181818" points="164.5,279.3594,154.5,283.3594,164.5,287.3594,160.5,283.3594" style="stroke:#181818;stroke-width:1.0;"/><line style="stroke:#181818;stroke-width:1.0;stroke-dasharray:2.0,2.0;" x1="158.5" x2="341.5" y1="283.3594" y2="283.3594"/><text fill="#000000" font-family="sans-serif" font-size="13" lengthAdjust="spacing" textLength="72" x="170.5" y="278.2935">: Endpoints</text><polygon fill="#181818" points="440.5,308.4922,450.5,312.4922,440.5,316.4922,444.5,312.4922" style="stroke:#181818;stroke-width:1.0;"/><line style="stroke:#181818;stroke-width:1.0;" x1="153.5" x2="446.5" y1="312.4922" y2="312.4922"/><text fill="#000000" font-family="sans-serif" font-size="13" lengthAdjust="spacing" textLength="159" x="160.5" y="307.4263">Match "Vanna Patterson"</text><polygon fill="#181818" points="164.5,337.625,154.5,341.625,164.5,345.625,160.5,341.625" style="stroke:#181818;stroke-width:1.0;"/><line style="stroke:#181818;stroke-width:1.0;stroke-dasharray:2.0,2.0;" x1="158.5" x2="451.5" y1="341.625" y2="341.625"/><text fill="#000000" font-family="sans-serif" font-size="13" lengthAdjust="spacing" textLength="72" x="170.5" y="336.5591">: Match(es)</text><polygon fill="#181818" points="539.5,366.7578,549.5,370.7578,539.5,374.7578,543.5,370.7578" style="stroke:#181818;stroke-width:1.0;"/><line style="stroke:#181818;stroke-width:1.0;" x1="153.5" x2="545.5" y1="370.7578" y2="370.7578"/><text fill="#000000" font-family="sans-serif" font-size="13" lengthAdjust="spacing" textLength="99" x="160.5" y="365.6919">Get documents</text><polygon fill="#181818" points="164.5,395.8906,154.5,399.8906,164.5,403.8906,160.5,399.8906" style="stroke:#181818;stroke-width:1.0;"/><line style="stroke:#181818;stroke-width:1.0;stroke-dasharray:2.0,2.0;" x1="158.5" x2="550.5" y1="399.8906" y2="399.8906"/><text fill="#000000" font-family="sans-serif" font-size="13" lengthAdjust="spacing" textLength="83" x="170.5" y="394.8247">: Documents</text><polygon fill="#181818" points="55.5,432.0234,45.5,436.0234,55.5,440.0234,51.5,436.0234" style="stroke:#181818;stroke-width:1.0;"/><line style="stroke:#181818;stroke-width:1.0;stroke-dasharray:2.0,2.0;" x1="49.5" x2="152.5" y1="436.0234" y2="436.0234"/><text fill="#000000" font-family="sans-serif" font-size="13" lengthAdjust="spacing" textLength="83" x="61.5" y="430.9575">: Documents</text><!--MD5=[968366c3ca178ade05a1f0a0895eb8e3]
@startuml
hide footbox

actor "Dr. Suwati" as actor1
participant "New Hope EHR" as ehr
participant "Valley Region\nHIE Directory" as dir
participant "XCPD\n: Endpoint" as xcpd
participant "XCA\n: Endpoint" as xca

actor1 -> ehr: Search all\norgs in HIE
ehr -> dir: Search all Communities\n(all Orgs with HCID)
dir - -> ehr: : Organizations

loop each Organization
ehr -> dir: Get XCPD, XCA Endpoints
dir - -> ehr: : Endpoints

ehr -> xcpd : Match "Vanna Patterson"
xcpd - -> ehr: : Match(es)

ehr -> xca : Get documents
xca - -> ehr: : Documents

end

ehr - -> actor1: : Documents
@enduml

PlantUML version 1.2022.13beta8(Unknown compile time)
(GPL source distribution)
Java Runtime: Java(TM) SE Runtime Environment
JVM: Java HotSpot(TM) 64-Bit Server VM
Default Encoding: UTF-8
Language: en
Country: US
--></g></svg>