<?xml version="1.0" encoding="UTF-8" standalone="no"?><svg xmlns="http://www.w3.org/2000/svg" xmlns:xlink="http://www.w3.org/1999/xlink" contentStyleType="text/css" height="531px" preserveAspectRatio="none" style="width:772px;height:531px;background:#FFFFFF;" version="1.1" viewBox="0 0 772 531" width="772px" zoomAndPan="magnify"><defs/><g><line style="stroke:#181818;stroke-width:0.5;stroke-dasharray:5.0,5.0;" x1="40" x2="40" y1="82.6094" y2="524.2344"/><line style="stroke:#181818;stroke-width:0.5;stroke-dasharray:5.0,5.0;" x1="227.5" x2="227.5" y1="82.6094" y2="524.2344"/><line style="stroke:#181818;stroke-width:0.5;stroke-dasharray:5.0,5.0;" x1="510.5" x2="510.5" y1="82.6094" y2="524.2344"/><line style="stroke:#181818;stroke-width:0.5;stroke-dasharray:5.0,5.0;" x1="618.5" x2="618.5" y1="82.6094" y2="524.2344"/><line style="stroke:#181818;stroke-width:0.5;stroke-dasharray:5.0,5.0;" x1="720.5" x2="720.5" y1="82.6094" y2="524.2344"/><text fill="#000000" font-family="sans-serif" font-size="14" lengthAdjust="spacing" textLength="64" x="5" y="79.5332">Dr. Suwati</text><ellipse cx="40" cy="13.5" fill="#E2E2F0" rx="8" ry="8" style="stroke:#181818;stroke-width:0.5;"/><path d="M40,21.5 L40,48.5 M27,29.5 L53,29.5 M40,48.5 L27,63.5 M40,48.5 L53,63.5 " fill="none" style="stroke:#181818;stroke-width:0.5;"/><rect fill="#E2E2F0" height="31.6094" rx="2.5" ry="2.5" style="stroke:#181818;stroke-width:0.5;" width="109" x="173.5" y="50"/><text fill="#000000" font-family="sans-serif" font-size="14" lengthAdjust="spacing" textLength="95" x="180.5" y="71.5332">New Hope EHR</text><rect fill="#E2E2F0" height="49.2188" rx="2.5" ry="2.5" style="stroke:#181818;stroke-width:0.5;" width="101" x="460.5" y="32.3906"/><text fill="#000000" font-family="sans-serif" font-size="14" lengthAdjust="spacing" textLength="87" x="467.5" y="53.9238">Valley Region</text><text fill="#000000" font-family="sans-serif" font-size="14" lengthAdjust="spacing" textLength="82" x="470" y="71.5332">HIE Directory</text><rect fill="#E2E2F0" height="49.2188" rx="2.5" ry="2.5" style="stroke:#181818;stroke-width:0.5;" width="94" x="571.5" y="32.3906"/><text fill="#000000" font-family="sans-serif" font-size="14" lengthAdjust="spacing" textLength="80" x="578.5" y="53.9238">Central PDQ</text><text fill="#000000" font-family="sans-serif" font-size="14" lengthAdjust="spacing" textLength="64" x="586.5" y="71.5332">: Endpoint</text><rect fill="#E2E2F0" height="49.2188" rx="2.5" ry="2.5" style="stroke:#181818;stroke-width:0.5;" width="91" x="675.5" y="32.3906"/><text fill="#000000" font-family="sans-serif" font-size="14" lengthAdjust="spacing" textLength="77" x="682.5" y="53.9238">Central XDS</text><text fill="#000000" font-family="sans-serif" font-size="14" lengthAdjust="spacing" textLength="64" x="689" y="71.5332">: Endpoint</text><polygon fill="#181818" points="216,176.3672,226,180.3672,216,184.3672,220,180.3672" style="stroke:#181818;stroke-width:1.0;"/><line style="stroke:#181818;stroke-width:1.0;" x1="40" x2="222" y1="180.3672" y2="180.3672"/><text fill="#000000" font-family="sans-serif" font-size="13" lengthAdjust="spacing" textLength="86" x="47" y="110.1045">Kick off search</text><text fill="#000000" font-family="sans-serif" font-size="13" lengthAdjust="spacing" textLength="126" x="47" y="126.4561">given known locations</text><text fill="#000000" font-family="sans-serif" font-size="13" lengthAdjust="spacing" textLength="69" x="47" y="142.8076">of treatment</text><text fill="#000000" font-family="sans-serif" font-size="13" lengthAdjust="spacing" textLength="164" x="47" y="159.1592">"Valley Access Healthcare",</text><text fill="#000000" font-family="sans-serif" font-size="13" lengthAdjust="spacing" textLength="70" x="47" y="175.5107">"OU Health"</text><polygon fill="#181818" points="499,223.0703,509,227.0703,499,231.0703,503,227.0703" style="stroke:#181818;stroke-width:1.0;"/><line style="stroke:#181818;stroke-width:1.0;" x1="228" x2="505" y1="227.0703" y2="227.0703"/><text fill="#000000" font-family="sans-serif" font-size="13" lengthAdjust="spacing" textLength="259" x="235" y="205.8623">Search Orgs for "Valley Access Healthcare",</text><text fill="#000000" font-family="sans-serif" font-size="13" lengthAdjust="spacing" textLength="159" x="235" y="222.2139">"OU Health" by name, alias</text><polygon fill="#181818" points="239,253.4219,229,257.4219,239,261.4219,235,257.4219" style="stroke:#181818;stroke-width:1.0;"/><line style="stroke:#181818;stroke-width:1.0;stroke-dasharray:2.0,2.0;" x1="233" x2="510" y1="257.4219" y2="257.4219"/><text fill="#000000" font-family="sans-serif" font-size="13" lengthAdjust="spacing" textLength="146" x="245" y="252.5654">: Org 1.2.3.2, Org 1.2.3.3</text><path d="M133,270.4219 L133,296.4219 L322,296.4219 L322,280.4219 L312,270.4219 L133,270.4219 " fill="#FEFFDD" style="stroke:#181818;stroke-width:0.5;"/><path d="M312,270.4219 L312,280.4219 L322,280.4219 L312,270.4219 " fill="#FEFFDD" style="stroke:#181818;stroke-width:0.5;"/><text fill="#000000" font-family="sans-serif" font-size="13" lengthAdjust="spacing" textLength="168" x="139" y="288.917">ok, orgs I want are in the HIE</text><polygon fill="#181818" points="499,320.125,509,324.125,499,328.125,503,324.125" style="stroke:#181818;stroke-width:1.0;"/><line style="stroke:#181818;stroke-width:1.0;" x1="228" x2="505" y1="324.125" y2="324.125"/><text fill="#000000" font-family="sans-serif" font-size="13" lengthAdjust="spacing" textLength="184" x="235" y="319.2686">Search for PDQ, XDS endpoints</text><polygon fill="#181818" points="239,350.4766,229,354.4766,239,358.4766,235,354.4766" style="stroke:#181818;stroke-width:1.0;"/><line style="stroke:#181818;stroke-width:1.0;stroke-dasharray:2.0,2.0;" x1="233" x2="510" y1="354.4766" y2="354.4766"/><text fill="#000000" font-family="sans-serif" font-size="13" lengthAdjust="spacing" textLength="129" x="245" y="349.6201">: PDQ, XDS endpoints</text><polygon fill="#181818" points="606.5,380.8281,616.5,384.8281,606.5,388.8281,610.5,384.8281" style="stroke:#181818;stroke-width:1.0;"/><line style="stroke:#181818;stroke-width:1.0;" x1="228" x2="612.5" y1="384.8281" y2="384.8281"/><text fill="#000000" font-family="sans-serif" font-size="13" lengthAdjust="spacing" textLength="147" x="235" y="379.9717">Match "Vanna Patterson"</text><polygon fill="#181818" points="239,411.1797,229,415.1797,239,419.1797,235,415.1797" style="stroke:#181818;stroke-width:1.0;"/><line style="stroke:#181818;stroke-width:1.0;stroke-dasharray:2.0,2.0;" x1="233" x2="617.5" y1="415.1797" y2="415.1797"/><text fill="#000000" font-family="sans-serif" font-size="13" lengthAdjust="spacing" textLength="66" x="245" y="410.3232">: Match(es)</text><polygon fill="#181818" points="709,441.5313,719,445.5313,709,449.5313,713,445.5313" style="stroke:#181818;stroke-width:1.0;"/><line style="stroke:#181818;stroke-width:1.0;" x1="228" x2="715" y1="445.5313" y2="445.5313"/><text fill="#000000" font-family="sans-serif" font-size="13" lengthAdjust="spacing" textLength="89" x="235" y="440.6748">Get documents</text><polygon fill="#181818" points="239,471.8828,229,475.8828,239,479.8828,235,475.8828" style="stroke:#181818;stroke-width:1.0;"/><line style="stroke:#181818;stroke-width:1.0;stroke-dasharray:2.0,2.0;" x1="233" x2="720" y1="475.8828" y2="475.8828"/><text fill="#000000" font-family="sans-serif" font-size="13" lengthAdjust="spacing" textLength="245" x="245" y="471.0264">: Documents, including from Urgent Health</text><polygon fill="#181818" points="51,502.2344,41,506.2344,51,510.2344,47,506.2344" style="stroke:#181818;stroke-width:1.0;"/><line style="stroke:#181818;stroke-width:1.0;stroke-dasharray:2.0,2.0;" x1="45" x2="227" y1="506.2344" y2="506.2344"/><text fill="#000000" font-family="sans-serif" font-size="13" lengthAdjust="spacing" textLength="74" x="57" y="501.3779">: Documents</text><!--MD5=[1791145d3106e9ebe2d4e7fa78b14fc0]
@startuml
hide footbox

actor "Dr. Suwati" as actor1
participant "New Hope EHR" as ehr
participant "Valley Region\nHIE Directory" as dir
participant "Central PDQ\n: Endpoint" as xcpd
participant "Central XDS\n: Endpoint" as xca


actor1 -> ehr: Kick off search\ngiven known locations\nof treatment\n"Valley Access Healthcare",\n"OU Health"
ehr -> dir: Search Orgs for "Valley Access Healthcare",\n"OU Health" by name, alias
dir - -> ehr: : Org 1.2.3.2, Org 1.2.3.3
note over ehr : ok, orgs I want are in the HIE

ehr -> dir: Search for PDQ, XDS endpoints
dir - -> ehr: : PDQ, XDS endpoints

ehr -> xcpd : Match "Vanna Patterson"
xcpd - -> ehr: : Match(es)

ehr -> xca : Get documents
xca - -> ehr: : Documents, including from Urgent Health
ehr - -> actor1: : Documents

@enduml

PlantUML version 1.2022.7(Mon Aug 22 12:01:30 CDT 2022)
(GPL source distribution)
Java Runtime: OpenJDK Runtime Environment
JVM: OpenJDK 64-Bit Server VM
Default Encoding: Cp1252
Language: en
Country: US
--></g></svg>