<?xml version="1.0" encoding="UTF-8" standalone="no"?><svg xmlns="http://www.w3.org/2000/svg" xmlns:xlink="http://www.w3.org/1999/xlink" contentStyleType="text/css" height="826px" preserveAspectRatio="none" style="width:970px;height:826px;background:#FFFFFF;" version="1.1" viewBox="0 0 970 826" width="970px" zoomAndPan="magnify"><defs/><g><line style="stroke:#181818;stroke-width:0.5;stroke-dasharray:5.0,5.0;" x1="44" x2="44" y1="81.2969" y2="819.2813"/><line style="stroke:#181818;stroke-width:0.5;stroke-dasharray:5.0,5.0;" x1="243" x2="243" y1="81.2969" y2="819.2813"/><line style="stroke:#181818;stroke-width:0.5;stroke-dasharray:5.0,5.0;" x1="685" x2="685" y1="81.2969" y2="819.2813"/><line style="stroke:#181818;stroke-width:0.5;stroke-dasharray:5.0,5.0;" x1="802" x2="802" y1="81.2969" y2="819.2813"/><line style="stroke:#181818;stroke-width:0.5;stroke-dasharray:5.0,5.0;" x1="913" x2="913" y1="81.2969" y2="819.2813"/><text fill="#000000" font-family="sans-serif" font-size="14" lengthAdjust="spacing" textLength="73" x="5" y="77.9951">Dr. Suwati</text><ellipse cx="44.5" cy="13.5" fill="#E2E2F0" rx="8" ry="8" style="stroke:#181818;stroke-width:0.5;"/><path d="M44.5,21.5 L44.5,48.5 M31.5,29.5 L57.5,29.5 M44.5,48.5 L31.5,63.5 M44.5,48.5 L57.5,63.5 " fill="none" style="stroke:#181818;stroke-width:0.5;"/><rect fill="#E2E2F0" height="30.2969" rx="2.5" ry="2.5" style="stroke:#181818;stroke-width:0.5;" width="119" x="184" y="50"/><text fill="#000000" font-family="sans-serif" font-size="14" lengthAdjust="spacing" textLength="105" x="191" y="69.9951">New Hope EHR</text><rect fill="#E2E2F0" height="46.5938" rx="2.5" ry="2.5" style="stroke:#181818;stroke-width:0.5;" width="111" x="630" y="33.7031"/><text fill="#000000" font-family="sans-serif" font-size="14" lengthAdjust="spacing" textLength="97" x="637" y="53.6982">Valley Region</text><text fill="#000000" font-family="sans-serif" font-size="14" lengthAdjust="spacing" textLength="95" x="638" y="69.9951">HIE Directory</text><rect fill="#E2E2F0" height="46.5938" rx="2.5" ry="2.5" style="stroke:#181818;stroke-width:0.5;" width="102" x="751" y="33.7031"/><text fill="#000000" font-family="sans-serif" font-size="14" lengthAdjust="spacing" textLength="88" x="758" y="53.6982">Central PDQ</text><text fill="#000000" font-family="sans-serif" font-size="14" lengthAdjust="spacing" textLength="75" x="764.5" y="69.9951">: Endpoint</text><rect fill="#E2E2F0" height="46.5938" rx="2.5" ry="2.5" style="stroke:#181818;stroke-width:0.5;" width="101" x="863" y="33.7031"/><text fill="#000000" font-family="sans-serif" font-size="14" lengthAdjust="spacing" textLength="87" x="870" y="53.6982">Central XDS</text><text fill="#000000" font-family="sans-serif" font-size="14" lengthAdjust="spacing" textLength="75" x="876" y="69.9951">: Endpoint</text><polygon fill="#181818" points="231.5,168.9609,241.5,172.9609,231.5,176.9609,235.5,172.9609" style="stroke:#181818;stroke-width:1.0;"/><line style="stroke:#181818;stroke-width:1.0;" x1="44.5" x2="237.5" y1="172.9609" y2="172.9609"/><text fill="#000000" font-family="sans-serif" font-size="13" lengthAdjust="spacing" textLength="94" x="51.5" y="107.3638">Kick off search</text><text fill="#000000" font-family="sans-serif" font-size="13" lengthAdjust="spacing" textLength="142" x="51.5" y="122.4966">given known locations</text><text fill="#000000" font-family="sans-serif" font-size="13" lengthAdjust="spacing" textLength="82" x="51.5" y="137.6294">of treatment</text><text fill="#000000" font-family="sans-serif" font-size="13" lengthAdjust="spacing" textLength="175" x="51.5" y="152.7622">"Valley Access Healthcare",</text><text fill="#000000" font-family="sans-serif" font-size="13" lengthAdjust="spacing" textLength="74" x="51.5" y="167.895">"OU Health"</text><polygon fill="#181818" points="673.5,213.2266,683.5,217.2266,673.5,221.2266,677.5,217.2266" style="stroke:#181818;stroke-width:1.0;"/><line style="stroke:#181818;stroke-width:1.0;" x1="243.5" x2="679.5" y1="217.2266" y2="217.2266"/><text fill="#000000" font-family="sans-serif" font-size="13" lengthAdjust="spacing" textLength="279" x="250.5" y="197.0278">Search Orgs for "Valley Access Healthcare",</text><text fill="#000000" font-family="sans-serif" font-size="13" lengthAdjust="spacing" textLength="172" x="250.5" y="212.1606">"OU Health" by name, alias</text><polygon fill="#181818" points="254.5,242.3594,244.5,246.3594,254.5,250.3594,250.5,246.3594" style="stroke:#181818;stroke-width:1.0;"/><line style="stroke:#181818;stroke-width:1.0;stroke-dasharray:2.0,2.0;" x1="248.5" x2="684.5" y1="246.3594" y2="246.3594"/><text fill="#000000" font-family="sans-serif" font-size="13" lengthAdjust="spacing" textLength="159" x="260.5" y="241.2935">: Org 1.2.3.2, Org 1.2.3.3</text><path d="M78,259.3594 L78,299.3594 L408,299.3594 L408,269.3594 L398,259.3594 L78,259.3594 " fill="#FEFFDD" style="stroke:#181818;stroke-width:0.5;"/><path d="M398,259.3594 L398,269.3594 L408,269.3594 L398,259.3594 " fill="#FEFFDD" style="stroke:#181818;stroke-width:0.5;"/><text fill="#000000" font-family="sans-serif" font-size="13" lengthAdjust="spacing" textLength="161" x="84" y="276.4263">Do they have Endpoints?</text><text fill="#000000" font-family="sans-serif" font-size="13" lengthAdjust="spacing" textLength="309" x="84" y="291.5591">No, so see if they are in a doc sharing affiliation.</text><polygon fill="#181818" points="673.5,336.8906,683.5,340.8906,673.5,344.8906,677.5,340.8906" style="stroke:#181818;stroke-width:1.0;"/><line style="stroke:#181818;stroke-width:1.0;" x1="243.5" x2="679.5" y1="340.8906" y2="340.8906"/><text fill="#000000" font-family="sans-serif" font-size="13" lengthAdjust="spacing" textLength="289" x="250.5" y="320.6919">Check if each org is participatingOrganization</text><text fill="#000000" font-family="sans-serif" font-size="13" lengthAdjust="spacing" textLength="386" x="250.5" y="335.8247">of OrganizationAffiliation with code = "DocShare-federate-*"</text><polygon fill="#181818" points="254.5,381.1563,244.5,385.1563,254.5,389.1563,250.5,385.1563" style="stroke:#181818;stroke-width:1.0;"/><line style="stroke:#181818;stroke-width:1.0;stroke-dasharray:2.0,2.0;" x1="248.5" x2="684.5" y1="385.1563" y2="385.1563"/><text fill="#000000" font-family="sans-serif" font-size="13" lengthAdjust="spacing" textLength="283" x="260.5" y="364.9575">: they are, .organization = Valley Region HIE</text><text fill="#000000" font-family="sans-serif" font-size="13" lengthAdjust="spacing" textLength="224" x="260.5" y="380.0903">and .code = DocShare-federate-int</text><polygon fill="#181818" points="673.5,410.2891,683.5,414.2891,673.5,418.2891,677.5,414.2891" style="stroke:#181818;stroke-width:1.0;"/><line style="stroke:#181818;stroke-width:1.0;" x1="243.5" x2="679.5" y1="414.2891" y2="414.2891"/><text fill="#000000" font-family="sans-serif" font-size="13" lengthAdjust="spacing" textLength="347" x="250.5" y="409.2231">Check OrganizationAffiliations for PDQ, XDS endpoints</text><polygon fill="#181818" points="254.5,439.4219,244.5,443.4219,254.5,447.4219,250.5,443.4219" style="stroke:#181818;stroke-width:1.0;"/><line style="stroke:#181818;stroke-width:1.0;stroke-dasharray:2.0,2.0;" x1="248.5" x2="684.5" y1="443.4219" y2="443.4219"/><text fill="#000000" font-family="sans-serif" font-size="13" lengthAdjust="spacing" textLength="139" x="260.5" y="438.356">: PDQ, XDS endpoints</text><path d="M81,456.4219 L81,511.4219 L405,511.4219 L405,466.4219 L395,456.4219 L81,456.4219 " fill="#FEFFDD" style="stroke:#181818;stroke-width:0.5;"/><path d="M395,456.4219 L395,466.4219 L405,466.4219 L395,456.4219 " fill="#FEFFDD" style="stroke:#181818;stroke-width:0.5;"/><text fill="#000000" font-family="sans-serif" font-size="13" lengthAdjust="spacing" textLength="303" x="87" y="473.4888">Ok, these endpoints make info from these orgs</text><text fill="#000000" font-family="sans-serif" font-size="13" lengthAdjust="spacing" textLength="248" x="87" y="488.6216">available to other members of the HIE.</text><text fill="#000000" font-family="sans-serif" font-size="13" lengthAdjust="spacing" textLength="284" x="87" y="503.7544">Can I access these endpoints as a member?</text><polygon fill="#181818" points="673.5,564.2188,683.5,568.2188,673.5,572.2188,677.5,568.2188" style="stroke:#181818;stroke-width:1.0;"/><line style="stroke:#181818;stroke-width:1.0;" x1="243.5" x2="679.5" y1="568.2188" y2="568.2188"/><text fill="#000000" font-family="sans-serif" font-size="13" lengthAdjust="spacing" textLength="298" x="250.5" y="532.8872">Check if New Hope is participatingOrganization</text><text fill="#000000" font-family="sans-serif" font-size="13" lengthAdjust="spacing" textLength="324" x="250.5" y="548.02">of OrganizationAffiliation with .code = "HIEInitiator"</text><text fill="#000000" font-family="sans-serif" font-size="13" lengthAdjust="spacing" textLength="240" x="250.5" y="563.1528">and .organization = Valley Region HIE</text><polygon fill="#181818" points="254.5,593.3516,244.5,597.3516,254.5,601.3516,250.5,597.3516" style="stroke:#181818;stroke-width:1.0;"/><line style="stroke:#181818;stroke-width:1.0;stroke-dasharray:2.0,2.0;" x1="248.5" x2="684.5" y1="597.3516" y2="597.3516"/><text fill="#000000" font-family="sans-serif" font-size="13" lengthAdjust="spacing" textLength="31" x="260.5" y="592.2856">: it is</text><polygon fill="#181818" points="673.5,622.4844,683.5,626.4844,673.5,630.4844,677.5,626.4844" style="stroke:#181818;stroke-width:1.0;"/><line style="stroke:#181818;stroke-width:1.0;" x1="243.5" x2="679.5" y1="626.4844" y2="626.4844"/><text fill="#000000" font-family="sans-serif" font-size="13" lengthAdjust="spacing" textLength="418" x="250.5" y="621.4185">Check if this OrganizationAffiliation points to the Endpoints I need</text><polygon fill="#181818" points="254.5,651.6172,244.5,655.6172,254.5,659.6172,250.5,655.6172" style="stroke:#181818;stroke-width:1.0;"/><line style="stroke:#181818;stroke-width:1.0;stroke-dasharray:2.0,2.0;" x1="248.5" x2="684.5" y1="655.6172" y2="655.6172"/><text fill="#000000" font-family="sans-serif" font-size="13" lengthAdjust="spacing" textLength="52" x="260.5" y="650.5513">: it does</text><polygon fill="#181818" points="790,680.75,800,684.75,790,688.75,794,684.75" style="stroke:#181818;stroke-width:1.0;"/><line style="stroke:#181818;stroke-width:1.0;" x1="243.5" x2="796" y1="684.75" y2="684.75"/><text fill="#000000" font-family="sans-serif" font-size="13" lengthAdjust="spacing" textLength="159" x="250.5" y="679.6841">Match "Vanna Patterson"</text><polygon fill="#181818" points="254.5,709.8828,244.5,713.8828,254.5,717.8828,250.5,713.8828" style="stroke:#181818;stroke-width:1.0;"/><line style="stroke:#181818;stroke-width:1.0;stroke-dasharray:2.0,2.0;" x1="248.5" x2="801" y1="713.8828" y2="713.8828"/><text fill="#000000" font-family="sans-serif" font-size="13" lengthAdjust="spacing" textLength="72" x="260.5" y="708.8169">: Match(es)</text><polygon fill="#181818" points="901.5,739.0156,911.5,743.0156,901.5,747.0156,905.5,743.0156" style="stroke:#181818;stroke-width:1.0;"/><line style="stroke:#181818;stroke-width:1.0;" x1="243.5" x2="907.5" y1="743.0156" y2="743.0156"/><text fill="#000000" font-family="sans-serif" font-size="13" lengthAdjust="spacing" textLength="99" x="250.5" y="737.9497">Get documents</text><polygon fill="#181818" points="254.5,768.1484,244.5,772.1484,254.5,776.1484,250.5,772.1484" style="stroke:#181818;stroke-width:1.0;"/><line style="stroke:#181818;stroke-width:1.0;stroke-dasharray:2.0,2.0;" x1="248.5" x2="912.5" y1="772.1484" y2="772.1484"/><text fill="#000000" font-family="sans-serif" font-size="13" lengthAdjust="spacing" textLength="274" x="260.5" y="767.0825">: Documents, including from Urgent Health</text><polygon fill="#181818" points="55.5,797.2813,45.5,801.2813,55.5,805.2813,51.5,801.2813" style="stroke:#181818;stroke-width:1.0;"/><line style="stroke:#181818;stroke-width:1.0;stroke-dasharray:2.0,2.0;" x1="49.5" x2="242.5" y1="801.2813" y2="801.2813"/><text fill="#000000" font-family="sans-serif" font-size="13" lengthAdjust="spacing" textLength="83" x="61.5" y="796.2153">: Documents</text><!--SRC=[fLJBRjj03BphAmYTsa8MaEHce0s2EAY3eaaQ8qKFkj0hobfO9etTZPtqwykLvMSKj42FufB3cI6fsfO4bKYOoakIe0dY81sv72RFQmms1VJGHi-I9RfWZLqY1qZlQ0rZMHBSZ1_R9AhTSSPFR1fwXKUQMU62nxStCBAE8jPhMr7Qaufhuk2mWOVHZuA7SCFbKYo7Dld5BCl-x5-ZIKys9fsQCnXyYUI6yCsQEKXLWITqfYvuPbV4C6TPCpHYLAwmBrWg28umBBH1mLiTLyQGzp0cR49jq56QwUFzKnT94-qHMwcg8KpQ3d3lPbxDTV2l831z1SO5PO2DHPye60os_8SH3yxoy_mYFyyEFYuIba0WAt8nKnD70g7MVZMkQEUClopuJZBmeWuGs6gJeop0CY2KOi3Nw2pF0AlAAeFeI9uSIRkkIMtKOa9LA4h2UjWD9cYn4aEslzlYrit3mDKU6DOsr6145_2pxfoOYJQdGKKbEGmq-9IUwj_opI2N0qmjFresq5qh6Bc4l4D_2wv-zEbwX-fcYhgNMLmteAsZfmHxCjxCvdwUHI6Uzacmm7aSGYLGELbqpofHjn5NQ1kSDWH1GFJ5mO8MKt8Uf9rWL9iNV8qCjtggxOATuiSZxiek-wUvk-V_c-RMy5H9tR8D-YOkxORnjvcTkcc3ikcd6shb-HwJJdHeZs2__ceF4vKzNKeXlzk6-AVHy7SCkjzwkCm83nY2EYwS9ktpGNcRzu7ynmC0rFXNYhZcEVv5V19Z1qMZxKEcKpVDSnblhXtzavjflFiVR12rRFCdEwhy0m00]--></g></svg>