<?xml version="1.0" encoding="UTF-8" standalone="no"?><svg xmlns="http://www.w3.org/2000/svg" xmlns:xlink="http://www.w3.org/1999/xlink" contentStyleType="text/css" height="862px" preserveAspectRatio="none" style="width:1094px;height:862px;background:#FFFFFF;" version="1.1" viewBox="0 0 1094 862" width="1094px" zoomAndPan="magnify"><defs/><g><g id="elem_nhie"><rect fill="#F1F1F1" height="64.8281" style="stroke:#181818;stroke-width:0.5;" width="203" x="86" y="7"/><text fill="#000000" font-family="sans-serif" font-size="14" lengthAdjust="spacing" textLength="84" x="145.5" y="23.5332">:Organization</text><line style="stroke:#181818;stroke-width:0.5;" x1="87" x2="288" y1="28.6094" y2="28.6094"/><text fill="#000000" font-family="sans-serif" font-size="14" lengthAdjust="spacing" textLength="191" x="92" y="47.1426">name = "Big Health Exchange"</text><text fill="#000000" font-family="sans-serif" font-size="14" lengthAdjust="spacing" textLength="85" x="92" y="64.752">OrgID = 7.8.9</text></g><g id="elem_Partners"><rect fill="#F1F1F1" height="64.8281" style="stroke:#181818;stroke-width:0.5;" width="131" x="122" y="283.5"/><text fill="#000000" font-family="sans-serif" font-size="14" lengthAdjust="spacing" textLength="84" x="145.5" y="300.0332">:Organization</text><line style="stroke:#181818;stroke-width:0.5;" x1="123" x2="252" y1="305.1094" y2="305.1094"/><text fill="#000000" font-family="sans-serif" font-size="14" lengthAdjust="spacing" textLength="119" x="128" y="323.6426">name = "New Hope</text><text fill="#000000" font-family="sans-serif" font-size="14" lengthAdjust="spacing" textLength="111" x="128" y="341.252">Medical Partners"</text></g><g id="elem_OrgAff4"><rect fill="#F1F1F1" height="47.2188" style="stroke:#181818;stroke-width:0.5;" width="201" x="87" y="150"/><text fill="#000000" font-family="sans-serif" font-size="14" lengthAdjust="spacing" textLength="187" x="94" y="166.5332">orgAff4:OrganizationAffiliation</text><line style="stroke:#181818;stroke-width:0.5;" x1="88" x2="287" y1="171.6094" y2="171.6094"/><text fill="#000000" font-family="sans-serif" font-size="14" lengthAdjust="spacing" textLength="124" x="93" y="190.1426">code = “HIEInitiator”</text></g><g id="elem_hie"><rect fill="#F1F1F1" height="82.4375" style="stroke:#181818;stroke-width:0.5;" width="185" x="369" y="275"/><text fill="#000000" font-family="sans-serif" font-size="14" lengthAdjust="spacing" textLength="84" x="419.5" y="291.5332">:Organization</text><line style="stroke:#181818;stroke-width:0.5;" x1="370" x2="553" y1="296.6094" y2="296.6094"/><text fill="#000000" font-family="sans-serif" font-size="14" lengthAdjust="spacing" textLength="173" x="375" y="315.1426">name = "Valley Region HIE"</text><text fill="#000000" font-family="sans-serif" font-size="14" lengthAdjust="spacing" textLength="97" x="375" y="332.752">OrgID = 1.2.3.0</text><text fill="#000000" font-family="sans-serif" font-size="14" lengthAdjust="spacing" textLength="80" x="375" y="350.3613">HCID = 1.2.3</text></g><g id="elem_OrgAff5"><rect fill="#F1F1F1" height="47.2188" style="stroke:#181818;stroke-width:0.5;" width="201" x="361" y="150"/><text fill="#000000" font-family="sans-serif" font-size="14" lengthAdjust="spacing" textLength="187" x="368" y="166.5332">orgAff5:OrganizationAffiliation</text><line style="stroke:#181818;stroke-width:0.5;" x1="362" x2="561" y1="171.6094" y2="171.6094"/><text fill="#000000" font-family="sans-serif" font-size="14" lengthAdjust="spacing" textLength="148" x="367" y="190.1426">code = “HIEResponder”</text></g><g id="elem_rg1"><rect fill="#F1F1F1" height="47.2188" style="stroke:#181818;stroke-width:0.5;" width="348" x="324.5" y="16"/><text fill="#000000" font-family="sans-serif" font-size="14" lengthAdjust="spacing" textLength="301" x="348" y="32.5332">Valley BigHx Responding Gateway : Endpoint(s)</text><line style="stroke:#181818;stroke-width:0.5;" x1="325.5" x2="671.5" y1="37.6094" y2="37.6094"/><text fill="#000000" font-family="sans-serif" font-size="14" lengthAdjust="spacing" textLength="336" x="330.5" y="56.1426">connectionType = "XCDR-RespGateway-DocProvide"</text></g><g id="elem_OU"><rect fill="#F1F1F1" height="100.0469" style="stroke:#181818;stroke-width:0.5;" width="185" x="522" y="595"/><text fill="#000000" font-family="sans-serif" font-size="14" lengthAdjust="spacing" textLength="84" x="572.5" y="611.5332">:Organization</text><line style="stroke:#181818;stroke-width:0.5;" x1="523" x2="706" y1="616.6094" y2="616.6094"/><text fill="#000000" font-family="sans-serif" font-size="14" lengthAdjust="spacing" textLength="166" x="528" y="635.1426">name = "University Health"</text><text fill="#000000" font-family="sans-serif" font-size="14" lengthAdjust="spacing" textLength="173" x="528" y="652.752">alias = "OU Health System",</text><text fill="#000000" font-family="sans-serif" font-size="14" lengthAdjust="spacing" textLength="74" x="528" y="670.3613">"OU Health"</text><text fill="#000000" font-family="sans-serif" font-size="14" lengthAdjust="spacing" textLength="97" x="528" y="687.9707">OrgID = 1.2.3.3</text></g><g id="elem_Urgent"><rect fill="#F1F1F1" height="64.8281" style="stroke:#181818;stroke-width:0.5;" width="159" x="140" y="612.5"/><text fill="#000000" font-family="sans-serif" font-size="14" lengthAdjust="spacing" textLength="84" x="177.5" y="629.0332">:Organization</text><line style="stroke:#181818;stroke-width:0.5;" x1="141" x2="298" y1="634.1094" y2="634.1094"/><text fill="#000000" font-family="sans-serif" font-size="14" lengthAdjust="spacing" textLength="147" x="146" y="652.6426">name = "Urgent Health"</text><text fill="#000000" font-family="sans-serif" font-size="14" lengthAdjust="spacing" textLength="97" x="146" y="670.252">OrgID = 4.5.6.7</text></g><g id="elem_OrgAff1"><rect fill="#F1F1F1" height="47.2188" style="stroke:#181818;stroke-width:0.5;" width="201" x="7" y="452.5"/><text fill="#000000" font-family="sans-serif" font-size="14" lengthAdjust="spacing" textLength="187" x="14" y="469.0332">orgAff1:OrganizationAffiliation</text><line style="stroke:#181818;stroke-width:0.5;" x1="8" x2="207" y1="474.1094" y2="474.1094"/><text fill="#000000" font-family="sans-serif" font-size="14" lengthAdjust="spacing" textLength="148" x="13" y="492.6426">code = “HIEResponder”</text></g><g id="elem_OrgAff2"><rect fill="#F1F1F1" height="82.4375" style="stroke:#181818;stroke-width:0.5;" width="201" x="479" y="435"/><text fill="#000000" font-family="sans-serif" font-size="14" lengthAdjust="spacing" textLength="187" x="486" y="451.5332">orgAff2:OrganizationAffiliation</text><line style="stroke:#181818;stroke-width:0.5;" x1="480" x2="679" y1="456.6094" y2="456.6094"/><text fill="#000000" font-family="sans-serif" font-size="14" lengthAdjust="spacing" textLength="128" x="485" y="475.1426">code = “HIEInitiator”,</text><text fill="#000000" font-family="sans-serif" font-size="14" lengthAdjust="spacing" textLength="155" x="493" y="492.752">“DocShare-federate-int”,</text><text fill="#000000" font-family="sans-serif" font-size="14" lengthAdjust="spacing" textLength="154" x="493" y="510.3613">“DocShare-federate-ext”</text></g><g id="elem_OrgAff3"><rect fill="#F1F1F1" height="82.4375" style="stroke:#181818;stroke-width:0.5;" width="201" x="243" y="435"/><text fill="#000000" font-family="sans-serif" font-size="14" lengthAdjust="spacing" textLength="187" x="250" y="451.5332">orgAff3:OrganizationAffiliation</text><line style="stroke:#181818;stroke-width:0.5;" x1="244" x2="443" y1="456.6094" y2="456.6094"/><text fill="#000000" font-family="sans-serif" font-size="14" lengthAdjust="spacing" textLength="128" x="249" y="475.1426">code = “HIEInitiator”,</text><text fill="#000000" font-family="sans-serif" font-size="14" lengthAdjust="spacing" textLength="155" x="257" y="492.752">“DocShare-federate-int”,</text><text fill="#000000" font-family="sans-serif" font-size="14" lengthAdjust="spacing" textLength="154" x="257" y="510.3613">“DocShare-federate-ext”</text></g><g id="elem_OrgAff6"><rect fill="#F1F1F1" height="47.2188" style="stroke:#181818;stroke-width:0.5;" width="201" x="715" y="452.5"/><text fill="#000000" font-family="sans-serif" font-size="14" lengthAdjust="spacing" textLength="187" x="722" y="469.0332">orgAff6:OrganizationAffiliation</text><line style="stroke:#181818;stroke-width:0.5;" x1="716" x2="915" y1="474.1094" y2="474.1094"/><text fill="#000000" font-family="sans-serif" font-size="14" lengthAdjust="spacing" textLength="148" x="721" y="492.6426">code = “HIEResponder”</text></g><g id="elem_con2"><rect fill="#F1F1F1" height="47.2188" style="stroke:#181818;stroke-width:0.5;" width="310" x="777.5" y="621.5"/><text fill="#000000" font-family="sans-serif" font-size="14" lengthAdjust="spacing" textLength="60" x="902.5" y="638.0332">:Endpoint</text><line style="stroke:#181818;stroke-width:0.5;" x1="778.5" x2="1086.5" y1="643.1094" y2="643.1094"/><text fill="#000000" font-family="sans-serif" font-size="14" lengthAdjust="spacing" textLength="298" x="783.5" y="661.6426">connectionType = "XDR-Recipient-ProvideReg"</text></g><g id="elem_Dr"><rect fill="#F1F1F1" height="47.2188" style="stroke:#181818;stroke-width:0.5;" width="140" x="876.5" y="790.5"/><text fill="#000000" font-family="sans-serif" font-size="14" lengthAdjust="spacing" textLength="72" x="910.5" y="807.0332">Practitioner</text><line style="stroke:#181818;stroke-width:0.5;" x1="877.5" x2="1015.5" y1="812.1094" y2="812.1094"/><text fill="#000000" font-family="sans-serif" font-size="14" lengthAdjust="spacing" textLength="128" x="882.5" y="830.6426">name = "Dr. Santos"</text></g><g id="elem_Pr"><rect fill="#F1F1F1" height="82.4375" style="stroke:#181818;stroke-width:0.5;" width="322" x="453.5" y="773"/><text fill="#000000" font-family="sans-serif" font-size="14" lengthAdjust="spacing" textLength="101" x="564" y="789.5332">PractitionerRole</text><line style="stroke:#181818;stroke-width:0.5;" x1="454.5" x2="774.5" y1="794.6094" y2="794.6094"/><text fill="#000000" font-family="sans-serif" font-size="14" lengthAdjust="spacing" textLength="146" x="459.5" y="813.1426">telecom.system = email</text><text fill="#000000" font-family="sans-serif" font-size="14" lengthAdjust="spacing" textLength="310" x="459.5" y="830.752">telecom.value = "dr.santos@universityhealth.org"</text><text fill="#000000" font-family="sans-serif" font-size="14" lengthAdjust="spacing" textLength="145" x="459.5" y="848.3613">specialty = "Neurology"</text></g><!--MD5=[c08aebf0e27ec685e5cc9bf03a6c5f45]
link OrgAff4 to Partners--><g id="link_OrgAff4_Partners"><path codeLine="12" d="M187.5,197.07 C187.5,218.96 187.5,252.55 187.5,278.28 " fill="none" id="OrgAff4-to-Partners" style="stroke:#181818;stroke-width:1.0;"/><polygon fill="#181818" points="187.5,283.32,191.5,274.32,187.5,278.32,183.5,274.32,187.5,283.32" style="stroke:#181818;stroke-width:1.0;"/><text fill="#000000" font-family="sans-serif" font-size="13" lengthAdjust="spacing" textLength="143" x="188.5" y="241.4951">participatingOrganization</text></g><!--MD5=[05f7c5801ef7caf5010ecf8dfa647304]
reverse link nhie to OrgAff4--><g id="link_nhie_OrgAff4"><path codeLine="13" d="M187.5,77.29 C187.5,100.56 187.5,129.9 187.5,149.82 " fill="none" id="nhie-backto-OrgAff4" style="stroke:#181818;stroke-width:1.0;"/><polygon fill="#181818" points="187.5,72.12,183.5,81.12,187.5,77.12,191.5,81.12,187.5,72.12" style="stroke:#181818;stroke-width:1.0;"/><text fill="#000000" font-family="sans-serif" font-size="13" lengthAdjust="spacing" textLength="70" x="188.5" y="116.4951">organization</text></g><!--MD5=[aeb15b8e75e6dfb8612f5be9dacb62ad]
link OrgAff5 to hie--><g id="link_OrgAff5_hie"><path codeLine="22" d="M461.5,197.07 C461.5,216.63 461.5,245.51 461.5,269.8 " fill="none" id="OrgAff5-to-hie" style="stroke:#181818;stroke-width:1.0;"/><polygon fill="#181818" points="461.5,274.91,465.5,265.91,461.5,269.91,457.5,265.91,461.5,274.91" style="stroke:#181818;stroke-width:1.0;"/><text fill="#000000" font-family="sans-serif" font-size="13" lengthAdjust="spacing" textLength="143" x="462.5" y="241.4951">participatingOrganization</text></g><!--MD5=[75037a9d18b73f68dcbf70fd9241478a]
reverse link nhie to OrgAff5--><g id="link_nhie_OrgAff5"><path codeLine="23" d="M257.84,74.39 C307.01,98.08 371.34,129.07 414.42,149.82 " fill="none" id="nhie-backto-OrgAff5" style="stroke:#181818;stroke-width:1.0;"/><polygon fill="#181818" points="253.13,72.12,259.4973,79.6338,257.6331,74.2929,262.974,72.4288,253.13,72.12" style="stroke:#181818;stroke-width:1.0;"/><text fill="#000000" font-family="sans-serif" font-size="13" lengthAdjust="spacing" textLength="70" x="350.5" y="116.4951">organization</text></g><!--MD5=[75baf42318abd6be8028183de344c7f7]
reverse link rg1 to OrgAff5--><g id="link_rg1_OrgAff5"><path codeLine="27" d="M490.74,68.18 C483.96,92.36 474.24,127.04 467.9,149.66 " fill="none" id="rg1-backto-OrgAff5" style="stroke:#181818;stroke-width:1.0;"/><polygon fill="#181818" points="492.14,63.19,485.8481,70.7671,490.7834,68.0024,493.548,72.9377,492.14,63.19" style="stroke:#181818;stroke-width:1.0;"/></g><!--MD5=[e1e2860719d9fcc11c61c54cc940eb15]
link OrgAff1 to Urgent--><g id="link_OrgAff1_Urgent"><path codeLine="40" d="M109.75,499.76 C112.42,518.42 118.2,544.94 130.5,565 C140.57,581.42 155.11,596.36 169.53,608.72 " fill="none" id="OrgAff1-to-Urgent" style="stroke:#181818;stroke-width:1.0;"/><polygon fill="#181818" points="173.59,612.13,169.2691,603.2796,169.7606,608.915,164.1252,609.4066,173.59,612.13" style="stroke:#181818;stroke-width:1.0;"/><text fill="#000000" font-family="sans-serif" font-size="13" lengthAdjust="spacing" textLength="143" x="131.5" y="561.4951">participatingOrganization</text></g><!--MD5=[90c365fc397ed367a2a510b007fd81dc]
reverse link hie to OrgAff1--><g id="link_hie_OrgAff1"><path codeLine="41" d="M366.92,359.22 C299.8,389.17 212.32,428.22 158.05,452.44 " fill="none" id="hie-backto-OrgAff1" style="stroke:#181818;stroke-width:1.0;"/><polygon fill="#181818" points="371.71,357.07,361.8612,357.09,367.1451,359.11,365.1251,364.3939,371.71,357.07" style="stroke:#181818;stroke-width:1.0;"/><text fill="#000000" font-family="sans-serif" font-size="13" lengthAdjust="spacing" textLength="70" x="296.5" y="401.4951">organization</text></g><!--MD5=[8fe7ef28e9200f68abbba0a5c4e81dc6]
link OrgAff2 to OU--><g id="link_OrgAff2_OU"><path codeLine="45" d="M573.82,517.28 C572.8,532.4 573,549.65 576.5,565 C578.38,573.23 581.23,581.61 584.54,589.68 " fill="none" id="OrgAff2-to-OU" style="stroke:#181818;stroke-width:1.0;"/><polygon fill="#181818" points="586.65,594.66,586.8072,584.8124,584.6925,590.0591,579.4458,587.9444,586.65,594.66" style="stroke:#181818;stroke-width:1.0;"/><text fill="#000000" font-family="sans-serif" font-size="13" lengthAdjust="spacing" textLength="143" x="577.5" y="561.4951">participatingOrganization</text></g><!--MD5=[bd2f40090431192294ec4ed17189583e]
reverse link hie to OrgAff2--><g id="link_hie_OrgAff2"><path codeLine="46" d="M494.75,361.52 C511.94,384.54 532.77,412.43 549.47,434.79 " fill="none" id="hie-backto-OrgAff2" style="stroke:#181818;stroke-width:1.0;"/><polygon fill="#181818" points="491.58,357.28,493.7416,366.8887,494.564,361.292,500.1607,362.1143,491.58,357.28" style="stroke:#181818;stroke-width:1.0;"/><text fill="#000000" font-family="sans-serif" font-size="13" lengthAdjust="spacing" textLength="70" x="524.5" y="401.4951">organization</text></g><!--MD5=[79e379c8127fd9c5987e693cc58ac97c]
link OrgAff3 to Urgent--><g id="link_OrgAff3_Urgent"><path codeLine="50" d="M314.36,517.43 C303.49,532.42 290.99,549.54 279.5,565 C268.98,579.16 257.27,594.63 247.02,608.1 " fill="none" id="OrgAff3-to-Urgent" style="stroke:#181818;stroke-width:1.0;"/><polygon fill="#181818" points="243.88,612.21,252.5182,607.479,246.9119,608.2342,246.1568,602.6279,243.88,612.21" style="stroke:#181818;stroke-width:1.0;"/><text fill="#000000" font-family="sans-serif" font-size="13" lengthAdjust="spacing" textLength="143" x="293.5" y="561.4951">participatingOrganization</text></g><!--MD5=[b9070dc1fde054ad17171652a56809d4]
reverse link hie to OrgAff3--><g id="link_hie_OrgAff3"><path codeLine="51" d="M428.25,361.52 C411.06,384.54 390.23,412.43 373.53,434.79 " fill="none" id="hie-backto-OrgAff3" style="stroke:#181818;stroke-width:1.0;"/><polygon fill="#181818" points="431.42,357.28,422.8393,362.1143,428.436,361.292,429.2584,366.8887,431.42,357.28" style="stroke:#181818;stroke-width:1.0;"/><text fill="#000000" font-family="sans-serif" font-size="13" lengthAdjust="spacing" textLength="70" x="407.5" y="401.4951">organization</text></g><!--MD5=[212a45b1bfc1563f16569ab571944f1b]
link OrgAff6 to OU--><g id="link_OrgAff6_OU"><path codeLine="55" d="M794.21,499.69 C776.52,518.08 750.31,544.25 725.5,565 C714.75,573.99 703.04,583.04 691.38,591.66 " fill="none" id="OrgAff6-to-OU" style="stroke:#181818;stroke-width:1.0;"/><polygon fill="#181818" points="687.08,594.81,696.7021,592.7089,691.1107,591.8513,691.9682,586.2599,687.08,594.81" style="stroke:#181818;stroke-width:1.0;"/><text fill="#000000" font-family="sans-serif" font-size="13" lengthAdjust="spacing" textLength="143" x="744.5" y="561.4951">participatingOrganization</text></g><!--MD5=[0fe81ed5bcfc1ec36e1af212514fce22]
reverse link hie to OrgAff6--><g id="link_hie_OrgAff6"><path codeLine="56" d="M556.08,359.22 C623.2,389.17 710.68,428.22 764.95,452.44 " fill="none" id="hie-backto-OrgAff6" style="stroke:#181818;stroke-width:1.0;"/><polygon fill="#181818" points="551.29,357.07,557.8749,364.3939,555.8549,359.11,561.1388,357.09,551.29,357.07" style="stroke:#181818;stroke-width:1.0;"/><text fill="#000000" font-family="sans-serif" font-size="13" lengthAdjust="spacing" textLength="70" x="649.5" y="401.4951">organization</text></g><!--MD5=[234bb8a25042c8fd6e542f9f58e87636]
link OrgAff1 to OrgAff3--><!--MD5=[a5abe7cdd567a0c285d0d06eed03d93a]
link OrgAff6 to con2--><g id="link_OrgAff6_con2"><path codeLine="62" d="M858.96,499.68 C877.48,511.44 897.71,527.46 910.5,547 C924.1,567.78 929.36,595.82 931.36,616.41 " fill="none" id="OrgAff6-to-con2" style="stroke:#181818;stroke-width:1.0;"/><polygon fill="#181818" points="931.8,621.48,935.0122,612.1697,931.3706,616.4985,927.0418,612.8568,931.8,621.48" style="stroke:#181818;stroke-width:1.0;"/></g><!--MD5=[847b8ae2edc9fef1d4b20d7e10ab46db]
reverse link OU to Pr--><g id="link_OU_Pr"><path codeLine="68" d="M614.5,700.49 C614.5,724.06 614.5,751.15 614.5,772.85 " fill="none" id="OU-backto-Pr" style="stroke:#181818;stroke-width:1.0;"/><polygon fill="#181818" points="614.5,695.2,610.5,704.2,614.5,700.2,618.5,704.2,614.5,695.2" style="stroke:#181818;stroke-width:1.0;"/><text fill="#000000" font-family="sans-serif" font-size="13" lengthAdjust="spacing" textLength="70" x="615.5" y="739.4951">organization</text></g><!--MD5=[3a17710b33a0ab28f03f18d6d7b79b2e]
link Pr to Dr--><g id="link_Pr_Dr"><path codeLine="69" d="M775.64,814 C808.92,814 842.47,814 870.91,814 " fill="none" id="Pr-to-Dr" style="stroke:#181818;stroke-width:1.0;"/><polygon fill="#181818" points="876.16,814,867.16,810,871.16,814,867.16,818,876.16,814" style="stroke:#181818;stroke-width:1.0;"/><text fill="#000000" font-family="sans-serif" font-size="13" lengthAdjust="spacing" textLength="64" x="794" y="807.4951">practitioner</text></g><!--MD5=[902d18a432d9eb7bdd892535397f36df]
@startuml access-multi-level-community-practitioner
hide footbox

object ":Organization" as nhie
nhie : name = "Big Health Exchange"
nhie : OrgID = 7.8.9

object ":Organization" as Partners
Partners : name = "New Hope\nMedical Partners"

object "orgAff4:OrganizationAffiliation" as OrgAff4
OrgAff4 : code = “HIEInitiator”
OrgAff4 - -> Partners : participatingOrganization
nhie <- - OrgAff4 : organization

object ":Organization" as hie
hie : name = "Valley Region HIE"
hie : OrgID = 1.2.3.0
hie : HCID = 1.2.3

object "orgAff5:OrganizationAffiliation" as OrgAff5
OrgAff5 : code = “HIEResponder”
OrgAff5 - -> hie : participatingOrganization
nhie <- - OrgAff5 : organization

object "Valley BigHx Responding Gateway : Endpoint(s)" as rg1
rg1 : connectionType = "XCDR-RespGateway-DocProvide"
rg1 <- - OrgAff5

object ":Organization" as OU
OU : name = "University Health"
OU : alias = "OU Health System",\n"OU Health"
OU : OrgID = 1.2.3.3

object ":Organization" as Urgent
Urgent : name = "Urgent Health"
Urgent : OrgID = 4.5.6.7

object "orgAff1:OrganizationAffiliation" as OrgAff1
OrgAff1 : code = “HIEResponder”
OrgAff1 - -> Urgent : participatingOrganization
hie <- - OrgAff1 : organization

object "orgAff2:OrganizationAffiliation" as OrgAff2
OrgAff2 : code = “HIEInitiator”,\n  “DocShare-federate-int”,\n  “DocShare-federate-ext”
OrgAff2 - -> OU : participatingOrganization
hie <- - OrgAff2 : organization

object "orgAff3:OrganizationAffiliation" as OrgAff3
OrgAff3 : code = “HIEInitiator”,\n  “DocShare-federate-int”,\n  “DocShare-federate-ext”
OrgAff3 - -> Urgent : participatingOrganization
hie <- - OrgAff3 : organization

object "orgAff6:OrganizationAffiliation" as OrgAff6
OrgAff6 : code = “HIEResponder”
OrgAff6 - -> OU : participatingOrganization
hie <- - OrgAff6 : organization

OrgAff1 -[hidden] OrgAff3

object ":Endpoint" as con2
con2 : connectionType = "XDR-Recipient-ProvideReg"
OrgAff6 - -> con2

object "Practitioner" as Dr
Dr : name = "Dr. Santos"

object "PractitionerRole" as Pr
Pr -u-> OU : organization
Pr -> Dr : practitioner
Pr : telecom.system = email
Pr : telecom.value = "dr.santos@universityhealth.org"
Pr : specialty = "Neurology"

@enduml

PlantUML version 1.2022.7(Mon Aug 22 12:01:30 CDT 2022)
(GPL source distribution)
Java Runtime: OpenJDK Runtime Environment
JVM: OpenJDK 64-Bit Server VM
Default Encoding: Cp1252
Language: en
Country: US
--></g></svg>