<?xml version="1.0" encoding="UTF-8" standalone="no"?><svg xmlns="http://www.w3.org/2000/svg" xmlns:xlink="http://www.w3.org/1999/xlink" contentStyleType="text/css" height="585px" preserveAspectRatio="none" style="width:1742px;height:585px;background:#FFFFFF;" version="1.1" viewBox="0 0 1742 585" width="1742px" zoomAndPan="magnify"><defs/><g><g id="elem_Partners"><rect fill="#F1F1F1" height="60.8906" style="stroke:#181818;stroke-width:0.5;" width="150" x="258.5" y="347"/><text fill="#000000" font-family="sans-serif" font-size="14" lengthAdjust="spacing" textLength="97" x="285" y="361.9951">:Organization</text><line style="stroke:#181818;stroke-width:0.5;" x1="259.5" x2="407.5" y1="367.2969" y2="367.2969"/><text fill="#000000" font-family="sans-serif" font-size="14" lengthAdjust="spacing" textLength="138" x="264.5" y="384.292">name = "New Hope</text><text fill="#000000" font-family="sans-serif" font-size="14" lengthAdjust="spacing" textLength="126" x="264.5" y="400.5889">Medical Partners"</text></g><g id="elem_hie2"><rect fill="#F1F1F1" height="60.8906" style="stroke:#181818;stroke-width:0.5;" width="122" x="47.5" y="15"/><text fill="#000000" font-family="sans-serif" font-size="14" lengthAdjust="spacing" textLength="82" x="67.5" y="29.9951">Seaside HIE</text><line style="stroke:#181818;stroke-width:0.5;" x1="48.5" x2="168.5" y1="35.2969" y2="35.2969"/><text fill="#000000" font-family="sans-serif" font-size="14" lengthAdjust="spacing" textLength="110" x="53.5" y="52.292">OrgID = 9.8.7.6</text><text fill="#000000" font-family="sans-serif" font-size="14" lengthAdjust="spacing" textLength="90" x="53.5" y="68.5889">HCID = 9.8.7</text></g><g id="elem_sEndpoints"><rect fill="#F1F1F1" height="93.4844" style="stroke:#181818;stroke-width:0.5;" width="203" x="239" y="161"/><text fill="#000000" font-family="sans-serif" font-size="14" lengthAdjust="spacing" textLength="88" x="296.5" y="175.9951">:Endpoint(s)</text><line style="stroke:#181818;stroke-width:0.5;" x1="240" x2="441" y1="181.2969" y2="181.2969"/><text fill="#000000" font-family="sans-serif" font-size="14" lengthAdjust="spacing" textLength="132" x="245" y="198.292">connectionType =</text><text fill="#000000" font-family="sans-serif" font-size="14" lengthAdjust="spacing" textLength="149" x="253" y="214.5889">PDQ-Supplier-Query,</text><text fill="#000000" font-family="sans-serif" font-size="14" lengthAdjust="spacing" textLength="148" x="253" y="230.8857">XDS-Registry-Query,</text><text fill="#000000" font-family="sans-serif" font-size="14" lengthAdjust="spacing" textLength="183" x="253" y="247.1826">XDS-Repository-Retrieve</text></g><g id="elem_hie"><rect fill="#F1F1F1" height="77.1875" style="stroke:#181818;stroke-width:0.5;" width="209" x="920" y="7"/><text fill="#000000" font-family="sans-serif" font-size="14" lengthAdjust="spacing" textLength="124" x="962.5" y="21.9951">Valley Region HIE</text><line style="stroke:#181818;stroke-width:0.5;" x1="921" x2="1128" y1="27.2969" y2="27.2969"/><text fill="#000000" font-family="sans-serif" font-size="14" lengthAdjust="spacing" textLength="197" x="926" y="44.292">name = "Valley Region HIE"</text><text fill="#000000" font-family="sans-serif" font-size="14" lengthAdjust="spacing" textLength="110" x="926" y="60.5889">OrgID = 1.2.3.0</text><text fill="#000000" font-family="sans-serif" font-size="14" lengthAdjust="spacing" textLength="90" x="926" y="76.8857">HCID = 1.2.3</text></g><g id="elem_Valley"><rect fill="#F1F1F1" height="77.1875" style="stroke:#181818;stroke-width:0.5;" width="174" x="445.5" y="339"/><text fill="#000000" font-family="sans-serif" font-size="14" lengthAdjust="spacing" textLength="97" x="484" y="353.9951">:Organization</text><line style="stroke:#181818;stroke-width:0.5;" x1="446.5" x2="618.5" y1="359.2969" y2="359.2969"/><text fill="#000000" font-family="sans-serif" font-size="14" lengthAdjust="spacing" textLength="162" x="451.5" y="376.292">name = "Valley Access</text><text fill="#000000" font-family="sans-serif" font-size="14" lengthAdjust="spacing" textLength="85" x="451.5" y="392.5889">Healthcare"</text><text fill="#000000" font-family="sans-serif" font-size="14" lengthAdjust="spacing" textLength="109" x="451.5" y="408.8857">OrgID = 1.2.3.2</text></g><g id="elem_OU"><rect fill="#F1F1F1" height="93.4844" style="stroke:#181818;stroke-width:0.5;" width="209" x="655" y="331"/><text fill="#000000" font-family="sans-serif" font-size="14" lengthAdjust="spacing" textLength="97" x="711" y="345.9951">:Organization</text><line style="stroke:#181818;stroke-width:0.5;" x1="656" x2="863" y1="351.2969" y2="351.2969"/><text fill="#000000" font-family="sans-serif" font-size="14" lengthAdjust="spacing" textLength="195" x="661" y="368.292">name = "University Health"</text><text fill="#000000" font-family="sans-serif" font-size="14" lengthAdjust="spacing" textLength="197" x="661" y="384.5889">alias = "OU Health System",</text><text fill="#000000" font-family="sans-serif" font-size="14" lengthAdjust="spacing" textLength="85" x="661" y="400.8857">"OU Health"</text><text fill="#000000" font-family="sans-serif" font-size="14" lengthAdjust="spacing" textLength="110" x="661" y="417.1826">OrgID = 1.2.3.3</text></g><g id="elem_Urgent"><rect fill="#F1F1F1" height="77.1875" style="stroke:#181818;stroke-width:0.5;" width="232" x="1493.5" y="339"/><text fill="#000000" font-family="sans-serif" font-size="14" lengthAdjust="spacing" textLength="97" x="1561" y="353.9951">:Organization</text><line style="stroke:#181818;stroke-width:0.5;" x1="1494.5" x2="1724.5" y1="359.2969" y2="359.2969"/><text fill="#000000" font-family="sans-serif" font-size="14" lengthAdjust="spacing" textLength="220" x="1499.5" y="376.292">name = "Urgent Health Valley"</text><text fill="#000000" font-family="sans-serif" font-size="14" lengthAdjust="spacing" textLength="164" x="1499.5" y="392.5889">alias = "Urgent Health"</text><text fill="#000000" font-family="sans-serif" font-size="14" lengthAdjust="spacing" textLength="110" x="1499.5" y="408.8857">OrgID = 4.5.6.7</text></g><g id="elem_UrgentNational"><rect fill="#F1F1F1" height="77.1875" style="stroke:#181818;stroke-width:0.5;" width="251" x="1484" y="501"/><text fill="#000000" font-family="sans-serif" font-size="14" lengthAdjust="spacing" textLength="97" x="1561" y="515.9951">:Organization</text><line style="stroke:#181818;stroke-width:0.5;" x1="1485" x2="1734" y1="521.2969" y2="521.2969"/><text fill="#000000" font-family="sans-serif" font-size="14" lengthAdjust="spacing" textLength="239" x="1490" y="538.292">name = "Urgent Health USA, LLC"</text><text fill="#000000" font-family="sans-serif" font-size="14" lengthAdjust="spacing" textLength="164" x="1490" y="554.5889">alias = "Urgent Health"</text><text fill="#000000" font-family="sans-serif" font-size="14" lengthAdjust="spacing" textLength="96" x="1490" y="570.8857">OrgID = 4.5.6</text></g><g id="elem_Benefits"><rect fill="#F1F1F1" height="60.8906" style="stroke:#181818;stroke-width:0.5;" width="193" x="1265" y="347"/><text fill="#000000" font-family="sans-serif" font-size="14" lengthAdjust="spacing" textLength="97" x="1313" y="361.9951">:Organization</text><line style="stroke:#181818;stroke-width:0.5;" x1="1266" x2="1457" y1="367.2969" y2="367.2969"/><text fill="#000000" font-family="sans-serif" font-size="14" lengthAdjust="spacing" textLength="181" x="1271" y="384.292">name = "Valley Benefits"</text><text fill="#000000" font-family="sans-serif" font-size="14" lengthAdjust="spacing" textLength="109" x="1271" y="400.5889">OrgID = 1.2.3.4</text></g><g id="elem_OrgAff4"><rect fill="#F1F1F1" height="60.8906" style="stroke:#181818;stroke-width:0.5;" width="190" x="479.5" y="177"/><text fill="#000000" font-family="sans-serif" font-size="14" lengthAdjust="spacing" textLength="168" x="490.5" y="191.9951">:OrganizationAffiliation</text><line style="stroke:#181818;stroke-width:0.5;" x1="480.5" x2="668.5" y1="197.2969" y2="197.2969"/><text fill="#000000" font-family="sans-serif" font-size="14" lengthAdjust="spacing" textLength="153" x="485.5" y="214.292">code = “HIEInitiator”,</text><text fill="#000000" font-family="sans-serif" font-size="14" lengthAdjust="spacing" textLength="178" x="485.5" y="230.5889">"DocShare-federate-int"</text></g><g id="elem_vEndpoints"><rect fill="#F1F1F1" height="93.4844" style="stroke:#181818;stroke-width:0.5;" width="331" x="899" y="331"/><text fill="#000000" font-family="sans-serif" font-size="14" lengthAdjust="spacing" textLength="317" x="906" y="345.9951">Valley HIE Centralized Services : Endpoint(s)</text><line style="stroke:#181818;stroke-width:0.5;" x1="900" x2="1229" y1="351.2969" y2="351.2969"/><text fill="#000000" font-family="sans-serif" font-size="14" lengthAdjust="spacing" textLength="132" x="905" y="368.292">connectionType =</text><text fill="#000000" font-family="sans-serif" font-size="14" lengthAdjust="spacing" textLength="149" x="913" y="384.5889">PDQ-Supplier-Query,</text><text fill="#000000" font-family="sans-serif" font-size="14" lengthAdjust="spacing" textLength="148" x="913" y="400.8857">XDS-Registry-Query,</text><text fill="#000000" font-family="sans-serif" font-size="14" lengthAdjust="spacing" textLength="183" x="913" y="417.1826">XDS-Repository-Retrieve</text></g><g id="elem_OrgAff1"><rect fill="#F1F1F1" height="60.8906" style="stroke:#181818;stroke-width:0.5;" width="190" x="704.5" y="177"/><text fill="#000000" font-family="sans-serif" font-size="14" lengthAdjust="spacing" textLength="168" x="715.5" y="191.9951">:OrganizationAffiliation</text><line style="stroke:#181818;stroke-width:0.5;" x1="705.5" x2="893.5" y1="197.2969" y2="197.2969"/><text fill="#000000" font-family="sans-serif" font-size="14" lengthAdjust="spacing" textLength="153" x="710.5" y="214.292">code = “HIEInitiator”,</text><text fill="#000000" font-family="sans-serif" font-size="14" lengthAdjust="spacing" textLength="178" x="710.5" y="230.5889">"DocShare-federate-int"</text></g><g id="elem_OrgAff2"><rect fill="#F1F1F1" height="60.8906" style="stroke:#181818;stroke-width:0.5;" width="190" x="929.5" y="177"/><text fill="#000000" font-family="sans-serif" font-size="14" lengthAdjust="spacing" textLength="168" x="940.5" y="191.9951">:OrganizationAffiliation</text><line style="stroke:#181818;stroke-width:0.5;" x1="930.5" x2="1118.5" y1="197.2969" y2="197.2969"/><text fill="#000000" font-family="sans-serif" font-size="14" lengthAdjust="spacing" textLength="153" x="935.5" y="214.292">code = “HIEInitiator”,</text><text fill="#000000" font-family="sans-serif" font-size="14" lengthAdjust="spacing" textLength="178" x="935.5" y="230.5889">"DocShare-federate-int"</text></g><g id="elem_OrgAff3"><rect fill="#F1F1F1" height="60.8906" style="stroke:#181818;stroke-width:0.5;" width="190" x="1388.5" y="177"/><text fill="#000000" font-family="sans-serif" font-size="14" lengthAdjust="spacing" textLength="168" x="1399.5" y="191.9951">:OrganizationAffiliation</text><line style="stroke:#181818;stroke-width:0.5;" x1="1389.5" x2="1577.5" y1="197.2969" y2="197.2969"/><text fill="#000000" font-family="sans-serif" font-size="14" lengthAdjust="spacing" textLength="153" x="1394.5" y="214.292">code = “HIEInitiator”,</text><text fill="#000000" font-family="sans-serif" font-size="14" lengthAdjust="spacing" textLength="178" x="1394.5" y="230.5889">"DocShare-federate-int"</text></g><g id="elem_OrgAff5"><rect fill="#F1F1F1" height="44.5938" style="stroke:#181818;stroke-width:0.5;" width="182" x="1154.5" y="185"/><text fill="#000000" font-family="sans-serif" font-size="14" lengthAdjust="spacing" textLength="168" x="1161.5" y="199.9951">:OrganizationAffiliation</text><line style="stroke:#181818;stroke-width:0.5;" x1="1155.5" x2="1335.5" y1="205.2969" y2="205.2969"/><text fill="#000000" font-family="sans-serif" font-size="14" lengthAdjust="spacing" textLength="149" x="1160.5" y="222.292">code = “HIEInitiator”</text></g><g id="elem_SeasideHosp"><rect fill="#F1F1F1" height="44.5938" style="stroke:#181818;stroke-width:0.5;" width="203" x="7" y="355"/><text fill="#000000" font-family="sans-serif" font-size="14" lengthAdjust="spacing" textLength="97" x="60" y="369.9951">:Organization</text><line style="stroke:#181818;stroke-width:0.5;" x1="8" x2="209" y1="375.2969" y2="375.2969"/><text fill="#000000" font-family="sans-serif" font-size="14" lengthAdjust="spacing" textLength="191" x="13" y="392.292">name = "Seaside Hospital"</text></g><g id="elem_OrgAff6"><rect fill="#F1F1F1" height="60.8906" style="stroke:#181818;stroke-width:0.5;" width="190" x="13.5" y="177"/><text fill="#000000" font-family="sans-serif" font-size="14" lengthAdjust="spacing" textLength="168" x="24.5" y="191.9951">:OrganizationAffiliation</text><line style="stroke:#181818;stroke-width:0.5;" x1="14.5" x2="202.5" y1="197.2969" y2="197.2969"/><text fill="#000000" font-family="sans-serif" font-size="14" lengthAdjust="spacing" textLength="153" x="19.5" y="214.292">code = “HIEInitiator”,</text><text fill="#000000" font-family="sans-serif" font-size="14" lengthAdjust="spacing" textLength="178" x="19.5" y="230.5889">"DocShare-federate-int"</text></g><!--link Urgent to UrgentNational--><g id="link_Urgent_UrgentNational"><path codeLine="36" d="M1609.5,416.013 C1609.5,439.899 1609.5,470.904 1609.5,495.7433 " fill="none" id="Urgent-to-UrgentNational" style="stroke:#181818;stroke-width:1.0;"/><polygon fill="#181818" points="1609.5,500.9453,1613.5,491.9453,1609.5,495.9453,1605.5,491.9453,1609.5,500.9453" style="stroke:#181818;stroke-width:1.0;"/><text fill="#000000" font-family="sans-serif" font-size="13" lengthAdjust="spacing" textLength="41" x="1610.5" y="467.0669">partOf</text></g><!--link OrgAff4 to Partners--><g id="link_OrgAff4_Partners"><path codeLine="43" d="M504.543,238.087 C489.809,243.778 474.257,249.393 459.5,254 C403.312,271.543 367.106,237.904 330.5,284 C317.896,299.872 318.441,322.56 322.238,341.494 " fill="none" id="OrgAff4-to-Partners" style="stroke:#181818;stroke-width:1.0;"/><polygon fill="#181818" points="323.386,346.726,325.3614,337.0773,322.313,341.8425,317.5478,338.7941,323.386,346.726" style="stroke:#181818;stroke-width:1.0;"/><text fill="#000000" font-family="sans-serif" font-size="13" lengthAdjust="spacing" textLength="160" x="331.5" y="297.0669">participatingOrganization</text></g><!--reverse link hie to OrgAff4--><g id="link_hie_OrgAff4"><path codeLine="44" d="M915.221,81.579 C848.728,103.403 762.288,132.63 686.5,161 C673.232,165.966 659.175,171.477 645.666,176.9 " fill="none" id="hie-backto-OrgAff4" style="stroke:#181818;stroke-width:1.0;"/><polygon fill="#181818" points="919.974,80.02,910.1755,79.0253,915.2232,81.5788,912.6696,86.6265,919.974,80.02" style="stroke:#181818;stroke-width:1.0;"/><text fill="#000000" font-family="sans-serif" font-size="13" lengthAdjust="spacing" textLength="79" x="817.5" y="127.0669">organization</text></g><!--link OrgAff1 to Valley--><g id="link_OrgAff1_Valley"><path codeLine="52" d="M739.787,238.087 C714.276,251.335 684.457,267.638 658.5,284 C633.431,299.802 606.822,318.955 584.548,335.724 " fill="none" id="OrgAff1-to-Valley" style="stroke:#181818;stroke-width:1.0;"/><polygon fill="#181818" points="580.441,338.826,590.0338,336.5947,584.4312,335.813,585.213,330.2104,580.441,338.826" style="stroke:#181818;stroke-width:1.0;"/><text fill="#000000" font-family="sans-serif" font-size="13" lengthAdjust="spacing" textLength="160" x="659.5" y="297.0669">participatingOrganization</text></g><!--reverse link hie to OrgAff1--><g id="link_hie_OrgAff1"><path codeLine="53" d="M967.491,87.04 C928.097,115.053 876.592,151.679 841.05,176.953 " fill="none" id="hie-backto-OrgAff1" style="stroke:#181818;stroke-width:1.0;"/><polygon fill="#181818" points="971.747,84.013,962.0939,85.9671,967.6717,86.9099,966.7289,92.4876,971.747,84.013" style="stroke:#181818;stroke-width:1.0;"/><text fill="#000000" font-family="sans-serif" font-size="13" lengthAdjust="spacing" textLength="79" x="926.5" y="127.0669">organization</text></g><!--link OrgAff2 to OU--><g id="link_OrgAff2_OU"><path codeLine="57" d="M957.749,238.007 C930.849,250.88 899.981,266.927 873.5,284 C853.485,296.904 832.895,312.71 814.815,327.581 " fill="none" id="OrgAff2-to-OU" style="stroke:#181818;stroke-width:1.0;"/><polygon fill="#181818" points="810.757,330.938,820.242,328.2856,814.6104,327.7519,815.1442,322.1202,810.757,330.938" style="stroke:#181818;stroke-width:1.0;"/><text fill="#000000" font-family="sans-serif" font-size="13" lengthAdjust="spacing" textLength="160" x="874.5" y="297.0669">participatingOrganization</text></g><!--reverse link hie to OrgAff2--><g id="link_hie_OrgAff2"><path codeLine="58" d="M1024.5,89.096 C1024.5,116.826 1024.5,152.293 1024.5,176.953 " fill="none" id="hie-backto-OrgAff2" style="stroke:#181818;stroke-width:1.0;"/><polygon fill="#181818" points="1024.5,84.013,1020.5,93.013,1024.5,89.013,1028.5,93.013,1024.5,84.013" style="stroke:#181818;stroke-width:1.0;"/><text fill="#000000" font-family="sans-serif" font-size="13" lengthAdjust="spacing" textLength="79" x="1025.5" y="127.0669">organization</text></g><!--link OrgAff3 to Urgent--><g id="link_OrgAff3_Urgent"><path codeLine="62" d="M1505.74,238.148 C1525.8,264.904 1555.54,304.551 1578.04,334.553 " fill="none" id="OrgAff3-to-Urgent" style="stroke:#181818;stroke-width:1.0;"/><polygon fill="#181818" points="1581.31,338.907,1579.11,329.307,1578.31,334.907,1572.71,334.107,1581.31,338.907" style="stroke:#181818;stroke-width:1.0;"/><text fill="#000000" font-family="sans-serif" font-size="13" lengthAdjust="spacing" textLength="160" x="1550.5" y="297.0669">participatingOrganization</text></g><!--reverse link hie to OrgAff3--><g id="link_hie_OrgAff3"><path codeLine="63" d="M1134.27,83.16 C1163.61,93.068 1195.29,103.857 1224.5,114 C1284.04,134.677 1351.04,158.624 1401.97,176.971 " fill="none" id="hie-backto-OrgAff3" style="stroke:#181818;stroke-width:1.0;"/><polygon fill="#181818" points="1129.2,81.45,1136.4474,88.119,1133.9372,83.0496,1139.0067,80.5394,1129.2,81.45" style="stroke:#181818;stroke-width:1.0;"/><text fill="#000000" font-family="sans-serif" font-size="13" lengthAdjust="spacing" textLength="79" x="1268.5" y="127.0669">organization</text></g><!--link OrgAff5 to Benefits--><g id="link_OrgAff5_Benefits"><path codeLine="66" d="M1260.43,230.119 C1280.05,258.532 1314.73,308.758 1337.91,342.338 " fill="none" id="OrgAff5-to-Benefits" style="stroke:#181818;stroke-width:1.0;"/><polygon fill="#181818" points="1340.96,346.757,1339.1392,337.0779,1338.1196,342.6421,1332.5554,341.6226,1340.96,346.757" style="stroke:#181818;stroke-width:1.0;"/><text fill="#000000" font-family="sans-serif" font-size="13" lengthAdjust="spacing" textLength="160" x="1308.5" y="297.0669">participatingOrganization</text></g><!--reverse link hie to OrgAff5--><g id="link_hie_OrgAff5"><path codeLine="68" d="M1080.43,86.992 C1123.44,118.132 1181.18,159.934 1215.73,184.95 " fill="none" id="hie-backto-OrgAff5" style="stroke:#181818;stroke-width:1.0;"/><polygon fill="#181818" points="1076.31,84.013,1081.2592,92.528,1080.3617,86.9428,1085.9469,86.0453,1076.31,84.013" style="stroke:#181818;stroke-width:1.0;"/><text fill="#000000" font-family="sans-serif" font-size="13" lengthAdjust="spacing" textLength="79" x="1136.5" y="127.0669">organization</text></g><!--link OrgAff1 to vEndpoints--><g id="link_OrgAff1_vEndpoints"><path codeLine="70" d="M806.623,238.061 C812.923,258.323 824.053,284.434 842.5,301 C857.648,314.603 875.35,325.773 894.03,334.941 " fill="none" id="OrgAff1-to-vEndpoints" style="stroke:#181818;stroke-width:1.0;"/><polygon fill="#181818" points="898.799,337.229,892.4154,329.729,894.2912,335.0658,888.9543,336.9415,898.799,337.229" style="stroke:#181818;stroke-width:1.0;"/></g><!--link OrgAff2 to vEndpoints--><g id="link_OrgAff2_vEndpoints"><path codeLine="71" d="M1031.56,238.148 C1037.33,262.369 1045.61,297.155 1052.43,325.786 " fill="none" id="OrgAff2-to-vEndpoints" style="stroke:#181818;stroke-width:1.0;"/><polygon fill="#181818" points="1053.59,330.69,1055.3991,321.0087,1052.4331,325.8257,1047.6162,322.8597,1053.59,330.69" style="stroke:#181818;stroke-width:1.0;"/></g><!--link OrgAff3 to vEndpoints--><g id="link_OrgAff3_vEndpoints"><path codeLine="72" d="M1484.59,238.245 C1483.64,258.866 1478.71,285.335 1461.5,301 C1425.98,333.319 1294.64,321.861 1247.5,331 C1243.55,331.767 1239.55,332.565 1235.52,333.389 " fill="none" id="OrgAff3-to-vEndpoints" style="stroke:#181818;stroke-width:1.0;"/><polygon fill="#181818" points="1230.41,334.448,1240.0343,336.539,1235.306,333.4336,1238.4114,328.7053,1230.41,334.448" style="stroke:#181818;stroke-width:1.0;"/></g><!--link OrgAff4 to vEndpoints--><g id="link_OrgAff4_vEndpoints"><path codeLine="73" d="M645.694,238.026 C659.2,243.456 673.249,248.988 686.5,254 C758.333,281.17 839.175,307.876 907.606,329.383 " fill="none" id="OrgAff4-to-vEndpoints" style="stroke:#181818;stroke-width:1.0;"/><polygon fill="#181818" points="912.511,330.922,905.1213,324.411,907.7403,329.4251,902.7263,332.0441,912.511,330.922" style="stroke:#181818;stroke-width:1.0;"/></g><!--link OrgAff5 to vEndpoints--><g id="link_OrgAff5_vEndpoints"><path codeLine="74" d="M1222.21,230.119 C1195.86,254.574 1152.1,295.188 1117.36,327.44 " fill="none" id="OrgAff5-to-vEndpoints" style="stroke:#181818;stroke-width:1.0;"/><polygon fill="#181818" points="1113.59,330.931,1122.9081,327.7416,1117.2552,327.5301,1117.4667,321.8772,1113.59,330.931" style="stroke:#181818;stroke-width:1.0;"/></g><!--link OrgAff6 to SeasideHosp--><g id="link_OrgAff6_SeasideHosp"><path codeLine="79" d="M108.5,238.148 C108.5,269.76 108.5,319.369 108.5,349.802 " fill="none" id="OrgAff6-to-SeasideHosp" style="stroke:#181818;stroke-width:1.0;"/><polygon fill="#181818" points="108.5,354.884,112.5,345.884,108.5,349.884,104.5,345.884,108.5,354.884" style="stroke:#181818;stroke-width:1.0;"/><text fill="#000000" font-family="sans-serif" font-size="13" lengthAdjust="spacing" textLength="160" x="109.5" y="297.0669">participatingOrganization</text></g><!--reverse link hie2 to OrgAff6--><g id="link_hie2_OrgAff6"><path codeLine="81" d="M108.5,81.416 C108.5,109.982 108.5,149.935 108.5,176.939 " fill="none" id="hie2-backto-OrgAff6" style="stroke:#181818;stroke-width:1.0;"/><polygon fill="#181818" points="108.5,76.22,104.5,85.22,108.5,81.22,112.5,85.22,108.5,76.22" style="stroke:#181818;stroke-width:1.0;"/><text fill="#000000" font-family="sans-serif" font-size="13" lengthAdjust="spacing" textLength="79" x="109.5" y="127.0669">organization</text></g><!--link OrgAff6 to sEndpoints--><g id="link_OrgAff6_sEndpoints"><path codeLine="82" d="M203.656,207.5 C213.671,207.5 223.685,207.5 233.699,207.5 " fill="none" id="OrgAff6-to-sEndpoints" style="stroke:#181818;stroke-width:1.0;"/><polygon fill="#181818" points="238.936,207.5,229.936,203.5,233.936,207.5,229.936,211.5,238.936,207.5" style="stroke:#181818;stroke-width:1.0;"/></g><!--SRC=[lLRTRjem5BxFKrYvsgGc6k5dMxLLOb29Ibrfcp7jWXit7C1Ji2F7fQLNVP3jvVeaEqaSuX18eKYx0UVp-VdEhpnd4o1J8TITUBHe68g71NjaV6PPukut18hOfqCvevmzKSK4jmcDoJMLYeEChVn0JWcd2o1VYNq53sGW8XZpxp1X0GtNqdPXqWSQ9tu75-UfmJa3pqf-q11wk-YZfS_k9_UZsydXGQz02shdV189njMx-7rgACw1s2gEg1q8pb430_YnYXAUOqx8TV_6yU-ZA6GWdPjxaAkJ1FxLzvrRcB5OoLK5ZaJCbC2BMr2ImHAAe7vYzc154bN1pT2I48mCLUMqG1vvm_NSflj1ephm5AmhIcRMqjOhxhf1074yvWEWePe7L89To9OzUtLkXYDhE3BCZpXROd6PMf7Cj9tTqv2XD0hWLtP1_5MiO65ZDWjGIvS9rCOvaZFWoih-J28Pe7rbeTc5s9fFISuGo2cqtBRRmHvxbS9L2j3GAd_kf3JokoVayh9dLnNgoHc29P8vTySv8nN92ATkEAsBuXjmc3ASbFnGRPhynZPbohLgxN3HdKuPHbNqZPmXrBBqVqhQM1y9NHQm21NupBIJJi4NnyaDeAmmhmiu49E4-ylp7vof2yuKUXVovVblqd1z4VXpR7fd2XEGL863cy6k32zgaXucKc95dc12V91BXeE3vZTNpR9ODSl_lMhso7H3PwRnnipasacTrdjYtoerDgjq27DF-_QEOkwbpDFbiYzhxnZMJUstUHJhfZ7C1p1l7iEyhNstKz_6eE_sdYlKXBh1i5rXQ3QOCKjczIfmSplSsWwtD-6QPQXV90CHHvPnDbRY-is2C5Cqj0_9SKTJwgIKoWvUItFdZHsLFfoA2dIsRqvaT6Oyc_u1]--></g></svg>