<?xml version="1.0" encoding="UTF-8" standalone="no"?><svg xmlns="http://www.w3.org/2000/svg" xmlns:xlink="http://www.w3.org/1999/xlink" contentStyleType="text/css" height="257px" preserveAspectRatio="none" style="width:758px;height:257px;background:#FFFFFF;" version="1.1" viewBox="0 0 758 257" width="758px" zoomAndPan="magnify"><defs/><g><g id="elem_Partners"><rect fill="#F1F1F1" height="64.8281" style="stroke:#181818;stroke-width:0.5;" width="131" x="7" y="7"/><text fill="#000000" font-family="sans-serif" font-size="14" lengthAdjust="spacing" textLength="84" x="30.5" y="23.5332">:Organization</text><line style="stroke:#181818;stroke-width:0.5;" x1="8" x2="137" y1="28.6094" y2="28.6094"/><text fill="#000000" font-family="sans-serif" font-size="14" lengthAdjust="spacing" textLength="119" x="13" y="47.1426">name = "New Hope</text><text fill="#000000" font-family="sans-serif" font-size="14" lengthAdjust="spacing" textLength="111" x="13" y="64.752">Medical Partners"</text></g><g id="elem_GMN3"><path d="M173,10 L173,35.5 L138.09,39.5 L173,43.5 L173,69.0547 A0,0 0 0 0 173,69.0547 L358,69.0547 A0,0 0 0 0 358,69.0547 L358,20 L348,10 L173,10 A0,0 0 0 0 173,10 " fill="#FEFFDD" style="stroke:#181818;stroke-width:0.5;"/><path d="M348,10 L348,20 L358,20 L348,10 " fill="#FEFFDD" style="stroke:#181818;stroke-width:0.5;"/><text fill="#000000" font-family="sans-serif" font-size="13" lengthAdjust="spacing" textLength="153" x="179" y="28.4951">Needs records from Valley</text><text fill="#000000" font-family="sans-serif" font-size="13" lengthAdjust="spacing" textLength="155" x="179" y="44.8467">Access and University; will</text><text fill="#000000" font-family="sans-serif" font-size="13" lengthAdjust="spacing" textLength="164" x="179" y="61.1982">also get records from Urgent</text></g><!--MD5=[ffb3c085463307fae7ebb353cb54ee43]
entity hie--><g id="elem_hie"><path d="M403.476,23.6865 C407.6741,18.7998 411.4171,19.1374 415.0487,24.3365 C418.187,18.7987 422.6481,17.4098 426.7616,23.3404 C430.0533,17.0449 435.7312,16.2299 439.9768,22.3228 C443.59,14.8906 447.8363,15.3618 453.3831,20.2123 C456.2668,14.085 461.927,11.8112 466.5131,18.4631 C470.8964,11.8639 476.2304,12.6939 479.2431,19.7416 C483.7643,14.8037 489.7894,15.3236 491.8343,22.3481 C495.5254,16.1232 499.6087,17.294 503.615,22.0087 C508.039,15.3862 512.9545,15.95 516.5784,22.7798 C521.5562,18.293 525.7606,17.1659 529.0025,24.5903 C538.3227,27.7053 537.6962,35.3256 531.2732,40.6646 C537.1869,46.1097 535.0505,53.4414 527.86,55.9629 C524.0087,61.6969 520.0409,62.0984 516.3703,55.7905 C512.7684,62.4236 507.3119,62.8827 502.3693,57.3311 C498.084,63.2154 492.7775,62.8085 489.8835,55.9661 C487.211,62.5566 482.4582,63.4904 477.9288,57.7692 C473.5777,64.391 468.7291,64.3463 464.6379,57.5123 C460.9359,63.1211 455.3213,62.4687 452.9004,56.2419 C449.8521,61.2215 444.9163,61.4337 441.2846,56.9587 C436.2298,62.1348 431.8734,62.2539 427.9558,55.6699 C424.4742,62.7349 417.8487,62.1206 414.2171,55.8241 C410.5588,60.5754 406.5134,61.2888 403.3117,55.3579 C394.883,54.7157 392.1375,47.4385 396.1894,40.7226 C389.6105,31.821 392.9037,25.2523 403.476,23.6865 " fill="#F1F1F1" style="stroke:#181818;stroke-width:0.5;"/><text fill="#000000" font-family="sans-serif" font-size="14" lengthAdjust="spacing" textLength="112" x="408.5" y="45.0332">Valley Region HIE</text></g><g id="elem_Valley"><rect fill="#F1F1F1" height="82.4375" style="stroke:#181818;stroke-width:0.5;" width="155" x="182" y="159"/><text fill="#000000" font-family="sans-serif" font-size="14" lengthAdjust="spacing" textLength="84" x="217.5" y="175.5332">:Organization</text><line style="stroke:#181818;stroke-width:0.5;" x1="183" x2="336" y1="180.6094" y2="180.6094"/><text fill="#000000" font-family="sans-serif" font-size="14" lengthAdjust="spacing" textLength="143" x="188" y="199.1426">name = "Valley Access</text><text fill="#000000" font-family="sans-serif" font-size="14" lengthAdjust="spacing" textLength="73" x="188" y="216.752">Healthcare"</text><text fill="#000000" font-family="sans-serif" font-size="14" lengthAdjust="spacing" textLength="97" x="188" y="234.3613">OrgID = 1.2.3.2</text></g><g id="elem_OU"><rect fill="#F1F1F1" height="100.0469" style="stroke:#181818;stroke-width:0.5;" width="185" x="372" y="150"/><text fill="#000000" font-family="sans-serif" font-size="14" lengthAdjust="spacing" textLength="84" x="422.5" y="166.5332">:Organization</text><line style="stroke:#181818;stroke-width:0.5;" x1="373" x2="556" y1="171.6094" y2="171.6094"/><text fill="#000000" font-family="sans-serif" font-size="14" lengthAdjust="spacing" textLength="166" x="378" y="190.1426">name = "University Health"</text><text fill="#000000" font-family="sans-serif" font-size="14" lengthAdjust="spacing" textLength="173" x="378" y="207.752">alias = "OU Health System",</text><text fill="#000000" font-family="sans-serif" font-size="14" lengthAdjust="spacing" textLength="74" x="378" y="225.3613">"OU Health"</text><text fill="#000000" font-family="sans-serif" font-size="14" lengthAdjust="spacing" textLength="97" x="378" y="242.9707">OrgID = 1.2.3.3</text></g><g id="elem_Urgent"><rect fill="#F1F1F1" height="64.8281" style="stroke:#181818;stroke-width:0.5;" width="159" x="592" y="167.5"/><text fill="#000000" font-family="sans-serif" font-size="14" lengthAdjust="spacing" textLength="84" x="629.5" y="184.0332">:Organization</text><line style="stroke:#181818;stroke-width:0.5;" x1="593" x2="750" y1="189.1094" y2="189.1094"/><text fill="#000000" font-family="sans-serif" font-size="14" lengthAdjust="spacing" textLength="147" x="598" y="207.6426">name = "Urgent Health"</text><text fill="#000000" font-family="sans-serif" font-size="14" lengthAdjust="spacing" textLength="97" x="598" y="225.252">OrgID = 4.5.6.7</text></g><!--MD5=[6d4b6e1e0e117ff9329e408a04396ed0]
link hie to Valley--><g id="link_hie_Valley"><path codeLine="23" d="M419.83,63.54 C400.59,74.24 378.25,87.74 359.5,102 C337.16,118.98 314.54,140.49 296.47,158.93 " fill="none" id="hie-Valley" style="stroke:#181818;stroke-width:1.0;"/><text fill="#000000" font-family="sans-serif" font-size="13" lengthAdjust="spacing" textLength="95" x="360.5" y="116.4951">«participates in»</text></g><!--MD5=[e40bc51e5d67fdbba754f4ea4c99bf71]
link hie to OU--><g id="link_hie_OU"><path codeLine="24" d="M464.5,63.55 C464.5,86.04 464.5,120.98 464.5,149.74 " fill="none" id="hie-OU" style="stroke:#181818;stroke-width:1.0;"/><text fill="#000000" font-family="sans-serif" font-size="13" lengthAdjust="spacing" textLength="95" x="465.5" y="116.4951">«participates in»</text></g><!--MD5=[8fce2fbddeeaad2de31e64710f4f8b27]
link hie to Urgent--><g id="link_hie_Urgent"><path codeLine="25" d="M509.1,63.63 C528.33,74.35 550.68,87.84 569.5,102 C595.67,121.69 622.39,147.34 641.91,167.32 " fill="none" id="hie-Urgent" style="stroke:#181818;stroke-width:1.0;"/><text fill="#000000" font-family="sans-serif" font-size="13" lengthAdjust="spacing" textLength="95" x="590.5" y="116.4951">«participates in»</text></g><!--MD5=[93e701c1451c8a469993e765be735f20]
@startuml
hide footbox
allowmixing

object ":Organization" as Partners
Partners : name = "New Hope\nMedical Partners"
note right : Needs records from Valley\nAccess and University; will\nalso get records from Urgent

cloud "Valley Region HIE" as hie

object ":Organization" as Valley
Valley : name = "Valley Access\nHealthcare"
Valley : OrgID = 1.2.3.2

object ":Organization" as OU
OU : name = "University Health"
OU : alias = "OU Health System",\n"OU Health"
OU : OrgID = 1.2.3.3

object ":Organization" as Urgent
Urgent : name = "Urgent Health"
Urgent : OrgID = 4.5.6.7

hie - - Valley : <<participates in>>
hie - - OU : <<participates in>>
hie - - Urgent : <<participates in>>

@enduml

PlantUML version 1.2022.7(Mon Aug 22 12:01:30 CDT 2022)
(GPL source distribution)
Java Runtime: OpenJDK Runtime Environment
JVM: OpenJDK 64-Bit Server VM
Default Encoding: Cp1252
Language: en
Country: US
--></g></svg>