<?xml version="1.0" encoding="UTF-8" standalone="no"?><svg xmlns="http://www.w3.org/2000/svg" xmlns:xlink="http://www.w3.org/1999/xlink" contentStyleType="text/css" height="181px" preserveAspectRatio="none" style="width:554px;height:181px;background:#FFFFFF;" version="1.1" viewBox="0 0 554 181" width="554px" zoomAndPan="magnify"><defs/><g><g id="elem_OrganizationE"><rect fill="#F1F1F1" height="64.8281" style="stroke:#181818;stroke-width:0.5;" width="107" x="7" y="110"/><text fill="#000000" font-family="sans-serif" font-size="14" lengthAdjust="spacing" textLength="93" x="14" y="126.5332">Organization E</text><line style="stroke:#181818;stroke-width:0.5;" x1="8" x2="113" y1="131.6094" y2="131.6094"/><text fill="#000000" font-family="sans-serif" font-size="14" lengthAdjust="spacing" textLength="85" x="13" y="150.1426">OrgID = 1.2.6</text><text fill="#000000" font-family="sans-serif" font-size="14" lengthAdjust="spacing" textLength="80" x="13" y="167.752">HCID = 1.2.6</text></g><g id="elem_EndpointE"><rect fill="#F1F1F1" height="47.2188" style="stroke:#181818;stroke-width:0.5;" width="268" x="279.5" y="119"/><text fill="#000000" font-family="sans-serif" font-size="14" lengthAdjust="spacing" textLength="90" x="368.5" y="135.5332">Endpoint for E</text><line style="stroke:#181818;stroke-width:0.5;" x1="280.5" x2="546.5" y1="140.6094" y2="140.6094"/><text fill="#000000" font-family="sans-serif" font-size="14" lengthAdjust="spacing" textLength="256" x="285.5" y="159.1426">address = https://intermediaryF.org/orgE</text></g><g id="elem_N1"><path d="M340.5,6 L340.5,48.7031 A0,0 0 0 0 340.5,48.7031 L409.5,48.7031 L413.5,118.97 L417.5,48.7031 L486.5,48.7031 A0,0 0 0 0 486.5,48.7031 L486.5,16 L476.5,6 L340.5,6 A0,0 0 0 0 340.5,6 " fill="#FEFFDD" style="stroke:#181818;stroke-width:0.5;"/><path d="M476.5,6 L476.5,16 L486.5,16 L476.5,6 " fill="#FEFFDD" style="stroke:#181818;stroke-width:0.5;"/><text fill="#000000" font-family="sans-serif" font-size="13" lengthAdjust="spacing" textLength="83" x="346.5" y="24.4951">Intermediary F</text><text fill="#000000" font-family="sans-serif" font-size="13" lengthAdjust="spacing" textLength="125" x="346.5" y="40.8467">not listed in directory.</text></g><!--MD5=[11d8a01ea32308269f894596362a5584]
link OrganizationE to EndpointE--><g id="link_OrganizationE_EndpointE"><path codeLine="9" d="M114.01,154.74 C132.08,158.31 152.45,161.73 171.25,163.5 C204.46,166.62 240.25,165.81 273.87,163.21 " fill="none" id="OrganizationE-to-EndpointE" style="stroke:#181818;stroke-width:1.0;"/><polygon fill="#181818" points="279.24,162.77,269.9489,159.5026,274.256,163.1699,270.5887,167.4769,279.24,162.77" style="stroke:#181818;stroke-width:1.0;"/><text fill="#000000" font-family="sans-serif" font-size="13" lengthAdjust="spacing" textLength="49" x="172.25" y="159.9951">endpoint</text></g><!--MD5=[c6bbc5a734a3e39a3657f1466b27d0d9]
reverse link OrganizationE to EndpointE--><g id="link_OrganizationE_EndpointE"><path codeLine="12" d="M119.33,142.5 C162.87,142.5 223.95,142.5 279.18,142.5 " fill="none" id="OrganizationE-backto-EndpointE" style="stroke:#181818;stroke-width:1.0;"/><polygon fill="#181818" points="114.11,142.5,123.11,146.5,119.11,142.5,123.11,138.5,114.11,142.5" style="stroke:#181818;stroke-width:1.0;"/><text fill="#000000" font-family="sans-serif" font-size="13" lengthAdjust="spacing" textLength="129" x="132.25" y="135.9951">managingOrganization</text></g><!--MD5=[dada80bc4fb0394027e0f175f0b59594]
@startuml dir-org-specific-endpoint-inter
hide footbox

object "Organization E" as OrganizationE
OrganizationE : OrgID = 1.2.6
OrganizationE : HCID = 1.2.6
object "Endpoint for E" as EndpointE
EndpointE : address = https://intermediaryF.org/orgE

OrganizationE -> EndpointE : endpoint
note "Intermediary F\nnot listed in directory." as N1
N1 .. EndpointE
OrganizationE <- EndpointE : managingOrganization

@enduml

PlantUML version 1.2022.7(Mon Aug 22 12:01:30 CDT 2022)
(GPL source distribution)
Java Runtime: OpenJDK Runtime Environment
JVM: OpenJDK 64-Bit Server VM
Default Encoding: Cp1252
Language: en
Country: US
--></g></svg>