<?xml version="1.0" encoding="UTF-8" standalone="no"?><svg xmlns="http://www.w3.org/2000/svg" xmlns:xlink="http://www.w3.org/1999/xlink" contentStyleType="text/css" height="547px" preserveAspectRatio="none" style="width:943px;height:547px;background:#FFFFFF;" version="1.1" viewBox="0 0 943 547" width="943px" zoomAndPan="magnify"><defs/><g><g id="elem_OrganizationA"><rect fill="#F1F1F1" height="64.8281" style="stroke:#181818;stroke-width:0.5;" width="111" x="179.5" y="249.5"/><text fill="#000000" font-family="sans-serif" font-size="14" lengthAdjust="spacing" textLength="97" x="186.5" y="266.0332">:Organization A</text><line style="stroke:#181818;stroke-width:0.5;" x1="180.5" x2="289.5" y1="271.1094" y2="271.1094"/><text fill="#000000" font-family="sans-serif" font-size="14" lengthAdjust="spacing" textLength="85" x="185.5" y="289.6426">OrgID = 1.2.3</text><text fill="#000000" font-family="sans-serif" font-size="14" lengthAdjust="spacing" textLength="80" x="185.5" y="307.252">HCID = 1.2.3</text></g><g id="elem_Responder55"><rect fill="#F1F1F1" height="82.4375" style="stroke:#181818;stroke-width:0.5;" width="412" x="524" y="7"/><text fill="#000000" font-family="sans-serif" font-size="14" lengthAdjust="spacing" textLength="60" x="700" y="23.5332">:Endpoint</text><line style="stroke:#181818;stroke-width:0.5;" x1="525" x2="935" y1="28.6094" y2="28.6094"/><text fill="#000000" font-family="sans-serif" font-size="14" lengthAdjust="spacing" textLength="230" x="530" y="47.1426">address = https://orgA.org/resp/xcpd</text><text fill="#000000" font-family="sans-serif" font-size="14" lengthAdjust="spacing" textLength="170" x="530" y="64.752">connectionType = ihe-xcpd</text><text fill="#000000" font-family="sans-serif" font-size="14" lengthAdjust="spacing" textLength="400" x="530" y="82.3613">extension:specificType = XCPD-RespGateway-PatientDiscovery</text></g><g id="elem_Responder38"><rect fill="#F1F1F1" height="82.4375" style="stroke:#181818;stroke-width:0.5;" width="346" x="557" y="124"/><text fill="#000000" font-family="sans-serif" font-size="14" lengthAdjust="spacing" textLength="60" x="700" y="140.5332">:Endpoint</text><line style="stroke:#181818;stroke-width:0.5;" x1="558" x2="902" y1="145.6094" y2="145.6094"/><text fill="#000000" font-family="sans-serif" font-size="14" lengthAdjust="spacing" textLength="262" x="563" y="164.1426">address = https://orgA.org/resp/xca/query</text><text fill="#000000" font-family="sans-serif" font-size="14" lengthAdjust="spacing" textLength="162" x="563" y="181.752">connectionType = ihe-xca</text><text fill="#000000" font-family="sans-serif" font-size="14" lengthAdjust="spacing" textLength="334" x="563" y="199.3613">extension:specificType = XCA-RespGateway-Queuey</text></g><g id="elem_Responder39"><rect fill="#F1F1F1" height="82.4375" style="stroke:#181818;stroke-width:0.5;" width="349" x="555.5" y="241"/><text fill="#000000" font-family="sans-serif" font-size="14" lengthAdjust="spacing" textLength="60" x="700" y="257.5332">:Endpoint</text><line style="stroke:#181818;stroke-width:0.5;" x1="556.5" x2="903.5" y1="262.6094" y2="262.6094"/><text fill="#000000" font-family="sans-serif" font-size="14" lengthAdjust="spacing" textLength="274" x="561.5" y="281.1426">address = https://orgA.org/resp/xca/retrieve</text><text fill="#000000" font-family="sans-serif" font-size="14" lengthAdjust="spacing" textLength="162" x="561.5" y="298.752">connectionType = ihe-xca</text><text fill="#000000" font-family="sans-serif" font-size="14" lengthAdjust="spacing" textLength="337" x="561.5" y="316.3613">extension:specificType = XCA-RespGateway-Retrieve</text></g><g id="elem_Responder41"><rect fill="#F1F1F1" height="82.4375" style="stroke:#181818;stroke-width:0.5;" width="342" x="559" y="358"/><text fill="#000000" font-family="sans-serif" font-size="14" lengthAdjust="spacing" textLength="60" x="700" y="374.5332">:Endponit</text><line style="stroke:#181818;stroke-width:0.5;" x1="560" x2="900" y1="379.6094" y2="379.6094"/><text fill="#000000" font-family="sans-serif" font-size="14" lengthAdjust="spacing" textLength="227" x="565" y="398.1426">address = https://orgA.org/resp/xcdr</text><text fill="#000000" font-family="sans-serif" font-size="14" lengthAdjust="spacing" textLength="167" x="565" y="415.752">connectionType = ihe-xcdr</text><text fill="#000000" font-family="sans-serif" font-size="14" lengthAdjust="spacing" textLength="330" x="565" y="433.3613">extension:specificType = XDR-Recipient-ProvideReg</text></g><g id="elem_ResponderFhir"><rect fill="#F1F1F1" height="64.8281" style="stroke:#181818;stroke-width:0.5;" width="216" x="622" y="475.5"/><text fill="#000000" font-family="sans-serif" font-size="14" lengthAdjust="spacing" textLength="60" x="700" y="492.0332">:Endpoint</text><line style="stroke:#181818;stroke-width:0.5;" x1="623" x2="837" y1="497.1094" y2="497.1094"/><text fill="#000000" font-family="sans-serif" font-size="14" lengthAdjust="spacing" textLength="204" x="628" y="515.6426">address = https://orgA.org/FHIR/</text><text fill="#000000" font-family="sans-serif" font-size="14" lengthAdjust="spacing" textLength="190" x="628" y="533.252">connectionType = hl7-fhir-rest</text></g><g id="elem_N1"><path d="M6,495 L6,521.3516 A0,0 0 0 0 6,521.3516 L464,521.3516 A0,0 0 0 0 464,521.3516 L464,513 L621.95,508 L464,505 L464,505 L454,495 L6,495 A0,0 0 0 0 6,495 " fill="#FEFFDD" style="stroke:#181818;stroke-width:0.5;"/><path d="M454,495 L454,505 L464,505 L454,495 " fill="#FEFFDD" style="stroke:#181818;stroke-width:0.5;"/><text fill="#000000" font-family="sans-serif" font-size="13" lengthAdjust="spacing" textLength="437" x="12" y="513.4951">CapabilityStatement identifies supported profiles and implementation guides</text></g><!--MD5=[38916cd0e79196fb42177862349aa2bf]
link OrganizationA to Responder55--><g id="link_OrganizationA_Responder55"><path codeLine="27" d="M290.5915,242.3752 C290.5915,242.3752 438.43,143.41 524,106 C534.05,101.61 544.52,97.45 555.18,93.54 " fill="none" id="OrganizationA-Responder55" style="stroke:#181818;stroke-width:1.0;"/><polygon fill="#181818" points="567.76,89.07,557.9398,88.3192,563.0494,90.7465,560.6221,95.8561,567.76,89.07" style="stroke:#181818;stroke-width:1.0;"/><line style="stroke:#181818;stroke-width:1.0;" x1="563.0494" x2="555.515" y1="90.7465" y2="93.425"/><polygon fill="#181818" points="280.77,249.27,287.979,249.0964,290.5915,242.3752,283.3825,242.5488,280.77,249.27" style="stroke:#181818;stroke-width:1.0;"/></g><!--MD5=[7fd5aaecfaccc001cf96bae68dde04a1]
link OrganizationA to Responder38--><g id="link_OrganizationA_Responder38"><path codeLine="28" d="M302.3165,266.2624 C302.3165,266.2624 459.79,228.89 543.98,208.91 " fill="none" id="OrganizationA-Responder38" style="stroke:#181818;stroke-width:1.0;"/><polygon fill="#181818" points="556.86,205.85,547.1796,204.036,551.9951,207.0044,549.0267,211.8198,556.86,205.85" style="stroke:#181818;stroke-width:1.0;"/><line style="stroke:#181818;stroke-width:1.0;" x1="551.9951" x2="544.21" y1="207.0044" y2="208.855"/><polygon fill="#181818" points="290.64,269.03,297.4008,271.5384,302.3165,266.2624,295.5557,263.7541,290.64,269.03" style="stroke:#181818;stroke-width:1.0;"/></g><!--MD5=[fe18844020fc266981bc4a323c6e43c7]
link OrganizationA to Responder39--><g id="link_OrganizationA_Responder39"><path codeLine="29" d="M302.64,282 C302.64,282 458.78,282 542.42,282 " fill="none" id="OrganizationA-Responder39" style="stroke:#181818;stroke-width:1.0;"/><polygon fill="#181818" points="555.49,282,546.49,278,550.49,282,546.49,286,555.49,282" style="stroke:#181818;stroke-width:1.0;"/><line style="stroke:#181818;stroke-width:1.0;" x1="550.49" x2="542.49" y1="282" y2="282"/><polygon fill="#181818" points="290.64,282,296.64,286,302.64,282,296.64,278,290.64,282" style="stroke:#181818;stroke-width:1.0;"/></g><!--MD5=[4785d87e7ec77d20e0e07df0b1d75d05]
link OrganizationA to Responder41--><g id="link_OrganizationA_Responder41"><path codeLine="30" d="M302.3165,297.7376 C302.3165,297.7376 461.42,335.5 546.1,355.59 " fill="none" id="OrganizationA-Responder41" style="stroke:#181818;stroke-width:1.0;"/><polygon fill="#181818" points="558.78,358.6,550.9451,352.6322,553.9148,357.4468,549.1001,360.4165,558.78,358.6" style="stroke:#181818;stroke-width:1.0;"/><line style="stroke:#181818;stroke-width:1.0;" x1="553.9148" x2="546.13" y1="357.4468" y2="355.6"/><polygon fill="#181818" points="290.64,294.97,295.5557,300.2459,302.3165,297.7376,297.4008,292.4616,290.64,294.97" style="stroke:#181818;stroke-width:1.0;"/></g><!--MD5=[79a4a12bf2490c384ec406f270f5b41a]
link OrganizationA to ResponderFhir--><g id="link_OrganizationA_ResponderFhir"><path codeLine="31" d="M289.3114,321.6036 C289.3114,321.6036 437.25,421.95 524,458 C550.77,469.13 580.58,478.15 608.98,485.31 " fill="none" id="OrganizationA-ResponderFhir" style="stroke:#181818;stroke-width:1.0;"/><polygon fill="#181818" points="621.92,488.47,614.1202,482.4564,617.0616,487.2884,612.2296,490.2298,621.92,488.47" style="stroke:#181818;stroke-width:1.0;"/><line style="stroke:#181818;stroke-width:1.0;" x1="617.0616" x2="609.295" y1="487.2884" y2="485.39"/><polygon fill="#181818" points="279.56,314.61,282.1045,321.3573,289.3114,321.6036,286.7669,314.8563,279.56,314.61" style="stroke:#181818;stroke-width:1.0;"/></g><!--MD5=[ea578d637b703e565c95afaa3c7d0b67]
@startuml dir-endpoint-xdr-mhd
hide footbox
left to right direction

object ":Organization A" as OrganizationA
OrganizationA : OrgID = 1.2.3
OrganizationA : HCID = 1.2.3
object ":Endpoint" as Responder55
Responder55 : address = https://orgA.org/resp/xcpd
Responder55 : connectionType = ihe-xcpd
Responder55 : extension:specificType = XCPD-RespGateway-PatientDiscovery
object ":Endpoint" as Responder38
Responder38 : address = https://orgA.org/resp/xca/query
Responder38 : connectionType = ihe-xca
Responder38 : extension:specificType = XCA-RespGateway-Queuey
object ":Endpoint" as Responder39
Responder39 : address = https://orgA.org/resp/xca/retrieve
Responder39 : connectionType = ihe-xca
Responder39 : extension:specificType = XCA-RespGateway-Retrieve
object ":Endponit" as Responder41
Responder41 : address = https://orgA.org/resp/xcdr
Responder41 : connectionType = ihe-xcdr
Responder41 : extension:specificType = XDR-Recipient-ProvideReg
object ":Endpoint" as ResponderFhir
ResponderFhir : address = https://orgA.org/FHIR/
ResponderFhir : connectionType = hl7-fhir-rest

OrganizationA *- -> Responder55
OrganizationA *- -> Responder38
OrganizationA *- -> Responder39
OrganizationA *- -> Responder41
OrganizationA *- -> ResponderFhir
note "CapabilityStatement identifies supported profiles and implementation guides" as N1
N1 .. ResponderFhir

@enduml

PlantUML version 1.2022.7(Mon Aug 22 12:01:30 CDT 2022)
(GPL source distribution)
Java Runtime: OpenJDK Runtime Environment
JVM: OpenJDK 64-Bit Server VM
Default Encoding: Cp1252
Language: en
Country: US
--></g></svg>