<?xml version="1.0" encoding="UTF-8" standalone="no"?><svg xmlns="http://www.w3.org/2000/svg" xmlns:xlink="http://www.w3.org/1999/xlink" contentStyleType="text/css" height="415px" preserveAspectRatio="none" style="width:628px;height:415px;background:#FFFFFF;" version="1.1" viewBox="0 0 628 415" width="628px" zoomAndPan="magnify"><defs/><g><g id="elem_OrganizationA"><rect fill="#F1F1F1" height="64.8281" style="stroke:#181818;stroke-width:0.5;" width="107" x="11.5" y="93"/><text fill="#000000" font-family="sans-serif" font-size="14" lengthAdjust="spacing" textLength="93" x="18.5" y="109.5332">Organization A</text><line style="stroke:#181818;stroke-width:0.5;" x1="12.5" x2="117.5" y1="114.6094" y2="114.6094"/><text fill="#000000" font-family="sans-serif" font-size="14" lengthAdjust="spacing" textLength="85" x="17.5" y="133.1426">OrgID = 1.2.3</text><text fill="#000000" font-family="sans-serif" font-size="14" lengthAdjust="spacing" textLength="80" x="17.5" y="150.752">HCID = 1.2.3</text></g><g id="elem_OrganizationAA"><rect fill="#F1F1F1" height="47.2188" style="stroke:#181818;stroke-width:0.5;" width="116" x="7" y="361"/><text fill="#000000" font-family="sans-serif" font-size="14" lengthAdjust="spacing" textLength="102" x="14" y="377.5332">Organization AA</text><line style="stroke:#181818;stroke-width:0.5;" x1="8" x2="122" y1="382.6094" y2="382.6094"/><text fill="#000000" font-family="sans-serif" font-size="14" lengthAdjust="spacing" textLength="97" x="13" y="401.1426">OrgID = 1.2.3.1</text></g><g id="elem_EndpointA"><rect fill="#F1F1F1" height="47.2188" style="stroke:#181818;stroke-width:0.5;" width="177" x="284.5" y="102"/><text fill="#000000" font-family="sans-serif" font-size="14" lengthAdjust="spacing" textLength="56" x="345" y="118.5332">Endpoint</text><line style="stroke:#181818;stroke-width:0.5;" x1="285.5" x2="460.5" y1="123.6094" y2="123.6094"/><text fill="#000000" font-family="sans-serif" font-size="14" lengthAdjust="spacing" textLength="165" x="290.5" y="142.1426">address = https://orgA.org</text></g><g id="elem_EndpointAA"><rect fill="#F1F1F1" height="47.2188" style="stroke:#181818;stroke-width:0.5;" width="186" x="289" y="361"/><text fill="#000000" font-family="sans-serif" font-size="14" lengthAdjust="spacing" textLength="56" x="354" y="377.5332">Endpoint</text><line style="stroke:#181818;stroke-width:0.5;" x1="290" x2="474" y1="382.6094" y2="382.6094"/><text fill="#000000" font-family="sans-serif" font-size="14" lengthAdjust="spacing" textLength="174" x="295" y="401.1426">address = https://orgAA.org</text></g><g id="elem_OrgAff"><rect fill="#F1F1F1" height="47.2188" style="stroke:#181818;stroke-width:0.5;" width="200" x="108" y="236"/><text fill="#000000" font-family="sans-serif" font-size="14" lengthAdjust="spacing" textLength="141" x="137.5" y="252.5332">:OrganizationAffiliation</text><line style="stroke:#181818;stroke-width:0.5;" x1="109" x2="307" y1="257.6094" y2="257.6094"/><text fill="#000000" font-family="sans-serif" font-size="14" lengthAdjust="spacing" textLength="188" x="114" y="276.1426">code = DocShare-federate-int</text></g><g id="elem_N1"><path d="M125,6 L125,32.3516 A0,0 0 0 0 125,32.3516 L369,32.3516 L373,101.85 L377,32.3516 L621,32.3516 A0,0 0 0 0 621,32.3516 L621,16 L611,6 L125,6 A0,0 0 0 0 125,6 " fill="#FEFFDD" style="stroke:#181818;stroke-width:0.5;"/><path d="M611,6 L611,16 L621,16 L611,6 " fill="#FEFFDD" style="stroke:#181818;stroke-width:0.5;"/><text fill="#000000" font-family="sans-serif" font-size="13" lengthAdjust="spacing" textLength="475" x="131" y="24.4951">Endpoint for Organization A provides document sharing access to AA as well as A</text></g><!--MD5=[8e8cf179d7124d8cdd07ab5dc1d31626]
reverse link OrganizationA to OrganizationAA--><g id="link_OrganizationA_OrganizationAA"><path codeLine="13" d="M59.78,163.6 C55.95,195.3 51.77,242.12 54,283 C55.46,309.81 59.11,340.48 61.8,360.81 " fill="none" id="OrganizationA-backto-OrganizationAA" style="stroke:#181818;stroke-width:1.0;"/><polygon fill="#181818" points="60.44,158.25,55.3665,166.6915,59.8268,163.2123,63.3061,167.6726,60.44,158.25" style="stroke:#181818;stroke-width:1.0;"/><text fill="#000000" font-family="sans-serif" font-size="13" lengthAdjust="spacing" textLength="35" x="55" y="264.9951">partOf</text></g><!--MD5=[ccd915ab3669d1887d83ba9546efdf96]
reverse link EndpointA to OrganizationA--><g id="link_EndpointA_OrganizationA"><path codeLine="14" d="M279.1,143.19 C246.48,147.3 209.64,149.65 176,146.5 C157.16,144.73 136.75,141.31 118.63,137.74 " fill="none" id="EndpointA-backto-OrganizationA" style="stroke:#181818;stroke-width:1.0;"/><polygon fill="#181818" points="284.3,142.52,274.8603,139.7107,279.3415,143.163,275.8892,147.6442,284.3,142.52" style="stroke:#181818;stroke-width:1.0;"/><text fill="#000000" font-family="sans-serif" font-size="13" lengthAdjust="spacing" textLength="49" x="177" y="142.9951">endpoint</text></g><!--MD5=[14375a9f75a7e05438793614b88432d7]
reverse link OrganizationA to EndpointA--><g id="link_OrganizationA_EndpointA"><path codeLine="15" d="M123.82,125.5 C169.24,125.5 232.84,125.5 284.42,125.5 " fill="none" id="OrganizationA-backto-EndpointA" style="stroke:#181818;stroke-width:1.0;"/><polygon fill="#181818" points="118.65,125.5,127.65,129.5,123.65,125.5,127.65,121.5,118.65,125.5" style="stroke:#181818;stroke-width:1.0;"/><text fill="#000000" font-family="sans-serif" font-size="13" lengthAdjust="spacing" textLength="129" x="137" y="118.9951">managingOrganization</text></g><!--MD5=[782d64a40493f2f6d71cd65ec9890c5b]
link OrganizationAA to EndpointAA--><g id="link_OrganizationAA_EndpointAA"><path codeLine="17" d="M123.18,397.18 C141.44,400.6 161.72,403.81 180.5,405.5 C214.08,408.53 250.77,406.34 283.53,402.42 " fill="none" id="OrganizationAA-to-EndpointAA" style="stroke:#181818;stroke-width:1.0;"/><polygon fill="#181818" points="288.76,401.78,279.3364,398.9172,283.798,402.3949,280.3202,406.8564,288.76,401.78" style="stroke:#181818;stroke-width:1.0;"/><text fill="#000000" font-family="sans-serif" font-size="13" lengthAdjust="spacing" textLength="49" x="181.5" y="401.9951">endpoint</text></g><!--MD5=[58ec5845f6851d1722ca46a64ef3d275]
reverse link OrganizationAA to EndpointAA--><g id="link_OrganizationAA_EndpointAA"><path codeLine="18" d="M128.38,384.5 C174.3,384.5 237.12,384.5 288.76,384.5 " fill="none" id="OrganizationAA-backto-EndpointAA" style="stroke:#181818;stroke-width:1.0;"/><polygon fill="#181818" points="123.14,384.5,132.14,388.5,128.14,384.5,132.14,380.5,123.14,384.5" style="stroke:#181818;stroke-width:1.0;"/><text fill="#000000" font-family="sans-serif" font-size="13" lengthAdjust="spacing" textLength="129" x="141.5" y="377.9951">managingOrganization</text></g><!--MD5=[08f65a7d2bc0839da3fb9a9d71aecd6a]
link OrgAff to OrganizationAA--><g id="link_OrgAff_OrganizationAA"><path codeLine="22" d="M181.77,283.06 C157.43,303.99 121.21,335.16 95.57,357.21 " fill="none" id="OrgAff-to-OrganizationAA" style="stroke:#181818;stroke-width:1.0;"/><polygon fill="#181818" points="91.55,360.67,100.9812,357.8323,95.3402,357.409,95.7636,351.768,91.55,360.67" style="stroke:#181818;stroke-width:1.0;"/><text fill="#000000" font-family="sans-serif" font-size="13" lengthAdjust="spacing" textLength="143" x="146" y="327.4951">participatingOrganization</text></g><!--MD5=[527ab5cc24d44f54c4ff91c48f1990fe]
reverse link OrganizationA to OrgAff--><g id="link_OrganizationA_OrgAff"><path codeLine="23" d="M102.96,161.54 C128.45,185.07 161.31,215.4 183.43,235.82 " fill="none" id="OrganizationA-backto-OrgAff" style="stroke:#181818;stroke-width:1.0;"/><polygon fill="#181818" points="99.25,158.12,103.1545,167.1618,102.9257,161.5096,108.5779,161.2808,99.25,158.12" style="stroke:#181818;stroke-width:1.0;"/><text fill="#000000" font-family="sans-serif" font-size="13" lengthAdjust="spacing" textLength="70" x="150" y="202.4951">organization</text></g><!--MD5=[0a5cb0f957d8e3a97b1b5c2e7b5eada8]
@startuml dir-endpoint-to-child-affiliate
hide footbox

object "Organization A" as OrganizationA
OrganizationA : OrgID = 1.2.3
OrganizationA : HCID = 1.2.3
object "Organization AA" as OrganizationAA
OrganizationAA : OrgID = 1.2.3.1
object "Endpoint" as EndpointA
EndpointA : address = https://orgA.org
object "Endpoint" as EndpointAA
EndpointAA : address = https://orgAA.org

OrganizationA <- - OrganizationAA : partOf
EndpointA <- - OrganizationA : endpoint
OrganizationA <- EndpointA : managingOrganization

EndpointAA <-l- OrganizationAA : endpoint
OrganizationAA <- EndpointAA : managingOrganization

object ":OrganizationAffiliation" as OrgAff
OrgAff : code = DocShare-federate-int
OrgAff - -> OrganizationAA : participatingOrganization
OrganizationA <- - OrgAff : organization

note "Endpoint for Organization A provides document sharing access to AA as well as A" as N1
N1 .. EndpointA

@enduml

PlantUML version 1.2022.7(Mon Aug 22 12:01:30 CDT 2022)
(GPL source distribution)
Java Runtime: Java(TM) SE Runtime Environment
JVM: Java HotSpot(TM) 64-Bit Server VM
Default Encoding: Cp1252
Language: en
Country: US
--></g></svg>