<?xml version="1.0" encoding="UTF-8" standalone="no"?><svg xmlns="http://www.w3.org/2000/svg" xmlns:xlink="http://www.w3.org/1999/xlink" contentStyleType="text/css" height="380px" preserveAspectRatio="none" style="width:544px;height:380px;background:#FFFFFF;" version="1.1" viewBox="0 0 544 380" width="544px" zoomAndPan="magnify"><defs/><g><rect fill="none" height="27.6094" id="_title" style="stroke:none;stroke-width:1.0;" width="321" x="104.5" y="5"/><text fill="#000000" font-family="sans-serif" font-size="14" font-weight="bold" lengthAdjust="spacing" textLength="311" x="109.5" y="24.5332">Facade Community with Three Organizations</text><!--MD5=[d29ba9a0f2edbc88a4a47adb820d6234]
cluster community--><g id="cluster_community"><path d="M8.5,44.6094 L184.5,44.6094 A3.75,3.75 0 0 1 187,47.1094 L194,68.2188 L534.5,68.2188 A2.5,2.5 0 0 1 537,70.7188 L537,371.1094 A2.5,2.5 0 0 1 534.5,373.6094 L8.5,373.6094 A2.5,2.5 0 0 1 6,371.1094 L6,47.1094 A2.5,2.5 0 0 1 8.5,44.6094 " fill="none" style="stroke:#000000;stroke-width:1.5;"/><line style="stroke:#000000;stroke-width:1.5;" x1="6" x2="194" y1="68.2188" y2="68.2188"/><text fill="#000000" font-family="sans-serif" font-size="14" font-weight="bold" lengthAdjust="spacing" textLength="175" x="10" y="61.1426">Home Community ID 1.2.4</text></g><!--MD5=[9461c0695b4b28cd08b7823bd05a53c0]
cluster hie--><g id="cluster_hie"><rect fill="none" height="189" rx="2.5" ry="2.5" style="stroke:#181818;stroke-width:1.0;" width="467" x="38" y="96.6094"/><text fill="#000000" font-family="sans-serif" font-size="14" font-weight="bold" lengthAdjust="spacing" textLength="178" x="182.5" y="113.1426">Community Infrastructure</text></g><!--MD5=[dd9ca1f89787eef645e4bf1a1a2c1d98]
cluster rg1--><g id="cluster_rg1"><polygon fill="none" points="249,158.6094,259,148.6094,473,148.6094,473,243.6094,463,253.6094,249,253.6094,249,158.6094" style="stroke:#181818;stroke-width:1.0;"/><line style="stroke:#181818;stroke-width:1.0;" x1="463" x2="473" y1="158.6094" y2="148.6094"/><line style="stroke:#181818;stroke-width:1.0;" x1="249" x2="463" y1="158.6094" y2="158.6094"/><line style="stroke:#181818;stroke-width:1.0;" x1="463" x2="463" y1="158.6094" y2="253.6094"/><text fill="#000000" font-family="sans-serif" font-size="14" font-weight="bold" lengthAdjust="spacing" textLength="148" x="283" y="176.1426">Responding Gateway</text></g><!--MD5=[6de611e34682f669701aef2da7d6fd87]
entity ds1--><g id="elem_ds1"><polygon fill="#F1F1F1" points="22,319.6094,32,309.6094,118,309.6094,118,347.2188,108,357.2188,22,357.2188,22,319.6094" style="stroke:#181818;stroke-width:0.5;"/><line style="stroke:#181818;stroke-width:0.5;" x1="108" x2="118" y1="319.6094" y2="309.6094"/><line style="stroke:#181818;stroke-width:0.5;" x1="22" x2="108" y1="319.6094" y2="319.6094"/><line style="stroke:#181818;stroke-width:0.5;" x1="108" x2="108" y1="319.6094" y2="357.2188"/><text fill="#000000" font-family="sans-serif" font-size="14" lengthAdjust="spacing" textLength="56" x="37" y="344.1426">Org ABC</text></g><!--MD5=[da2d07cc0b900e88034fd536c6a593b5]
entity ds2--><g id="elem_ds2"><polygon fill="#F1F1F1" points="153.5,319.6094,163.5,309.6094,250.5,309.6094,250.5,347.2188,240.5,357.2188,153.5,357.2188,153.5,319.6094" style="stroke:#181818;stroke-width:0.5;"/><line style="stroke:#181818;stroke-width:0.5;" x1="240.5" x2="250.5" y1="319.6094" y2="309.6094"/><line style="stroke:#181818;stroke-width:0.5;" x1="153.5" x2="240.5" y1="319.6094" y2="319.6094"/><line style="stroke:#181818;stroke-width:0.5;" x1="240.5" x2="240.5" y1="319.6094" y2="357.2188"/><text fill="#000000" font-family="sans-serif" font-size="14" lengthAdjust="spacing" textLength="57" x="168.5" y="344.1426">Org EFG</text></g><!--MD5=[3a4680e5c359b65c0291043481604b4c]
entity ds3--><g id="elem_ds3"><polygon fill="#F1F1F1" points="286,319.6094,296,309.6094,372,309.6094,372,347.2188,362,357.2188,286,357.2188,286,319.6094" style="stroke:#181818;stroke-width:0.5;"/><line style="stroke:#181818;stroke-width:0.5;" x1="362" x2="372" y1="319.6094" y2="309.6094"/><line style="stroke:#181818;stroke-width:0.5;" x1="286" x2="362" y1="319.6094" y2="319.6094"/><line style="stroke:#181818;stroke-width:0.5;" x1="362" x2="362" y1="319.6094" y2="357.2188"/><text fill="#000000" font-family="sans-serif" font-size="14" lengthAdjust="spacing" textLength="46" x="301" y="344.1426">Org HIJ</text></g><!--MD5=[106817543ff2524e0c0b504dfe500eda]
entity ig1--><g id="elem_ig1"><polygon fill="#F1F1F1" points="81.5,199.6094,91.5,189.6094,232.5,189.6094,232.5,227.2188,222.5,237.2188,81.5,237.2188,81.5,199.6094" style="stroke:#181818;stroke-width:0.5;"/><line style="stroke:#181818;stroke-width:0.5;" x1="222.5" x2="232.5" y1="199.6094" y2="189.6094"/><line style="stroke:#181818;stroke-width:0.5;" x1="81.5" x2="222.5" y1="199.6094" y2="199.6094"/><line style="stroke:#181818;stroke-width:0.5;" x1="222.5" x2="222.5" y1="199.6094" y2="237.2188"/><text fill="#000000" font-family="sans-serif" font-size="14" lengthAdjust="spacing" textLength="111" x="96.5" y="224.1426">Initiating Gateway</text></g><!--MD5=[6a225c418455d2444eae7547308ce665]
entity dg--><g id="elem_dg"><rect fill="#F1F1F1" height="47.6094" rx="2.5" ry="2.5" style="stroke:#181818;stroke-width:0.5;" width="179" x="272.5" y="189.6094"/><rect fill="#F1F1F1" height="10" style="stroke:#181818;stroke-width:0.5;" width="15" x="431.5" y="194.6094"/><rect fill="#F1F1F1" height="2" style="stroke:#181818;stroke-width:0.5;" width="4" x="429.5" y="196.6094"/><rect fill="#F1F1F1" height="2" style="stroke:#181818;stroke-width:0.5;" width="4" x="429.5" y="200.6094"/><text fill="#000000" font-family="sans-serif" font-size="14" lengthAdjust="spacing" textLength="139" x="287.5" y="224.1426">Document Generation</text></g><!--MD5=[4af466d4220c0a2cf97168c3310eec48]
link hie to ds1--><g id="link_hie_ds1"><path d="M46,285.7472 C46,285.8928 46,286.038 46,286.1825 C46,286.4715 46,286.7583 46,287.0426 C46,288.18 46,289.2788 46,290.3338 C46,298.7731 46,304.3994 46,304.3994 " fill="none" id="hie-ds1" style="stroke:#181818;stroke-width:1.0;"/><polygon fill="#181818" points="46,309.3994,50,300.3994,46,304.3994,42,300.3994,46,309.3994" style="stroke:#181818;stroke-width:1.0;"/><polygon fill="#181818" points="46,285.7472,42,294.7472,46,290.7472,50,294.7472,46,285.7472" style="stroke:#181818;stroke-width:1.0;"/></g><!--MD5=[2eb7455e7d1cce940b96847f1d3503da]
link hie to ds2--><g id="link_hie_ds2"><path d="M241.5,285.9011 C241.5,286.6455 241.5,287.3727 241.5,288.0816 C241.5,289.4995 241.5,290.8445 241.5,292.1085 C241.5,294.6365 241.5,296.8403 241.5,298.6553 C241.5,302.2852 241.5,304.3594 241.5,304.3594 " fill="none" id="hie-ds2" style="stroke:#181818;stroke-width:1.0;"/><polygon fill="#181818" points="241.5,309.3594,245.5,300.3594,241.5,304.3594,237.5,300.3594,241.5,309.3594" style="stroke:#181818;stroke-width:1.0;"/><polygon fill="#181818" points="241.5,285.9011,237.5,294.9011,241.5,290.9011,245.5,294.9011,241.5,285.9011" style="stroke:#181818;stroke-width:1.0;"/></g><!--MD5=[d82eb3aa41c4d875426f12ea9862110e]
link hie to ds3--><g id="link_hie_ds3"><path d="M329,285.6602 C329,285.7193 329,285.7784 329,285.8377 C329,285.9562 329,286.0749 329,286.1939 C329,287.1456 329,288.1125 329,289.0794 C329,296.8144 329,304.5494 329,304.5494 " fill="none" id="hie-ds3" style="stroke:#181818;stroke-width:1.0;"/><polygon fill="#181818" points="329,309.5494,333,300.5494,329,304.5494,325,300.5494,329,309.5494" style="stroke:#181818;stroke-width:1.0;"/><polygon fill="#181818" points="329,285.6602,325,294.6602,329,290.6602,333,294.6602,329,285.6602" style="stroke:#181818;stroke-width:1.0;"/></g><!--MD5=[6bcb360da7046c786a2ab9034a73144c]
@startuml facade_community
title "Facade Community with Three Organizations"
skinparam linetype ortho
package "Home Community ID 1.2.4" as community {
rectangle "Community Infrastructure" as hie {
    node ig1 as "Initiating Gateway"
    node rg1 as "Responding Gateway" {
        component dg as "Document Generation"
    }
}
node ds1 as "Org ABC"
node ds2 as "Org EFG"
node ds3 as "Org HIJ"
}

hie <- -> ds1
hie <- -> ds2
hie <- -> ds3

@enduml

PlantUML version 1.2022.7(Mon Aug 22 12:01:30 CDT 2022)
(GPL source distribution)
Java Runtime: OpenJDK Runtime Environment
JVM: OpenJDK 64-Bit Server VM
Default Encoding: Cp1252
Language: en
Country: US
--></g></svg>