<?xml version="1.0" encoding="UTF-8" standalone="no"?><svg xmlns="http://www.w3.org/2000/svg" xmlns:xlink="http://www.w3.org/1999/xlink" contentStyleType="text/css" height="684px" preserveAspectRatio="none" style="width:2007px;height:684px;background:#FFFFFF;" version="1.1" viewBox="0 0 2007 684" width="2007px" zoomAndPan="magnify"><defs/><g><g id="elem_OrgAff6Peer"><rect fill="#F1F1F1" height="47.2188" style="stroke:#181818;stroke-width:0.5;" width="155" x="1197" y="461"/><text fill="#000000" font-family="sans-serif" font-size="14" lengthAdjust="spacing" textLength="141" x="1204" y="477.5332">:OrganizationAffiliation</text><line style="stroke:#181818;stroke-width:0.5;" x1="1198" x2="1351" y1="482.6094" y2="482.6094"/><text fill="#000000" font-family="sans-serif" font-size="14" lengthAdjust="spacing" textLength="114" x="1203" y="501.1426">code = HIEInitiator</text></g><g id="elem_EndpointAD"><rect fill="#F1F1F1" height="47.2188" style="stroke:#181818;stroke-width:0.5;" width="291" x="820" y="461"/><text fill="#000000" font-family="sans-serif" font-size="14" lengthAdjust="spacing" textLength="56" x="937.5" y="477.5332">Endpoint</text><line style="stroke:#181818;stroke-width:0.5;" x1="821" x2="1110" y1="482.6094" y2="482.6094"/><text fill="#000000" font-family="sans-serif" font-size="14" lengthAdjust="spacing" textLength="279" x="826" y="501.1426">address = https://lower_network_A.org/lower</text></g><g id="elem_OrgAff7Peer"><rect fill="#F1F1F1" height="47.2188" style="stroke:#181818;stroke-width:0.5;" width="155" x="579" y="461"/><text fill="#000000" font-family="sans-serif" font-size="14" lengthAdjust="spacing" textLength="141" x="586" y="477.5332">:OrganizationAffiliation</text><line style="stroke:#181818;stroke-width:0.5;" x1="580" x2="733" y1="482.6094" y2="482.6094"/><text fill="#000000" font-family="sans-serif" font-size="14" lengthAdjust="spacing" textLength="114" x="585" y="501.1426">code = HIEInitiator</text></g><g id="elem_EndpointA"><rect fill="#F1F1F1" height="47.2188" style="stroke:#181818;stroke-width:0.5;" width="295" x="448" y="167"/><text fill="#000000" font-family="sans-serif" font-size="14" lengthAdjust="spacing" textLength="56" x="567.5" y="183.5332">Endpoint</text><line style="stroke:#181818;stroke-width:0.5;" x1="449" x2="742" y1="188.6094" y2="188.6094"/><text fill="#000000" font-family="sans-serif" font-size="14" lengthAdjust="spacing" textLength="283" x="454" y="207.1426">address = https://lower_network_A.org/upper</text></g><g id="elem_EndpointB"><rect fill="#F1F1F1" height="47.2188" style="stroke:#181818;stroke-width:0.5;" width="231" x="1201" y="167"/><text fill="#000000" font-family="sans-serif" font-size="14" lengthAdjust="spacing" textLength="56" x="1288.5" y="183.5332">Endpoint</text><line style="stroke:#181818;stroke-width:0.5;" x1="1202" x2="1431" y1="188.6094" y2="188.6094"/><text fill="#000000" font-family="sans-serif" font-size="14" lengthAdjust="spacing" textLength="219" x="1207" y="207.1426">address = https://community_B.org</text></g><g id="elem_Endpoint6"><rect fill="#F1F1F1" height="47.2188" style="stroke:#181818;stroke-width:0.5;" width="299" x="1701" y="612.5"/><text fill="#000000" font-family="sans-serif" font-size="14" lengthAdjust="spacing" textLength="56" x="1822.5" y="629.0332">Endpoint</text><line style="stroke:#181818;stroke-width:0.5;" x1="1702" x2="1999" y1="634.1094" y2="634.1094"/><text fill="#000000" font-family="sans-serif" font-size="14" lengthAdjust="spacing" textLength="287" x="1707" y="652.6426">address = https://community_one_two_six.org</text></g><g id="elem_Endpoint7"><rect fill="#F1F1F1" height="47.2188" style="stroke:#181818;stroke-width:0.5;" width="321" x="7" y="612.5"/><text fill="#000000" font-family="sans-serif" font-size="14" lengthAdjust="spacing" textLength="56" x="139.5" y="629.0332">Endpoint</text><line style="stroke:#181818;stroke-width:0.5;" x1="8" x2="327" y1="634.1094" y2="634.1094"/><text fill="#000000" font-family="sans-serif" font-size="14" lengthAdjust="spacing" textLength="309" x="13" y="652.6426">address = https://community_one_two_seven.org</text></g><g id="elem_LNA"><rect fill="#F1F1F1" height="64.8281" style="stroke:#181818;stroke-width:0.5;" width="179" x="693" y="300.5"/><text fill="#000000" font-family="sans-serif" font-size="14" lengthAdjust="spacing" textLength="80" x="742.5" y="317.0332">Organization</text><line style="stroke:#181818;stroke-width:0.5;" x1="694" x2="871" y1="322.1094" y2="322.1094"/><text fill="#000000" font-family="sans-serif" font-size="14" lengthAdjust="spacing" textLength="167" x="699" y="340.6426">Name = "Lower Network A"</text><text fill="#000000" font-family="sans-serif" font-size="14" lengthAdjust="spacing" textLength="73" x="699" y="358.252">OrgID = 1.3</text></g><g id="elem_HC7"><rect fill="#F1F1F1" height="82.4375" style="stroke:#181818;stroke-width:0.5;" width="180" x="363.5" y="595"/><text fill="#000000" font-family="sans-serif" font-size="14" lengthAdjust="spacing" textLength="80" x="413.5" y="611.5332">Organization</text><line style="stroke:#181818;stroke-width:0.5;" x1="364.5" x2="542.5" y1="616.6094" y2="616.6094"/><text fill="#000000" font-family="sans-serif" font-size="14" lengthAdjust="spacing" textLength="168" x="369.5" y="635.1426">Name = "Community 1.2.7"</text><text fill="#000000" font-family="sans-serif" font-size="14" lengthAdjust="spacing" textLength="80" x="369.5" y="652.752">HCID = 1.2.7</text><text fill="#000000" font-family="sans-serif" font-size="14" lengthAdjust="spacing" textLength="85" x="369.5" y="670.3613">OrgID = 1.2.7</text></g><g id="elem_HC6"><rect fill="#F1F1F1" height="82.4375" style="stroke:#181818;stroke-width:0.5;" width="180" x="1390.5" y="595"/><text fill="#000000" font-family="sans-serif" font-size="14" lengthAdjust="spacing" textLength="80" x="1440.5" y="611.5332">Organization</text><line style="stroke:#181818;stroke-width:0.5;" x1="1391.5" x2="1569.5" y1="616.6094" y2="616.6094"/><text fill="#000000" font-family="sans-serif" font-size="14" lengthAdjust="spacing" textLength="168" x="1396.5" y="635.1426">Name = "Community 1.2.6"</text><text fill="#000000" font-family="sans-serif" font-size="14" lengthAdjust="spacing" textLength="80" x="1396.5" y="652.752">HCID = 1.2.6</text><text fill="#000000" font-family="sans-serif" font-size="14" lengthAdjust="spacing" textLength="85" x="1396.5" y="670.3613">OrgID = 1.2.6</text></g><g id="elem_HC8"><rect fill="#F1F1F1" height="82.4375" style="stroke:#181818;stroke-width:0.5;" width="180" x="1084.5" y="292"/><text fill="#000000" font-family="sans-serif" font-size="14" lengthAdjust="spacing" textLength="80" x="1134.5" y="308.5332">Organization</text><line style="stroke:#181818;stroke-width:0.5;" x1="1085.5" x2="1263.5" y1="313.6094" y2="313.6094"/><text fill="#000000" font-family="sans-serif" font-size="14" lengthAdjust="spacing" textLength="168" x="1090.5" y="332.1426">Name = "Community 1.2.8"</text><text fill="#000000" font-family="sans-serif" font-size="14" lengthAdjust="spacing" textLength="84" x="1090.5" y="349.752">HCID =  1.2.8</text><text fill="#000000" font-family="sans-serif" font-size="14" lengthAdjust="spacing" textLength="85" x="1090.5" y="367.3613">OrgID = 1.2.8</text></g><g id="elem_UN"><rect fill="#F1F1F1" height="82.4375" style="stroke:#181818;stroke-width:0.5;" width="166" x="844.5" y="7"/><text fill="#000000" font-family="sans-serif" font-size="14" lengthAdjust="spacing" textLength="80" x="887.5" y="23.5332">Organization</text><line style="stroke:#181818;stroke-width:0.5;" x1="845.5" x2="1009.5" y1="28.6094" y2="28.6094"/><text fill="#000000" font-family="sans-serif" font-size="14" lengthAdjust="spacing" textLength="154" x="850.5" y="47.1426">Name = "Upper Network"</text><text fill="#000000" font-family="sans-serif" font-size="14" lengthAdjust="spacing" textLength="78" x="850.5" y="64.752">HCID = "1.1"</text><text fill="#000000" font-family="sans-serif" font-size="14" lengthAdjust="spacing" textLength="83" x="850.5" y="82.3613">OrgID = "1.1"</text></g><g id="elem_OrgAff7HIE"><rect fill="#F1F1F1" height="47.2188" style="stroke:#181818;stroke-width:0.5;" width="155" x="151" y="461"/><text fill="#000000" font-family="sans-serif" font-size="14" lengthAdjust="spacing" textLength="141" x="158" y="477.5332">:OrganizationAffiliation</text><line style="stroke:#181818;stroke-width:0.5;" x1="152" x2="305" y1="482.6094" y2="482.6094"/><text fill="#000000" font-family="sans-serif" font-size="14" lengthAdjust="spacing" textLength="138" x="157" y="501.1426">code = HIEResponder</text></g><g id="elem_OrgAff7"><rect fill="#F1F1F1" height="64.8281" style="stroke:#181818;stroke-width:0.5;" width="203" x="341" y="452"/><text fill="#000000" font-family="sans-serif" font-size="14" lengthAdjust="spacing" textLength="141" x="372" y="468.5332">:OrganizationAffiliation</text><line style="stroke:#181818;stroke-width:0.5;" x1="342" x2="543" y1="473.6094" y2="473.6094"/><text fill="#000000" font-family="sans-serif" font-size="14" lengthAdjust="spacing" textLength="191" x="347" y="492.1426">code = DocShare-federate-ext</text><text fill="#000000" font-family="sans-serif" font-size="14" lengthAdjust="spacing" textLength="188" x="347" y="509.752">code = DocShare-federate-int</text></g><g id="elem_OrgAff6"><rect fill="#F1F1F1" height="47.2188" style="stroke:#181818;stroke-width:0.5;" width="203" x="1387" y="461"/><text fill="#000000" font-family="sans-serif" font-size="14" lengthAdjust="spacing" textLength="141" x="1418" y="477.5332">:OrganizationAffiliation</text><line style="stroke:#181818;stroke-width:0.5;" x1="1388" x2="1589" y1="482.6094" y2="482.6094"/><text fill="#000000" font-family="sans-serif" font-size="14" lengthAdjust="spacing" textLength="191" x="1393" y="501.1426">code = DocShare-federate-ext</text></g><g id="elem_OrgAff6HIE"><rect fill="#F1F1F1" height="47.2188" style="stroke:#181818;stroke-width:0.5;" width="155" x="1625" y="461"/><text fill="#000000" font-family="sans-serif" font-size="14" lengthAdjust="spacing" textLength="141" x="1632" y="477.5332">:OrganizationAffiliation</text><line style="stroke:#181818;stroke-width:0.5;" x1="1626" x2="1779" y1="482.6094" y2="482.6094"/><text fill="#000000" font-family="sans-serif" font-size="14" lengthAdjust="spacing" textLength="138" x="1631" y="501.1426">code = HIEResponder</text></g><g id="elem_OrgAffAR"><rect fill="#F1F1F1" height="47.2188" style="stroke:#181818;stroke-width:0.5;" width="151" x="211" y="167"/><text fill="#000000" font-family="sans-serif" font-size="14" lengthAdjust="spacing" textLength="137" x="218" y="183.5332">OrganizationAffiliation</text><line style="stroke:#181818;stroke-width:0.5;" x1="212" x2="361" y1="188.6094" y2="188.6094"/><text fill="#000000" font-family="sans-serif" font-size="14" lengthAdjust="spacing" textLength="138" x="217" y="207.1426">code = HIEResponder</text></g><g id="elem_OrgAffBR"><rect fill="#F1F1F1" height="47.2188" style="stroke:#181818;stroke-width:0.5;" width="151" x="964" y="167"/><text fill="#000000" font-family="sans-serif" font-size="14" lengthAdjust="spacing" textLength="137" x="971" y="183.5332">OrganizationAffiliation</text><line style="stroke:#181818;stroke-width:0.5;" x1="965" x2="1114" y1="188.6094" y2="188.6094"/><text fill="#000000" font-family="sans-serif" font-size="14" lengthAdjust="spacing" textLength="138" x="970" y="207.1426">code = HIEResponder</text></g><g id="elem_OrgAffAI"><rect fill="#F1F1F1" height="47.2188" style="stroke:#181818;stroke-width:0.5;" width="151" x="778" y="167"/><text fill="#000000" font-family="sans-serif" font-size="14" lengthAdjust="spacing" textLength="137" x="785" y="183.5332">OrganizationAffiliation</text><line style="stroke:#181818;stroke-width:0.5;" x1="779" x2="928" y1="188.6094" y2="188.6094"/><text fill="#000000" font-family="sans-serif" font-size="14" lengthAdjust="spacing" textLength="114" x="784" y="207.1426">code = HIEInitiator</text></g><g id="elem_OrgAffBI"><rect fill="#F1F1F1" height="47.2188" style="stroke:#181818;stroke-width:0.5;" width="151" x="1467" y="167"/><text fill="#000000" font-family="sans-serif" font-size="14" lengthAdjust="spacing" textLength="137" x="1474" y="183.5332">OrganizationAffiliation</text><line style="stroke:#181818;stroke-width:0.5;" x1="1468" x2="1617" y1="188.6094" y2="188.6094"/><text fill="#000000" font-family="sans-serif" font-size="14" lengthAdjust="spacing" textLength="114" x="1473" y="207.1426">code = HIEInitiator</text></g><!--MD5=[7e565617e5840ad75f4950fdcddeeb08]
link OrgAff7HIE to HC7--><g id="link_OrgAff7HIE_HC7"><path codeLine="36" d="M243,508.18 C255.07,525.59 273.59,549.23 294.5,565 C306.11,573.76 331.53,585.85 358.71,597.52 " fill="none" id="OrgAff7HIE-to-HC7" style="stroke:#181818;stroke-width:1.0;"/><polygon fill="#181818" points="363.44,599.54,356.7244,592.3358,358.8391,597.5825,353.5924,599.6972,363.44,599.54" style="stroke:#181818;stroke-width:1.0;"/><text fill="#000000" font-family="sans-serif" font-size="13" lengthAdjust="spacing" textLength="143" x="295.5" y="561.4951">participatingOrganization</text></g><!--MD5=[13a724fb26823c3c1440e142e0e07909]
reverse link LNA to OrgAff7HIE--><g id="link_LNA_OrgAff7HIE"><path codeLine="37" d="M687.78,348.57 C593.68,364.58 446.13,393.9 323.5,437 C305.14,443.45 285.69,452.54 269.21,460.96 " fill="none" id="LNA-backto-OrgAff7HIE" style="stroke:#181818;stroke-width:1.0;"/><polygon fill="#181818" points="692.78,347.72,683.2414,345.2675,687.8492,348.5489,684.5677,353.1567,692.78,347.72" style="stroke:#181818;stroke-width:1.0;"/><text fill="#000000" font-family="sans-serif" font-size="13" lengthAdjust="spacing" textLength="70" x="423.5" y="418.4951">organization</text></g><!--MD5=[928c5130dfd53c3f1165d3182e144682]
link OrgAff7HIE to Endpoint7--><g id="link_OrgAff7HIE_Endpoint7"><path codeLine="38" d="M198.91,508.03 C187.51,518.5 175.74,531.97 169.5,547 C161.64,565.93 161.46,589.18 163.08,607.03 " fill="none" id="OrgAff7HIE-to-Endpoint7" style="stroke:#181818;stroke-width:1.0;"/><polygon fill="#181818" points="163.64,612.38,166.6927,603.0162,163.1255,607.4065,158.7351,603.8394,163.64,612.38" style="stroke:#181818;stroke-width:1.0;"/><text fill="#000000" font-family="sans-serif" font-size="13" lengthAdjust="spacing" textLength="49" x="170.5" y="561.4951">endpoint</text></g><!--MD5=[f292e1150e6566d791b43d8546142ffa]
link OrgAff7 to HC7--><g id="link_OrgAff7_HC7"><path codeLine="43" d="M444.83,517.21 C446.38,538.24 448.44,566.18 450.16,589.57 " fill="none" id="OrgAff7-to-HC7" style="stroke:#181818;stroke-width:1.0;"/><polygon fill="#181818" points="450.54,594.79,453.8603,585.5177,450.1685,589.8038,445.8824,586.112,450.54,594.79" style="stroke:#181818;stroke-width:1.0;"/><text fill="#000000" font-family="sans-serif" font-size="13" lengthAdjust="spacing" textLength="143" x="449.5" y="561.4951">participatingOrganization</text></g><!--MD5=[fa07425c271430d76f390e055e64107e]
reverse link LNA to OrgAff7--><g id="link_LNA_OrgAff7"><path codeLine="44" d="M706.02,367.63 C648.64,392.86 570.62,427.16 514.38,451.89 " fill="none" id="LNA-backto-OrgAff7" style="stroke:#181818;stroke-width:1.0;"/><polygon fill="#181818" points="710.81,365.52,700.9612,365.4772,706.2322,367.5308,704.1786,372.8018,710.81,365.52" style="stroke:#181818;stroke-width:1.0;"/><text fill="#000000" font-family="sans-serif" font-size="13" lengthAdjust="spacing" textLength="70" x="623.5" y="418.4951">organization</text></g><!--MD5=[4286c40cf5f0d47139e2a727b59dc23f]
link OrgAff6 to HC6--><g id="link_OrgAff6_HC6"><path codeLine="48" d="M1483.46,508.15 C1481.14,519.71 1478.65,534.04 1477.5,547 C1476.28,560.71 1476.29,575.66 1476.82,589.29 " fill="none" id="OrgAff6-to-HC6" style="stroke:#181818;stroke-width:1.0;"/><polygon fill="#181818" points="1477.05,594.64,1480.6598,585.4765,1476.8353,589.6446,1472.6672,585.8201,1477.05,594.64" style="stroke:#181818;stroke-width:1.0;"/><text fill="#000000" font-family="sans-serif" font-size="13" lengthAdjust="spacing" textLength="143" x="1478.5" y="561.4951">participatingOrganization</text></g><!--MD5=[df47bb3bf2e39f8fec23791155978f6f]
reverse link LNA to OrgAff6--><g id="link_LNA_OrgAff6"><path codeLine="49" d="M877.03,348.31 C1018.31,370.08 1277.66,411.68 1368.5,437 C1391.42,443.39 1416.04,452.51 1436.98,460.98 " fill="none" id="LNA-backto-OrgAff6" style="stroke:#181818;stroke-width:1.0;"/><polygon fill="#181818" points="872.05,347.54,880.3406,352.8566,876.9924,348.2971,881.5519,344.9488,872.05,347.54" style="stroke:#181818;stroke-width:1.0;"/><text fill="#000000" font-family="sans-serif" font-size="13" lengthAdjust="spacing" textLength="70" x="1298.5" y="418.4951">organization</text></g><!--MD5=[3ef3e4de6e23f518f88f6ef1e6e287ef]
link OrgAff6Peer to HC6--><g id="link_OrgAff6Peer_HC6"><path codeLine="54" d="M1284,508.29 C1292.25,525.75 1305.69,549.41 1323.5,565 C1341.53,580.78 1363.69,593.55 1385.63,603.64 " fill="none" id="OrgAff6Peer-to-HC6" style="stroke:#181818;stroke-width:1.0;"/><polygon fill="#181818" points="1390.3,605.75,1383.7619,598.3843,1385.7482,603.681,1380.4515,605.6672,1390.3,605.75" style="stroke:#181818;stroke-width:1.0;"/><text fill="#000000" font-family="sans-serif" font-size="13" lengthAdjust="spacing" textLength="143" x="1324.5" y="561.4951">participatingOrganization</text></g><!--MD5=[d03fad34bb8999f5530e112330dc904f]
reverse link LNA to OrgAff6Peer--><g id="link_LNA_OrgAff6Peer"><path codeLine="55" d="M877.22,361.67 C946.84,382.14 1043.69,410.87 1128.5,437 C1153.41,444.68 1180.65,453.29 1204.78,461 " fill="none" id="LNA-backto-OrgAff6Peer" style="stroke:#181818;stroke-width:1.0;"/><polygon fill="#181818" points="872.25,360.21,879.77,366.57,877.05,361.61,882.01,358.89,872.25,360.21" style="stroke:#181818;stroke-width:1.0;"/><text fill="#000000" font-family="sans-serif" font-size="13" lengthAdjust="spacing" textLength="70" x="1072.5" y="418.4951">organization</text></g><!--MD5=[0033b22e1876833881aa9bab43087a51]
link OrgAff7Peer to HC7--><g id="link_OrgAff7Peer_HC7"><path codeLine="60" d="M645.11,508.14 C635.44,525.52 620.18,549.15 601.5,565 C585.82,578.31 567.17,589.69 548.5,599.16 " fill="none" id="OrgAff7Peer-to-HC7" style="stroke:#181818;stroke-width:1.0;"/><polygon fill="#181818" points="543.75,601.53,553.5881,601.0702,548.2193,599.2882,550.0013,593.9194,543.75,601.53" style="stroke:#181818;stroke-width:1.0;"/><text fill="#000000" font-family="sans-serif" font-size="13" lengthAdjust="spacing" textLength="143" x="618.5" y="561.4951">participatingOrganization</text></g><!--MD5=[70701422893ef1ea65e859bc202be740]
reverse link LNA to OrgAff7Peer--><g id="link_LNA_OrgAff7Peer"><path codeLine="61" d="M752.34,369.79 C728.58,397.98 696.17,436.43 675.79,460.61 " fill="none" id="LNA-backto-OrgAff7Peer" style="stroke:#181818;stroke-width:1.0;"/><polygon fill="#181818" points="755.78,365.71,746.9123,369.9952,752.5496,369.5264,753.0185,375.1638,755.78,365.71" style="stroke:#181818;stroke-width:1.0;"/><text fill="#000000" font-family="sans-serif" font-size="13" lengthAdjust="spacing" textLength="70" x="723.5" y="418.4951">organization</text></g><!--MD5=[a8fe5e468c97f222cfaa291835a828ba]
link OrgAff7Peer to EndpointAD--><g id="link_OrgAff7Peer_EndpointAD"><path codeLine="62" d="M734.07,484.5 C758.65,484.5 786.7,484.5 814.6,484.5 " fill="none" id="OrgAff7Peer-to-EndpointAD" style="stroke:#181818;stroke-width:1.0;"/><polygon fill="#181818" points="819.81,484.5,810.81,480.5,814.81,484.5,810.81,488.5,819.81,484.5" style="stroke:#181818;stroke-width:1.0;"/><text fill="#000000" font-family="sans-serif" font-size="13" lengthAdjust="spacing" textLength="49" x="752.5" y="477.9951">endpoint</text></g><!--MD5=[a6dfa40aaac19de1df064ca82f12f66a]
reverse link EndpointAD to OrgAff6Peer--><g id="link_EndpointAD_OrgAff6Peer"><path codeLine="63" d="M1116.6,484.5 C1144.43,484.5 1172.42,484.5 1196.93,484.5 " fill="none" id="EndpointAD-backto-OrgAff6Peer" style="stroke:#181818;stroke-width:1.0;"/><polygon fill="#181818" points="1111.4,484.5,1120.4,488.5,1116.4,484.5,1120.4,480.5,1111.4,484.5" style="stroke:#181818;stroke-width:1.0;"/><text fill="#000000" font-family="sans-serif" font-size="13" lengthAdjust="spacing" textLength="49" x="1129.5" y="477.9951">endpoint</text></g><!--MD5=[ca69617979ea6689a2d9a35595a4d7fb]
link OrgAff6HIE to HC6--><g id="link_OrgAff6HIE_HC6"><path codeLine="68" d="M1684.67,508.21 C1670.32,525.4 1648.91,548.74 1626.5,565 C1610.77,576.41 1592.88,586.76 1575.16,595.8 " fill="none" id="OrgAff6HIE-to-HC6" style="stroke:#181818;stroke-width:1.0;"/><polygon fill="#181818" points="1570.65,598.07,1580.4869,597.5851,1575.1135,595.8168,1576.8819,590.4435,1570.65,598.07" style="stroke:#181818;stroke-width:1.0;"/><text fill="#000000" font-family="sans-serif" font-size="13" lengthAdjust="spacing" textLength="143" x="1647.5" y="561.4951">participatingOrganization</text></g><!--MD5=[e89197b4d3af03fafbabc094d8094c62]
reverse link LNA to OrgAff6HIE--><g id="link_LNA_OrgAff6HIE"><path codeLine="69" d="M877.2,348.33 C932.59,356.45 1003.92,366.47 1067.5,374 C1307.45,402.44 1376.58,365.86 1607.5,437 C1626.63,442.89 1646.69,452.2 1663.42,460.94 " fill="none" id="LNA-backto-OrgAff6HIE" style="stroke:#181818;stroke-width:1.0;"/><polygon fill="#181818" points="872.22,347.6,880.5405,352.8697,877.1666,348.3291,881.7071,344.9552,872.22,347.6" style="stroke:#181818;stroke-width:1.0;"/><text fill="#000000" font-family="sans-serif" font-size="13" lengthAdjust="spacing" textLength="70" x="1555.5" y="418.4951">organization</text></g><!--MD5=[403d0492deacce37ededdf468f0f2010]
link OrgAff6HIE to Endpoint6--><g id="link_OrgAff6HIE_Endpoint6"><path codeLine="70" d="M1758.05,508.11 C1776.87,517.88 1796.82,530.83 1811.5,547 C1827,564.08 1837.13,588.32 1843.16,607.04 " fill="none" id="OrgAff6HIE-to-Endpoint6" style="stroke:#181818;stroke-width:1.0;"/><polygon fill="#181818" points="1844.76,612.16,1845.9035,602.3777,1843.2735,607.3861,1838.2652,604.7561,1844.76,612.16" style="stroke:#181818;stroke-width:1.0;"/><text fill="#000000" font-family="sans-serif" font-size="13" lengthAdjust="spacing" textLength="49" x="1824.5" y="561.4951">endpoint</text></g><!--MD5=[34ead40dcbb95d99ac62bf9c354713d3]
link OrgAffAR to LNA--><g id="link_OrgAffAR_LNA"><path codeLine="74" d="M362.1,212.92 C449.36,237.63 592.96,278.31 687.64,305.13 " fill="none" id="OrgAffAR-to-LNA" style="stroke:#181818;stroke-width:1.0;"/><polygon fill="#181818" points="692.67,306.55,685.1102,300.2373,687.8613,305.1802,682.9185,307.9313,692.67,306.55" style="stroke:#181818;stroke-width:1.0;"/><text fill="#000000" font-family="sans-serif" font-size="13" lengthAdjust="spacing" textLength="143" x="535.5" y="258.4951">participatingOrganization</text></g><!--MD5=[66ff1446d9fa887ab7c35950ad6d948f]
link OrgAffAR to EndpointA--><g id="link_OrgAffAR_EndpointA"><path codeLine="75" d="M362.09,190.5 C386.56,190.5 414.65,190.5 442.66,190.5 " fill="none" id="OrgAffAR-to-EndpointA" style="stroke:#181818;stroke-width:1.0;"/><polygon fill="#181818" points="447.89,190.5,438.89,186.5,442.89,190.5,438.89,194.5,447.89,190.5" style="stroke:#181818;stroke-width:1.0;"/><text fill="#000000" font-family="sans-serif" font-size="13" lengthAdjust="spacing" textLength="49" x="380.5" y="183.9951">endpoint</text></g><!--MD5=[b9fb943daea7cdfdb67974e185398c6f]
reverse link UN to OrgAffAR--><g id="link_UN_OrgAffAR"><path codeLine="76" d="M839.15,68.37 C712.42,96.14 481.21,146.82 362.02,172.95 " fill="none" id="UN-backto-OrgAffAR" style="stroke:#181818;stroke-width:1.0;"/><polygon fill="#181818" points="844.36,67.22,834.7109,65.2466,839.4767,68.294,836.4293,73.0599,844.36,67.22" style="stroke:#181818;stroke-width:1.0;"/><text fill="#000000" font-family="sans-serif" font-size="13" lengthAdjust="spacing" textLength="70" x="607.5" y="133.4951">organization</text></g><!--MD5=[c2a81b8477a75bcf3458ae5b781685d7]
link OrgAffBR to HC8--><g id="link_OrgAffBR_HC8"><path codeLine="80" d="M1061.19,214.07 C1080.29,233.95 1108.66,263.48 1132.24,288.01 " fill="none" id="OrgAffBR-to-HC8" style="stroke:#181818;stroke-width:1.0;"/><polygon fill="#181818" points="1135.98,291.91,1132.6312,282.6479,1132.5167,288.3036,1126.861,288.1891,1135.98,291.91" style="stroke:#181818;stroke-width:1.0;"/><text fill="#000000" font-family="sans-serif" font-size="13" lengthAdjust="spacing" textLength="143" x="1107.5" y="258.4951">participatingOrganization</text></g><!--MD5=[15941b54b84b0bb1c904b314261275c1]
link OrgAffBR to EndpointB--><g id="link_OrgAffBR_EndpointB"><path codeLine="81" d="M1115.19,190.5 C1140.07,190.5 1168.39,190.5 1195.76,190.5 " fill="none" id="OrgAffBR-to-EndpointB" style="stroke:#181818;stroke-width:1.0;"/><polygon fill="#181818" points="1200.86,190.5,1191.86,186.5,1195.86,190.5,1191.86,194.5,1200.86,190.5" style="stroke:#181818;stroke-width:1.0;"/><text fill="#000000" font-family="sans-serif" font-size="13" lengthAdjust="spacing" textLength="49" x="1133.5" y="183.9951">endpoint</text></g><!--MD5=[a2cefe8156f2488548fc404c9984b739]
reverse link UN to OrgAffBR--><g id="link_UN_OrgAffBR"><path codeLine="82" d="M962.93,93.44 C982.35,117.81 1005.61,146.99 1021.36,166.74 " fill="none" id="UN-backto-OrgAffBR" style="stroke:#181818;stroke-width:1.0;"/><polygon fill="#181818" points="959.59,89.26,962.0633,98.7933,962.703,93.1727,968.3236,93.8124,959.59,89.26" style="stroke:#181818;stroke-width:1.0;"/><text fill="#000000" font-family="sans-serif" font-size="13" lengthAdjust="spacing" textLength="70" x="997.5" y="133.4951">organization</text></g><!--MD5=[05d1bb239264e3db122d9d7931936c46]
link OrgAffAI to LNA--><g id="link_OrgAffAI_LNA"><path codeLine="86" d="M842.09,214.07 C830.98,236.05 813.92,269.83 800.89,295.6 " fill="none" id="OrgAffAI-to-LNA" style="stroke:#181818;stroke-width:1.0;"/><polygon fill="#181818" points="798.51,300.32,806.1365,294.0881,800.7632,295.8565,798.9949,290.4831,798.51,300.32" style="stroke:#181818;stroke-width:1.0;"/><text fill="#000000" font-family="sans-serif" font-size="13" lengthAdjust="spacing" textLength="143" x="826.5" y="258.4951">participatingOrganization</text></g><!--MD5=[08459dff997952c38112ee5346e1f2c7]
reverse link UN to OrgAffAI--><g id="link_UN_OrgAffAI"><path codeLine="87" d="M903.93,93.74 C891.13,118.05 875.85,147.07 865.49,166.74 " fill="none" id="UN-backto-OrgAffAI" style="stroke:#181818;stroke-width:1.0;"/><polygon fill="#181818" points="906.29,89.26,898.5529,95.3541,903.9571,93.6824,905.6288,99.0866,906.29,89.26" style="stroke:#181818;stroke-width:1.0;"/><text fill="#000000" font-family="sans-serif" font-size="13" lengthAdjust="spacing" textLength="70" x="891.5" y="133.4951">organization</text></g><!--MD5=[bdb0982f82bdfcbbdf74f17f4fc53496]
link OrgAffBI to HC8--><g id="link_OrgAffBI_HC8"><path codeLine="91" d="M1483.37,214.07 C1425.74,236.08 1337.14,269.9 1269.59,295.69 " fill="none" id="OrgAffBI-to-HC8" style="stroke:#181818;stroke-width:1.0;"/><polygon fill="#181818" points="1264.77,297.54,1274.605,298.0627,1269.4404,295.7547,1271.7485,290.5901,1264.77,297.54" style="stroke:#181818;stroke-width:1.0;"/><text fill="#000000" font-family="sans-serif" font-size="13" lengthAdjust="spacing" textLength="143" x="1402.5" y="258.4951">participatingOrganization</text></g><!--MD5=[f894198f57675f88cd869f746b7c3f38]
reverse link UN to OrgAffBI--><g id="link_UN_OrgAffBI"><path codeLine="92" d="M1015.65,68.5 C1119.51,91.58 1297.22,131.37 1449.5,167 C1455.16,168.32 1461.01,169.71 1466.9,171.11 " fill="none" id="UN-backto-OrgAffBI" style="stroke:#181818;stroke-width:1.0;"/><polygon fill="#181818" points="1010.76,67.42,1018.678,73.2771,1015.6409,68.5047,1020.4134,65.4676,1010.76,67.42" style="stroke:#181818;stroke-width:1.0;"/><text fill="#000000" font-family="sans-serif" font-size="13" lengthAdjust="spacing" textLength="70" x="1306.5" y="133.4951">organization</text></g><!--MD5=[f458a7b6478337b1a13f8d6d6bff244f]
@startuml mln-dir
hide footbox

object "Endpoint" as EndpointA
EndpointA : address = https://lower_network_A.org/upper
object "Endpoint" as EndpointB
EndpointB : address = https://community_B.org
object "Endpoint" as Endpoint6
Endpoint6 : address = https://community_one_two_six.org
object "Endpoint" as Endpoint7
Endpoint7 : address = https://community_one_two_seven.org

object "Organization" as LNA
LNA : Name = "Lower Network A"
LNA : OrgID = 1.3
object "Organization" as HC7
HC7 : Name = "Community 1.2.7"
HC7 : HCID = 1.2.7
HC7 : OrgID = 1.2.7
object "Organization" as HC6
HC6 : Name = "Community 1.2.6"
HC6 : HCID = 1.2.6
HC6 : OrgID = 1.2.6

object "Organization" as HC8
HC8 : Name = "Community 1.2.8"
HC8 : HCID =  1.2.8
HC8 : OrgID = 1.2.8

object "Organization" as UN
UN : Name = "Upper Network"
UN : HCID = "1.1"
UN : OrgID = "1.1"

object ":OrganizationAffiliation" as OrgAff7HIE
OrgAff7HIE : code = HIEResponder
OrgAff7HIE - -> HC7 : participatingOrganization
LNA <- - OrgAff7HIE : organization
OrgAff7HIE - -> Endpoint7 : endpoint

object ":OrganizationAffiliation" as OrgAff7
OrgAff7 : code = DocShare-federate-ext
OrgAff7 : code = DocShare-federate-int
OrgAff7 - -> HC7 : participatingOrganization
LNA <- - OrgAff7 : organization

object ":OrganizationAffiliation" as OrgAff6
OrgAff6 : code = DocShare-federate-ext
OrgAff6 - -> HC6 : participatingOrganization
LNA <- - OrgAff6 : organization

together {
    object ":OrganizationAffiliation" as OrgAff6Peer
    OrgAff6Peer : code = HIEInitiator
    OrgAff6Peer - -> HC6 : participatingOrganization
    LNA <- - OrgAff6Peer : organization
    object "Endpoint" as EndpointAD
    EndpointAD : address = https://lower_network_A.org/lower
    object ":OrganizationAffiliation" as OrgAff7Peer
    OrgAff7Peer : code = HIEInitiator
    OrgAff7Peer - -> HC7 : participatingOrganization
    LNA <- - OrgAff7Peer : organization
    OrgAff7Peer -> EndpointAD : endpoint
    EndpointAD <- OrgAff6Peer : endpoint
}

object ":OrganizationAffiliation" as OrgAff6HIE
OrgAff6HIE : code = HIEResponder
OrgAff6HIE - -> HC6 : participatingOrganization
LNA <- - OrgAff6HIE : organization
OrgAff6HIE - -> Endpoint6 : endpoint

object "OrganizationAffiliation" as OrgAffAR
OrgAffAR : code = HIEResponder
OrgAffAR - -> LNA : participatingOrganization
OrgAffAR -> EndpointA : endpoint
UN <- - OrgAffAR : organization

object "OrganizationAffiliation" as OrgAffBR
OrgAffBR : code = HIEResponder
OrgAffBR - -> HC8 : participatingOrganization
OrgAffBR -> EndpointB : endpoint
UN <- - OrgAffBR : organization

object "OrganizationAffiliation" as OrgAffAI
OrgAffAI : code = HIEInitiator
OrgAffAI - -> LNA : participatingOrganization
UN <- - OrgAffAI : organization

object "OrganizationAffiliation" as OrgAffBI
OrgAffBI : code = HIEInitiator
OrgAffBI - -> HC8 : participatingOrganization
UN <- - OrgAffBI : organization

@enduml

PlantUML version 1.2022.7(Mon Aug 22 12:01:30 CDT 2022)
(GPL source distribution)
Java Runtime: OpenJDK Runtime Environment
JVM: OpenJDK 64-Bit Server VM
Default Encoding: Cp1252
Language: en
Country: US
--></g></svg>