<?xml version="1.0" encoding="UTF-8" standalone="no"?><svg xmlns="http://www.w3.org/2000/svg" xmlns:xlink="http://www.w3.org/1999/xlink" contentStyleType="text/css" height="261px" preserveAspectRatio="none" style="width:639px;height:261px;background:#FFFFFF;" version="1.1" viewBox="0 0 639 261" width="639px" zoomAndPan="magnify"><defs/><g><rect fill="none" height="27.6094" id="_title" style="stroke:none;stroke-width:1.0;" width="231" x="197" y="5"/><text fill="#000000" font-family="sans-serif" font-size="14" font-weight="bold" lengthAdjust="spacing" textLength="221" x="202" y="24.5332">Example Multi-Layered Network</text><!--MD5=[abfe5332687cc7c45cbffb716cccbe7b]
cluster topLevelNetwork--><g id="cluster_topLevelNetwork"><rect fill="none" height="210" rx="2.5" ry="2.5" style="stroke:#181818;stroke-width:1.0;" width="626" x="7" y="45.6094"/><text fill="#000000" font-family="sans-serif" font-size="14" font-weight="bold" lengthAdjust="spacing" textLength="131" x="254.5" y="62.1426">Top Level Network</text></g><!--MD5=[ed06cf43afc93311aeeab2733376f4d3]
cluster lowerNetworkB--><g id="cluster_lowerNetworkB"><rect fill="none" height="126" rx="2.5" ry="2.5" style="stroke:#181818;stroke-width:1.0;" width="185" x="416" y="97.6094"/><text fill="#000000" font-family="sans-serif" font-size="14" font-weight="bold" lengthAdjust="spacing" textLength="119" x="449" y="114.1426">Lower Network B</text></g><!--MD5=[65de703ca6d8d18ebd8c9ccfc92de030]
cluster lowerNetworkA--><g id="cluster_lowerNetworkA"><rect fill="none" height="126" rx="2.5" ry="2.5" style="stroke:#181818;stroke-width:1.0;" width="337" x="39" y="97.6094"/><text fill="#000000" font-family="sans-serif" font-size="14" font-weight="bold" lengthAdjust="spacing" textLength="118" x="148.5" y="114.1426">Lower Network A</text></g><!--MD5=[69e716d49468e23bbf4bb43014902148]
entity community3--><g id="elem_community3"><path d="M462,141.6094 L550,141.6094 A3.75,3.75 0 0 1 552.5,144.1094 L559.5,165.2188 L574,165.2188 A2.5,2.5 0 0 1 576.5,167.7188 L576.5,197.3281 A2.5,2.5 0 0 1 574,199.8281 L462,199.8281 A2.5,2.5 0 0 1 459.5,197.3281 L459.5,144.1094 A2.5,2.5 0 0 1 462,141.6094 " fill="#F1F1F1" style="stroke:#181818;stroke-width:0.5;"/><line style="stroke:#181818;stroke-width:0.5;" x1="459.5" x2="559.5" y1="165.2188" y2="165.2188"/><text fill="#000000" font-family="sans-serif" font-size="14" lengthAdjust="spacing" textLength="75" x="469.5" y="159.1426">community3</text><text fill="#000000" font-family="sans-serif" font-size="14" lengthAdjust="spacing" textLength="80" x="469.5" y="186.752">HCID = 1.2.8</text></g><!--MD5=[42b1ca6c40ddd4f82077c21e232e9ae8]
entity community1--><g id="elem_community1"><path d="M85,141.6094 L173,141.6094 A3.75,3.75 0 0 1 175.5,144.1094 L182.5,165.2188 L197,165.2188 A2.5,2.5 0 0 1 199.5,167.7188 L199.5,197.3281 A2.5,2.5 0 0 1 197,199.8281 L85,199.8281 A2.5,2.5 0 0 1 82.5,197.3281 L82.5,144.1094 A2.5,2.5 0 0 1 85,141.6094 " fill="#F1F1F1" style="stroke:#181818;stroke-width:0.5;"/><line style="stroke:#181818;stroke-width:0.5;" x1="82.5" x2="182.5" y1="165.2188" y2="165.2188"/><text fill="#000000" font-family="sans-serif" font-size="14" lengthAdjust="spacing" textLength="75" x="92.5" y="159.1426">community1</text><text fill="#000000" font-family="sans-serif" font-size="14" lengthAdjust="spacing" textLength="80" x="92.5" y="186.752">HCID = 1.2.6</text></g><!--MD5=[460aa5bdac22f3f8ee3019e611532865]
entity community2--><g id="elem_community2"><path d="M237,141.6094 L325,141.6094 A3.75,3.75 0 0 1 327.5,144.1094 L334.5,165.2188 L349,165.2188 A2.5,2.5 0 0 1 351.5,167.7188 L351.5,197.3281 A2.5,2.5 0 0 1 349,199.8281 L237,199.8281 A2.5,2.5 0 0 1 234.5,197.3281 L234.5,144.1094 A2.5,2.5 0 0 1 237,141.6094 " fill="#F1F1F1" style="stroke:#181818;stroke-width:0.5;"/><line style="stroke:#181818;stroke-width:0.5;" x1="234.5" x2="334.5" y1="165.2188" y2="165.2188"/><text fill="#000000" font-family="sans-serif" font-size="14" lengthAdjust="spacing" textLength="75" x="244.5" y="159.1426">community2</text><text fill="#000000" font-family="sans-serif" font-size="14" lengthAdjust="spacing" textLength="80" x="244.5" y="186.752">HCID = 1.2.7</text></g><!--MD5=[bcca9bc0d4a230a85e7f281591c47984]
link community1 to community2--><g id="link_community1_community2"><path d="M204.77,170.6094 C204.77,170.6094 229.39,170.6094 229.39,170.6094 " fill="none" id="community1-community2" style="stroke:#181818;stroke-width:1.0;"/><polygon fill="#181818" points="234.39,170.6094,225.39,166.6094,229.39,170.6094,225.39,174.6094,234.39,170.6094" style="stroke:#181818;stroke-width:1.0;"/><polygon fill="#181818" points="199.77,170.6094,208.77,174.6094,204.77,170.6094,208.77,166.6094,199.77,170.6094" style="stroke:#181818;stroke-width:1.0;"/></g><!--MD5=[41d1ae11f6a79bcb827a4a66d6c62a14]
link lowerNetworkA to lowerNetworkB--><g id="link_lowerNetworkA_lowerNetworkB"><path d="M376.2527,123.6094 C376.7625,123.6094 377.2691,123.6094 377.7724,123.6094 C381.7992,123.6094 385.6189,123.6094 389.2085,123.6094 C396.3877,123.6094 402.6465,123.6094 407.8008,123.6094 C410.3779,123.6094 412.679,123.6094 414.6808,123.6094 C414.9311,123.6094 415.1766,123.6094 415.4175,123.6094 C415.5379,123.6094 415.6572,123.6094 415.7752,123.6094 C415.8342,123.6094 415.893,123.6094 415.9514,123.6094 " fill="none" id="lowerNetworkA-lowerNetworkB" style="stroke:#181818;stroke-width:1.0;"/><polygon fill="#181818" points="415.9514,123.6094,406.9514,119.6094,410.9514,123.6094,406.9514,127.6094,415.9514,123.6094" style="stroke:#181818;stroke-width:1.0;"/><polygon fill="#181818" points="376.2527,123.6094,385.2527,127.6094,381.2527,123.6094,385.2527,119.6094,376.2527,123.6094" style="stroke:#181818;stroke-width:1.0;"/></g><!--MD5=[acd1f1facd5bd025c1ed2ee375f9b3fc]
@startuml mln-simple
title "Example Multi-Layered Network"
skinparam linetype ortho
rectangle topLevelNetwork as "Top Level Network" {
    rectangle lowerNetworkB as "Lower Network B" {
        package community3 as "HCID = 1.2.8"
    }
    rectangle lowerNetworkA as "Lower Network A" {
        package community1 as "HCID = 1.2.6"
        package community2 as "HCID = 1.2.7"
    }
}

community1 <-> community2 
lowerNetworkA <-> lowerNetworkB

@enduml

PlantUML version 1.2022.7(Mon Aug 22 12:01:30 CDT 2022)
(GPL source distribution)
Java Runtime: OpenJDK Runtime Environment
JVM: OpenJDK 64-Bit Server VM
Default Encoding: Cp1252
Language: en
Country: US
--></g></svg>