<?xml version="1.0" encoding="UTF-8" standalone="no"?><svg xmlns="http://www.w3.org/2000/svg" xmlns:xlink="http://www.w3.org/1999/xlink" contentStyleType="text/css" height="343px" preserveAspectRatio="none" style="width:1291px;height:343px;background:#FFFFFF;" version="1.1" viewBox="0 0 1291 343" width="1291px" zoomAndPan="magnify"><defs/><g><rect fill="none" height="27.6094" id="_title" style="stroke:none;stroke-width:1.0;" width="242" x="517.5" y="5"/><text fill="#000000" font-family="sans-serif" font-size="14" font-weight="bold" lengthAdjust="spacing" textLength="232" x="522.5" y="24.5332">Network of Multiple Communities</text><!--MD5=[c59a16d3fcadadefd9f8a8868b25a4e7]
cluster net--><g id="cluster_net"><rect fill="none" height="292" rx="2.5" ry="2.5" style="stroke:#181818;stroke-width:1.0;" width="1278" x="7" y="45.6094"/><text fill="#000000" font-family="sans-serif" font-size="14" font-weight="bold" lengthAdjust="spacing" textLength="152" x="570" y="62.1426">Higher Level Network</text></g><!--MD5=[8e50d5ae847fb035d419c6daafba6016]
cluster com1--><g id="cluster_com1"><path d="M33.5,213.6094 L191.5,213.6094 A3.75,3.75 0 0 1 194,216.1094 L201,237.2188 L422.5,237.2188 A2.5,2.5 0 0 1 425,239.7188 L425,311.1094 A2.5,2.5 0 0 1 422.5,313.6094 L33.5,313.6094 A2.5,2.5 0 0 1 31,311.1094 L31,216.1094 A2.5,2.5 0 0 1 33.5,213.6094 " fill="none" style="stroke:#000000;stroke-width:1.5;"/><line style="stroke:#000000;stroke-width:1.5;" x1="31" x2="201" y1="237.2188" y2="237.2188"/><text fill="#000000" font-family="sans-serif" font-size="14" font-weight="bold" lengthAdjust="spacing" textLength="157" x="35" y="230.1426">Home Community 1.2.3</text></g><!--MD5=[7039a6685dcb61d70a749283d526eee7]
cluster Network Level Infrastructure--><g id="cluster_Network Level Infrastructure"><rect fill="none" height="100" rx="2.5" ry="2.5" style="stroke:#181818;stroke-width:1.0;" width="394" x="449" y="89.6094"/><text fill="#000000" font-family="sans-serif" font-size="14" font-weight="bold" lengthAdjust="spacing" textLength="202" x="545" y="106.1426">Network Level Infrastructure</text></g><!--MD5=[77e2d592856c9cf5cbf2e491c4201e77]
cluster com2--><g id="cluster_com2"><path d="M451.5,213.6094 L609.5,213.6094 A3.75,3.75 0 0 1 612,216.1094 L619,237.2188 L840.5,237.2188 A2.5,2.5 0 0 1 843,239.7188 L843,311.1094 A2.5,2.5 0 0 1 840.5,313.6094 L451.5,313.6094 A2.5,2.5 0 0 1 449,311.1094 L449,216.1094 A2.5,2.5 0 0 1 451.5,213.6094 " fill="none" style="stroke:#000000;stroke-width:1.5;"/><line style="stroke:#000000;stroke-width:1.5;" x1="449" x2="619" y1="237.2188" y2="237.2188"/><text fill="#000000" font-family="sans-serif" font-size="14" font-weight="bold" lengthAdjust="spacing" textLength="157" x="453" y="230.1426">Home Community 1.2.4</text></g><!--MD5=[a6233759b8395f0e33142bba1b381d1d]
cluster com3--><g id="cluster_com3"><path d="M869.5,213.6094 L1027.5,213.6094 A3.75,3.75 0 0 1 1030,216.1094 L1037,237.2188 L1258.5,237.2188 A2.5,2.5 0 0 1 1261,239.7188 L1261,311.1094 A2.5,2.5 0 0 1 1258.5,313.6094 L869.5,313.6094 A2.5,2.5 0 0 1 867,311.1094 L867,216.1094 A2.5,2.5 0 0 1 869.5,213.6094 " fill="none" style="stroke:#000000;stroke-width:1.5;"/><line style="stroke:#000000;stroke-width:1.5;" x1="867" x2="1037" y1="237.2188" y2="237.2188"/><text fill="#000000" font-family="sans-serif" font-size="14" font-weight="bold" lengthAdjust="spacing" textLength="157" x="871" y="230.1426">Home Community 1.2.5</text></g><!--MD5=[106817543ff2524e0c0b504dfe500eda]
entity ig1--><g id="elem_ig1"><polygon fill="#F1F1F1" points="257.5,259.6094,267.5,249.6094,408.5,249.6094,408.5,287.2188,398.5,297.2188,257.5,297.2188,257.5,259.6094" style="stroke:#181818;stroke-width:0.5;"/><line style="stroke:#181818;stroke-width:0.5;" x1="398.5" x2="408.5" y1="259.6094" y2="249.6094"/><line style="stroke:#181818;stroke-width:0.5;" x1="257.5" x2="398.5" y1="259.6094" y2="259.6094"/><line style="stroke:#181818;stroke-width:0.5;" x1="398.5" x2="398.5" y1="259.6094" y2="297.2188"/><text fill="#000000" font-family="sans-serif" font-size="14" lengthAdjust="spacing" textLength="111" x="272.5" y="284.1426">Initiating Gateway</text></g><!--MD5=[dc8c67f594f12ac0f48b0b1eaae9147c]
entity rg1--><g id="elem_rg1"><polygon fill="#F1F1F1" points="47.5,259.6094,57.5,249.6094,222.5,249.6094,222.5,287.2188,212.5,297.2188,47.5,297.2188,47.5,259.6094" style="stroke:#181818;stroke-width:0.5;"/><line style="stroke:#181818;stroke-width:0.5;" x1="212.5" x2="222.5" y1="259.6094" y2="249.6094"/><line style="stroke:#181818;stroke-width:0.5;" x1="47.5" x2="212.5" y1="259.6094" y2="259.6094"/><line style="stroke:#181818;stroke-width:0.5;" x1="212.5" x2="212.5" y1="259.6094" y2="297.2188"/><text fill="#000000" font-family="sans-serif" font-size="14" lengthAdjust="spacing" textLength="135" x="62.5" y="284.1426">Responding Gateway</text></g><!--MD5=[753272eb6deee320953e42b9491051bb]
entity nig--><g id="elem_nig"><polygon fill="#F1F1F1" points="675.5,135.6094,685.5,125.6094,826.5,125.6094,826.5,163.2188,816.5,173.2188,675.5,173.2188,675.5,135.6094" style="stroke:#181818;stroke-width:0.5;"/><line style="stroke:#181818;stroke-width:0.5;" x1="816.5" x2="826.5" y1="135.6094" y2="125.6094"/><line style="stroke:#181818;stroke-width:0.5;" x1="675.5" x2="816.5" y1="135.6094" y2="135.6094"/><line style="stroke:#181818;stroke-width:0.5;" x1="816.5" x2="816.5" y1="135.6094" y2="173.2188"/><text fill="#000000" font-family="sans-serif" font-size="14" lengthAdjust="spacing" textLength="111" x="690.5" y="160.1426">Initiating Gateway</text></g><!--MD5=[4becced70c1ecf70a17925b6837e17c6]
entity nrg--><g id="elem_nrg"><polygon fill="#F1F1F1" points="465.5,135.6094,475.5,125.6094,640.5,125.6094,640.5,163.2188,630.5,173.2188,465.5,173.2188,465.5,135.6094" style="stroke:#181818;stroke-width:0.5;"/><line style="stroke:#181818;stroke-width:0.5;" x1="630.5" x2="640.5" y1="135.6094" y2="125.6094"/><line style="stroke:#181818;stroke-width:0.5;" x1="465.5" x2="630.5" y1="135.6094" y2="135.6094"/><line style="stroke:#181818;stroke-width:0.5;" x1="630.5" x2="630.5" y1="135.6094" y2="173.2188"/><text fill="#000000" font-family="sans-serif" font-size="14" lengthAdjust="spacing" textLength="135" x="480.5" y="160.1426">Responding Gateway</text></g><!--MD5=[15ab3839397a57025ff88985e6aaa805]
entity ig2--><g id="elem_ig2"><polygon fill="#F1F1F1" points="675.5,259.6094,685.5,249.6094,826.5,249.6094,826.5,287.2188,816.5,297.2188,675.5,297.2188,675.5,259.6094" style="stroke:#181818;stroke-width:0.5;"/><line style="stroke:#181818;stroke-width:0.5;" x1="816.5" x2="826.5" y1="259.6094" y2="249.6094"/><line style="stroke:#181818;stroke-width:0.5;" x1="675.5" x2="816.5" y1="259.6094" y2="259.6094"/><line style="stroke:#181818;stroke-width:0.5;" x1="816.5" x2="816.5" y1="259.6094" y2="297.2188"/><text fill="#000000" font-family="sans-serif" font-size="14" lengthAdjust="spacing" textLength="111" x="690.5" y="284.1426">Initiating Gateway</text></g><!--MD5=[518ab16d95ffa4f5a716aa0673f204d3]
entity rg2--><g id="elem_rg2"><polygon fill="#F1F1F1" points="465.5,259.6094,475.5,249.6094,640.5,249.6094,640.5,287.2188,630.5,297.2188,465.5,297.2188,465.5,259.6094" style="stroke:#181818;stroke-width:0.5;"/><line style="stroke:#181818;stroke-width:0.5;" x1="630.5" x2="640.5" y1="259.6094" y2="249.6094"/><line style="stroke:#181818;stroke-width:0.5;" x1="465.5" x2="630.5" y1="259.6094" y2="259.6094"/><line style="stroke:#181818;stroke-width:0.5;" x1="630.5" x2="630.5" y1="259.6094" y2="297.2188"/><text fill="#000000" font-family="sans-serif" font-size="14" lengthAdjust="spacing" textLength="135" x="480.5" y="284.1426">Responding Gateway</text></g><!--MD5=[626cb01f12f6ee99ec5806bd8c0ea3be]
entity ig3--><g id="elem_ig3"><polygon fill="#F1F1F1" points="1093.5,259.6094,1103.5,249.6094,1244.5,249.6094,1244.5,287.2188,1234.5,297.2188,1093.5,297.2188,1093.5,259.6094" style="stroke:#181818;stroke-width:0.5;"/><line style="stroke:#181818;stroke-width:0.5;" x1="1234.5" x2="1244.5" y1="259.6094" y2="249.6094"/><line style="stroke:#181818;stroke-width:0.5;" x1="1093.5" x2="1234.5" y1="259.6094" y2="259.6094"/><line style="stroke:#181818;stroke-width:0.5;" x1="1234.5" x2="1234.5" y1="259.6094" y2="297.2188"/><text fill="#000000" font-family="sans-serif" font-size="14" lengthAdjust="spacing" textLength="111" x="1108.5" y="284.1426">Initiating Gateway</text></g><!--MD5=[f131d990734b0a946254c4fb1246725d]
entity rg3--><g id="elem_rg3"><polygon fill="#F1F1F1" points="883.5,259.6094,893.5,249.6094,1058.5,249.6094,1058.5,287.2188,1048.5,297.2188,883.5,297.2188,883.5,259.6094" style="stroke:#181818;stroke-width:0.5;"/><line style="stroke:#181818;stroke-width:0.5;" x1="1048.5" x2="1058.5" y1="259.6094" y2="249.6094"/><line style="stroke:#181818;stroke-width:0.5;" x1="883.5" x2="1048.5" y1="259.6094" y2="259.6094"/><line style="stroke:#181818;stroke-width:0.5;" x1="1048.5" x2="1048.5" y1="259.6094" y2="297.2188"/><text fill="#000000" font-family="sans-serif" font-size="14" lengthAdjust="spacing" textLength="135" x="898.5" y="284.1426">Responding Gateway</text></g><!--MD5=[c55efd29d7943bf7d08c90d79eba7386]
link nrg to rg1--><g id="link_nrg_rg1"><path d="M465.37,149.6094 C342.8,149.6094 135,149.6094 135,149.6094 C135,149.6094 135,244.4094 135,244.4094 " fill="none" id="nrg-to-rg1" style="stroke:#181818;stroke-width:1.0;"/><polygon fill="#181818" points="135,249.4094,139,240.4094,135,244.4094,131,240.4094,135,249.4094" style="stroke:#181818;stroke-width:1.0;"/></g><!--MD5=[eff044e440309ab7874e6310e664011f]
link nrg to rg2--><g id="link_nrg_rg2"><path d="M523.83,173.8094 C523.83,173.8094 523.83,244.4694 523.83,244.4694 " fill="none" id="nrg-to-rg2" style="stroke:#181818;stroke-width:1.0;"/><polygon fill="#181818" points="523.83,249.4694,527.83,240.4694,523.83,244.4694,519.83,240.4694,523.83,249.4694" style="stroke:#181818;stroke-width:1.0;"/></g><!--MD5=[8669c0ca316a7678435d95f9406a2ca4]
link nrg to rg3--><g id="link_nrg_rg3"><path d="M582.17,173.7294 C582.17,186.5194 582.17,199.6094 582.17,199.6094 C582.17,199.6094 971,199.6094 971,199.6094 C971,199.6094 971,244.3794 971,244.3794 " fill="none" id="nrg-to-rg3" style="stroke:#181818;stroke-width:1.0;"/><polygon fill="#181818" points="971,249.3794,975,240.3794,971,244.3794,967,240.3794,971,249.3794" style="stroke:#181818;stroke-width:1.0;"/></g><!--MD5=[20d2c73eb5a664daed8d2c57a7891e5c]
reverse link nig to ig1--><g id="link_nig_ig1"><path d="M725.83,178.7494 C725.83,178.7494 725.83,224.6094 725.83,224.6094 C725.83,224.6094 333,224.6094 333,224.6094 C333,224.6094 333,237.0494 333,249.3994 " fill="none" id="nig-backto-ig1" style="stroke:#181818;stroke-width:1.0;"/><polygon fill="#181818" points="725.83,173.7494,721.83,182.7494,725.83,178.7494,729.83,182.7494,725.83,173.7494" style="stroke:#181818;stroke-width:1.0;"/></g><!--MD5=[3977227806854de3f6d3f224b5a7fc84]
reverse link nig to ig2--><g id="link_nig_ig2"><path d="M776.17,178.8094 C776.17,178.8094 776.17,249.4694 776.17,249.4694 " fill="none" id="nig-backto-ig2" style="stroke:#181818;stroke-width:1.0;"/><polygon fill="#181818" points="776.17,173.8094,772.17,182.8094,776.17,178.8094,780.17,182.8094,776.17,173.8094" style="stroke:#181818;stroke-width:1.0;"/></g><!--MD5=[02f7ef4de0da508917c03b79f6941807]
reverse link nig to ig3--><g id="link_nig_ig3"><path d="M831.7,149.6094 C831.7,149.6094 1169,149.6094 1169,149.6094 C1169,149.6094 1169,213.3194 1169,249.4094 " fill="none" id="nig-backto-ig3" style="stroke:#181818;stroke-width:1.0;"/><polygon fill="#181818" points="826.7,149.6094,835.7,153.6094,831.7,149.6094,835.7,145.6094,826.7,149.6094" style="stroke:#181818;stroke-width:1.0;"/></g><!--MD5=[9a2f16d793eba632618a255e2c468729]
link ig1 to rg2--><g id="link_ig1_rg2"><path d="M408.71,273.6094 C408.71,273.6094 460.42,273.6094 460.42,273.6094 " fill="none" id="ig1-to-rg2" style="stroke:#181818;stroke-width:1.0;"/><polygon fill="#181818" points="465.42,273.6094,456.42,269.6094,460.42,273.6094,456.42,277.6094,465.42,273.6094" style="stroke:#181818;stroke-width:1.0;"/></g><!--MD5=[4b8ec47ae7ae8d4e75cf166acec40f7a]
link ig1 to rg3--><g id="link_ig1_rg3"><path d="M333,297.8594 C333,302.3294 333,305.6094 333,305.6094 C333,305.6094 971,305.6094 971,305.6094 C971,305.6094 971,302.8594 971,302.8594 " fill="none" id="ig1-to-rg3" style="stroke:#181818;stroke-width:1.0;"/><polygon fill="#181818" points="971,297.8594,967,306.8594,971,302.8594,975,306.8594,971,297.8594" style="stroke:#181818;stroke-width:1.0;"/></g><!--MD5=[9341e9bdc4f09f948bea800b73f52243]
link ig2 to rg1--><g id="link_ig2_rg1"><path d="M751,297.6394 C751,305.6694 751,312.6094 751,312.6094 C751,312.6094 164.17,312.6094 164.17,312.6094 C164.17,312.6094 164.17,302.6394 164.17,302.6394 " fill="none" id="ig2-to-rg1" style="stroke:#181818;stroke-width:1.0;"/><polygon fill="#181818" points="164.17,297.6394,160.17,306.6394,164.17,302.6394,168.17,306.6394,164.17,297.6394" style="stroke:#181818;stroke-width:1.0;"/></g><!--MD5=[07710ceb37cbdd728c06c7a1f3c6e465]
link ig2 to rg3--><g id="link_ig2_rg3"><path d="M826.71,273.6094 C826.71,273.6094 878.42,273.6094 878.42,273.6094 " fill="none" id="ig2-to-rg3" style="stroke:#181818;stroke-width:1.0;"/><polygon fill="#181818" points="883.42,273.6094,874.42,269.6094,878.42,273.6094,874.42,277.6094,883.42,273.6094" style="stroke:#181818;stroke-width:1.0;"/></g><!--MD5=[1d8c26377b74fde12798f798d5bcb270]
link ig3 to rg1--><g id="link_ig3_rg1"><path d="M1194.17,297.6294 C1194.17,311.6494 1194.17,326.6094 1194.17,326.6094 C1194.17,326.6094 105.83,326.6094 105.83,326.6094 C105.83,326.6094 105.83,302.6294 105.83,302.6294 " fill="none" id="ig3-to-rg1" style="stroke:#181818;stroke-width:1.0;"/><polygon fill="#181818" points="105.83,297.6294,101.83,306.6294,105.83,302.6294,109.83,306.6294,105.83,297.6294" style="stroke:#181818;stroke-width:1.0;"/></g><!--MD5=[5f435cabf3bea0c0313055ba11939262]
link ig3 to rg2--><g id="link_ig3_rg2"><path d="M1143.83,297.6894 C1143.83,308.8194 1143.83,319.6094 1143.83,319.6094 C1143.83,319.6094 553,319.6094 553,319.6094 C553,319.6094 553,302.6894 553,302.6894 " fill="none" id="ig3-to-rg2" style="stroke:#181818;stroke-width:1.0;"/><polygon fill="#181818" points="553,297.6894,549,306.6894,553,302.6894,557,306.6894,553,297.6894" style="stroke:#181818;stroke-width:1.0;"/></g><!--MD5=[0406687fb2387dc52f7c59c9f060fe07]
@startuml multi_community_network
title "Network of Multiple Communities"
skinparam linetype ortho
rectangle "Higher Level Network" as net {
    package "Home Community 1.2.3" as com1 {
        node "Initiating Gateway" as ig1
        node "Responding Gateway" as rg1
    }
    rectangle "Network Level Infrastructure" {
        node "Initiating Gateway" as nig
        node "Responding Gateway" as nrg
    }
    package "Home Community 1.2.4" as com2 {
        node "Initiating Gateway" as ig2
        node "Responding Gateway" as rg2
    }
    package "Home Community 1.2.5" as com3 {
        node "Initiating Gateway" as ig3
        node "Responding Gateway" as rg3
    }
}

nrg - -> rg1
nrg - -> rg2
nrg - -> rg3
nig <- - ig1
nig <- - ig2
nig <- - ig3

ig1 - -> rg2
ig1 - -> rg3

ig2 - -> rg1
ig2 - -> rg3

ig3 - -> rg1
ig3 - -> rg2
@enduml

PlantUML version 1.2022.7(Mon Aug 22 12:01:30 CDT 2022)
(GPL source distribution)
Java Runtime: OpenJDK Runtime Environment
JVM: OpenJDK 64-Bit Server VM
Default Encoding: Cp1252
Language: en
Country: US
--></g></svg>