<?xml version="1.0" encoding="UTF-8" standalone="no"?><svg xmlns="http://www.w3.org/2000/svg" xmlns:xlink="http://www.w3.org/1999/xlink" contentStyleType="text/css" height="459px" preserveAspectRatio="none" style="width:1339px;height:459px;background:#FFFFFF;" version="1.1" viewBox="0 0 1339 459" width="1339px" zoomAndPan="magnify"><defs/><g><rect fill="none" height="27.6094" id="_title" style="stroke:none;stroke-width:1.0;" width="241" x="542" y="5"/><text fill="#000000" font-family="sans-serif" font-size="14" font-weight="bold" lengthAdjust="spacing" textLength="231" x="547" y="24.5332">Multiple Organization Community</text><!--MD5=[d29ba9a0f2edbc88a4a47adb820d6234]
cluster community--><g id="cluster_community"><path d="M8.5,44.6094 L184.5,44.6094 A3.75,3.75 0 0 1 187,47.1094 L194,68.2188 L1329.5,68.2188 A2.5,2.5 0 0 1 1332,70.7188 L1332,450.1094 A2.5,2.5 0 0 1 1329.5,452.6094 L8.5,452.6094 A2.5,2.5 0 0 1 6,450.1094 L6,47.1094 A2.5,2.5 0 0 1 8.5,44.6094 " fill="none" style="stroke:#000000;stroke-width:1.5;"/><line style="stroke:#000000;stroke-width:1.5;" x1="6" x2="194" y1="68.2188" y2="68.2188"/><text fill="#000000" font-family="sans-serif" font-size="14" font-weight="bold" lengthAdjust="spacing" textLength="175" x="10" y="61.1426">Home Community ID 1.2.5</text></g><!--MD5=[9461c0695b4b28cd08b7823bd05a53c0]
cluster hie--><g id="cluster_hie"><rect fill="none" height="340" rx="2.5" ry="2.5" style="stroke:#181818;stroke-width:1.0;" width="442" x="30" y="88.6094"/><text fill="#000000" font-family="sans-serif" font-size="14" font-weight="bold" lengthAdjust="spacing" textLength="178" x="162" y="105.1426">Community Infrastructure</text></g><!--MD5=[16e8761ec8bdbc8f380b4a2e38e5c683]
cluster org1--><g id="cluster_org1"><rect fill="none" height="100" rx="2.5" ry="2.5" style="stroke:#181818;stroke-width:1.0;" width="394" x="496" y="328.6094"/><text fill="#000000" font-family="sans-serif" font-size="14" font-weight="bold" lengthAdjust="spacing" textLength="122" x="632" y="345.1426">Organization ABC</text></g><!--MD5=[6b636297bf5502efec0243fbb01e9be1]
cluster org2--><g id="cluster_org2"><rect fill="none" height="100" rx="2.5" ry="2.5" style="stroke:#181818;stroke-width:1.0;" width="394" x="914" y="328.6094"/><text fill="#000000" font-family="sans-serif" font-size="14" font-weight="bold" lengthAdjust="spacing" textLength="122" x="1050" y="345.1426">Organization EFG</text></g><!--MD5=[aff0e67a1692f4b0d96c087fa0872bfd]
entity registry--><g id="elem_registry"><polygon fill="#F1F1F1" points="292,266.6094,302,256.6094,452,256.6094,452,294.2188,442,304.2188,292,304.2188,292,266.6094" style="stroke:#181818;stroke-width:0.5;"/><line style="stroke:#181818;stroke-width:0.5;" x1="442" x2="452" y1="266.6094" y2="256.6094"/><line style="stroke:#181818;stroke-width:0.5;" x1="292" x2="442" y1="266.6094" y2="266.6094"/><line style="stroke:#181818;stroke-width:0.5;" x1="442" x2="442" y1="266.6094" y2="304.2188"/><text fill="#000000" font-family="sans-serif" font-size="14" lengthAdjust="spacing" textLength="120" x="307" y="291.1426">Document Registry</text></g><!--MD5=[ae38f3df50bbf8acf027574e6a8bac37]
entity repo--><g id="elem_repo"><polygon fill="#F1F1F1" points="280,374.6094,290,364.6094,456,364.6094,456,402.2188,446,412.2188,280,412.2188,280,374.6094" style="stroke:#181818;stroke-width:0.5;"/><line style="stroke:#181818;stroke-width:0.5;" x1="446" x2="456" y1="374.6094" y2="364.6094"/><line style="stroke:#181818;stroke-width:0.5;" x1="280" x2="446" y1="374.6094" y2="374.6094"/><line style="stroke:#181818;stroke-width:0.5;" x1="446" x2="446" y1="374.6094" y2="412.2188"/><text fill="#000000" font-family="sans-serif" font-size="14" lengthAdjust="spacing" textLength="136" x="295" y="399.1426">Document Repository</text></g><!--MD5=[106817543ff2524e0c0b504dfe500eda]
entity ig1--><g id="elem_ig1"><polygon fill="#F1F1F1" points="280.5,158.6094,290.5,148.6094,431.5,148.6094,431.5,186.2188,421.5,196.2188,280.5,196.2188,280.5,158.6094" style="stroke:#181818;stroke-width:0.5;"/><line style="stroke:#181818;stroke-width:0.5;" x1="421.5" x2="431.5" y1="158.6094" y2="148.6094"/><line style="stroke:#181818;stroke-width:0.5;" x1="280.5" x2="421.5" y1="158.6094" y2="158.6094"/><line style="stroke:#181818;stroke-width:0.5;" x1="421.5" x2="421.5" y1="158.6094" y2="196.2188"/><text fill="#000000" font-family="sans-serif" font-size="14" lengthAdjust="spacing" textLength="111" x="295.5" y="183.1426">Initiating Gateway</text></g><!--MD5=[dc8c67f594f12ac0f48b0b1eaae9147c]
entity rg1--><g id="elem_rg1"><polygon fill="#F1F1F1" points="70.5,158.6094,80.5,148.6094,245.5,148.6094,245.5,186.2188,235.5,196.2188,70.5,196.2188,70.5,158.6094" style="stroke:#181818;stroke-width:0.5;"/><line style="stroke:#181818;stroke-width:0.5;" x1="235.5" x2="245.5" y1="158.6094" y2="148.6094"/><line style="stroke:#181818;stroke-width:0.5;" x1="70.5" x2="235.5" y1="158.6094" y2="158.6094"/><line style="stroke:#181818;stroke-width:0.5;" x1="235.5" x2="235.5" y1="158.6094" y2="196.2188"/><text fill="#000000" font-family="sans-serif" font-size="14" lengthAdjust="spacing" textLength="135" x="85.5" y="183.1426">Responding Gateway</text></g><!--MD5=[d945125211310d54aa3b7402f8058aa8]
entity dc1--><g id="elem_dc1"><polygon fill="#F1F1F1" points="700.5,374.6094,710.5,364.6094,873.5,364.6094,873.5,402.2188,863.5,412.2188,700.5,412.2188,700.5,374.6094" style="stroke:#181818;stroke-width:0.5;"/><line style="stroke:#181818;stroke-width:0.5;" x1="863.5" x2="873.5" y1="374.6094" y2="364.6094"/><line style="stroke:#181818;stroke-width:0.5;" x1="700.5" x2="863.5" y1="374.6094" y2="374.6094"/><line style="stroke:#181818;stroke-width:0.5;" x1="863.5" x2="863.5" y1="374.6094" y2="412.2188"/><text fill="#000000" font-family="sans-serif" font-size="14" lengthAdjust="spacing" textLength="133" x="715.5" y="399.1426">Document Consumer</text></g><!--MD5=[6de611e34682f669701aef2da7d6fd87]
entity ds1--><g id="elem_ds1"><polygon fill="#F1F1F1" points="512.5,374.6094,522.5,364.6094,665.5,364.6094,665.5,402.2188,655.5,412.2188,512.5,412.2188,512.5,374.6094" style="stroke:#181818;stroke-width:0.5;"/><line style="stroke:#181818;stroke-width:0.5;" x1="655.5" x2="665.5" y1="374.6094" y2="364.6094"/><line style="stroke:#181818;stroke-width:0.5;" x1="512.5" x2="655.5" y1="374.6094" y2="374.6094"/><line style="stroke:#181818;stroke-width:0.5;" x1="655.5" x2="655.5" y1="374.6094" y2="412.2188"/><text fill="#000000" font-family="sans-serif" font-size="14" lengthAdjust="spacing" textLength="113" x="527.5" y="399.1426">Document Source</text></g><!--MD5=[911f0c35836c758be37653371973c67c]
entity dc2--><g id="elem_dc2"><polygon fill="#F1F1F1" points="1118.5,374.6094,1128.5,364.6094,1291.5,364.6094,1291.5,402.2188,1281.5,412.2188,1118.5,412.2188,1118.5,374.6094" style="stroke:#181818;stroke-width:0.5;"/><line style="stroke:#181818;stroke-width:0.5;" x1="1281.5" x2="1291.5" y1="374.6094" y2="364.6094"/><line style="stroke:#181818;stroke-width:0.5;" x1="1118.5" x2="1281.5" y1="374.6094" y2="374.6094"/><line style="stroke:#181818;stroke-width:0.5;" x1="1281.5" x2="1281.5" y1="374.6094" y2="412.2188"/><text fill="#000000" font-family="sans-serif" font-size="14" lengthAdjust="spacing" textLength="133" x="1133.5" y="399.1426">Document Consumer</text></g><!--MD5=[da2d07cc0b900e88034fd536c6a593b5]
entity ds2--><g id="elem_ds2"><polygon fill="#F1F1F1" points="930.5,374.6094,940.5,364.6094,1083.5,364.6094,1083.5,402.2188,1073.5,412.2188,930.5,412.2188,930.5,374.6094" style="stroke:#181818;stroke-width:0.5;"/><line style="stroke:#181818;stroke-width:0.5;" x1="1073.5" x2="1083.5" y1="374.6094" y2="364.6094"/><line style="stroke:#181818;stroke-width:0.5;" x1="930.5" x2="1073.5" y1="374.6094" y2="374.6094"/><line style="stroke:#181818;stroke-width:0.5;" x1="1073.5" x2="1073.5" y1="374.6094" y2="412.2188"/><text fill="#000000" font-family="sans-serif" font-size="14" lengthAdjust="spacing" textLength="113" x="945.5" y="399.1426">Document Source</text></g><!--MD5=[30f3d726ee3c0e1831edf77476368b98]
reverse link ig1 to dc1--><g id="link_ig1_dc1"><path d="M436.67,180.6094 C436.67,180.6094 815.83,180.6094 815.83,180.6094 C815.83,180.6094 815.83,309.4694 815.83,364.3394 " fill="none" id="ig1-backto-dc1" style="stroke:#181818;stroke-width:1.0;"/><polygon fill="#181818" points="431.67,180.6094,440.67,184.6094,436.67,180.6094,440.67,176.6094,431.67,180.6094" style="stroke:#181818;stroke-width:1.0;"/></g><!--MD5=[00f6e8d94a612b100f6b7c33c2eb0776]
reverse link ig1 to dc2--><g id="link_ig1_dc2"><path d="M436.6,164.6094 C436.6,164.6094 1233.83,164.6094 1233.83,164.6094 C1233.83,164.6094 1233.83,306.1594 1233.83,364.2094 " fill="none" id="ig1-backto-dc2" style="stroke:#181818;stroke-width:1.0;"/><polygon fill="#181818" points="431.6,164.6094,440.6,168.6094,436.6,164.6094,440.6,160.6094,431.6,164.6094" style="stroke:#181818;stroke-width:1.0;"/></g><!--MD5=[f8132cb944edb5f2408492ca07acd05f]
link rg1 to registry--><g id="link_rg1_registry"><path d="M187.17,196.8494 C187.17,228.6894 187.17,280.6094 187.17,280.6094 C187.17,280.6094 286.74,280.6094 286.74,280.6094 " fill="none" id="rg1-to-registry" style="stroke:#181818;stroke-width:1.0;"/><polygon fill="#181818" points="291.74,280.6094,282.74,276.6094,286.74,280.6094,282.74,284.6094,291.74,280.6094" style="stroke:#181818;stroke-width:1.0;"/></g><!--MD5=[2f13b346efbe7903966df5d99e7c7476]
link rg1 to repo--><g id="link_rg1_repo"><path d="M128.83,196.9694 C128.83,253.4594 128.83,388.6094 128.83,388.6094 C128.83,388.6094 274.96,388.6094 274.96,388.6094 " fill="none" id="rg1-to-repo" style="stroke:#181818;stroke-width:1.0;"/><polygon fill="#181818" points="279.96,388.6094,270.96,384.6094,274.96,388.6094,270.96,392.6094,279.96,388.6094" style="stroke:#181818;stroke-width:1.0;"/></g><!--MD5=[9da55cc4dfa5382f6f5485f7bc8ee213]
reverse link registry to dc1--><g id="link_registry_dc1"><path d="M457.01,288.6094 C457.01,288.6094 758.17,288.6094 758.17,288.6094 C758.17,288.6094 758.17,334.8094 758.17,364.3994 " fill="none" id="registry-backto-dc1" style="stroke:#181818;stroke-width:1.0;"/><polygon fill="#181818" points="452.01,288.6094,461.01,292.6094,457.01,288.6094,461.01,284.6094,452.01,288.6094" style="stroke:#181818;stroke-width:1.0;"/></g><!--MD5=[9c0811721506f24d28c7502c96fcc6bb]
reverse link registry to dc2--><g id="link_registry_dc2"><path d="M457.05,272.6094 C457.05,272.6094 1176.17,272.6094 1176.17,272.6094 C1176.17,272.6094 1176.17,330.5994 1176.17,364.5694 " fill="none" id="registry-backto-dc2" style="stroke:#181818;stroke-width:1.0;"/><polygon fill="#181818" points="452.05,272.6094,461.05,276.6094,457.05,272.6094,461.05,268.6094,452.05,272.6094" style="stroke:#181818;stroke-width:1.0;"/></g><!--MD5=[d0ea5c40b435aa598b2555ceac8386e7]
link dc1 to repo--><g id="link_dc1_repo"><path d="M787,412.9394 C787,417.8894 787,421.6094 787,421.6094 C787,421.6094 412,421.6094 412,421.6094 C412,421.6094 412,417.9394 412,417.9394 " fill="none" id="dc1-to-repo" style="stroke:#181818;stroke-width:1.0;"/><polygon fill="#181818" points="412,412.9394,408,421.9394,412,417.9394,416,421.9394,412,412.9394" style="stroke:#181818;stroke-width:1.0;"/></g><!--MD5=[bc1daec521117918bc2dd53b7e6e2128]
link dc2 to repo--><g id="link_dc2_repo"><path d="M1205,412.6194 C1205,425.8394 1205,439.6094 1205,439.6094 C1205,439.6094 324,439.6094 324,439.6094 C324,439.6094 324,417.6194 324,417.6194 " fill="none" id="dc2-to-repo" style="stroke:#181818;stroke-width:1.0;"/><polygon fill="#181818" points="324,412.6194,320,421.6194,324,417.6194,328,421.6194,324,412.6194" style="stroke:#181818;stroke-width:1.0;"/></g><!--MD5=[912fed513c8e1f6c70d8cb7e28423493]
link ds1 to repo--><g id="link_ds1_repo"><path d="M512.33,388.6094 C512.33,388.6094 461.29,388.6094 461.29,388.6094 " fill="none" id="ds1-to-repo" style="stroke:#181818;stroke-width:1.0;"/><polygon fill="#181818" points="456.29,388.6094,465.29,392.6094,461.29,388.6094,465.29,384.6094,456.29,388.6094" style="stroke:#181818;stroke-width:1.0;"/></g><!--MD5=[0490e7963a18e076b31f81573c558370]
link ds2 to repo--><g id="link_ds2_repo"><path d="M1007,413.0394 C1007,422.2794 1007,430.6094 1007,430.6094 C1007,430.6094 368,430.6094 368,430.6094 C368,430.6094 368,418.0394 368,418.0394 " fill="none" id="ds2-to-repo" style="stroke:#181818;stroke-width:1.0;"/><polygon fill="#181818" points="368,413.0394,364,422.0394,368,418.0394,372,422.0394,368,413.0394" style="stroke:#181818;stroke-width:1.0;"/></g><!--MD5=[1b74898a7fb51bdb180ab5344c29dece]
reverse link registry to repo--><g id="link_registry_repo"><path d="M372,309.8494 C372,309.8494 372,364.4494 372,364.4494 " fill="none" id="registry-backto-repo" style="stroke:#181818;stroke-width:1.0;"/><polygon fill="#181818" points="372,304.8494,368,313.8494,372,309.8494,376,313.8494,372,304.8494" style="stroke:#181818;stroke-width:1.0;"/></g><!--MD5=[7d4e1fc04b0f2fa655426f537911ac1d]
@startuml multi_organization_community
title "Multiple Organization Community"
skinparam linetype ortho
package "Home Community ID 1.2.5" as community {
    rectangle "Community Infrastructure" as hie {
        together {
            node ig1 as "Initiating Gateway"
            node rg1 as "Responding Gateway"
        }
        node registry as "Document Registry"
        node repo as "Document Repository"
    }
    rectangle "Organization ABC" as org1 {
        node dc1 as "Document Consumer"
        node ds1 as "Document Source"
    }
        rectangle "Organization EFG" as org2 {
        node dc2 as "Document Consumer"
        node ds2 as "Document Source"
    }
}
dc1 -u-> ig1
dc2 -u-> ig1
rg1 -d-> registry
rg1 -d-> repo
dc1 -u-> registry
dc2 -u-> registry
dc1 -r-> repo
dc2 -r-> repo
ds1 - -> repo
ds2 - -> repo
repo -u-> registry

@enduml

PlantUML version 1.2022.7(Mon Aug 22 12:01:30 CDT 2022)
(GPL source distribution)
Java Runtime: OpenJDK Runtime Environment
JVM: OpenJDK 64-Bit Server VM
Default Encoding: Cp1252
Language: en
Country: US
--></g></svg>