<?xml version="1.0" encoding="UTF-8" standalone="no"?><svg xmlns="http://www.w3.org/2000/svg" xmlns:xlink="http://www.w3.org/1999/xlink" contentStyleType="text/css" height="346px" preserveAspectRatio="none" style="width:1349px;height:346px;background:#FFFFFF;" version="1.1" viewBox="0 0 1349 346" width="1349px" zoomAndPan="magnify"><defs/><g><g id="elem_Community3"><rect fill="#F1F1F1" height="64.8281" style="stroke:#181818;stroke-width:0.5;" width="97" x="1127" y="275"/><text fill="#000000" font-family="sans-serif" font-size="14" lengthAdjust="spacing" textLength="70" x="1140.5" y="291.5332">Community</text><line style="stroke:#181818;stroke-width:0.5;" x1="1128" x2="1223" y1="296.6094" y2="296.6094"/><text fill="#000000" font-family="sans-serif" font-size="14" lengthAdjust="spacing" textLength="85" x="1133" y="315.1426">OrgID = 1.2.3</text><text fill="#000000" font-family="sans-serif" font-size="14" lengthAdjust="spacing" textLength="80" x="1133" y="332.752">HCID = 1.2.3</text></g><g id="elem_Community4"><rect fill="#F1F1F1" height="64.8281" style="stroke:#181818;stroke-width:0.5;" width="97" x="240" y="275"/><text fill="#000000" font-family="sans-serif" font-size="14" lengthAdjust="spacing" textLength="70" x="253.5" y="291.5332">Community</text><line style="stroke:#181818;stroke-width:0.5;" x1="241" x2="336" y1="296.6094" y2="296.6094"/><text fill="#000000" font-family="sans-serif" font-size="14" lengthAdjust="spacing" textLength="85" x="246" y="315.1426">OrgID = 1.2.4</text><text fill="#000000" font-family="sans-serif" font-size="14" lengthAdjust="spacing" textLength="80" x="246" y="332.752">HCID = 1.2.4</text></g><g id="elem_Community5"><rect fill="#F1F1F1" height="64.8281" style="stroke:#181818;stroke-width:0.5;" width="97" x="684" y="275"/><text fill="#000000" font-family="sans-serif" font-size="14" lengthAdjust="spacing" textLength="70" x="697.5" y="291.5332">Community</text><line style="stroke:#181818;stroke-width:0.5;" x1="685" x2="780" y1="296.6094" y2="296.6094"/><text fill="#000000" font-family="sans-serif" font-size="14" lengthAdjust="spacing" textLength="85" x="690" y="315.1426">OrgID = 1.2.5</text><text fill="#000000" font-family="sans-serif" font-size="14" lengthAdjust="spacing" textLength="80" x="690" y="332.752">HCID = 1.2.5</text></g><g id="elem_Network"><rect fill="#F1F1F1" height="47.2188" style="stroke:#181818;stroke-width:0.5;" width="82" x="565.5" y="7"/><text fill="#000000" font-family="sans-serif" font-size="14" lengthAdjust="spacing" textLength="50" x="581.5" y="23.5332">Network</text><line style="stroke:#181818;stroke-width:0.5;" x1="566.5" x2="646.5" y1="28.6094" y2="28.6094"/><text fill="#000000" font-family="sans-serif" font-size="14" lengthAdjust="spacing" textLength="70" x="571.5" y="47.1426">orgID = 1.2</text></g><g id="elem_NetEnds"><rect fill="#F1F1F1" height="37.6094" style="stroke:#181818;stroke-width:0.5;" width="125" x="1027" y="11.5"/><text fill="#000000" font-family="sans-serif" font-size="14" lengthAdjust="spacing" textLength="111" x="1034" y="28.0332">Inititing Endpoints</text><line style="stroke:#181818;stroke-width:0.5;" x1="1028" x2="1151" y1="33.1094" y2="33.1094"/></g><g id="elem_RespEnds3"><rect fill="#F1F1F1" height="37.6094" style="stroke:#181818;stroke-width:0.5;" width="157" x="895" y="288.5"/><text fill="#000000" font-family="sans-serif" font-size="14" lengthAdjust="spacing" textLength="143" x="902" y="305.0332">Responding Endpoints</text><line style="stroke:#181818;stroke-width:0.5;" x1="896" x2="1051" y1="310.1094" y2="310.1094"/></g><g id="elem_RespEnds4"><rect fill="#F1F1F1" height="37.6094" style="stroke:#181818;stroke-width:0.5;" width="157" x="7" y="288.5"/><text fill="#000000" font-family="sans-serif" font-size="14" lengthAdjust="spacing" textLength="143" x="14" y="305.0332">Responding Endpoints</text><line style="stroke:#181818;stroke-width:0.5;" x1="8" x2="163" y1="310.1094" y2="310.1094"/></g><g id="elem_RespEnds5"><rect fill="#F1F1F1" height="37.6094" style="stroke:#181818;stroke-width:0.5;" width="157" x="451" y="288.5"/><text fill="#000000" font-family="sans-serif" font-size="14" lengthAdjust="spacing" textLength="143" x="458" y="305.0332">Responding Endpoints</text><line style="stroke:#181818;stroke-width:0.5;" x1="452" x2="607" y1="310.1094" y2="310.1094"/></g><g id="elem_OrgAff3"><rect fill="#F1F1F1" height="64.8281" style="stroke:#181818;stroke-width:0.5;" width="213" x="1110" y="132"/><text fill="#000000" font-family="sans-serif" font-size="14" lengthAdjust="spacing" textLength="137" x="1148" y="148.5332">OrganizationAffiliation</text><line style="stroke:#181818;stroke-width:0.5;" x1="1111" x2="1322" y1="153.6094" y2="153.6094"/><text fill="#000000" font-family="sans-serif" font-size="14" lengthAdjust="spacing" textLength="201" x="1116" y="172.1426">code = "DocShare-federate-ext"</text><text fill="#000000" font-family="sans-serif" font-size="14" lengthAdjust="spacing" textLength="124" x="1116" y="189.752">code = "HIEInitiator"</text></g><g id="elem_OrgAff4"><rect fill="#F1F1F1" height="64.8281" style="stroke:#181818;stroke-width:0.5;" width="213" x="222" y="132"/><text fill="#000000" font-family="sans-serif" font-size="14" lengthAdjust="spacing" textLength="137" x="260" y="148.5332">OrganizationAffiliation</text><line style="stroke:#181818;stroke-width:0.5;" x1="223" x2="434" y1="153.6094" y2="153.6094"/><text fill="#000000" font-family="sans-serif" font-size="14" lengthAdjust="spacing" textLength="201" x="228" y="172.1426">code = "DocShare-federate-ext"</text><text fill="#000000" font-family="sans-serif" font-size="14" lengthAdjust="spacing" textLength="124" x="228" y="189.752">code = "HIEInitiator"</text></g><g id="elem_OrgAff5"><rect fill="#F1F1F1" height="64.8281" style="stroke:#181818;stroke-width:0.5;" width="213" x="666" y="132"/><text fill="#000000" font-family="sans-serif" font-size="14" lengthAdjust="spacing" textLength="137" x="704" y="148.5332">OrganizationAffiliation</text><line style="stroke:#181818;stroke-width:0.5;" x1="667" x2="878" y1="153.6094" y2="153.6094"/><text fill="#000000" font-family="sans-serif" font-size="14" lengthAdjust="spacing" textLength="201" x="672" y="172.1426">code = "DocShare-federate-ext"</text><text fill="#000000" font-family="sans-serif" font-size="14" lengthAdjust="spacing" textLength="124" x="672" y="189.752">code = "HIEInitiator"</text></g><g id="elem_OrgAff3Resp"><rect fill="#F1F1F1" height="47.2188" style="stroke:#181818;stroke-width:0.5;" width="160" x="914.5" y="141"/><text fill="#000000" font-family="sans-serif" font-size="14" lengthAdjust="spacing" textLength="137" x="926" y="157.5332">OrganizationAffiliation</text><line style="stroke:#181818;stroke-width:0.5;" x1="915.5" x2="1073.5" y1="162.6094" y2="162.6094"/><text fill="#000000" font-family="sans-serif" font-size="14" lengthAdjust="spacing" textLength="148" x="920.5" y="181.1426">code = "HIEResponder"</text></g><g id="elem_OrgAff4Resp"><rect fill="#F1F1F1" height="47.2188" style="stroke:#181818;stroke-width:0.5;" width="160" x="26.5" y="141"/><text fill="#000000" font-family="sans-serif" font-size="14" lengthAdjust="spacing" textLength="137" x="38" y="157.5332">OrganizationAffiliation</text><line style="stroke:#181818;stroke-width:0.5;" x1="27.5" x2="185.5" y1="162.6094" y2="162.6094"/><text fill="#000000" font-family="sans-serif" font-size="14" lengthAdjust="spacing" textLength="148" x="32.5" y="181.1426">code = "HIEResponder"</text></g><g id="elem_OrgAff5Resp"><rect fill="#F1F1F1" height="47.2188" style="stroke:#181818;stroke-width:0.5;" width="160" x="470.5" y="141"/><text fill="#000000" font-family="sans-serif" font-size="14" lengthAdjust="spacing" textLength="137" x="482" y="157.5332">OrganizationAffiliation</text><line style="stroke:#181818;stroke-width:0.5;" x1="471.5" x2="629.5" y1="162.6094" y2="162.6094"/><text fill="#000000" font-family="sans-serif" font-size="14" lengthAdjust="spacing" textLength="148" x="476.5" y="181.1426">code = "HIEResponder"</text></g><!--MD5=[0de75cc229360c4cc4ddc8e74fbd5fa4]
reverse link NetEnds to OrgAff3--><g id="link_NetEnds_OrgAff3"><path codeLine="27" d="M1115.01,52.86 C1125.66,62.12 1137.98,73.28 1148.5,84 C1163.25,99.04 1178.6,116.78 1190.97,131.67 " fill="none" id="NetEnds-backto-OrgAff3" style="stroke:#181818;stroke-width:1.0;"/><polygon fill="#181818" points="1111.17,49.54,1115.3836,58.442,1114.9602,52.801,1120.6012,52.3777,1111.17,49.54" style="stroke:#181818;stroke-width:1.0;"/><text fill="#000000" font-family="sans-serif" font-size="13" lengthAdjust="spacing" textLength="49" x="1164.5" y="98.4951">endpoint</text></g><!--MD5=[f84bed1f76336703540727ef9f28f344]
reverse link Network to OrgAff3--><g id="link_Network_OrgAff3"><path codeLine="28" d="M653.13,33.67 C718.54,37.86 840.53,49.94 938.5,84 C953.91,89.36 955.33,96 970.5,102 C1022.42,122.54 1038.33,118.46 1092.5,132 C1098.21,133.43 1104.07,134.9 1109.98,136.38 " fill="none" id="Network-backto-OrgAff3" style="stroke:#181818;stroke-width:1.0;"/><polygon fill="#181818" points="647.75,33.33,656.4805,37.8883,652.7401,33.6446,656.9838,29.9041,647.75,33.33" style="stroke:#181818;stroke-width:1.0;"/><text fill="#000000" font-family="sans-serif" font-size="13" lengthAdjust="spacing" textLength="70" x="971.5" y="98.4951">organization</text></g><!--MD5=[a7364a1b2b1145799344ea6d96d3de5d]
link OrgAff3 to Community3--><g id="link_OrgAff3_Community3"><path codeLine="29" d="M1207.3,197.14 C1201.02,218.73 1192.69,247.39 1186.13,269.95 " fill="none" id="OrgAff3-to-Community3" style="stroke:#181818;stroke-width:1.0;"/><polygon fill="#181818" points="1184.67,274.96,1191.03,267.44,1186.07,270.16,1183.35,265.2,1184.67,274.96" style="stroke:#181818;stroke-width:1.0;"/><text fill="#000000" font-family="sans-serif" font-size="13" lengthAdjust="spacing" textLength="143" x="1198.5" y="241.4951">participatingOrganization</text></g><!--MD5=[c09789fa09d2ea7d200b3b287640128e]
reverse link NetEnds to OrgAff4--><g id="link_NetEnds_OrgAff4"><path codeLine="34" d="M1021.67,35.64 C955.31,41.28 852.16,54.34 767.5,84 C752.1,89.4 751.04,97.04 735.5,102 C615.01,140.46 577,109.71 452.5,132 C446.82,133.02 441.01,134.15 435.16,135.37 " fill="none" id="NetEnds-backto-OrgAff4" style="stroke:#181818;stroke-width:1.0;"/><polygon fill="#181818" points="1026.78,35.21,1017.4789,31.9712,1021.7973,35.6252,1018.1433,39.9436,1026.78,35.21" style="stroke:#181818;stroke-width:1.0;"/><text fill="#000000" font-family="sans-serif" font-size="13" lengthAdjust="spacing" textLength="49" x="768.5" y="98.4951">endpoint</text></g><!--MD5=[d818986d013aff2d55ff0186afe29758]
reverse link Network to OrgAff4--><g id="link_Network_OrgAff4"><path codeLine="35" d="M560.48,46.04 C532.02,55.6 495.02,69.08 463.5,84 C434,97.96 402.49,116.3 377.34,131.85 " fill="none" id="Network-backto-OrgAff4" style="stroke:#181818;stroke-width:1.0;"/><polygon fill="#181818" points="565.33,44.42,555.5261,43.4802,560.588,46.0054,558.0628,51.0674,565.33,44.42" style="stroke:#181818;stroke-width:1.0;"/><text fill="#000000" font-family="sans-serif" font-size="13" lengthAdjust="spacing" textLength="70" x="464.5" y="98.4951">organization</text></g><!--MD5=[ac2c356d0a86554bb3c9ca4caa98e52b]
link OrgAff4 to Community4--><g id="link_OrgAff4_Community4"><path codeLine="36" d="M319.52,197.14 C313.4,218.73 305.27,247.39 298.87,269.95 " fill="none" id="OrgAff4-to-Community4" style="stroke:#181818;stroke-width:1.0;"/><polygon fill="#181818" points="297.45,274.96,303.7627,267.4002,298.8198,270.1513,296.0687,265.2085,297.45,274.96" style="stroke:#181818;stroke-width:1.0;"/><text fill="#000000" font-family="sans-serif" font-size="13" lengthAdjust="spacing" textLength="143" x="312.5" y="241.4951">participatingOrganization</text></g><!--MD5=[0f17f6c077d9662d9d558616b437d950]
reverse link NetEnds to OrgAff5--><g id="link_NetEnds_OrgAff5"><path codeLine="41" d="M1082.54,54.55 C1076.58,70.33 1066.38,90.43 1050.5,102 C994.49,142.8 965.12,116.86 897.5,132 C891.49,133.34 885.34,134.76 879.13,136.23 " fill="none" id="NetEnds-backto-OrgAff5" style="stroke:#181818;stroke-width:1.0;"/><polygon fill="#181818" points="1084.26,49.8,1077.4442,56.9095,1082.5639,54.5035,1084.9698,59.6232,1084.26,49.8" style="stroke:#181818;stroke-width:1.0;"/><text fill="#000000" font-family="sans-serif" font-size="13" lengthAdjust="spacing" textLength="49" x="1067.5" y="98.4951">endpoint</text></g><!--MD5=[ac4166af961b499f5dbf4491a6cec676]
reverse link Network to OrgAff5--><g id="link_Network_OrgAff5"><path codeLine="42" d="M622.74,58.45 C632.21,72.62 645.11,89.57 659.5,102 C672.6,113.31 688.13,123.41 703.41,132 " fill="none" id="Network-backto-OrgAff5" style="stroke:#181818;stroke-width:1.0;"/><polygon fill="#181818" points="619.92,54.15,621.5072,63.8701,622.6605,58.3321,628.1985,59.4854,619.92,54.15" style="stroke:#181818;stroke-width:1.0;"/><text fill="#000000" font-family="sans-serif" font-size="13" lengthAdjust="spacing" textLength="70" x="660.5" y="98.4951">organization</text></g><!--MD5=[2d32568ca2e4449169387288c2d0f958]
link OrgAff5 to Community5--><g id="link_OrgAff5_Community5"><path codeLine="43" d="M763.52,197.14 C757.4,218.73 749.27,247.39 742.87,269.95 " fill="none" id="OrgAff5-to-Community5" style="stroke:#181818;stroke-width:1.0;"/><polygon fill="#181818" points="741.45,274.96,747.7627,267.4002,742.8198,270.1513,740.0687,265.2085,741.45,274.96" style="stroke:#181818;stroke-width:1.0;"/><text fill="#000000" font-family="sans-serif" font-size="13" lengthAdjust="spacing" textLength="143" x="755.5" y="241.4951">participatingOrganization</text></g><!--MD5=[d5af423a50e1d4c44166ea6b92f85ba4]
link OrgAff3Resp to RespEnds3--><g id="link_OrgAff3Resp_RespEnds3"><path codeLine="47" d="M991.13,188.15 C987.23,214.28 980.87,257.01 976.95,283.35 " fill="none" id="OrgAff3Resp-to-RespEnds3" style="stroke:#181818;stroke-width:1.0;"/><polygon fill="#181818" points="976.2,288.38,981.4896,280.0722,976.941,283.4352,973.578,278.8866,976.2,288.38" style="stroke:#181818;stroke-width:1.0;"/></g><!--MD5=[e3ba0f4cf4cfa0ac93bc6f2c58dc571e]
reverse link Network to OrgAff3Resp--><g id="link_Network_OrgAff3Resp"><path codeLine="48" d="M652.98,39.38 C698.14,47.78 768.23,62.8 826.5,84 C843.31,90.12 846.39,94.22 862.5,102 C889.71,115.14 920.28,129.41 945.14,140.9 " fill="none" id="Network-backto-OrgAff3Resp" style="stroke:#181818;stroke-width:1.0;"/><polygon fill="#181818" points="647.87,38.44,656.0022,43.9959,652.7882,39.3407,657.4433,36.1267,647.87,38.44" style="stroke:#181818;stroke-width:1.0;"/><text fill="#000000" font-family="sans-serif" font-size="13" lengthAdjust="spacing" textLength="70" x="863.5" y="98.4951">organization</text></g><!--MD5=[5ad8e1ea1e29dfc73387a1b2daabd602]
link OrgAff3Resp to Community3--><g id="link_OrgAff3Resp_Community3"><path codeLine="49" d="M1003.13,188.26 C1010.72,205.7 1023.26,229.36 1040.5,245 C1063.66,266.02 1095.23,280.93 1122.02,290.81 " fill="none" id="OrgAff3Resp-to-Community3" style="stroke:#181818;stroke-width:1.0;"/><polygon fill="#181818" points="1126.96,292.59,1119.8572,285.7673,1122.2581,290.8893,1117.1361,293.2903,1126.96,292.59" style="stroke:#181818;stroke-width:1.0;"/><text fill="#000000" font-family="sans-serif" font-size="13" lengthAdjust="spacing" textLength="143" x="1041.5" y="241.4951">participatingOrganization</text></g><!--MD5=[fcb72bc0f96e1195cfd224adcc5b70ab]
link OrgAff4Resp to RespEnds4--><g id="link_OrgAff4Resp_RespEnds4"><path codeLine="53" d="M103.13,188.15 C99.23,214.28 92.87,257.01 88.95,283.35 " fill="none" id="OrgAff4Resp-to-RespEnds4" style="stroke:#181818;stroke-width:1.0;"/><polygon fill="#181818" points="88.2,288.38,93.4896,280.0722,88.941,283.4352,85.578,278.8866,88.2,288.38" style="stroke:#181818;stroke-width:1.0;"/></g><!--MD5=[46f97cec62ca618931ac3d2924663de2]
reverse link Network to OrgAff4Resp--><g id="link_Network_OrgAff4Resp"><path codeLine="54" d="M560,39.34 C508.24,48.45 422.28,64.73 349.5,84 C287.28,100.47 217.59,123.79 168.85,140.91 " fill="none" id="Network-backto-OrgAff4Resp" style="stroke:#181818;stroke-width:1.0;"/><polygon fill="#181818" points="565.21,38.43,555.6566,36.0359,560.2844,39.2891,557.0312,43.9169,565.21,38.43" style="stroke:#181818;stroke-width:1.0;"/><text fill="#000000" font-family="sans-serif" font-size="13" lengthAdjust="spacing" textLength="70" x="350.5" y="98.4951">organization</text></g><!--MD5=[5ea7ca2615d4d4328cece336d93f9fc0]
link OrgAff4Resp to Community4--><g id="link_OrgAff4Resp_Community4"><path codeLine="55" d="M115.43,188.25 C123.25,205.69 136.09,229.35 153.5,245 C176.67,265.83 208.09,280.7 234.79,290.6 " fill="none" id="OrgAff4Resp-to-Community4" style="stroke:#181818;stroke-width:1.0;"/><polygon fill="#181818" points="239.71,292.39,232.6255,285.5482,235.0127,290.6767,229.8842,293.0639,239.71,292.39" style="stroke:#181818;stroke-width:1.0;"/><text fill="#000000" font-family="sans-serif" font-size="13" lengthAdjust="spacing" textLength="143" x="154.5" y="241.4951">participatingOrganization</text></g><!--MD5=[dfdac2b347570c8fa645a126d632535d]
link OrgAff5Resp to RespEnds5--><g id="link_OrgAff5Resp_RespEnds5"><path codeLine="59" d="M547.13,188.15 C543.23,214.28 536.87,257.01 532.95,283.35 " fill="none" id="OrgAff5Resp-to-RespEnds5" style="stroke:#181818;stroke-width:1.0;"/><polygon fill="#181818" points="532.2,288.38,537.4896,280.0722,532.941,283.4352,529.578,278.8866,532.2,288.38" style="stroke:#181818;stroke-width:1.0;"/></g><!--MD5=[4c05906fe9b4ee6bb7f01bc7e55ba451]
reverse link Network to OrgAff5Resp--><g id="link_Network_OrgAff5Resp"><path codeLine="60" d="M567.53,57.66 C559.42,65.13 551.99,74 547.5,84 C539.47,101.89 541.27,124.4 544.47,140.89 " fill="none" id="Network-backto-OrgAff5Resp" style="stroke:#181818;stroke-width:1.0;"/><polygon fill="#181818" points="571.55,54.1,562.1539,57.0517,567.7996,57.4067,567.4446,63.0524,571.55,54.1" style="stroke:#181818;stroke-width:1.0;"/><text fill="#000000" font-family="sans-serif" font-size="13" lengthAdjust="spacing" textLength="70" x="548.5" y="98.4951">organization</text></g><!--MD5=[73648be5a239c3d15e0d8987b3294aa7]
link OrgAff5Resp to Community5--><g id="link_OrgAff5Resp_Community5"><path codeLine="61" d="M559.12,188.27 C566.7,205.72 579.24,229.38 596.5,245 C619.93,266.2 651.88,281.15 678.93,291 " fill="none" id="OrgAff5Resp-to-Community5" style="stroke:#181818;stroke-width:1.0;"/><polygon fill="#181818" points="683.92,292.78,676.774,286.0025,679.2074,291.1092,674.1007,293.5426,683.92,292.78" style="stroke:#181818;stroke-width:1.0;"/><text fill="#000000" font-family="sans-serif" font-size="13" lengthAdjust="spacing" textLength="143" x="597.5" y="241.4951">participatingOrganization</text></g><!--MD5=[23ee55bb746a011313bc86efe264bf75]
@startuml multi_community_network_directory
hide footbox

object "Community" as Community3
Community3 : OrgID = 1.2.3
Community3 : HCID = 1.2.3

object "Community" as Community4
Community4 : OrgID = 1.2.4
Community4 : HCID = 1.2.4

object "Community" as Community5
Community5 : OrgID = 1.2.5
Community5 : HCID = 1.2.5

object "Network" as Network
Network : orgID = 1.2

object "Inititing Endpoints" as NetEnds

object "Responding Endpoints" as RespEnds3
object "Responding Endpoints" as RespEnds4
object "Responding Endpoints" as RespEnds5

object "OrganizationAffiliation" as OrgAff3
OrgAff3 : code = "DocShare-federate-ext"
OrgAff3 : code = "HIEInitiator"
OrgAff3 -u-> NetEnds : endpoint
OrgAff3 -u-> Network : organization
OrgAff3 - -> Community3 : participatingOrganization

object "OrganizationAffiliation" as OrgAff4
OrgAff4 : code = "DocShare-federate-ext"
OrgAff4 : code = "HIEInitiator"
OrgAff4 -u-> NetEnds : endpoint
OrgAff4 -u-> Network : organization
OrgAff4 - -> Community4 : participatingOrganization

object "OrganizationAffiliation" as OrgAff5
OrgAff5 : code = "DocShare-federate-ext"
OrgAff5 : code = "HIEInitiator"
OrgAff5 -u-> NetEnds : endpoint
OrgAff5 -u-> Network : organization
OrgAff5 - -> Community5 : participatingOrganization

object "OrganizationAffiliation" as OrgAff3Resp
OrgAff3Resp : code = "HIEResponder"
OrgAff3Resp - -> RespEnds3
OrgAff3Resp -u-> Network : organization
OrgAff3Resp - -> Community3 : participatingOrganization

object "OrganizationAffiliation" as OrgAff4Resp
OrgAff4Resp : code = "HIEResponder"
OrgAff4Resp - -> RespEnds4
OrgAff4Resp -u-> Network : organization
OrgAff4Resp - -> Community4 : participatingOrganization

object "OrganizationAffiliation" as OrgAff5Resp
OrgAff5Resp : code = "HIEResponder"
OrgAff5Resp - -> RespEnds5
OrgAff5Resp -u-> Network : organization
OrgAff5Resp - -> Community5 : participatingOrganization

@enduml

PlantUML version 1.2022.7(Mon Aug 22 12:01:30 CDT 2022)
(GPL source distribution)
Java Runtime: OpenJDK Runtime Environment
JVM: OpenJDK 64-Bit Server VM
Default Encoding: Cp1252
Language: en
Country: US
--></g></svg>