<?xml version="1.0" encoding="UTF-8" standalone="no"?><svg xmlns="http://www.w3.org/2000/svg" xmlns:xlink="http://www.w3.org/1999/xlink" contentStyleType="text/css" height="434px" preserveAspectRatio="none" style="width:1588px;height:434px;background:#FFFFFF;" version="1.1" viewBox="0 0 1588 434" width="1588px" zoomAndPan="magnify"><defs/><g><g id="elem_Community"><rect fill="#F1F1F1" height="64.8281" style="stroke:#181818;stroke-width:0.5;" width="97" x="405" y="42"/><text fill="#000000" font-family="sans-serif" font-size="14" lengthAdjust="spacing" textLength="70" x="418.5" y="58.5332">Community</text><line style="stroke:#181818;stroke-width:0.5;" x1="406" x2="501" y1="63.6094" y2="63.6094"/><text fill="#000000" font-family="sans-serif" font-size="14" lengthAdjust="spacing" textLength="85" x="411" y="82.1426">OrgID = 1.2.5</text><text fill="#000000" font-family="sans-serif" font-size="14" lengthAdjust="spacing" textLength="80" x="411" y="99.752">HCID = 1.2.5</text></g><g id="elem_OrgA"><rect fill="#F1F1F1" height="47.2188" style="stroke:#181818;stroke-width:0.5;" width="126" x="528.5" y="380"/><text fill="#000000" font-family="sans-serif" font-size="14" lengthAdjust="spacing" textLength="112" x="535.5" y="396.5332">Organization ABC</text><line style="stroke:#181818;stroke-width:0.5;" x1="529.5" x2="653.5" y1="401.6094" y2="401.6094"/><text fill="#000000" font-family="sans-serif" font-size="14" lengthAdjust="spacing" textLength="97" x="534.5" y="420.1426">OrgID = 1.2.5.1</text></g><g id="elem_OrgE"><rect fill="#F1F1F1" height="47.2188" style="stroke:#181818;stroke-width:0.5;" width="127" x="913" y="380"/><text fill="#000000" font-family="sans-serif" font-size="14" lengthAdjust="spacing" textLength="113" x="920" y="396.5332">Organization EFG</text><line style="stroke:#181818;stroke-width:0.5;" x1="914" x2="1039" y1="401.6094" y2="401.6094"/><text fill="#000000" font-family="sans-serif" font-size="14" lengthAdjust="spacing" textLength="97" x="919" y="420.1426">OrgID = 1.2.5.2</text></g><g id="elem_ComEndpointPatDisc"><rect fill="#F1F1F1" height="135.2656" style="stroke:#181818;stroke-width:0.5;" width="274" x="1307.5" y="7"/><text fill="#000000" font-family="sans-serif" font-size="14" lengthAdjust="spacing" textLength="56" x="1416.5" y="23.5332">Endpoint</text><line style="stroke:#181818;stroke-width:0.5;" x1="1308.5" x2="1580.5" y1="28.6094" y2="28.6094"/><text fill="#000000" font-family="sans-serif" font-size="14" lengthAdjust="spacing" textLength="236" x="1313.5" y="47.1426">specificType = "PDQ-Supplier-Query"</text><text fill="#000000" font-family="sans-serif" font-size="14" lengthAdjust="spacing" textLength="136" x="1313.5" y="64.752">identifier = "1.2.5.0.1"</text><text fill="#000000" font-family="sans-serif" font-size="14" lengthAdjust="spacing" textLength="175" x="1313.5" y="82.3613">connectionType = "ihe-pdq"</text><text fill="#000000" font-family="sans-serif" font-size="14" lengthAdjust="spacing" textLength="163" x="1313.5" y="99.9707">purposeOfUse = "TREAT"</text><text fill="#000000" font-family="sans-serif" font-size="14" lengthAdjust="spacing" textLength="102" x="1313.5" y="117.5801">status = "Active"</text><text fill="#000000" font-family="sans-serif" font-size="14" lengthAdjust="spacing" textLength="262" x="1313.5" y="135.1895">address = "https://Community.org/pdq/int"</text></g><g id="elem_ComEndpointDocDisc"><rect fill="#F1F1F1" height="135.2656" style="stroke:#181818;stroke-width:0.5;" width="322" x="537.5" y="7"/><text fill="#000000" font-family="sans-serif" font-size="14" lengthAdjust="spacing" textLength="56" x="670.5" y="23.5332">Endpoint</text><line style="stroke:#181818;stroke-width:0.5;" x1="538.5" x2="858.5" y1="28.6094" y2="28.6094"/><text fill="#000000" font-family="sans-serif" font-size="14" lengthAdjust="spacing" textLength="233" x="543.5" y="47.1426">specificType = "XDS-Registry-Query"</text><text fill="#000000" font-family="sans-serif" font-size="14" lengthAdjust="spacing" textLength="136" x="543.5" y="64.752">identifier = "1.2.5.0.2"</text><text fill="#000000" font-family="sans-serif" font-size="14" lengthAdjust="spacing" textLength="172" x="543.5" y="82.3613">connectionType = "ihe-xds"</text><text fill="#000000" font-family="sans-serif" font-size="14" lengthAdjust="spacing" textLength="163" x="543.5" y="99.9707">purposeOfUse = "TREAT"</text><text fill="#000000" font-family="sans-serif" font-size="14" lengthAdjust="spacing" textLength="102" x="543.5" y="117.5801">status = "Active"</text><text fill="#000000" font-family="sans-serif" font-size="14" lengthAdjust="spacing" textLength="310" x="543.5" y="135.1895">address = "https://Community.org/xds/registry/int"</text></g><g id="elem_ComEndpointDocRet"><rect fill="#F1F1F1" height="135.2656" style="stroke:#181818;stroke-width:0.5;" width="378" x="894.5" y="7"/><text fill="#000000" font-family="sans-serif" font-size="14" lengthAdjust="spacing" textLength="56" x="1055.5" y="23.5332">Endpoint</text><line style="stroke:#181818;stroke-width:0.5;" x1="895.5" x2="1271.5" y1="28.6094" y2="28.6094"/><text fill="#000000" font-family="sans-serif" font-size="14" lengthAdjust="spacing" textLength="263" x="900.5" y="47.1426">specificType = "XDS-Repository-Retrieve"</text><text fill="#000000" font-family="sans-serif" font-size="14" lengthAdjust="spacing" textLength="136" x="900.5" y="64.752">identifier = "1.2.5.0.3"</text><text fill="#000000" font-family="sans-serif" font-size="14" lengthAdjust="spacing" textLength="172" x="900.5" y="82.3613">connectionType = "ihe-xds"</text><text fill="#000000" font-family="sans-serif" font-size="14" lengthAdjust="spacing" textLength="163" x="900.5" y="99.9707">purposeOfUse = "TREAT"</text><text fill="#000000" font-family="sans-serif" font-size="14" lengthAdjust="spacing" textLength="102" x="900.5" y="117.5801">status = "Active"</text><text fill="#000000" font-family="sans-serif" font-size="14" lengthAdjust="spacing" textLength="366" x="900.5" y="135.1895">address = "https://Community.org/xds/repository/query/int"</text></g><g id="elem_ComEndpointSub"><rect fill="#F1F1F1" height="135.2656" style="stroke:#181818;stroke-width:0.5;" width="363" x="7" y="7"/><text fill="#000000" font-family="sans-serif" font-size="14" lengthAdjust="spacing" textLength="56" x="160.5" y="23.5332">Endpoint</text><line style="stroke:#181818;stroke-width:0.5;" x1="8" x2="369" y1="28.6094" y2="28.6094"/><text fill="#000000" font-family="sans-serif" font-size="14" lengthAdjust="spacing" textLength="284" x="13" y="47.1426">specificType = "XDS-Repository-ProvideReg"</text><text fill="#000000" font-family="sans-serif" font-size="14" lengthAdjust="spacing" textLength="136" x="13" y="64.752">identifier = "1.2.5.0.4"</text><text fill="#000000" font-family="sans-serif" font-size="14" lengthAdjust="spacing" textLength="172" x="13" y="82.3613">connectionType = "ihe-xds"</text><text fill="#000000" font-family="sans-serif" font-size="14" lengthAdjust="spacing" textLength="163" x="13" y="99.9707">purposeOfUse = "TREAT"</text><text fill="#000000" font-family="sans-serif" font-size="14" lengthAdjust="spacing" textLength="102" x="13" y="117.5801">status = "Active"</text><text fill="#000000" font-family="sans-serif" font-size="14" lengthAdjust="spacing" textLength="351" x="13" y="135.1895">address = "https://Community.org/xds/repository/pnr/int"</text></g><g id="elem_OrgAffA"><rect fill="#F1F1F1" height="82.4375" style="stroke:#181818;stroke-width:0.5;" width="213" x="485" y="220"/><text fill="#000000" font-family="sans-serif" font-size="14" lengthAdjust="spacing" textLength="137" x="523" y="236.5332">OrganizationAffiliation</text><line style="stroke:#181818;stroke-width:0.5;" x1="486" x2="697" y1="241.6094" y2="241.6094"/><text fill="#000000" font-family="sans-serif" font-size="14" lengthAdjust="spacing" textLength="201" x="491" y="260.1426">code = "DocShare-federate-ext"</text><text fill="#000000" font-family="sans-serif" font-size="14" lengthAdjust="spacing" textLength="198" x="491" y="277.752">code = "DocShare-federate-int"</text><text fill="#000000" font-family="sans-serif" font-size="14" lengthAdjust="spacing" textLength="124" x="491" y="295.3613">code = "HIEInitiator"</text></g><g id="elem_OrgAffE"><rect fill="#F1F1F1" height="82.4375" style="stroke:#181818;stroke-width:0.5;" width="213" x="870" y="220"/><text fill="#000000" font-family="sans-serif" font-size="14" lengthAdjust="spacing" textLength="137" x="908" y="236.5332">OrganizationAffiliation</text><line style="stroke:#181818;stroke-width:0.5;" x1="871" x2="1082" y1="241.6094" y2="241.6094"/><text fill="#000000" font-family="sans-serif" font-size="14" lengthAdjust="spacing" textLength="201" x="876" y="260.1426">code = "DocShare-federate-ext"</text><text fill="#000000" font-family="sans-serif" font-size="14" lengthAdjust="spacing" textLength="198" x="876" y="277.752">code = "DocShare-federate-int"</text><text fill="#000000" font-family="sans-serif" font-size="14" lengthAdjust="spacing" textLength="124" x="876" y="295.3613">code = "HIEInitiator"</text></g><!--MD5=[55ec8e182ff612876e6a58d13b2d73ff]
reverse link ComEndpointPatDisc to OrgAffA--><g id="link_ComEndpointPatDisc_OrgAffA"><path codeLine="49" d="M1302.44,137.43 C1298.09,139.01 1293.77,140.54 1289.5,142 C1102.83,205.85 1047.99,193.39 852.5,220 C801.63,226.92 745.31,235.45 698.05,242.84 " fill="none" id="ComEndpointPatDisc-backto-OrgAffA" style="stroke:#181818;stroke-width:1.0;"/><polygon fill="#181818" points="1307.17,135.7,1297.3436,135.0357,1302.4744,137.4179,1300.0922,142.5487,1307.17,135.7" style="stroke:#181818;stroke-width:1.0;"/><text fill="#000000" font-family="sans-serif" font-size="13" lengthAdjust="spacing" textLength="49" x="1192.5" y="186.4951">endpoint</text></g><!--MD5=[3f4426227e45792c1d7e2e791c74d01b]
reverse link ComEndpointDocDisc to OrgAffA--><g id="link_ComEndpointDocDisc_OrgAffA"><path codeLine="50" d="M604.45,146.19 C598.13,154.23 592.64,162.85 588.5,172 C581.81,186.76 581.18,204.38 582.73,219.97 " fill="none" id="ComEndpointDocDisc-backto-OrgAffA" style="stroke:#181818;stroke-width:1.0;"/><polygon fill="#181818" points="607.61,142.28,598.8302,146.7427,604.457,146.1606,605.0391,151.7874,607.61,142.28" style="stroke:#181818;stroke-width:1.0;"/><text fill="#000000" font-family="sans-serif" font-size="13" lengthAdjust="spacing" textLength="49" x="589.5" y="186.4951">endpoint</text></g><!--MD5=[f2c1288485d1256e83b6b01dd8eb6ae8]
reverse link ComEndpointDocRet to OrgAffA--><g id="link_ComEndpointDocRet_OrgAffA"><path codeLine="51" d="M889.28,138.89 C884.99,139.97 880.73,141.01 876.5,142 C790.29,162.28 758.53,132.03 679.5,172 C657.13,183.31 636.97,202.44 621.6,219.98 " fill="none" id="ComEndpointDocRet-backto-OrgAffA" style="stroke:#181818;stroke-width:1.0;"/><polygon fill="#181818" points="894.33,137.61,884.6239,135.9391,889.4827,138.8361,886.5857,143.6948,894.33,137.61" style="stroke:#181818;stroke-width:1.0;"/><text fill="#000000" font-family="sans-serif" font-size="13" lengthAdjust="spacing" textLength="49" x="680.5" y="186.4951">endpoint</text></g><!--MD5=[7496306c91245ccd2742c6d3ff061c9f]
reverse link ComEndpointSub to OrgAffA--><g id="link_ComEndpointSub_OrgAffA"><path codeLine="52" d="M335.24,144.27 C367.87,159.43 402.32,175.34 434.5,190 C455.95,199.78 479.12,210.18 500.89,219.9 " fill="none" id="ComEndpointSub-backto-OrgAffA" style="stroke:#181818;stroke-width:1.0;"/><polygon fill="#181818" points="330.43,142.04,336.8928,149.4718,334.9606,144.1552,340.2772,142.2229,330.43,142.04" style="stroke:#181818;stroke-width:1.0;"/><text fill="#000000" font-family="sans-serif" font-size="13" lengthAdjust="spacing" textLength="49" x="435.5" y="186.4951">endpoint</text></g><!--MD5=[5d72115090cb5878eecadbd2d8d7a4f5]
reverse link Community to OrgAffA--><g id="link_Community_OrgAffA"><path codeLine="53" d="M464.74,112.02 C473.21,135.77 486.47,166.58 504.5,190 C512.78,200.75 523.04,210.86 533.57,219.87 " fill="none" id="Community-backto-OrgAffA" style="stroke:#181818;stroke-width:1.0;"/><polygon fill="#181818" points="463.01,107.06,462.221,116.8772,464.6681,111.7771,469.7683,114.2242,463.01,107.06" style="stroke:#181818;stroke-width:1.0;"/><text fill="#000000" font-family="sans-serif" font-size="13" lengthAdjust="spacing" textLength="70" x="505.5" y="186.4951">organization</text></g><!--MD5=[ef690607909f26fb7da2b2caac147111]
link OrgAffA to OrgA--><g id="link_OrgAffA_OrgA"><path codeLine="54" d="M591.5,302.26 C591.5,325.44 591.5,353.97 591.5,374.66 " fill="none" id="OrgAffA-to-OrgA" style="stroke:#181818;stroke-width:1.0;"/><polygon fill="#181818" points="591.5,379.74,595.5,370.74,591.5,374.74,587.5,370.74,591.5,379.74" style="stroke:#181818;stroke-width:1.0;"/><text fill="#000000" font-family="sans-serif" font-size="13" lengthAdjust="spacing" textLength="143" x="592.5" y="346.4951">participatingOrganization</text></g><!--MD5=[ad4412d13d6f1ce6b24b7c9e5f286cde]
reverse link ComEndpointPatDisc to OrgAffE--><g id="link_ComEndpointPatDisc_OrgAffE"><path codeLine="60" d="M1382.73,145.86 C1364.84,162.58 1344.22,178.79 1322.5,190 C1248.03,228.45 1154.39,245.8 1083.31,253.61 " fill="none" id="ComEndpointPatDisc-backto-OrgAffE" style="stroke:#181818;stroke-width:1.0;"/><polygon fill="#181818" points="1386.75,142.07,1377.468,145.363,1383.1229,145.5115,1382.9744,151.1664,1386.75,142.07" style="stroke:#181818;stroke-width:1.0;"/><text fill="#000000" font-family="sans-serif" font-size="13" lengthAdjust="spacing" textLength="49" x="1351.5" y="186.4951">endpoint</text></g><!--MD5=[4973182b3e72da33f2d00971fd210fe9]
reverse link ComEndpointDocDisc to OrgAffE--><g id="link_ComEndpointDocDisc_OrgAffE"><path codeLine="61" d="M864.49,137.37 C900.76,151.97 930.52,165.25 937.5,172 C950.83,184.9 959.94,203.15 965.97,219.7 " fill="none" id="ComEndpointDocDisc-backto-OrgAffE" style="stroke:#181818;stroke-width:1.0;"/><polygon fill="#181818" points="859.57,135.4,866.4407,142.4564,864.2124,137.257,869.4119,135.0286,859.57,135.4" style="stroke:#181818;stroke-width:1.0;"/><text fill="#000000" font-family="sans-serif" font-size="13" lengthAdjust="spacing" textLength="49" x="952.5" y="186.4951">endpoint</text></g><!--MD5=[1f0b48d050331027b4af2fe3dc509764]
reverse link ComEndpointDocRet to OrgAffE--><g id="link_ComEndpointDocRet_OrgAffE"><path codeLine="62" d="M1057.38,147.21 C1051,161.77 1043.63,176.7 1035.5,190 C1029.28,200.17 1021.65,210.39 1013.95,219.76 " fill="none" id="ComEndpointDocRet-backto-OrgAffE" style="stroke:#181818;stroke-width:1.0;"/><polygon fill="#181818" points="1059.51,142.28,1052.2706,148.9577,1057.5284,146.8705,1059.6155,152.1283,1059.51,142.28" style="stroke:#181818;stroke-width:1.0;"/><text fill="#000000" font-family="sans-serif" font-size="13" lengthAdjust="spacing" textLength="49" x="1046.5" y="186.4951">endpoint</text></g><!--MD5=[aa0b59b3193c101858ba6f608d69ffbb]
reverse link ComEndpointSub to OrgAffE--><g id="link_ComEndpointSub_OrgAffE"><path codeLine="63" d="M375.11,139.28 C379.26,140.24 383.4,141.15 387.5,142 C539.08,173.42 586.58,126.36 734.5,172 C750.09,176.81 751.58,183.39 766.5,190 C799.35,204.56 836.22,217.82 869.79,228.79 " fill="none" id="ComEndpointSub-backto-OrgAffE" style="stroke:#181818;stroke-width:1.0;"/><polygon fill="#181818" points="370.22,138.13,378.0519,144.1017,375.0846,139.2855,379.9008,136.3182,370.22,138.13" style="stroke:#181818;stroke-width:1.0;"/><text fill="#000000" font-family="sans-serif" font-size="13" lengthAdjust="spacing" textLength="49" x="767.5" y="186.4951">endpoint</text></g><!--MD5=[511504e12cca84b155a3b7b8838d96c8]
reverse link Community to OrgAffE--><g id="link_Community_OrgAffE"><path codeLine="64" d="M480.3,111.18 C491.12,122.99 504.58,134.91 519.5,142 C642.93,200.63 695.47,129.96 825.5,172 C827.93,172.78 869.49,197.04 908.39,219.88 " fill="none" id="Community-backto-OrgAffE" style="stroke:#181818;stroke-width:1.0;"/><polygon fill="#181818" points="476.73,107.19,479.7397,116.5677,480.0598,110.9199,485.7076,111.2401,476.73,107.19" style="stroke:#181818;stroke-width:1.0;"/><text fill="#000000" font-family="sans-serif" font-size="13" lengthAdjust="spacing" textLength="70" x="857.5" y="186.4951">organization</text></g><!--MD5=[7a744b9989217bc64e200361f6bda252]
link OrgAffE to OrgE--><g id="link_OrgAffE_OrgE"><path codeLine="65" d="M976.5,302.26 C976.5,325.44 976.5,353.97 976.5,374.66 " fill="none" id="OrgAffE-to-OrgE" style="stroke:#181818;stroke-width:1.0;"/><polygon fill="#181818" points="976.5,379.74,980.5,370.74,976.5,374.74,972.5,370.74,976.5,379.74" style="stroke:#181818;stroke-width:1.0;"/><text fill="#000000" font-family="sans-serif" font-size="13" lengthAdjust="spacing" textLength="143" x="977.5" y="346.4951">participatingOrganization</text></g><!--MD5=[a987bd585f64d5054501f99515aaf781]
@startuml multi_organization_community_directory
hide footbox

object "Community" as Community
Community : OrgID = 1.2.5
Community : HCID = 1.2.5

object "Organization ABC" as OrgA
OrgA : OrgID = 1.2.5.1

object "Organization EFG" as OrgE
OrgE : OrgID = 1.2.5.2

object "Endpoint" as ComEndpointPatDisc
ComEndpointPatDisc : specificType = "PDQ-Supplier-Query"
ComEndpointPatDisc : identifier = "1.2.5.0.1"
ComEndpointPatDisc : connectionType = "ihe-pdq"
ComEndpointPatDisc : purposeOfUse = "TREAT"
ComEndpointPatDisc : status = "Active"
ComEndpointPatDisc : address = "https://Community.org/pdq/int"

object "Endpoint" as ComEndpointDocDisc
ComEndpointDocDisc : specificType = "XDS-Registry-Query"
ComEndpointDocDisc : identifier = "1.2.5.0.2"
ComEndpointDocDisc : connectionType = "ihe-xds"
ComEndpointDocDisc : purposeOfUse = "TREAT"
ComEndpointDocDisc : status = "Active"
ComEndpointDocDisc : address = "https://Community.org/xds/registry/int"

object "Endpoint" as ComEndpointDocRet
ComEndpointDocRet : specificType = "XDS-Repository-Retrieve"
ComEndpointDocRet : identifier = "1.2.5.0.3"
ComEndpointDocRet : connectionType = "ihe-xds"
ComEndpointDocRet : purposeOfUse = "TREAT"
ComEndpointDocRet : status = "Active"
ComEndpointDocRet : address = "https://Community.org/xds/repository/query/int"

object "Endpoint" as ComEndpointSub
ComEndpointSub : specificType = "XDS-Repository-ProvideReg"
ComEndpointSub : identifier = "1.2.5.0.4"
ComEndpointSub : connectionType = "ihe-xds"
ComEndpointSub : purposeOfUse = "TREAT"
ComEndpointSub : status = "Active"
ComEndpointSub : address = "https://Community.org/xds/repository/pnr/int"

object "OrganizationAffiliation" as OrgAffA
OrgAffA : code = "DocShare-federate-ext"
OrgAffA : code = "DocShare-federate-int"
OrgAffA : code = "HIEInitiator"
OrgAffA -u-> ComEndpointPatDisc : endpoint
OrgAffA -u-> ComEndpointDocDisc : endpoint
OrgAffA -u-> ComEndpointDocRet : endpoint
OrgAffA -u-> ComEndpointSub : endpoint
OrgAffA -u-> Community : organization
OrgAffA - -> OrgA : participatingOrganization

object "OrganizationAffiliation" as OrgAffE
OrgAffE : code = "DocShare-federate-ext"
OrgAffE : code = "DocShare-federate-int"
OrgAffE : code = "HIEInitiator"
OrgAffE -u-> ComEndpointPatDisc : endpoint
OrgAffE -u-> ComEndpointDocDisc : endpoint
OrgAffE -u-> ComEndpointDocRet : endpoint
OrgAffE -u-> ComEndpointSub : endpoint
OrgAffE -u-> Community : organization
OrgAffE - -> OrgE : participatingOrganization

@enduml

PlantUML version 1.2022.7(Mon Aug 22 12:01:30 CDT 2022)
(GPL source distribution)
Java Runtime: OpenJDK Runtime Environment
JVM: OpenJDK 64-Bit Server VM
Default Encoding: Cp1252
Language: en
Country: US
--></g></svg>