<?xml version="1.0" encoding="UTF-8" standalone="no"?><svg xmlns="http://www.w3.org/2000/svg" xmlns:xlink="http://www.w3.org/1999/xlink" contentStyleType="text/css" height="1129px" preserveAspectRatio="none" style="width:1486px;height:1129px;background:#FFFFFF;" version="1.1" viewBox="0 0 1486 1129" width="1486px" zoomAndPan="magnify"><defs/><g><line style="stroke:#181818;stroke-width:0.5;stroke-dasharray:5.0,5.0;" x1="40" x2="40" y1="82.6094" y2="1122.9141"/><line style="stroke:#181818;stroke-width:0.5;stroke-dasharray:5.0,5.0;" x1="224.5" x2="224.5" y1="82.6094" y2="1122.9141"/><line style="stroke:#181818;stroke-width:0.5;stroke-dasharray:5.0,5.0;" x1="720" x2="720" y1="82.6094" y2="1122.9141"/><line style="stroke:#181818;stroke-width:0.5;stroke-dasharray:5.0,5.0;" x1="1169.5" x2="1169.5" y1="82.6094" y2="1122.9141"/><line style="stroke:#181818;stroke-width:0.5;stroke-dasharray:5.0,5.0;" x1="1326.5" x2="1326.5" y1="82.6094" y2="1122.9141"/><line style="stroke:#181818;stroke-width:0.5;stroke-dasharray:5.0,5.0;" x1="1448.5" x2="1448.5" y1="82.6094" y2="1122.9141"/><text fill="#000000" font-family="sans-serif" font-size="14" lengthAdjust="spacing" textLength="64" x="5" y="79.5332">Dr. Suwati</text><ellipse cx="40" cy="13.5" fill="#E2E2F0" rx="8" ry="8" style="stroke:#181818;stroke-width:0.5;"/><path d="M40,21.5 L40,48.5 M27,29.5 L53,29.5 M40,48.5 L27,63.5 M40,48.5 L53,63.5 " fill="none" style="stroke:#181818;stroke-width:0.5;"/><rect fill="#E2E2F0" height="31.6094" rx="2.5" ry="2.5" style="stroke:#181818;stroke-width:0.5;" width="109" x="170.5" y="50"/><text fill="#000000" font-family="sans-serif" font-size="14" lengthAdjust="spacing" textLength="95" x="177.5" y="71.5332">New Hope EHR</text><rect fill="#E2E2F0" height="49.2188" rx="2.5" ry="2.5" style="stroke:#181818;stroke-width:0.5;" width="144" x="648" y="32.3906"/><text fill="#000000" font-family="sans-serif" font-size="14" lengthAdjust="spacing" textLength="130" x="655" y="53.9238">Big Health Exchange</text><text fill="#000000" font-family="sans-serif" font-size="14" lengthAdjust="spacing" textLength="57" x="691.5" y="71.5332">Directory</text><rect fill="#E2E2F0" height="31.6094" rx="2.5" ry="2.5" style="stroke:#181818;stroke-width:0.5;" width="143" x="1098.5" y="50"/><text fill="#000000" font-family="sans-serif" font-size="14" lengthAdjust="spacing" textLength="129" x="1105.5" y="71.5332">Valley Region XCDR</text><rect fill="#E2E2F0" height="31.6094" rx="2.5" ry="2.5" style="stroke:#181818;stroke-width:0.5;" width="151" x="1251.5" y="50"/><text fill="#000000" font-family="sans-serif" font-size="14" lengthAdjust="spacing" textLength="137" x="1258.5" y="71.5332">University Health XDR</text><text fill="#000000" font-family="sans-serif" font-size="14" lengthAdjust="spacing" textLength="67" x="1412.5" y="79.5332">Dr. Santos</text><ellipse cx="1449" cy="13.5" fill="#E2E2F0" rx="8" ry="8" style="stroke:#181818;stroke-width:0.5;"/><path d="M1449,21.5 L1449,48.5 M1436,29.5 L1462,29.5 M1449,48.5 L1436,63.5 M1449,48.5 L1462,63.5 " fill="none" style="stroke:#181818;stroke-width:0.5;"/><polygon fill="#181818" points="213,127.3125,223,131.3125,213,135.3125,217,131.3125" style="stroke:#181818;stroke-width:1.0;"/><line style="stroke:#181818;stroke-width:1.0;" x1="40" x2="219" y1="131.3125" y2="131.3125"/><text fill="#000000" font-family="sans-serif" font-size="13" lengthAdjust="spacing" textLength="161" x="47" y="110.1045">"Refer Patient to Dr. Santos</text><text fill="#000000" font-family="sans-serif" font-size="13" lengthAdjust="spacing" textLength="115" x="47" y="126.4561">@University Health"</text><polygon fill="#181818" points="708,157.6641,718,161.6641,708,165.6641,712,161.6641" style="stroke:#181818;stroke-width:1.0;"/><line style="stroke:#181818;stroke-width:1.0;" x1="225" x2="714" y1="161.6641" y2="161.6641"/><text fill="#000000" font-family="sans-serif" font-size="13" lengthAdjust="spacing" textLength="192" x="232" y="156.8076">Search Orgs for University Health</text><polygon fill="#181818" points="236,188.0156,226,192.0156,236,196.0156,232,192.0156" style="stroke:#181818;stroke-width:1.0;"/><line style="stroke:#181818;stroke-width:1.0;stroke-dasharray:2.0,2.0;" x1="230" x2="719" y1="192.0156" y2="192.0156"/><text fill="#000000" font-family="sans-serif" font-size="13" lengthAdjust="spacing" textLength="65" x="242" y="187.1592">Org 1.2.3.3</text><polygon fill="#181818" points="708,218.3672,718,222.3672,708,226.3672,712,222.3672" style="stroke:#181818;stroke-width:1.0;"/><line style="stroke:#181818;stroke-width:1.0;" x1="225" x2="714" y1="222.3672" y2="222.3672"/><text fill="#000000" font-family="sans-serif" font-size="13" lengthAdjust="spacing" textLength="202" x="232" y="217.5107">Search Practitioners for Dr. Santos</text><polygon fill="#181818" points="236,248.7188,226,252.7188,236,256.7188,232,252.7188" style="stroke:#181818;stroke-width:1.0;"/><line style="stroke:#181818;stroke-width:1.0;stroke-dasharray:2.0,2.0;" x1="230" x2="719" y1="252.7188" y2="252.7188"/><text fill="#000000" font-family="sans-serif" font-size="13" lengthAdjust="spacing" textLength="97" x="242" y="247.8623">Return Resource</text><polygon fill="#181818" points="708,295.4219,718,299.4219,708,303.4219,712,299.4219" style="stroke:#181818;stroke-width:1.0;"/><line style="stroke:#181818;stroke-width:1.0;" x1="225" x2="714" y1="299.4219" y2="299.4219"/><text fill="#000000" font-family="sans-serif" font-size="13" lengthAdjust="spacing" textLength="159" x="232" y="278.2139">Search for Practitioner Role</text><text fill="#000000" font-family="sans-serif" font-size="13" lengthAdjust="spacing" textLength="247" x="232" y="294.5654">Connecting Dr. Santos to University Health</text><polygon fill="#181818" points="236,325.7734,226,329.7734,236,333.7734,232,329.7734" style="stroke:#181818;stroke-width:1.0;"/><line style="stroke:#181818;stroke-width:1.0;stroke-dasharray:2.0,2.0;" x1="230" x2="719" y1="329.7734" y2="329.7734"/><text fill="#000000" font-family="sans-serif" font-size="13" lengthAdjust="spacing" textLength="138" x="242" y="324.917">Return Practitioner Role</text><path d="M40,342.7734 L40,368.7734 L409,368.7734 L409,352.7734 L399,342.7734 L40,342.7734 " fill="#FEFFDD" style="stroke:#181818;stroke-width:0.5;"/><path d="M399,342.7734 L399,352.7734 L409,352.7734 L399,342.7734 " fill="#FEFFDD" style="stroke:#181818;stroke-width:0.5;"/><text fill="#000000" font-family="sans-serif" font-size="13" lengthAdjust="spacing" textLength="348" x="46" y="361.2686">Dr. Santos practices at University Health. Need an endpoint.</text><polygon fill="#181818" points="708,408.8281,718,412.8281,708,416.8281,712,412.8281" style="stroke:#181818;stroke-width:1.0;"/><line style="stroke:#181818;stroke-width:1.0;" x1="225" x2="714" y1="412.8281" y2="412.8281"/><text fill="#000000" font-family="sans-serif" font-size="13" lengthAdjust="spacing" textLength="327" x="232" y="391.6201">Search for OrganizationAffiliation where University Health</text><text fill="#000000" font-family="sans-serif" font-size="13" lengthAdjust="spacing" textLength="157" x="232" y="407.9717">is participatingOrganization</text><polygon fill="#181818" points="236,439.1797,226,443.1797,236,447.1797,232,443.1797" style="stroke:#181818;stroke-width:1.0;"/><line style="stroke:#181818;stroke-width:1.0;stroke-dasharray:2.0,2.0;" x1="230" x2="719" y1="443.1797" y2="443.1797"/><text fill="#000000" font-family="sans-serif" font-size="13" lengthAdjust="spacing" textLength="112" x="242" y="438.3232">: Return Resources</text><path d="M67,456.1797 L67,498.1797 L382,498.1797 L382,466.1797 L372,456.1797 L67,456.1797 " fill="#FEFFDD" style="stroke:#181818;stroke-width:0.5;"/><path d="M372,456.1797 L372,466.1797 L382,466.1797 L372,456.1797 " fill="#FEFFDD" style="stroke:#181818;stroke-width:0.5;"/><text fill="#000000" font-family="sans-serif" font-size="13" lengthAdjust="spacing" textLength="294" x="73" y="474.6748">University Health is a Responder for Valley Region.</text><text fill="#000000" font-family="sans-serif" font-size="13" lengthAdjust="spacing" textLength="246" x="73" y="491.0264">Is New Hope Medical Partners an Initiator?</text><polygon fill="#181818" points="708,522.2344,718,526.2344,708,530.2344,712,526.2344" style="stroke:#181818;stroke-width:1.0;"/><line style="stroke:#181818;stroke-width:1.0;" x1="225" x2="714" y1="526.2344" y2="526.2344"/><text fill="#000000" font-family="sans-serif" font-size="13" lengthAdjust="spacing" textLength="398" x="232" y="521.3779">Search for OrganizationAffiliation where Valley Region is organization</text><polygon fill="#181818" points="236,552.5859,226,556.5859,236,560.5859,232,556.5859" style="stroke:#181818;stroke-width:1.0;"/><line style="stroke:#181818;stroke-width:1.0;stroke-dasharray:2.0,2.0;" x1="230" x2="719" y1="556.5859" y2="556.5859"/><text fill="#000000" font-family="sans-serif" font-size="13" lengthAdjust="spacing" textLength="104" x="242" y="551.7295">Return Resources</text><path d="M85,569.5859 L85,611.5859 L365,611.5859 L365,579.5859 L355,569.5859 L85,569.5859 " fill="#FEFFDD" style="stroke:#181818;stroke-width:0.5;"/><path d="M355,569.5859 L355,579.5859 L365,579.5859 L355,569.5859 " fill="#FEFFDD" style="stroke:#181818;stroke-width:0.5;"/><text fill="#000000" font-family="sans-serif" font-size="13" lengthAdjust="spacing" textLength="259" x="91" y="588.0811">Not a member. Valley Region also federates.</text><text fill="#000000" font-family="sans-serif" font-size="13" lengthAdjust="spacing" textLength="195" x="91" y="604.4326">Is there access to Valley Region?</text><polygon fill="#181818" points="708,635.6406,718,639.6406,708,643.6406,712,639.6406" style="stroke:#181818;stroke-width:1.0;"/><line style="stroke:#181818;stroke-width:1.0;" x1="225" x2="714" y1="639.6406" y2="639.6406"/><text fill="#000000" font-family="sans-serif" font-size="13" lengthAdjust="spacing" textLength="471" x="232" y="634.7842">Search for OrganizationAffiliation where Valley Region is participatingOrganization</text><polygon fill="#181818" points="236,665.9922,226,669.9922,236,673.9922,232,669.9922" style="stroke:#181818;stroke-width:1.0;"/><line style="stroke:#181818;stroke-width:1.0;stroke-dasharray:2.0,2.0;" x1="230" x2="719" y1="669.9922" y2="669.9922"/><text fill="#000000" font-family="sans-serif" font-size="13" lengthAdjust="spacing" textLength="104" x="242" y="665.1357">Return Resources</text><polygon fill="#181818" points="708,696.3438,718,700.3438,708,704.3438,712,700.3438" style="stroke:#181818;stroke-width:1.0;"/><line style="stroke:#181818;stroke-width:1.0;" x1="225" x2="714" y1="700.3438" y2="700.3438"/><text fill="#000000" font-family="sans-serif" font-size="13" lengthAdjust="spacing" textLength="433" x="232" y="695.4873">Search for OrganiztionAffiliation where Big Health Exchange is organization</text><polygon fill="#181818" points="236,726.6953,226,730.6953,236,734.6953,232,730.6953" style="stroke:#181818;stroke-width:1.0;"/><line style="stroke:#181818;stroke-width:1.0;stroke-dasharray:2.0,2.0;" x1="230" x2="719" y1="730.6953" y2="730.6953"/><text fill="#000000" font-family="sans-serif" font-size="13" lengthAdjust="spacing" textLength="104" x="242" y="725.8389">Return Resources</text><path d="M79,743.6953 L79,785.6953 L370,785.6953 L370,753.6953 L360,743.6953 L79,743.6953 " fill="#FEFFDD" style="stroke:#181818;stroke-width:0.5;"/><path d="M360,743.6953 L360,753.6953 L370,753.6953 L360,743.6953 " fill="#FEFFDD" style="stroke:#181818;stroke-width:0.5;"/><text fill="#000000" font-family="sans-serif" font-size="13" lengthAdjust="spacing" textLength="270" x="85" y="762.1904">New Hope can Initiate in Big Health Exchange,</text><text fill="#000000" font-family="sans-serif" font-size="13" lengthAdjust="spacing" textLength="171" x="85" y="778.542">and Valley Region Responds.</text><polygon fill="#181818" points="1158,809.75,1168,813.75,1158,817.75,1162,813.75" style="stroke:#181818;stroke-width:1.0;"/><line style="stroke:#181818;stroke-width:1.0;" x1="225" x2="1164" y1="813.75" y2="813.75"/><text fill="#000000" font-family="sans-serif" font-size="13" lengthAdjust="spacing" textLength="470" x="232" y="808.8936">Transmit Referral. HCID=1.2.3; intendedRecipient=dr.santos@universityhealth.org</text><path d="M1049,826.75 L1049,852.75 L1291,852.75 L1291,836.75 L1281,826.75 L1049,826.75 " fill="#FEFFDD" style="stroke:#181818;stroke-width:0.5;"/><path d="M1281,826.75 L1281,836.75 L1291,836.75 L1281,826.75 " fill="#FEFFDD" style="stroke:#181818;stroke-width:0.5;"/><text fill="#000000" font-family="sans-serif" font-size="13" lengthAdjust="spacing" textLength="221" x="1055" y="845.2451">Message destined for this community.</text><polygon fill="#181818" points="731,876.4531,721,880.4531,731,884.4531,727,880.4531" style="stroke:#181818;stroke-width:1.0;"/><line style="stroke:#181818;stroke-width:1.0;" x1="725" x2="1169" y1="880.4531" y2="880.4531"/><text fill="#000000" font-family="sans-serif" font-size="13" lengthAdjust="spacing" textLength="426" x="737" y="875.5967">Search for PractitionerRole with telecom = dr.santos@universityhealth.org</text><polygon fill="#181818" points="1158,906.8047,1168,910.8047,1158,914.8047,1162,910.8047" style="stroke:#181818;stroke-width:1.0;"/><line style="stroke:#181818;stroke-width:1.0;stroke-dasharray:2.0,2.0;" x1="720" x2="1164" y1="910.8047" y2="910.8047"/><text fill="#000000" font-family="sans-serif" font-size="13" lengthAdjust="spacing" textLength="97" x="727" y="905.9482">Return Resource</text><path d="M1043,923.8047 L1043,949.8047 L1297,949.8047 L1297,933.8047 L1287,923.8047 L1043,923.8047 " fill="#FEFFDD" style="stroke:#181818;stroke-width:0.5;"/><path d="M1287,923.8047 L1287,933.8047 L1297,933.8047 L1287,923.8047 " fill="#FEFFDD" style="stroke:#181818;stroke-width:0.5;"/><text fill="#000000" font-family="sans-serif" font-size="13" lengthAdjust="spacing" textLength="233" x="1049" y="942.2998">Message should go to University Health.</text><polygon fill="#181818" points="1315,973.5078,1325,977.5078,1315,981.5078,1319,977.5078" style="stroke:#181818;stroke-width:1.0;"/><line style="stroke:#181818;stroke-width:1.0;" x1="1170" x2="1321" y1="977.5078" y2="977.5078"/><text fill="#000000" font-family="sans-serif" font-size="13" lengthAdjust="spacing" textLength="103" x="1177" y="972.6514">Forward message</text><path d="M1215,990.5078 L1215,1016.5078 L1438,1016.5078 L1438,1000.5078 L1428,990.5078 L1215,990.5078 " fill="#FEFFDD" style="stroke:#181818;stroke-width:0.5;"/><path d="M1428,990.5078 L1428,1000.5078 L1438,1000.5078 L1428,990.5078 " fill="#FEFFDD" style="stroke:#181818;stroke-width:0.5;"/><text fill="#000000" font-family="sans-serif" font-size="13" lengthAdjust="spacing" textLength="202" x="1221" y="1009.0029">Message addressed to Dr. Santos.</text><polygon fill="#181818" points="1437,1040.2109,1447,1044.2109,1437,1048.2109,1441,1044.2109" style="stroke:#181818;stroke-width:1.0;"/><line style="stroke:#181818;stroke-width:1.0;" x1="1327" x2="1443" y1="1044.2109" y2="1044.2109"/><text fill="#000000" font-family="sans-serif" font-size="13" lengthAdjust="spacing" textLength="95" x="1334" y="1039.3545">Deliver message</text><polygon fill="#181818" points="1181,1070.5625,1171,1074.5625,1181,1078.5625,1177,1074.5625" style="stroke:#181818;stroke-width:1.0;"/><line style="stroke:#181818;stroke-width:1.0;stroke-dasharray:2.0,2.0;" x1="1175" x2="1326" y1="1074.5625" y2="1074.5625"/><text fill="#000000" font-family="sans-serif" font-size="13" lengthAdjust="spacing" textLength="91" x="1187" y="1069.7061">Return success</text><polygon fill="#181818" points="236,1100.9141,226,1104.9141,236,1108.9141,232,1104.9141" style="stroke:#181818;stroke-width:1.0;"/><line style="stroke:#181818;stroke-width:1.0;stroke-dasharray:2.0,2.0;" x1="230" x2="1169" y1="1104.9141" y2="1104.9141"/><text fill="#000000" font-family="sans-serif" font-size="13" lengthAdjust="spacing" textLength="91" x="242" y="1100.0576">Return success</text><!--MD5=[d30826a9e0759e4b91c1a7de8bc5fefe]
@startuml push-sequence
hide footbox

actor "Dr. Suwati" as actor1
participant "New Hope EHR" as ehr
participant "Big Health Exchange\nDirectory" as dir
participant "Valley Region XCDR" as xcdr
participant "University Health XDR" as xdr
actor "Dr. Santos" as actor2

actor1 -> ehr: "Refer Patient to Dr. Santos\n@University Health"
ehr -> dir: Search Orgs for University Health
dir - -> ehr: Org 1.2.3.3
ehr -> dir : Search Practitioners for Dr. Santos
dir - -> ehr : Return Resource
ehr -> dir : Search for Practitioner Role\nConnecting Dr. Santos to University Health
dir - -> ehr : Return Practitioner Role

note over ehr : Dr. Santos practices at University Health. Need an endpoint.

ehr -> dir: Search for OrganizationAffiliation where University Health\nis participatingOrganization
dir - -> ehr: : Return Resources

note over ehr : University Health is a Responder for Valley Region.\nIs New Hope Medical Partners an Initiator?

ehr -> dir : Search for OrganizationAffiliation where Valley Region is organization
dir - -> ehr : Return Resources

note over ehr : Not a member. Valley Region also federates.\nIs there access to Valley Region?

ehr -> dir : Search for OrganizationAffiliation where Valley Region is participatingOrganization
dir - -> ehr : Return Resources
ehr -> dir : Search for OrganiztionAffiliation where Big Health Exchange is organization
dir - -> ehr : Return Resources

note over ehr : New Hope can Initiate in Big Health Exchange,\nand Valley Region Responds. 

ehr -> xcdr : Transmit Referral. HCID=1.2.3; intendedRecipient=dr.santos@universityhealth.org

note over xcdr : Message destined for this community.

xcdr -> dir : Search for PractitionerRole with telecom = dr.santos@universityhealth.org
dir - -> xcdr : Return Resource

note over xcdr : Message should go to University Health.

xcdr -> xdr : Forward message

note over xdr : Message addressed to Dr. Santos.

xdr -> actor2 : Deliver message

xdr - -> xcdr : Return success
xcdr - -> ehr : Return success

@enduml

PlantUML version 1.2022.7(Mon Aug 22 12:01:30 CDT 2022)
(GPL source distribution)
Java Runtime: OpenJDK Runtime Environment
JVM: OpenJDK 64-Bit Server VM
Default Encoding: Cp1252
Language: en
Country: US
--></g></svg>