<?xml version="1.0" encoding="UTF-8" standalone="no"?><svg xmlns="http://www.w3.org/2000/svg" xmlns:xlink="http://www.w3.org/1999/xlink" contentStyleType="text/css" height="141px" preserveAspectRatio="none" style="width:261px;height:141px;background:#FFFFFF;" version="1.1" viewBox="0 0 261 141" width="261px" zoomAndPan="magnify"><defs/><g><rect fill="none" height="27.6094" id="_title" style="stroke:none;stroke-width:1.0;" width="243" x="5" y="5"/><text fill="#000000" font-family="sans-serif" font-size="14" font-weight="bold" lengthAdjust="spacing" textLength="233" x="10" y="24.5332">Single Affinity Domain Community</text><!--MD5=[d29ba9a0f2edbc88a4a47adb820d6234]
cluster community--><g id="cluster_community"><path d="M40,44.6094 L216,44.6094 A3.75,3.75 0 0 1 218.5,47.1094 L225.5,68.2188 L226,68.2188 A2.5,2.5 0 0 1 228.5,70.7188 L228.5,132.1094 A2.5,2.5 0 0 1 226,134.6094 L40,134.6094 A2.5,2.5 0 0 1 37.5,132.1094 L37.5,47.1094 A2.5,2.5 0 0 1 40,44.6094 " fill="none" style="stroke:#000000;stroke-width:1.5;"/><line style="stroke:#000000;stroke-width:1.5;" x1="37.5" x2="225.5" y1="68.2188" y2="68.2188"/><text fill="#000000" font-family="sans-serif" font-size="14" font-weight="bold" lengthAdjust="spacing" textLength="175" x="41.5" y="61.1426">Home Community ID 1.2.3</text></g><!--MD5=[e909e445468f1f85f30d80679f5d4b51]
entity org--><g id="elem_org"><rect fill="#F1F1F1" height="37.6094" rx="2.5" ry="2.5" style="stroke:#181818;stroke-width:0.5;" width="132" x="66.5" y="80.6094"/><text fill="#000000" font-family="sans-serif" font-size="14" lengthAdjust="spacing" textLength="112" x="76.5" y="105.1426">Organization ABC</text></g><!--MD5=[cad06b94361f04d7e73df82c7788a8e8]
@startuml single_community
title "Single Affinity Domain Community"
skinparam linetype ortho
package "Home Community ID 1.2.3" as community {
    rectangle "Organization ABC" as org {
    }
}

@enduml

PlantUML version 1.2022.7(Mon Aug 22 12:01:30 CDT 2022)
(GPL source distribution)
Java Runtime: OpenJDK Runtime Environment
JVM: OpenJDK 64-Bit Server VM
Default Encoding: Cp1252
Language: en
Country: US
--></g></svg>