<?xml version="1.0" encoding="UTF-8" standalone="no"?>
<!DOCTYPE svg PUBLIC "-//W3C//DTD SVG 1.0//EN" "http://www.w3.org/TR/2001/PR-SVG-20010719/DTD/svg10.dtd">
<svg width="39cm" height="5cm" viewBox="138 118 766 84" xmlns="http://www.w3.org/2000/svg" xmlns:xlink="http://www.w3.org/1999/xlink">
  <g>
    <rect style="fill: #ffffff" x="140" y="120" width="183" height="81"/>
    <rect style="fill: none; fill-opacity:0; stroke-width: 2; stroke: #000000" x="140" y="120" width="183" height="81"/>
  </g>
  <text font-size="12.8" style="fill: #000000;text-anchor:start;font-family:sans-serif;font-style:normal;font-weight:normal" x="231.5" y="160.5">
    <tspan x="231.5" y="160.5"></tspan>
  </text>
  <text font-size="16.9333" style="fill: #000000;text-anchor:middle;font-family:sans-serif;font-style:normal;font-weight:normal" x="231.5" y="155.545">
    <tspan x="231.5" y="155.545">Authorization </tspan>
    <tspan x="231.5" y="176.711">Decisions Verifier</tspan>
  </text>
  <g>
    <rect style="fill: #ffffff" x="720" y="120" width="183" height="81"/>
    <rect style="fill: none; fill-opacity:0; stroke-width: 2; stroke: #000000" x="720" y="120" width="183" height="81"/>
  </g>
  <text font-size="12.8" style="fill: #000000;text-anchor:start;font-family:sans-serif;font-style:normal;font-weight:normal" x="811.5" y="160.5">
    <tspan x="811.5" y="160.5"></tspan>
  </text>
  <text font-size="16.9333" style="fill: #000000;text-anchor:middle;font-family:sans-serif;font-style:normal;font-weight:normal" x="811.5" y="155.545">
    <tspan x="811.5" y="155.545">Authorization </tspan>
    <tspan x="811.5" y="176.711">Decisions Manager</tspan>
  </text>
  <g>
    <line style="fill: none; fill-opacity:0; stroke-width: 2; stroke: #000000" x1="323" y1="160.5" x2="710.264" y2="160.5"/>
    <polygon style="fill: #000000" points="717.764,160.5 707.764,165.5 710.264,160.5 707.764,155.5 "/>
    <polygon style="fill: none; fill-opacity:0; stroke-width: 2; stroke: #000000" points="717.764,160.5 707.764,165.5 710.264,160.5 707.764,155.5 "/>
  </g>
  <text font-size="16.9333" style="fill: #000000;text-anchor:middle;font-family:sans-serif;font-style:normal;font-weight:normal" x="520" y="150.875">
    <tspan x="520" y="150.875">[ITI-79] Authorization Decisions Query</tspan>
  </text>
</svg>
