<svg width="1280" height="720" xmlns="http://www.w3.org/2000/svg" xmlns:xlink="http://www.w3.org/1999/xlink" overflow="hidden"><g><rect x="0" y="0" width="1280" height="720" fill="#FFFFFF"/><path d="M388.003 419 965.494 420.685 965.488 422.685 387.997 421ZM958.014 416.133 967.478 421.691 957.981 427.194C957.503 427.471 956.892 427.308 956.615 426.83 956.338 426.352 956.501 425.74 956.979 425.463L964.992 420.82 964.987 422.548 957.001 417.858C956.524 417.578 956.365 416.965 956.645 416.489 956.924 416.013 957.537 415.853 958.014 416.133Z"/><rect x="487.5" y="52.5001" width="404" height="170" stroke="#172C51" stroke-width="1.33333" stroke-miterlimit="8" fill="none"/><text font-family="Calibri,Calibri_MSFontService,sans-serif" font-weight="700" font-size="24" transform="translate(523.088 79)">Content Data Structure Creator</text><rect x="509.5" y="97.5001" width="172" height="97" stroke="#172C51" stroke-width="1.33333" stroke-miterlimit="8" fill="none"/><text font-family="Calibri,Calibri_MSFontService,sans-serif" font-weight="400" font-size="24" transform="translate(572.477 130)">FHIR</text><text font-family="Calibri,Calibri_MSFontService,sans-serif" font-weight="400" font-size="24" transform="translate(534.877 159)">Terminology</text><text font-family="Calibri,Calibri_MSFontService,sans-serif" font-weight="400" font-size="24" transform="translate(559.95 188)">Service</text><rect x="701.5" y="97.5001" width="172" height="97" stroke="#172C51" stroke-width="1.33333" stroke-miterlimit="8" fill="none"/><text font-family="Calibri,Calibri_MSFontService,sans-serif" font-weight="400" font-size="24" transform="translate(765.589 138)">FHIR</text><text font-family="Calibri,Calibri_MSFontService,sans-serif" font-weight="400" font-size="24" transform="translate(745.083 167)">Measure</text><path d="M0.314207-0.949355 7.90904 1.5643 7.28063 3.46301-0.314207 0.949355ZM13.6052 3.44954 21.2 5.96319 20.5716 7.8619 12.9768 5.34825ZM26.8961 7.84844 34.491 10.3621 33.8626 12.2608 26.2677 9.74714ZM40.1871 12.2473 47.7819 14.761 47.1535 16.6597 39.5587 14.146ZM53.4781 16.6462 61.0729 19.1599 60.4445 21.0586 52.8496 18.5449ZM66.769 21.0451 74.3639 23.5588 73.7354 25.4575 66.1406 22.9438ZM80.06 25.444 87.6548 27.9577 87.0264 29.8564 79.4316 27.3427ZM93.351 29.8429 100.946 32.3566 100.317 34.2553 92.7225 31.7416ZM106.642 34.2418 114.237 36.7555 113.608 38.6542 106.014 36.1405ZM119.933 38.6407 127.528 41.1544 126.899 43.0531 119.304 40.5394ZM133.224 43.0396 140.819 45.5532 140.19 47.452 132.595 44.9383ZM146.515 47.4385 154.11 49.9521 153.481 51.8509 145.886 49.3372ZM159.806 51.8374 167.401 54.351 166.772 56.2497 159.177 53.7361ZM173.097 56.2363 180.692 58.7499 180.063 60.6486 172.468 58.135ZM186.388 60.6352 193.983 63.1488 193.354 65.0475 185.759 62.5339ZM199.679 65.0341 207.273 67.5477 206.645 69.4464 199.05 66.9328ZM212.97 69.433 220.564 71.9466 219.936 73.8453 212.341 71.3317ZM226.261 73.8319 233.855 76.3455 233.227 78.2442 225.632 75.7306ZM239.552 78.2308 247.146 80.7444 246.518 82.6431 238.923 80.1295ZM252.842 82.6297 260.437 85.1433 259.809 87.042 252.214 84.5284ZM266.133 87.0286 273.728 89.5422 273.1 91.4409 265.505 88.9273ZM279.424 91.4275 287.019 93.9411 286.391 95.8398 278.796 93.3262ZM292.715 95.8263 298.032 97.586 297.404 99.4847 292.087 97.7251ZM292.338 90.9295 299.601 99.1587 288.863 101.43C288.323 101.544 287.792 101.199 287.678 100.659 287.563 100.118 287.909 99.5878 288.449 99.4735L297.51 97.5568 296.967 99.1969 290.839 92.2529C290.473 91.8388 290.513 91.2069 290.927 90.8414 291.341 90.476 291.973 90.5154 292.338 90.9295Z" transform="matrix(-1 0 0 1 569.597 222)"/><path d="M150.775 388.497 388.636 388.497" stroke="#000000" stroke-width="1.33333" stroke-linejoin="round" stroke-miterlimit="10" fill="none" fill-rule="evenodd"/><path d="M150.775 451.87 388.636 451.87" stroke="#000000" stroke-width="1.33333" stroke-linejoin="round" stroke-miterlimit="10" fill="none" fill-rule="evenodd"/><path d="M150.775 519.07 388.636 519.07" stroke="#000000" stroke-width="1.33333" stroke-linejoin="round" stroke-miterlimit="10" fill="none" fill-rule="evenodd"/><path d="M151.442 320.63 151.442 586.936" stroke="#000000" stroke-width="1.33333" stroke-linejoin="round" stroke-miterlimit="10" fill="none" fill-rule="evenodd"/><path d="M387.969 320.63 387.969 586.936" stroke="#000000" stroke-width="1.33333" stroke-linejoin="round" stroke-miterlimit="10" fill="none" fill-rule="evenodd"/><path d="M150.775 321.297 388.636 321.297" stroke="#000000" stroke-width="1.33333" stroke-linejoin="round" stroke-miterlimit="10" fill="none" fill-rule="evenodd"/><path d="M150.775 586.27 388.636 586.27" stroke="#000000" stroke-width="1.33333" stroke-linejoin="round" stroke-miterlimit="10" fill="none" fill-rule="evenodd"/><text font-family="Calibri,Calibri_MSFontService,sans-serif" font-weight="700" font-size="24" transform="translate(204.049 348)">Content Data</text><text font-family="Calibri,Calibri_MSFontService,sans-serif" font-weight="700" font-size="24" transform="translate(170.422 377)">Structure Consumer</text><text font-family="Calibri,Calibri_MSFontService,sans-serif" font-weight="700" font-size="24" transform="translate(190.432 428)">Content Creator</text><g><text font-family="Calibri,Calibri_MSFontService,sans-serif" font-weight="700" font-size="24" transform="translate(164.989 479)">Care Services Update</text></g><text font-family="Calibri,Calibri_MSFontService,sans-serif" font-weight="700" font-size="24" transform="translate(219.369 508)">Consumer</text><text font-family="Calibri,Calibri_MSFontService,sans-serif" font-weight="700" font-size="24" transform="translate(208.409 546)">Terminology</text><text font-family="Calibri,Calibri_MSFontService,sans-serif" font-weight="700" font-size="24" transform="translate(219.369 575)">Consumer</text><path d="M966.776 388.497 1204.64 388.497" stroke="#000000" stroke-width="1.33333" stroke-linejoin="round" stroke-miterlimit="10" fill="none" fill-rule="evenodd"/><path d="M966.776 451.87 1204.64 451.87" stroke="#000000" stroke-width="1.33333" stroke-linejoin="round" stroke-miterlimit="10" fill="none" fill-rule="evenodd"/><path d="M966.776 519.07 1204.64 519.07" stroke="#000000" stroke-width="1.33333" stroke-linejoin="round" stroke-miterlimit="10" fill="none" fill-rule="evenodd"/><path d="M967.443 320.63 967.443 586.936" stroke="#000000" stroke-width="1.33333" stroke-linejoin="round" stroke-miterlimit="10" fill="none" fill-rule="evenodd"/><path d="M1203.97 320.63 1203.97 586.936" stroke="#000000" stroke-width="1.33333" stroke-linejoin="round" stroke-miterlimit="10" fill="none" fill-rule="evenodd"/><path d="M966.776 321.297 1204.64 321.297" stroke="#000000" stroke-width="1.33333" stroke-linejoin="round" stroke-miterlimit="10" fill="none" fill-rule="evenodd"/><path d="M966.776 586.27 1204.64 586.27" stroke="#000000" stroke-width="1.33333" stroke-linejoin="round" stroke-miterlimit="10" fill="none" fill-rule="evenodd"/><text font-family="Calibri,Calibri_MSFontService,sans-serif" font-weight="700" font-size="24" transform="translate(1020.05 348)">Content Data</text><text font-family="Calibri,Calibri_MSFontService,sans-serif" font-weight="700" font-size="24" transform="translate(986.423 377)">Structure Consumer</text><text font-family="Calibri,Calibri_MSFontService,sans-serif" font-weight="700" font-size="24" transform="translate(993.073 428)">Content Consumer</text><g><text font-family="Calibri,Calibri_MSFontService,sans-serif" font-weight="700" font-size="24" transform="translate(980.989 479)">Care Services Update</text></g><text font-family="Calibri,Calibri_MSFontService,sans-serif" font-weight="700" font-size="24" transform="translate(1035.37 508)">Consumer</text><text font-family="Calibri,Calibri_MSFontService,sans-serif" font-weight="700" font-size="24" transform="translate(1024.41 546)">Terminology</text><text font-family="Calibri,Calibri_MSFontService,sans-serif" font-weight="700" font-size="24" transform="translate(1035.37 575)">Consumer</text><path d="M772.301 221.046 779.93 223.456 779.327 225.364 771.699 222.954ZM785.651 225.264 793.279 227.674 792.677 229.581 785.048 227.171ZM799 229.481 806.629 231.891 806.026 233.799 798.398 231.389ZM812.35 233.699 819.979 236.109 819.376 238.016 811.748 235.606ZM825.7 237.917 833.328 240.327 832.726 242.234 825.097 239.824ZM839.049 242.134 846.678 244.544 846.075 246.451 838.447 244.041ZM852.399 246.352 860.027 248.762 859.425 250.669 851.797 248.259ZM865.749 250.569 873.377 252.979 872.774 254.886 865.146 252.476ZM879.098 254.787 886.727 257.197 886.124 259.104 878.496 256.694ZM892.448 259.004 900.076 261.414 899.474 263.321 891.845 260.911ZM905.797 263.222 913.426 265.632 912.823 267.539 905.195 265.129ZM919.147 267.439 926.776 269.849 926.173 271.756 918.545 269.346ZM932.497 271.657 940.125 274.067 939.523 275.974 931.894 273.564ZM945.846 275.874 953.475 278.284 952.872 280.191 945.244 277.781ZM959.196 280.092 966.824 282.502 966.222 284.409 958.594 281.999ZM972.546 284.309 980.174 286.719 979.572 288.626 971.943 286.216ZM985.895 288.527 993.524 290.937 992.921 292.844 985.293 290.434ZM999.245 292.744 1006.87 295.154 1006.27 297.061 998.642 294.651ZM1012.59 296.962 1020.22 299.372 1019.62 301.279 1011.99 298.869ZM1025.94 301.179 1033.57 303.589 1032.97 305.496 1025.34 303.086ZM1039.29 305.397 1046.92 307.807 1046.32 309.714 1038.69 307.304ZM1052.64 309.614 1060.27 312.024 1059.67 313.931 1052.04 311.521ZM1065.99 313.832 1073.62 316.242 1073.02 318.149 1065.39 315.739ZM1079.34 318.049 1084.27 319.607 1083.67 321.514 1078.74 319.956ZM1078.49 313.029 1085.87 321.159 1075.16 323.576C1074.62 323.698 1074.08 323.36 1073.96 322.821 1073.84 322.282 1074.18 321.747 1074.72 321.625L1083.75 319.585 1083.23 321.233 1077.01 314.373C1076.64 313.964 1076.67 313.331 1077.08 312.96 1077.49 312.589 1078.12 312.62 1078.49 313.029Z"/><rect x="487.5" y="650.5" width="404" height="53" stroke="#172C51" stroke-width="1.33333" stroke-miterlimit="8" fill="none"/><text font-family="Calibri,Calibri_MSFontService,sans-serif" font-weight="700" font-size="24" transform="translate(523.088 684)">Care Services Update Supplier</text><path d="M598.454 650.575 283.744 587.37 284.138 585.409 598.848 648.614ZM290.202 593.288 281.995 585.999 292.38 582.444C292.902 582.265 293.471 582.543 293.65 583.066 293.829 583.588 293.55 584.157 293.027 584.336L284.265 587.336 284.605 585.642 291.53 591.793C291.943 592.16 291.98 592.792 291.613 593.205 291.247 593.617 290.615 593.655 290.202 593.288Z"/><path d="M0.218354-0.97587 282.507 62.1872 282.07 64.1389-0.218354 0.97587ZM276.178 56.1285 284.222 63.5957 273.763 66.9225C273.236 67.0899 272.674 66.799 272.507 66.2727 272.339 65.7464 272.63 65.184 273.156 65.0166L281.982 62.2093 281.605 63.8952 274.817 57.5943C274.412 57.2186 274.389 56.5859 274.764 56.1811 275.14 55.7763 275.773 55.7528 276.178 56.1285Z" transform="matrix(1 0 0 -1 801 649.595)"/><path d="M628.5 349.5 735.333 349.5 746.5 360.667 746.5 416.5 628.5 416.5Z" stroke="#172C51" stroke-width="1.33333" stroke-miterlimit="8" fill="none" fill-rule="evenodd"/><text font-family="Calibri,Calibri_MSFontService,sans-serif" font-weight="400" font-size="21" transform="translate(660.146 379)">mADX</text><text font-family="Calibri,Calibri_MSFontService,sans-serif" font-weight="400" font-size="21" transform="translate(649.239 405)">message</text><path d="M756.5 349.5 863.333 349.5 874.5 360.667 874.5 416.5 756.5 416.5Z" stroke="#172C51" stroke-width="1.33333" stroke-miterlimit="8" fill="none" fill-rule="evenodd"/><text font-family="Calibri,Calibri_MSFontService,sans-serif" font-weight="400" font-size="21" transform="translate(788.023 379)">mADX</text><text font-family="Calibri,Calibri_MSFontService,sans-serif" font-weight="400" font-size="21" transform="translate(777.116 405)">message</text><path d="M501.5 348.5 607.333 348.5 618.5 359.667 618.5 415.5 501.5 415.5Z" stroke="#172C51" stroke-width="1.33333" stroke-miterlimit="8" fill="none" fill-rule="evenodd"/><text font-family="Calibri,Calibri_MSFontService,sans-serif" font-weight="400" font-size="21" transform="translate(532.269 377)">mADX</text><text font-family="Calibri,Calibri_MSFontService,sans-serif" font-weight="400" font-size="21" transform="translate(521.363 403)">message</text></g></svg>