<svg width="1280" height="720" xmlns="http://www.w3.org/2000/svg" xmlns:xlink="http://www.w3.org/1999/xlink" overflow="hidden"><defs><clipPath id="clip0"><rect x="0" y="0" width="1280" height="720"/></clipPath></defs><g clip-path="url(#clip0)"><rect x="0" y="0" width="1280" height="720" fill="#FFFFFF"/><rect x="414.5" y="229.5" width="108" height="257" stroke="#000000" stroke-miterlimit="8" fill="#FFFFFF"/><text font-family="Times New Roman,Times New Roman_MSFontService,sans-serif" font-weight="400" font-size="16" transform="translate(426.6 353)">Terminology <tspan font-size="16" x="6.19333" y="20">Repository</tspan></text><rect x="756.5" y="229.5" width="108" height="257" stroke="#000000" stroke-miterlimit="8" fill="#FFFFFF"/><text font-family="Times New Roman,Times New Roman_MSFontService,sans-serif" font-weight="400" font-size="16" transform="translate(768.145 353)">Terminology <tspan font-size="16" x="8.44" y="20">Consumer</tspan></text><path d="M2.24779e-07-0.5 226.867-0.499898 226.867 0.500102-2.24779e-07 0.5ZM225.533-3.9999 233.533 0.000104987 225.533 4.0001Z" transform="matrix(-1 0 0 1 755.033 272.5)"/><text font-family="Times New Roman,Times New Roman_MSFontService,sans-serif" font-weight="400" font-size="13" transform="translate(563.912 261)">Query Value Set [ITI<tspan font-size="13" x="114.167" y="0">-</tspan>95]<tspan font-size="13" x="-3.30005" y="73">Expand Value Set [ITI</tspan><tspan font-size="13" x="118.2" y="73">-</tspan>97]<tspan font-size="13" x="8.44995" y="105">Lookup Code [ITI</tspan><tspan font-size="13" x="106.45" y="105">-</tspan>98]<tspan font-size="13" x="6.53333" y="136">Validate Code [ITI</tspan><tspan font-size="13" x="108.367" y="136">-</tspan>99]<tspan font-size="13" x="0.950012" y="199">Translate Code [ITI</tspan><tspan font-size="13" x="107.283" y="199">-</tspan>101]<tspan font-size="13" x="-12.9333" y="166">Query Concept Map [ITI</tspan><tspan font-size="13" x="121.233" y="166">-</tspan>100]<tspan font-size="13" x="-8.10004" y="35">Query Code System [ITI</tspan>-96]</text><path d="M2.24779e-07-0.5 226.867-0.499898 226.867 0.500102-2.24779e-07 0.5ZM225.533-3.9999 233.533 0.000104987 225.533 4.0001Z" transform="matrix(-1 0 0 1 756.033 307.5)"/><path d="M2.24779e-07-0.5 226.867-0.499898 226.867 0.500102-2.24779e-07 0.5ZM225.533-3.9999 233.533 0.000104987 225.533 4.0001Z" transform="matrix(-1 0 0 1 756.033 343.5)"/><path d="M2.24779e-07-0.5 226.867-0.499898 226.867 0.500102-2.24779e-07 0.5ZM225.533-3.9999 233.533 0.000104987 225.533 4.0001Z" transform="matrix(-1 0 0 1 756.033 403.5)"/><path d="M2.24779e-07-0.5 226.867-0.499898 226.867 0.500102-2.24779e-07 0.5ZM225.533-3.9999 233.533 0.000104987 225.533 4.0001Z" transform="matrix(-1 0 0 1 757.033 437.5)"/><path d="M2.24779e-07-0.5 226.867-0.499898 226.867 0.500102-2.24779e-07 0.5ZM225.533-3.9999 233.533 0.000104987 225.533 4.0001Z" transform="matrix(-1 0 0 1 755.033 372.5)"/><path d="M2.24779e-07-0.5 226.867-0.499898 226.867 0.500102-2.24779e-07 0.5ZM225.533-3.9999 233.533 0.000104987 225.533 4.0001Z" transform="matrix(-1 0 0 1 757.033 470.5)"/></g></svg>