<?xml version="1.0" encoding="UTF-8" standalone="no"?><svg xmlns="http://www.w3.org/2000/svg" xmlns:xlink="http://www.w3.org/1999/xlink" contentScriptType="application/ecmascript" contentStyleType="text/css" height="321px" preserveAspectRatio="none" style="width:757px;height:321px;" version="1.1" viewBox="0 0 757 321" width="757px" zoomAndPan="magnify"><defs><filter height="300%" id="fzyqimcvx5m7w" width="300%" x="-1" y="-1"><feGaussianBlur result="blurOut" stdDeviation="2.0"/><feColorMatrix in="blurOut" result="blurOut2" type="matrix" values="0 0 0 0 0 0 0 0 0 0 0 0 0 0 0 0 0 0 .4 0"/><feOffset dx="4.0" dy="4.0" in="blurOut2" result="blurOut3"/><feBlend in="SourceGraphic" in2="blurOut3" mode="normal"/></filter></defs><g><rect fill="#FFFFFF" filter="url(#fzyqimcvx5m7w)" height="173.6641" style="stroke: #A80036; stroke-width: 1.0;" width="10" x="92.5" y="117.4297"/><rect fill="#FFFFFF" filter="url(#fzyqimcvx5m7w)" height="72.2656" style="stroke: #A80036; stroke-width: 1.0;" width="10" x="415.5" y="117.4297"/><rect fill="#FFFFFF" filter="url(#fzyqimcvx5m7w)" height="72.2656" style="stroke: #A80036; stroke-width: 1.0;" width="10" x="415.5" y="218.8281"/><rect fill="#FFFFFF" filter="url(#fzyqimcvx5m7w)" height="14" style="stroke: #A80036; stroke-width: 1.0;" width="10" x="660.5" y="146.5625"/><rect fill="#FFFFFF" filter="url(#fzyqimcvx5m7w)" height="14" style="stroke: #A80036; stroke-width: 1.0;" width="10" x="660.5" y="247.9609"/><line style="stroke: #A80036; stroke-width: 1.0; stroke-dasharray: 5.0,5.0;" x1="97" x2="97" y1="86.2969" y2="309.0938"/><line style="stroke: #A80036; stroke-width: 1.0; stroke-dasharray: 5.0,5.0;" x1="420.5" x2="420.5" y1="86.2969" y2="309.0938"/><line style="stroke: #A80036; stroke-width: 1.0; stroke-dasharray: 5.0,5.0;" x1="665" x2="665" y1="86.2969" y2="309.0938"/><text fill="#000000" font-family="sans-serif" font-size="14" lengthAdjust="spacingAndGlyphs" textLength="173" x="8" y="82.9951">Consumer of Documents</text><ellipse cx="97.5" cy="13" fill="#FEFECE" filter="url(#fzyqimcvx5m7w)" rx="8" ry="8" style="stroke: #A80036; stroke-width: 2.0;"/><path d="M97.5,21 L97.5,48 M84.5,29 L110.5,29 M97.5,48 L84.5,63 M97.5,48 L110.5,63 " fill="none" filter="url(#fzyqimcvx5m7w)" style="stroke: #A80036; stroke-width: 2.0;"/><rect fill="#FEFECE" filter="url(#fzyqimcvx5m7w)" height="30.2969" style="stroke: #A80036; stroke-width: 1.5;" width="160" x="338.5" y="51"/><text fill="#000000" font-family="sans-serif" font-size="14" lengthAdjust="spacingAndGlyphs" textLength="146" x="345.5" y="70.9951">Document Consumer</text><rect fill="#FEFECE" filter="url(#fzyqimcvx5m7w)" height="30.2969" style="stroke: #A80036; stroke-width: 1.5;" width="165" x="581" y="51"/><text fill="#000000" font-family="sans-serif" font-size="14" lengthAdjust="spacingAndGlyphs" textLength="151" x="588" y="70.9951">Document Responder</text><rect fill="#FFFFFF" filter="url(#fzyqimcvx5m7w)" height="173.6641" style="stroke: #A80036; stroke-width: 1.0;" width="10" x="92.5" y="117.4297"/><rect fill="#FFFFFF" filter="url(#fzyqimcvx5m7w)" height="72.2656" style="stroke: #A80036; stroke-width: 1.0;" width="10" x="415.5" y="117.4297"/><rect fill="#FFFFFF" filter="url(#fzyqimcvx5m7w)" height="72.2656" style="stroke: #A80036; stroke-width: 1.0;" width="10" x="415.5" y="218.8281"/><rect fill="#FFFFFF" filter="url(#fzyqimcvx5m7w)" height="14" style="stroke: #A80036; stroke-width: 1.0;" width="10" x="660.5" y="146.5625"/><rect fill="#FFFFFF" filter="url(#fzyqimcvx5m7w)" height="14" style="stroke: #A80036; stroke-width: 1.0;" width="10" x="660.5" y="247.9609"/><polygon fill="#A80036" points="403.5,113.4297,413.5,117.4297,403.5,121.4297,407.5,117.4297" style="stroke: #A80036; stroke-width: 1.0;"/><line style="stroke: #A80036; stroke-width: 1.0;" x1="102.5" x2="409.5" y1="117.4297" y2="117.4297"/><text fill="#000000" font-family="sans-serif" font-size="13" lengthAdjust="spacingAndGlyphs" textLength="150" x="109.5" y="112.3638">1. User Initiates Search</text><polygon fill="#A80036" points="648.5,142.5625,658.5,146.5625,648.5,150.5625,652.5,146.5625" style="stroke: #A80036; stroke-width: 1.0;"/><line style="stroke: #A80036; stroke-width: 1.0;" x1="425.5" x2="654.5" y1="146.5625" y2="146.5625"/><text fill="#000000" font-family="sans-serif" font-size="13" lengthAdjust="spacingAndGlyphs" textLength="216" x="432.5" y="141.4966">2. Query for available documents</text><polygon fill="#A80036" points="436.5,156.5625,426.5,160.5625,436.5,164.5625,432.5,160.5625" style="stroke: #A80036; stroke-width: 1.0;"/><line style="stroke: #A80036; stroke-width: 1.0; stroke-dasharray: 2.0,2.0;" x1="430.5" x2="664.5" y1="160.5625" y2="160.5625"/><polygon fill="#A80036" points="113.5,185.6953,103.5,189.6953,113.5,193.6953,109.5,189.6953" style="stroke: #A80036; stroke-width: 1.0;"/><line style="stroke: #A80036; stroke-width: 1.0; stroke-dasharray: 2.0,2.0;" x1="107.5" x2="419.5" y1="189.6953" y2="189.6953"/><text fill="#000000" font-family="sans-serif" font-size="13" lengthAdjust="spacingAndGlyphs" textLength="114" x="119.5" y="184.6294">3. Display Results</text><polygon fill="#A80036" points="403.5,214.8281,413.5,218.8281,403.5,222.8281,407.5,218.8281" style="stroke: #A80036; stroke-width: 1.0;"/><line style="stroke: #A80036; stroke-width: 1.0;" x1="102.5" x2="409.5" y1="218.8281" y2="218.8281"/><text fill="#000000" font-family="sans-serif" font-size="13" lengthAdjust="spacingAndGlyphs" textLength="294" x="109.5" y="213.7622">4. User refines specific documents of interest</text><polygon fill="#A80036" points="648.5,243.9609,658.5,247.9609,648.5,251.9609,652.5,247.9609" style="stroke: #A80036; stroke-width: 1.0;"/><line style="stroke: #A80036; stroke-width: 1.0;" x1="425.5" x2="654.5" y1="247.9609" y2="247.9609"/><text fill="#000000" font-family="sans-serif" font-size="13" lengthAdjust="spacingAndGlyphs" textLength="210" x="432.5" y="242.895">5. Retrieve selected documents</text><polygon fill="#A80036" points="436.5,257.9609,426.5,261.9609,436.5,265.9609,432.5,261.9609" style="stroke: #A80036; stroke-width: 1.0;"/><line style="stroke: #A80036; stroke-width: 1.0; stroke-dasharray: 2.0,2.0;" x1="430.5" x2="664.5" y1="261.9609" y2="261.9609"/><polygon fill="#A80036" points="108.5,287.0938,98.5,291.0938,108.5,295.0938,104.5,291.0938" style="stroke: #A80036; stroke-width: 1.0;"/><line style="stroke: #A80036; stroke-width: 1.0; stroke-dasharray: 2.0,2.0;" x1="102.5" x2="419.5" y1="291.0938" y2="291.0938"/><text fill="#000000" font-family="sans-serif" font-size="13" lengthAdjust="spacingAndGlyphs" textLength="193" x="114.5" y="286.0278">6. Display document contents</text><!--MD5=[dd9f108a853500f39bcea929e036d765]
@startuml
hide footbox
actor "Consumer of Documents"
participant "Document Consumer" as DocumentConsumer
participant "Document Responder" as DocumentResponder
"Consumer of Documents" -> "DocumentConsumer" : 1. User Initiates Search
activate "Consumer of Documents"
activate "DocumentConsumer"
"DocumentConsumer" -> "DocumentResponder" : 2. Query for available documents
activate "DocumentResponder"
return
deactivate "DocumentResponder"
"DocumentConsumer" - -> "Consumer of Documents" : 3. Display Results
deactivate "DocumentConsumer"
"Consumer of Documents" -> "DocumentConsumer" : 4. User refines specific documents of interest
activate "DocumentConsumer"
"DocumentConsumer" -> "DocumentResponder" : 5. Retrieve selected documents
activate "DocumentResponder"
return
deactivate "DocumentResponder"
"DocumentConsumer" - -> "Consumer of Documents" : 6. Display document contents
deactivate "Consumer of Documents"
deactivate "DocumentConsumer"
@enduml

PlantUML version 1.2020.09beta15(Unknown compile time)
(GPL source distribution)
Java Runtime: Java(TM) SE Runtime Environment
JVM: Java HotSpot(TM) 64-Bit Server VM
Java Version: 14.0.1+7
Operating System: Linux
Default Encoding: UTF-8
Language: en
Country: US
--></g></svg>