<svg width="1892" height="1255" xmlns="http://www.w3.org/2000/svg" xmlns:xlink="http://www.w3.org/1999/xlink" overflow="hidden"><defs><clipPath id="clip0"><rect x="0" y="-4" width="1892" height="1255"/></clipPath></defs><g clip-path="url(#clip0)" transform="matrix(1 0 0 1 0 4)"><rect x="92.5" y="423.5" width="1410" height="333" stroke="#000000" stroke-width="3.4375" stroke-miterlimit="8" stroke-dasharray="3.4375 3.4375" fill="none"/><text font-family="Times New Roman,Times New Roman_MSFontService,sans-serif" font-weight="400" font-size="37" transform="matrix(1 0 0 1 124.668 474)">PDQm Implementation grouped as a façade </text><path d="M1137.5 56.4999 1137.75 658.083" stroke="#000000" stroke-width="6.875" stroke-linejoin="round" stroke-miterlimit="10" fill="none" fill-rule="evenodd"/><path d="M505.5 658.5 505.753 1071.01" stroke="#000000" stroke-width="6.875" stroke-linejoin="round" stroke-miterlimit="10" fill="none" fill-rule="evenodd"/><rect x="189.5" y="507.5" width="628" height="196" stroke="#000000" stroke-width="9.16667" stroke-miterlimit="8" fill="#FFFFFF"/><text font-family="Times New Roman,Times New Roman_MSFontService,sans-serif" font-weight="400" font-size="55" transform="matrix(1 0 0 1 259.276 574)">Patient Demographics <tspan font-size="55" x="150.425" y="64">Supplier</tspan></text><rect x="176.5" y="1012.5" width="654" height="205" stroke="#000000" stroke-width="9.16667" stroke-miterlimit="8" fill="#FFFFFF"/><text font-family="Times New Roman,Times New Roman_MSFontService,sans-serif" font-weight="400" font-size="55" transform="matrix(1 0 0 1 259.276 1079)">Patient Demographics <tspan font-size="55" x="130.579" y="64">Consumer</tspan><tspan font-family="Symbol,Symbol_MSFontService,sans-serif" font-size="50" x="267.814" y="-272"></tspan><tspan font-size="50" x="310.828" y="-272">Mobile Patient </tspan><tspan font-size="50" x="267.814" y="-214">Demographics Query </tspan><tspan font-size="50" x="267.814" y="-156">[ITI</tspan><tspan font-size="50" x="349.008" y="-156">-</tspan><tspan font-size="50" x="365.805" y="-156">78]</tspan></text><rect x="817.5" y="507.5" width="628" height="196" stroke="#000000" stroke-width="9.16667" stroke-miterlimit="8" fill="#FFFFFF"/><text font-family="Times New Roman,Times New Roman_MSFontService,sans-serif" font-weight="400" font-size="55" transform="matrix(1 0 0 1 887.434 574)">Patient Demographics <tspan font-size="55" x="130.556" y="64">Consumer</tspan></text><rect x="810.5" y="0.499836" width="654" height="206" stroke="#000000" stroke-width="9.16667" stroke-miterlimit="8" fill="#FFFFFF"/><text font-family="Times New Roman,Times New Roman_MSFontService,sans-serif" font-weight="400" font-size="55" transform="matrix(1 0 0 1 893.154 67)">Patient Demographics <tspan font-size="55" x="150.425" y="64">Supplier</tspan><tspan font-family="Symbol,Symbol_MSFontService,sans-serif" font-size="50" x="263.23" y="190"></tspan><tspan font-size="50" x="306.245" y="190">Patient Demographics Query </tspan><tspan font-size="50" x="263.23" y="248">[ITI</tspan><tspan font-size="50" x="344.424" y="248">-</tspan><tspan font-size="50" x="361.222" y="248">21] or Patient Demographics </tspan><tspan font-size="50" x="263.23" y="306">Query for HL7v3 [ITI</tspan><tspan font-size="50" x="709.876" y="306">-</tspan><tspan font-size="50" x="726.674" y="306">47]</tspan></text></g></svg>