<?xml version="1.0" encoding="UTF-8" standalone="no"?><svg xmlns="http://www.w3.org/2000/svg" xmlns:xlink="http://www.w3.org/1999/xlink" contentScriptType="application/ecmascript" contentStyleType="text/css" height="181px" preserveAspectRatio="none" style="width:319px;height:181px;" version="1.1" viewBox="0 0 319 181" width="319px" zoomAndPan="magnify"><defs><filter height="300%" id="flt7l76" width="300%" x="-1" y="-1"><feGaussianBlur result="blurOut" stdDeviation="2.0"/><feColorMatrix in="blurOut" result="blurOut2" type="matrix" values="0 0 0 0 0 0 0 0 0 0 0 0 0 0 0 0 0 0 .4 0"/><feOffset dx="4.0" dy="4.0" in="blurOut2" result="blurOut3"/><feBlend in="SourceGraphic" in2="blurOut3" mode="normal"/></filter></defs><g><!--entity CKR--><rect fill="#FEFECE" filter="url(#flt7l76)" height="55.2188" style="stroke: #A80036; stroke-width: 1.5;" width="138" x="6" y="8"/><text fill="#000000" font-family="sans-serif" font-size="14" lengthAdjust="spacingAndGlyphs" textLength="118" x="16" y="32.5332">Clinical Knowledge</text><text fill="#000000" font-family="sans-serif" font-size="14" lengthAdjust="spacingAndGlyphs" textLength="68" x="16" y="50.1426">Repository</text><!--entity AC--><rect fill="#FEFECE" filter="url(#flt7l76)" height="37.6094" style="stroke: #A80036; stroke-width: 1.5;" width="133" x="179.5" y="16.5"/><text fill="#000000" font-family="sans-serif" font-size="14" lengthAdjust="spacingAndGlyphs" textLength="113" x="189.5" y="41.0332">Artifact Consumer</text><ellipse cx="160.2075" cy="148.9122" fill="#FEFECE" filter="url(#flt7l76)" rx="68.7075" ry="25.9122" style="stroke: #A80036; stroke-width: 1.5;"/><text fill="#000000" font-family="sans-serif" font-size="14" lengthAdjust="spacingAndGlyphs" textLength="101" x="109.7075" y="148.3628">Retrieve Artifact</text><text fill="#000000" font-family="sans-serif" font-size="14" lengthAdjust="spacingAndGlyphs" textLength="58" x="131.2075" y="165.9722">[PCC-X2]</text><path d="M95.3596,63.207 C108.309,80.1934 125.063,102.1706 138.269,119.4941 " fill="none" style="stroke: #A80036; stroke-width: 1.0;"/><polygon fill="#A80036" points="141.546,123.7922,139.27,114.2099,138.5144,119.8161,132.9082,119.0605,141.546,123.7922" style="stroke: #A80036; stroke-width: 1.0;"/><path d="M231.799,54.912 C218.202,72.54 197.496,99.3865 181.807,119.7265 " fill="none" style="stroke: #A80036; stroke-width: 1.0;"/><polygon fill="#A80036" points="178.74,123.703,187.4035,119.0186,181.7933,119.7435,181.0684,114.1333,178.74,123.703" style="stroke: #A80036; stroke-width: 1.0;"/></g></svg>