<?xml version="1.0" encoding="UTF-8" standalone="no"?><svg xmlns="http://www.w3.org/2000/svg" xmlns:xlink="http://www.w3.org/1999/xlink" contentScriptType="application/ecmascript" contentStyleType="text/css" height="182px" preserveAspectRatio="none" style="width:319px;height:182px;" version="1.1" viewBox="0 0 319 182" width="319px" zoomAndPan="magnify"><defs><filter height="300%" id="f3wpa64" width="300%" x="-1" y="-1"><feGaussianBlur result="blurOut" stdDeviation="2.0"/><feColorMatrix in="blurOut" result="blurOut2" type="matrix" values="0 0 0 0 0 0 0 0 0 0 0 0 0 0 0 0 0 0 .4 0"/><feOffset dx="4.0" dy="4.0" in="blurOut2" result="blurOut3"/><feBlend in="SourceGraphic" in2="blurOut3" mode="normal"/></filter></defs><g><!--entity CKR--><rect fill="#FEFECE" filter="url(#f3wpa64)" height="55.2188" style="stroke: #A80036; stroke-width: 1.5;" width="138" x="6" y="8"/><text fill="#000000" font-family="sans-serif" font-size="14" lengthAdjust="spacingAndGlyphs" textLength="118" x="16" y="32.5332">Clinical Knowledge</text><text fill="#000000" font-family="sans-serif" font-size="14" lengthAdjust="spacingAndGlyphs" textLength="68" x="16" y="50.1426">Repository</text><!--entity AC--><rect fill="#FEFECE" filter="url(#f3wpa64)" height="37.6094" style="stroke: #A80036; stroke-width: 1.5;" width="133" x="179.5" y="16.5"/><text fill="#000000" font-family="sans-serif" font-size="14" lengthAdjust="spacingAndGlyphs" textLength="113" x="189.5" y="41.0332">Artifact Consumer</text><ellipse cx="159.9054" cy="149.2385" fill="#FEFECE" filter="url(#f3wpa64)" rx="60.4054" ry="26.2385" style="stroke: #A80036; stroke-width: 1.5;"/><text fill="#000000" font-family="sans-serif" font-size="14" lengthAdjust="spacingAndGlyphs" textLength="87" x="116.4054" y="148.1842">Query Artifact</text><text fill="#000000" font-family="sans-serif" font-size="14" lengthAdjust="spacingAndGlyphs" textLength="58" x="130.9054" y="165.7936">[PCC-71]</text><path d="M95.3596,63.207 C108.399,80.3122 125.297,102.4782 138.546,119.8568 " fill="none" style="stroke: #A80036; stroke-width: 1.0;"/><polygon fill="#A80036" points="141.831,124.166,139.5565,114.5834,138.8,120.1894,133.194,119.433,141.831,124.166" style="stroke: #A80036; stroke-width: 1.0;"/><path d="M231.799,54.912 C218.113,72.656 197.223,99.7402 181.498,120.1271 " fill="none" style="stroke: #A80036; stroke-width: 1.0;"/><polygon fill="#A80036" points="178.426,124.1104,187.0895,119.426,181.4793,120.1509,180.7544,114.5407,178.426,124.1104" style="stroke: #A80036; stroke-width: 1.0;"/></g></svg>