<?xml version="1.0" encoding="UTF-8" standalone="no"?><svg xmlns="http://www.w3.org/2000/svg" xmlns:xlink="http://www.w3.org/1999/xlink" contentScriptType="application/ecmascript" contentStyleType="text/css" height="165px" preserveAspectRatio="none" style="width:178px;height:165px;" version="1.1" viewBox="0 0 178 165" width="178px" zoomAndPan="magnify"><defs><filter height="300%" id="fe8w9o9" width="300%" x="-1" y="-1"><feGaussianBlur result="blurOut" stdDeviation="2.0"/><feColorMatrix in="blurOut" result="blurOut2" type="matrix" values="0 0 0 0 0 0 0 0 0 0 0 0 0 0 0 0 0 0 .4 0"/><feOffset dx="4.0" dy="4.0" in="blurOut2" result="blurOut3"/><feBlend in="SourceGraphic" in2="blurOut3" mode="normal"/></filter></defs><g><!--entity A1--><rect fill="#FEFECE" filter="url(#fe8w9o9)" height="37.6094" style="stroke: #A80036; stroke-width: 1.5;" width="65" x="6" y="8"/><text fill="#000000" font-family="sans-serif" font-size="14" lengthAdjust="spacingAndGlyphs" textLength="45" x="16" y="32.5332">Actor 1</text><!--entity A2--><rect fill="#FEFECE" filter="url(#fe8w9o9)" height="37.6094" style="stroke: #A80036; stroke-width: 1.5;" width="65" x="106" y="8"/><text fill="#000000" font-family="sans-serif" font-size="14" lengthAdjust="spacingAndGlyphs" textLength="45" x="116" y="32.5332">Actor 2</text><ellipse cx="88.4054" cy="132.2385" fill="#FEFECE" filter="url(#fe8w9o9)" rx="60.4054" ry="26.2385" style="stroke: #A80036; stroke-width: 1.5;"/><text fill="#000000" font-family="sans-serif" font-size="14" lengthAdjust="spacingAndGlyphs" textLength="87" x="44.9054" y="131.1842">Transaction 1</text><text fill="#000000" font-family="sans-serif" font-size="14" lengthAdjust="spacingAndGlyphs" textLength="58" x="59.4054" y="148.7936">[PCC-##]</text><path d="M47.439,46.414 C54.8335,61.6471 65.479,83.5768 74.0776,101.2899 " fill="none" style="stroke: #A80036; stroke-width: 1.0;"/><polygon fill="#A80036" points="76.4442,106.1651,76.1123,96.3218,74.2607,101.6671,68.9154,99.8155,76.4442,106.1651" style="stroke: #A80036; stroke-width: 1.0;"/><path d="M129.561,46.414 C122.166,61.6471 111.521,83.5768 102.9224,101.2899 " fill="none" style="stroke: #A80036; stroke-width: 1.0;"/><polygon fill="#A80036" points="100.5558,106.1651,108.0846,99.8155,102.7393,101.6671,100.8877,96.3218,100.5558,106.1651" style="stroke: #A80036; stroke-width: 1.0;"/></g></svg>