<?xml version="1.0" encoding="UTF-8" standalone="no"?><svg xmlns="http://www.w3.org/2000/svg" xmlns:xlink="http://www.w3.org/1999/xlink" contentScriptType="application/ecmascript" contentStyleType="text/css" height="181px" preserveAspectRatio="none" style="width:257px;height:181px;" version="1.1" viewBox="0 0 257 181" width="257px" zoomAndPan="magnify"><defs><filter height="300%" id="fpyy3ej" width="300%" x="-1" y="-1"><feGaussianBlur result="blurOut" stdDeviation="2.0"/><feColorMatrix in="blurOut" result="blurOut2" type="matrix" values="0 0 0 0 0 0 0 0 0 0 0 0 0 0 0 0 0 0 .4 0"/><feOffset dx="4.0" dy="4.0" in="blurOut2" result="blurOut3"/><feBlend in="SourceGraphic" in2="blurOut3" mode="normal"/></filter></defs><g><rect fill="#FFFFFF" filter="url(#fpyy3ej)" height="100.0547" style="stroke: #A80036; stroke-width: 1.0;" width="10" x="34.5" y="71.6094"/><rect fill="#FFFFFF" filter="url(#fpyy3ej)" height="60.3516" style="stroke: #A80036; stroke-width: 1.0;" width="10" x="122.5" y="71.6094"/><rect fill="#FFFFFF" filter="url(#fpyy3ej)" height="69.7031" style="stroke: #A80036; stroke-width: 1.0;" width="10" x="215.5" y="101.9609"/><line style="stroke: #A80036; stroke-width: 1.0; stroke-dasharray: 5.0,5.0;" x1="39" x2="39" y1="39.6094" y2="180.6641"/><line style="stroke: #A80036; stroke-width: 1.0; stroke-dasharray: 5.0,5.0;" x1="127" x2="127" y1="39.6094" y2="180.6641"/><line style="stroke: #A80036; stroke-width: 1.0; stroke-dasharray: 5.0,5.0;" x1="220" x2="220" y1="39.6094" y2="180.6641"/><rect fill="#FEFECE" filter="url(#fpyy3ej)" height="31.6094" style="stroke: #A80036; stroke-width: 1.5;" width="59" x="8" y="3"/><text fill="#000000" font-family="sans-serif" font-size="14" lengthAdjust="spacingAndGlyphs" textLength="45" x="15" y="24.5332">Actor 1</text><rect fill="#FEFECE" filter="url(#fpyy3ej)" height="31.6094" style="stroke: #A80036; stroke-width: 1.5;" width="59" x="96" y="3"/><text fill="#000000" font-family="sans-serif" font-size="14" lengthAdjust="spacingAndGlyphs" textLength="45" x="103" y="24.5332">Actor 2</text><rect fill="#FEFECE" filter="url(#fpyy3ej)" height="31.6094" style="stroke: #A80036; stroke-width: 1.5;" width="59" x="189" y="3"/><text fill="#000000" font-family="sans-serif" font-size="14" lengthAdjust="spacingAndGlyphs" textLength="45" x="196" y="24.5332">Actor 3</text><rect fill="#FFFFFF" filter="url(#fpyy3ej)" height="100.0547" style="stroke: #A80036; stroke-width: 1.0;" width="10" x="34.5" y="71.6094"/><rect fill="#FFFFFF" filter="url(#fpyy3ej)" height="60.3516" style="stroke: #A80036; stroke-width: 1.0;" width="10" x="122.5" y="71.6094"/><rect fill="#FFFFFF" filter="url(#fpyy3ej)" height="69.7031" style="stroke: #A80036; stroke-width: 1.0;" width="10" x="215.5" y="101.9609"/><polygon fill="#A80036" points="110.5,67.6094,120.5,71.6094,110.5,75.6094,114.5,71.6094" style="stroke: #A80036; stroke-width: 1.0;"/><line style="stroke: #A80036; stroke-width: 1.0;" x1="44.5" x2="116.5" y1="71.6094" y2="71.6094"/><text fill="#000000" font-family="sans-serif" font-size="13" lengthAdjust="spacingAndGlyphs" textLength="64" x="51.5" y="67.1045">Message 1</text><polygon fill="#A80036" points="203.5,97.9609,213.5,101.9609,203.5,105.9609,207.5,101.9609" style="stroke: #A80036; stroke-width: 1.0;"/><line style="stroke: #A80036; stroke-width: 1.0;" x1="132.5" x2="209.5" y1="101.9609" y2="101.9609"/><text fill="#000000" font-family="sans-serif" font-size="13" lengthAdjust="spacingAndGlyphs" textLength="64" x="139.5" y="97.4561">Message 2</text><polygon fill="#A80036" points="55.5,158.3125,45.5,162.3125,55.5,166.3125,51.5,162.3125" style="stroke: #A80036; stroke-width: 1.0;"/><line style="stroke: #A80036; stroke-width: 1.0;" x1="49.5" x2="214.5" y1="162.3125" y2="162.3125"/><text fill="#000000" font-family="sans-serif" font-size="13" lengthAdjust="spacingAndGlyphs" textLength="64" x="61.5" y="157.8076">Message 3</text></g></svg>