<?xml version="1.0" encoding="UTF-8" standalone="no"?><svg xmlns="http://www.w3.org/2000/svg" xmlns:xlink="http://www.w3.org/1999/xlink" contentScriptType="application/ecmascript" contentStyleType="text/css" height="199px" preserveAspectRatio="none" style="width:364px;height:199px;" version="1.1" viewBox="0 0 364 199" width="364px" zoomAndPan="magnify"><defs><filter height="300%" id="flbqpjx" width="300%" x="-1" y="-1"><feGaussianBlur result="blurOut" stdDeviation="2.0"/><feColorMatrix in="blurOut" result="blurOut2" type="matrix" values="0 0 0 0 0 0 0 0 0 0 0 0 0 0 0 0 0 0 .4 0"/><feOffset dx="4.0" dy="4.0" in="blurOut2" result="blurOut3"/><feBlend in="SourceGraphic" in2="blurOut3" mode="normal"/></filter></defs><g><rect fill="#FFFFFF" filter="url(#flbqpjx)" height="122.0547" style="stroke: #A80036; stroke-width: 1.0;" width="10" x="50" y="67.2188"/><rect fill="#FFFFFF" filter="url(#flbqpjx)" height="30.3516" style="stroke: #A80036; stroke-width: 1.0;" width="10" x="316" y="89.2188"/><rect fill="#FFFFFF" filter="url(#flbqpjx)" height="30" style="stroke: #A80036; stroke-width: 1.0;" width="10" x="316" y="149.9219"/><line style="stroke: #A80036; stroke-width: 1.0; stroke-dasharray: 5.0,5.0;" x1="55" x2="55" y1="57.2188" y2="198.2734"/><line style="stroke: #A80036; stroke-width: 1.0; stroke-dasharray: 5.0,5.0;" x1="321" x2="321" y1="57.2188" y2="198.2734"/><rect fill="#FEFECE" filter="url(#flbqpjx)" height="49.2188" style="stroke: #A80036; stroke-width: 1.5;" width="90" x="8" y="3"/><text fill="#000000" font-family="sans-serif" font-size="14" lengthAdjust="spacingAndGlyphs" textLength="76" x="15" y="24.5332">Assessment</text><text fill="#000000" font-family="sans-serif" font-size="14" lengthAdjust="spacingAndGlyphs" textLength="66" x="20" y="42.1426">Requestor</text><rect fill="#FEFECE" filter="url(#flbqpjx)" height="49.2188" style="stroke: #A80036; stroke-width: 1.5;" width="72" x="283" y="3"/><text fill="#000000" font-family="sans-serif" font-size="14" lengthAdjust="spacingAndGlyphs" textLength="58" x="290" y="24.5332">Assessor</text><text fill="#000000" font-family="sans-serif" font-size="14" lengthAdjust="spacingAndGlyphs" textLength="0" x="321" y="42.1426"/><rect fill="#FFFFFF" filter="url(#flbqpjx)" height="122.0547" style="stroke: #A80036; stroke-width: 1.0;" width="10" x="50" y="67.2188"/><rect fill="#FFFFFF" filter="url(#flbqpjx)" height="30.3516" style="stroke: #A80036; stroke-width: 1.0;" width="10" x="316" y="89.2188"/><rect fill="#FFFFFF" filter="url(#flbqpjx)" height="30" style="stroke: #A80036; stroke-width: 1.0;" width="10" x="316" y="149.9219"/><polygon fill="#A80036" points="304,85.2188,314,89.2188,304,93.2188,308,89.2188" style="stroke: #A80036; stroke-width: 1.0;"/><line style="stroke: #A80036; stroke-width: 1.0;" x1="60" x2="310" y1="89.2188" y2="89.2188"/><text fill="#000000" font-family="sans-serif" font-size="13" lengthAdjust="spacingAndGlyphs" textLength="192" x="67" y="84.7139">"Request Assessment [PCC-72]"</text><polygon fill="#A80036" points="71,115.5703,61,119.5703,71,123.5703,67,119.5703" style="stroke: #A80036; stroke-width: 1.0;"/><line style="stroke: #A80036; stroke-width: 1.0;" x1="65" x2="320" y1="119.5703" y2="119.5703"/><text fill="#000000" font-family="sans-serif" font-size="13" lengthAdjust="spacingAndGlyphs" textLength="232" x="77" y="115.0654">"Report Assessment (Create) [PCC-73]"</text><polygon fill="#A80036" points="71,145.9219,61,149.9219,71,153.9219,67,149.9219" style="stroke: #A80036; stroke-width: 1.0;"/><line style="stroke: #A80036; stroke-width: 1.0;" x1="65" x2="315" y1="149.9219" y2="149.9219"/><text fill="#000000" font-family="sans-serif" font-size="13" lengthAdjust="spacingAndGlyphs" textLength="235" x="77" y="145.417">"Report Assessment (Update) [PCC-73]"</text></g></svg>